<?xml version="1.0" encoding="utf-8"?>
<!-- Generator: Adobe Illustrator 16.0.0, SVG Export Plug-In . SVG Version: 6.00 Build 0)  -->
<!DOCTYPE svg PUBLIC "-//W3C//DTD SVG 1.1//EN" "http://www.w3.org/Graphics/SVG/1.1/DTD/svg11.dtd">
<svg version="1.1" id="Layer_1" xmlns="http://www.w3.org/2000/svg" xmlns:xlink="http://www.w3.org/1999/xlink" x="0px" y="0px"
	 width="234px" height="153px" viewBox="0 0 234 153" enable-background="new 0 0 234 153" xml:space="preserve">
<rect fill="#FFFFFF" width="234" height="153"/>
<g>
	<g>
		<g>
			<path fill="#FCB131" d="M164.341,64.948c0-12.239-8.574-22.474-20.035-25.038c7.18,5.969,11.761,14.968,11.761,25.038
				c0,10.072-4.581,19.067-11.761,25.034C155.767,87.42,164.341,77.189,164.341,64.948z"/>
			<linearGradient id="SVGID_1_" gradientUnits="userSpaceOnUse" x1="119.8164" y1="81.9502" x2="127.532" y2="98.8804">
				<stop  offset="0" style="stop-color:#FFFCF8"/>
				<stop  offset="0.6746" style="stop-color:#FFF2E1"/>
				<stop  offset="1" style="stop-color:#FFEED6"/>
			</linearGradient>
			<path fill="url(#SVGID_1_)" d="M133.613,90.1c-3.114,1.244-6.514,1.935-10.077,1.935c-5.562,0-10.734-1.679-15.037-4.556
				c-1.85,1.012-3.842,1.801-5.931,2.332c5.659,4.78,12.979,7.664,20.968,7.664c7.897,0,15.133-2.814,20.77-7.492
				c-1.81,0.406-3.692,0.621-5.62,0.621C136.943,90.604,135.246,90.428,133.613,90.1z"/>
			<linearGradient id="SVGID_2_" gradientUnits="userSpaceOnUse" x1="123.4365" y1="42.4175" x2="123.4365" y2="32.4214">
				<stop  offset="0" style="stop-color:#FFFCF8"/>
				<stop  offset="0.15" style="stop-color:#FFFCF8"/>
				<stop  offset="0.3806" style="stop-color:#FFF4E6"/>
				<stop  offset="0.7641" style="stop-color:#FFECD1"/>
				<stop  offset="1" style="stop-color:#FFE9C9"/>
			</linearGradient>
			<path fill="url(#SVGID_2_)" d="M123.536,37.861c3.563,0,6.963,0.688,10.077,1.935c1.633-0.327,3.33-0.504,5.072-0.504
				c1.928,0,3.811,0.22,5.62,0.619c-5.637-4.675-12.872-7.489-20.77-7.489c-7.988,0-15.309,2.882-20.968,7.665
				c2.089,0.534,4.081,1.324,5.931,2.332C112.802,39.541,117.974,37.861,123.536,37.861z"/>
			<path fill="#FFD596" d="M156.066,64.948c0-10.07-4.581-19.069-11.761-25.038c-1.81-0.399-3.692-0.619-5.62-0.619
				c-1.742,0-3.439,0.178-5.072,0.504c9.969,3.997,17.012,13.75,17.012,25.153c0,11.401-7.043,21.155-17.012,25.151
				c1.633,0.328,3.33,0.504,5.072,0.504c1.928,0,3.811-0.215,5.62-0.621C151.485,84.016,156.066,75.02,156.066,64.948z"/>
			<linearGradient id="SVGID_3_" gradientUnits="userSpaceOnUse" x1="116.5132" y1="94.2031" x2="125.5992" y2="83.3749">
				<stop  offset="0" style="stop-color:#FFF9F5"/>
				<stop  offset="0.4425" style="stop-color:#FEE7DA"/>
				<stop  offset="1" style="stop-color:#FCCDB6"/>
			</linearGradient>
			<path fill="url(#SVGID_3_)" d="M117.451,79.35c-2.292,3.372-5.361,6.168-8.952,8.129c4.303,2.877,9.475,4.556,15.037,4.556
				c3.563,0,6.963-0.69,10.077-1.935C126.915,88.756,121.156,84.807,117.451,79.35z"/>
			<linearGradient id="SVGID_4_" gradientUnits="userSpaceOnUse" x1="121.0566" y1="37.8608" x2="121.0566" y2="50.5444">
				<stop  offset="0" style="stop-color:#F9B192"/>
				<stop  offset="0.595" style="stop-color:#F6906B"/>
				<stop  offset="1" style="stop-color:#F47E55"/>
			</linearGradient>
			<path fill="url(#SVGID_4_)" d="M108.499,42.417c3.591,1.96,6.66,4.758,8.952,8.127c3.705-5.456,9.464-9.405,16.162-10.749
				c-3.114-1.247-6.514-1.935-10.077-1.935C117.974,37.861,112.802,39.541,108.499,42.417z"/>
			<linearGradient id="SVGID_5_" gradientUnits="userSpaceOnUse" x1="122.9453" y1="86.085" x2="141.5728" y2="43.2446">
				<stop  offset="0" style="stop-color:#FEC779"/>
				<stop  offset="0.2088" style="stop-color:#FAA860"/>
				<stop  offset="0.587" style="stop-color:#F47639"/>
				<stop  offset="0.8607" style="stop-color:#F05227"/>
				<stop  offset="1" style="stop-color:#EF4123"/>
			</linearGradient>
			<path fill="url(#SVGID_5_)" d="M117.451,50.544c2.792,4.106,4.423,9.063,4.423,14.404c0,5.343-1.631,10.3-4.423,14.401
				c3.705,5.457,9.464,9.406,16.162,10.75c9.969-3.996,17.012-13.75,17.012-25.151c0-11.402-7.043-21.156-17.012-25.153
				C126.915,41.139,121.156,45.088,117.451,50.544z"/>
			<path fill="#ED1C24" d="M91.012,64.948c0-9.973,4.489-18.896,11.557-24.862c-2.031-0.517-4.156-0.795-6.349-0.795
				c-14.167,0-25.653,11.489-25.653,25.657c0,14.171,11.486,25.655,25.653,25.655c2.192,0,4.317-0.277,6.349-0.793
				C95.501,83.844,91.012,74.921,91.012,64.948z"/>
			<linearGradient id="SVGID_6_" gradientUnits="userSpaceOnUse" x1="91.0117" y1="64.9482" x2="108.499" y2="64.9482">
				<stop  offset="0" style="stop-color:#F69679"/>
				<stop  offset="0.2214" style="stop-color:#F8A88D"/>
				<stop  offset="0.6854" style="stop-color:#FDD8C8"/>
				<stop  offset="0.8" style="stop-color:#FEE5D9"/>
				<stop  offset="1" style="stop-color:#FEE5D9"/>
			</linearGradient>
			<path fill="url(#SVGID_6_)" d="M96.449,64.948c0-9.398,4.785-17.674,12.05-22.531c-1.85-1.008-3.842-1.798-5.931-2.332
				c-7.067,5.966-11.557,14.889-11.557,24.862s4.489,18.896,11.557,24.862c2.089-0.531,4.081-1.32,5.931-2.332
				C101.234,82.618,96.449,74.345,96.449,64.948z"/>
			<linearGradient id="SVGID_7_" gradientUnits="userSpaceOnUse" x1="115.916" y1="84.7793" x2="101.4336" y2="44.9892">
				<stop  offset="0" style="stop-color:#FFF8F5"/>
				<stop  offset="0.1587" style="stop-color:#FEE4D9"/>
				<stop  offset="0.4934" style="stop-color:#FAB49B"/>
				<stop  offset="0.9736" style="stop-color:#F26A4D"/>
				<stop  offset="1" style="stop-color:#F26649"/>
			</linearGradient>
			<path fill="url(#SVGID_7_)" d="M117.451,79.35c-2.791-4.101-4.426-9.058-4.426-14.401c0-5.34,1.635-10.297,4.426-14.404
				c-2.292-3.369-5.361-6.167-8.952-8.127c-7.265,4.856-12.05,13.133-12.05,22.531c0,9.397,4.785,17.67,12.05,22.53
				C112.09,85.518,115.159,82.722,117.451,79.35z"/>
			<linearGradient id="SVGID_8_" gradientUnits="userSpaceOnUse" x1="113.0356" y1="65.1772" x2="121.9498" y2="64.7101">
				<stop  offset="0" style="stop-color:#FCD3C1"/>
				<stop  offset="0.251" style="stop-color:#FCCFBD"/>
				<stop  offset="0.511" style="stop-color:#FBC5B0"/>
				<stop  offset="0.7742" style="stop-color:#FAB59C"/>
				<stop  offset="1" style="stop-color:#F8A286"/>
			</linearGradient>
			<path fill="url(#SVGID_8_)" d="M117.451,79.35c2.792-4.101,4.423-9.058,4.423-14.401c0-5.34-1.631-10.297-4.423-14.404
				c-2.791,4.106-4.426,9.063-4.426,14.404C113.025,70.292,114.66,75.249,117.451,79.35z"/>
			<path fill="#FCB131" d="M144.975,91.838h-0.355v-0.199h0.929v0.199h-0.355v0.971h-0.218V91.838z M145.824,91.639h0.332
				l0.305,0.789l0.303-0.789h0.33v1.17h-0.213v-0.893h-0.005l-0.331,0.893h-0.171l-0.33-0.893h-0.007v0.893h-0.213V91.639z"/>
		</g>
		<path fill="#455560" d="M70.973,120.312l-0.025-13.658l-4.674,13.658H63.17l-4.676-13.658v13.658h-3.127v-15.934h5.271
			l4.18,12.116l4.13-12.116h5.274v15.934H70.973z M84.347,120.312l-0.066-1.864c-0.815,1.295-2.294,2.131-3.818,2.131
			c-2.202,0-4.056-1.076-4.056-3.468c0-3.171,3.052-4.25,6.415-4.25c0.434,0,0.977,0.026,1.435,0.054v-0.41
			c0-1.675-1.054-2.389-2.797-2.389c-1.216,0-2.507,0.285-3.623,0.957l-0.148-2.219c1.245-0.434,2.888-0.768,4.207-0.768
			c3.217,0,5.533,1.15,5.533,4.656v4.752c0,1.221,0.021,2.008,0.121,2.817H84.347z M84.256,114.605h-0.432
			c-1.671,0-4.272,0.194-4.272,2.271c0,1.168,0.979,1.646,1.979,1.646c2.007,0,2.725-1.555,2.725-3.318V114.605z M93.627,120.578
			c-1.355,0-2.716-0.191-4.002-0.598l0.14-2.292c1.052,0.546,2.385,0.835,3.578,0.835c1.101,0,2.269-0.381,2.269-1.525
			c0-2.441-6.034-1.463-6.034-5.354c0-2.7,2.884-3.581,5.079-3.581c1.172,0,2.412,0.217,3.529,0.547l-0.141,2.126
			c-0.955-0.376-2.122-0.62-3.171-0.62c-0.908,0-2.172,0.244-2.172,1.434c0,1.912,6.036,1.123,6.036,5.205
			C98.738,119.55,96.039,120.578,93.627,120.578z M105.32,120.578c-2.723,0-3.394-1.744-3.394-4.252v-5.828h-2.148v-2.174h2.148
			v-2.436l3.294-1.07v3.506h2.672v2.174h-2.672v5.871c0,1.01,0.262,1.82,1.435,1.82c0.45,0,0.903-0.098,1.308-0.264l0.1,2.197
			C107.207,120.405,106.224,120.578,105.32,120.578z M112.6,115.155c0.022,2.084,1.549,3.368,3.581,3.368
			c1.145,0,2.601-0.26,3.601-0.812l0.146,2.225c-1.34,0.47-2.984,0.643-4.414,0.643c-4.014,0-6.186-2.344-6.186-6.303
			c0-3.564,2.387-6.189,5.847-6.189c3.843,0,5.372,2.7,5.372,6.331v0.738H112.6z M115.199,110.07c-1.835,0-2.6,1.908-2.6,3.315
			h4.941C117.541,111.881,117.015,110.07,115.199,110.07z M129.882,111.143c-0.333-0.113-0.691-0.164-1.024-0.164
			c-2.221,0-2.959,2.123-2.959,3.988v5.345h-3.292V111c0-0.885-0.025-1.764-0.122-2.653h3.105l0.072,2.317
			c0.544-1.311,1.746-2.602,3.361-2.602c0.338,0,0.644,0.023,0.957,0.116L129.882,111.143z M140.358,120.578
			c-5.128,0-8.706-2.939-8.706-8.216c0-4.993,3.843-8.215,8.706-8.215c1.267,0,2.798,0.216,3.989,0.575l-0.148,2.646
			c-0.975-0.406-2.213-0.646-3.289-0.646c-3.39,0-5.562,2.317-5.562,5.64c0,3.411,2.032,5.636,5.492,5.636
			c1.167,0,2.337-0.193,3.411-0.668l0.14,2.58C143.203,120.387,141.672,120.578,140.358,120.578z M153.765,120.312l-0.074-1.864
			c-0.811,1.295-2.294,2.131-3.819,2.131c-2.195,0-4.058-1.076-4.058-3.468c0-3.171,3.057-4.25,6.424-4.25
			c0.426,0,0.976,0.026,1.432,0.054v-0.41c0-1.675-1.056-2.389-2.795-2.389c-1.218,0-2.505,0.285-3.629,0.957l-0.14-2.219
			c1.238-0.434,2.888-0.768,4.195-0.768c3.224,0,5.538,1.15,5.538,4.656v4.752c0,1.221,0.026,2.008,0.12,2.817H153.765z
			 M153.669,114.605h-0.434c-1.671,0-4.27,0.194-4.27,2.271c0,1.168,0.98,1.646,1.982,1.646c2.004,0,2.721-1.555,2.721-3.318
			V114.605z M166.555,111.143c-0.336-0.113-0.693-0.164-1.026-0.164c-2.224,0-2.96,2.123-2.96,3.988v5.345h-3.296V111
			c0-0.885-0.025-1.764-0.118-2.653h3.102l0.072,2.317c0.552-1.311,1.742-2.602,3.367-2.602c0.333,0,0.639,0.023,0.952,0.116
			L166.555,111.143z M176.574,120.312l-0.119-1.954c-0.736,1.503-2.144,2.221-3.793,2.221c-3.675,0-5.034-3.084-5.034-6.303
			c0-3.203,1.409-6.189,5.012-6.189c1.504,0,3.006,0.807,3.604,2.221v-7.21h3.296v13.872c0,1.361,0.018,2.373,0.093,3.343H176.574z
			 M173.714,110.4c-2.146,0-2.558,2.178-2.558,3.893c0,1.721,0.432,3.99,2.583,3.99c2.051,0,2.579-2.338,2.579-3.99
			C176.318,112.625,175.79,110.4,173.714,110.4z"/>
	</g>
</g>
</svg>
