<?xml version="1.0" encoding="utf-8"?>
<!-- Generator: Adobe Illustrator 16.0.0, SVG Export Plug-In . SVG Version: 6.00 Build 0)  -->
<!DOCTYPE svg PUBLIC "-//W3C//DTD SVG 1.1//EN" "http://www.w3.org/Graphics/SVG/1.1/DTD/svg11.dtd">
<svg version="1.1" id="Layer_1" xmlns="http://www.w3.org/2000/svg" xmlns:xlink="http://www.w3.org/1999/xlink" x="0px" y="0px"
	 width="234px" height="153px" viewBox="0 0 234 153" enable-background="new 0 0 234 153" xml:space="preserve">
<rect fill="#FFFFFF" width="234" height="153"/>
<g>
	<g>
		<g>
			<g>
				<path fill="#808285" d="M164.293,64.956c0-12.223-8.564-22.448-20.018-25.01c7.178,5.961,11.752,14.953,11.752,25.01
					c0,10.062-4.574,19.05-11.752,25.015C155.729,87.408,164.293,77.184,164.293,64.956z"/>
				<linearGradient id="SVGID_1_" gradientUnits="userSpaceOnUse" x1="119.8115" y1="81.9473" x2="127.5186" y2="98.8589">
					<stop  offset="0" style="stop-color:#F8F8F9"/>
					<stop  offset="1" style="stop-color:#E6E7E8"/>
				</linearGradient>
				<path fill="url(#SVGID_1_)" d="M133.59,90.084c-3.107,1.247-6.504,1.938-10.059,1.938c-5.557,0-10.727-1.682-15.021-4.554
					c-1.852,1.01-3.84,1.8-5.928,2.331c5.658,4.775,12.971,7.653,20.949,7.653c7.885,0,15.113-2.811,20.744-7.481
					c-1.811,0.402-3.688,0.614-5.615,0.614C136.926,90.585,135.229,90.412,133.59,90.084z"/>
				<linearGradient id="SVGID_2_" gradientUnits="userSpaceOnUse" x1="123.4287" y1="42.4502" x2="123.4287" y2="32.4648">
					<stop  offset="0" style="stop-color:#F8F8F9"/>
					<stop  offset="0.15" style="stop-color:#F8F8F9"/>
					<stop  offset="0.6762" style="stop-color:#E3E4E5"/>
					<stop  offset="1" style="stop-color:#DCDDDE"/>
				</linearGradient>
				<path fill="url(#SVGID_2_)" d="M123.531,37.901c3.555,0,6.951,0.685,10.059,1.927c1.639-0.326,3.336-0.497,5.07-0.497
					c1.928,0,3.805,0.211,5.615,0.616c-5.631-4.671-12.859-7.481-20.744-7.481c-7.979,0-15.291,2.88-20.949,7.652
					c2.088,0.533,4.076,1.323,5.928,2.333C112.805,39.576,117.975,37.901,123.531,37.901z"/>
				<path fill="#BCBEC0" d="M156.027,64.956c0-10.057-4.574-19.049-11.752-25.01c-1.811-0.405-3.688-0.616-5.615-0.616
					c-1.734,0-3.432,0.171-5.07,0.497c9.963,3.995,17,13.743,17,25.128c0,11.39-7.039,21.14-17,25.128
					c1.639,0.328,3.336,0.501,5.07,0.501c1.928,0,3.805-0.212,5.615-0.614C151.453,84.006,156.027,75.018,156.027,64.956z"/>
				<linearGradient id="SVGID_3_" gradientUnits="userSpaceOnUse" x1="116.5132" y1="94.1836" x2="125.5872" y2="83.3696">
					<stop  offset="0" style="stop-color:#F8F8F9"/>
					<stop  offset="0.5486" style="stop-color:#E4E5E6"/>
					<stop  offset="1" style="stop-color:#D1D3D4"/>
				</linearGradient>
				<path fill="url(#SVGID_3_)" d="M117.451,79.351c-2.287,3.366-5.354,6.156-8.941,8.117c4.295,2.872,9.465,4.554,15.021,4.554
					c3.555,0,6.951-0.69,10.059-1.938C126.902,88.741,121.154,84.799,117.451,79.351z"/>
				<linearGradient id="SVGID_4_" gradientUnits="userSpaceOnUse" x1="121.0498" y1="37.9009" x2="121.0498" y2="50.5693">
					<stop  offset="0" style="stop-color:#B1B3B6"/>
					<stop  offset="0.5222" style="stop-color:#95979A"/>
					<stop  offset="1" style="stop-color:#808285"/>
				</linearGradient>
				<path fill="url(#SVGID_4_)" d="M108.51,42.45c3.588,1.958,6.654,4.752,8.941,8.119c3.703-5.451,9.451-9.395,16.139-10.742
					c-3.107-1.242-6.504-1.927-10.059-1.927C117.975,37.901,112.805,39.576,108.51,42.45z"/>
				<linearGradient id="SVGID_5_" gradientUnits="userSpaceOnUse" x1="122.9385" y1="86.0742" x2="141.5479" y2="43.2755">
					<stop  offset="0" style="stop-color:#B1B3B6"/>
					<stop  offset="0.4782" style="stop-color:#7D7F81"/>
					<stop  offset="0.824" style="stop-color:#5B5C5E"/>
					<stop  offset="1" style="stop-color:#4D4D4F"/>
				</linearGradient>
				<path fill="url(#SVGID_5_)" d="M117.451,50.569c2.787,4.102,4.416,9.056,4.416,14.387c0,5.337-1.629,10.289-4.416,14.395
					c3.703,5.448,9.451,9.391,16.139,10.733c9.961-3.988,17-13.738,17-25.128c0-11.385-7.037-21.134-17-25.128
					C126.902,41.174,121.154,45.119,117.451,50.569z"/>
				<path d="M91.039,64.956c0-9.958,4.486-18.875,11.543-24.839c-2.027-0.515-4.15-0.787-6.34-0.787
					c-14.152,0-25.629,11.476-25.629,25.625c0,14.155,11.477,25.629,25.629,25.629c2.189,0,4.312-0.271,6.34-0.786
					C95.525,83.838,91.039,74.918,91.039,64.956z"/>
				<linearGradient id="SVGID_6_" gradientUnits="userSpaceOnUse" x1="91.0391" y1="64.958" x2="108.5098" y2="64.958">
					<stop  offset="0" style="stop-color:#939598"/>
					<stop  offset="0.2165" style="stop-color:#A5A8AA"/>
					<stop  offset="0.67" style="stop-color:#D7D8DA"/>
					<stop  offset="0.8" style="stop-color:#E6E7E8"/>
					<stop  offset="1" style="stop-color:#E6E7E8"/>
				</linearGradient>
				<path fill="url(#SVGID_6_)" d="M96.473,64.956c0-9.384,4.777-17.652,12.037-22.506c-1.852-1.01-3.84-1.8-5.928-2.333
					c-7.057,5.963-11.543,14.88-11.543,24.839c0,9.962,4.486,18.882,11.543,24.843c2.088-0.531,4.076-1.321,5.928-2.331
					C101.25,82.616,96.473,74.345,96.473,64.956z"/>
				<linearGradient id="SVGID_7_" gradientUnits="userSpaceOnUse" x1="115.9199" y1="84.7715" x2="101.4515" y2="45.0199">
					<stop  offset="0" style="stop-color:#F8F8F9"/>
					<stop  offset="0.1587" style="stop-color:#E4E5E6"/>
					<stop  offset="0.4934" style="stop-color:#B1B3B6"/>
					<stop  offset="0.9736" style="stop-color:#67696B"/>
					<stop  offset="1" style="stop-color:#636466"/>
				</linearGradient>
				<path fill="url(#SVGID_7_)" d="M117.451,79.351c-2.789-4.105-4.418-9.057-4.418-14.395c0-5.331,1.629-10.285,4.418-14.387
					c-2.287-3.367-5.354-6.161-8.941-8.119c-7.26,4.854-12.037,13.122-12.037,22.506c0,9.389,4.777,17.66,12.037,22.512
					C112.098,85.507,115.164,82.717,117.451,79.351z"/>
				<linearGradient id="SVGID_8_" gradientUnits="userSpaceOnUse" x1="113.0449" y1="65.1904" x2="121.9436" y2="64.7241">
					<stop  offset="0" style="stop-color:#D1D3D4"/>
					<stop  offset="0.2458" style="stop-color:#CECFD1"/>
					<stop  offset="0.5004" style="stop-color:#C3C5C7"/>
					<stop  offset="0.7581" style="stop-color:#B2B4B7"/>
					<stop  offset="1" style="stop-color:#9D9FA2"/>
				</linearGradient>
				<path fill="url(#SVGID_8_)" d="M117.451,79.351c2.787-4.105,4.416-9.057,4.416-14.395c0-5.331-1.629-10.285-4.416-14.387
					c-2.789,4.102-4.418,9.056-4.418,14.387C113.033,70.293,114.662,75.245,117.451,79.351z"/>
				<path fill="#808285" d="M144.945,91.822h-0.357v-0.199h0.93v0.199h-0.357v0.971h-0.215V91.822z M145.795,91.623h0.332
					l0.305,0.787l0.301-0.787h0.33v1.17h-0.215V91.9h-0.002l-0.33,0.893h-0.174l-0.33-0.893h-0.002v0.893h-0.215V91.623z"/>
			</g>
			<path d="M71.02,120.267l-0.025-13.644l-4.67,13.644h-3.1l-4.672-13.644v13.644H55.43v-15.916h5.266l4.174,12.104l4.125-12.104
				h5.27v15.916H71.02z M84.381,120.267l-0.068-1.862c-0.812,1.293-2.291,2.131-3.814,2.131c-2.199,0-4.051-1.076-4.051-3.466
				c0-3.169,3.049-4.246,6.408-4.246c0.434,0,0.977,0.027,1.434,0.054v-0.41c0-1.672-1.053-2.385-2.793-2.385
				c-1.217,0-2.506,0.285-3.621,0.955l-0.148-2.218c1.244-0.431,2.887-0.765,4.203-0.765c3.213,0,5.527,1.148,5.527,4.652v4.746
				c0,1.219,0.023,2.006,0.121,2.813H84.381z M84.289,114.567h-0.432c-1.668,0-4.268,0.194-4.268,2.268
				c0,1.167,0.977,1.646,1.977,1.646c2.006,0,2.723-1.552,2.723-3.314V114.567z M93.652,120.535c-1.355,0-2.715-0.193-4-0.598
				l0.141-2.291c1.051,0.547,2.383,0.834,3.574,0.834c1.1,0,2.266-0.381,2.266-1.524c0-2.437-6.029-1.461-6.029-5.349
				c0-2.696,2.883-3.576,5.076-3.576c1.17,0,2.408,0.216,3.523,0.545l-0.139,2.125c-0.955-0.377-2.119-0.619-3.168-0.619
				c-0.906,0-2.17,0.242-2.17,1.432c0,1.91,6.031,1.121,6.031,5.199C98.758,119.507,96.061,120.535,93.652,120.535z
				 M105.332,120.535c-2.721,0-3.391-1.744-3.391-4.249v-5.822h-2.146v-2.172h2.146v-2.434l3.291-1.069v3.503h2.67v2.172h-2.67
				v5.866c0,1.007,0.262,1.816,1.434,1.816c0.449,0,0.902-0.097,1.305-0.262l0.1,2.193
				C107.217,120.361,106.234,120.535,105.332,120.535z M112.604,115.116c0.023,2.083,1.549,3.364,3.578,3.364
				c1.145,0,2.6-0.26,3.598-0.812l0.145,2.222c-1.338,0.471-2.98,0.645-4.408,0.645c-4.01,0-6.18-2.342-6.18-6.298
				c0-3.561,2.385-6.183,5.842-6.183c3.84,0,5.365,2.696,5.365,6.324v0.737H112.604z M115.201,110.038
				c-1.832,0-2.598,1.904-2.598,3.311h4.936C117.539,111.846,117.014,110.038,115.201,110.038z M129.869,111.107
				c-0.332-0.113-0.689-0.164-1.023-0.164c-2.219,0-2.955,2.123-2.955,3.984v5.339h-3.289v-9.3c0-0.885-0.025-1.764-0.121-2.652
				h3.102l0.072,2.315c0.543-1.31,1.744-2.599,3.357-2.599c0.338,0,0.643,0.023,0.957,0.115L129.869,111.107z M140.336,120.535
				c-5.123,0-8.699-2.938-8.699-8.209c0-4.988,3.84-8.207,8.699-8.207c1.266,0,2.795,0.216,3.986,0.575l-0.15,2.644
				c-0.973-0.406-2.211-0.645-3.285-0.645c-3.387,0-5.555,2.313-5.555,5.633c0,3.408,2.029,5.629,5.486,5.629
				c1.164,0,2.334-0.192,3.406-0.667l0.141,2.579C143.178,120.342,141.648,120.535,140.336,120.535z M153.729,120.267l-0.074-1.862
				c-0.809,1.293-2.293,2.131-3.816,2.131c-2.193,0-4.053-1.076-4.053-3.466c0-3.169,3.053-4.246,6.416-4.246
				c0.426,0,0.977,0.027,1.43,0.054v-0.41c0-1.672-1.053-2.385-2.791-2.385c-1.215,0-2.502,0.285-3.625,0.955l-0.139-2.218
				c1.236-0.431,2.885-0.765,4.189-0.765c3.221,0,5.533,1.148,5.533,4.652v4.746c0,1.219,0.025,2.006,0.121,2.813H153.729z
				 M153.631,114.567h-0.432c-1.67,0-4.266,0.194-4.266,2.268c0,1.167,0.98,1.646,1.98,1.646c2.002,0,2.717-1.552,2.717-3.314
				V114.567z M166.504,111.107c-0.336-0.113-0.693-0.164-1.025-0.164c-2.221,0-2.957,2.123-2.957,3.984v5.339h-3.291v-9.3
				c0-0.885-0.025-1.764-0.117-2.652h3.098l0.072,2.315c0.551-1.31,1.74-2.599,3.363-2.599c0.332,0,0.637,0.023,0.951,0.115
				L166.504,111.107z M176.514,120.267l-0.117-1.952c-0.736,1.502-2.143,2.221-3.791,2.221c-3.67,0-5.029-3.082-5.029-6.298
				c0-3.2,1.41-6.183,5.01-6.183c1.5,0,3.002,0.805,3.6,2.217v-7.201h3.291v13.858c0,1.359,0.02,2.37,0.094,3.338H176.514z
				 M173.658,110.367c-2.146,0-2.557,2.175-2.557,3.887c0,1.72,0.434,3.988,2.582,3.988c2.047,0,2.576-2.337,2.576-3.988
				C176.26,112.588,175.73,110.367,173.658,110.367z"/>
		</g>
	</g>
</g>
<rect x="42.609" y="22.526" opacity="0.5" fill="#FFFFFF" width="149.781" height="107.948"/>
</svg>
