<?xml version="1.0" encoding="utf-8"?>
<!-- Generator: Adobe Illustrator 16.0.0, SVG Export Plug-In . SVG Version: 6.00 Build 0)  -->
<!DOCTYPE svg PUBLIC "-//W3C//DTD SVG 1.1//EN" "http://www.w3.org/Graphics/SVG/1.1/DTD/svg11.dtd">
<svg version="1.1" id="Layer_1" xmlns="http://www.w3.org/2000/svg" xmlns:xlink="http://www.w3.org/1999/xlink" x="0px" y="0px"
	 width="234px" height="153px" viewBox="0 0 234 153" enable-background="new 0 0 234 153" xml:space="preserve">
<rect fill="#FFFFFF" width="234" height="153"/>
<g>
	<g>
		<polygon fill="#00AEEF" points="101.785,75.088 94.247,75.088 129.8,21.366 133.799,27.16 		"/>
		<polygon fill="#00AEEF" points="115.127,75.088 107.587,75.088 136.42,30.955 140.421,36.752 		"/>
		<path fill="#00AEEF" d="M124.959,14.353L124.959,14.353c-0.261-0.374-0.703-1.282-1.688-1.282c-1.011,0-1.43,0.933-1.688,1.282
			h0.002L80.908,75.088h7.54l38.808-57.407L124.959,14.353z"/>
		<path fill="#00AEEF" d="M105.626,23.292L105.626,23.292c-0.258-0.372-0.703-1.278-1.688-1.278c-1.008,0-1.429,0.932-1.687,1.278
			h0.001L67.567,75.088h7.54l32.774-48.402L105.626,23.292z"/>
		<path fill="#D80B8C" d="M105.619,23.296L105.619,23.296c-0.26-0.372-0.703-1.279-1.687-1.279c-1.011,0-1.429,0.933-1.688,1.279
			l-2.278,3.412l32.706,48.38h7.538L105.619,23.296z"/>
		<path fill="#D80B8C" d="M124.949,14.354L124.949,14.354c-0.259-0.373-0.702-1.282-1.686-1.282c-1.008,0-1.429,0.934-1.688,1.282
			l-2.275,3.411l40.033,57.323h7.538L124.949,14.354z"/>
		<polygon fill="#221F72" points="133.793,27.168 129.793,21.373 125.914,27.236 129.918,32.97 		"/>
		<polygon fill="#221F72" points="140.415,36.758 136.414,30.965 132.598,36.806 136.601,42.54 		"/>
		<polygon fill="#D80B8C" points="146.003,75.088 153.544,75.088 116.964,21.287 113.015,27.154 		"/>
		<path fill="#221F72" d="M124.949,14.354L124.949,14.354c-0.259-0.373-0.702-1.282-1.686-1.282c-0.125,0-0.242,0.016-0.351,0.042
			c-0.754,0.186-1.104,0.935-1.33,1.239h0.002l-2.059,3.074l-0.227,0.338l4.013,5.748l3.938-5.824L124.949,14.354z"/>
		<polygon fill="#221F72" points="116.964,21.287 113.015,27.154 116.968,32.9 120.902,27.079 		"/>
		<polygon fill="#221F72" points="123.563,42.484 127.436,36.688 123.495,30.893 119.618,36.751 		"/>
		<polygon fill="#221F72" points="130.239,52.182 134.045,46.412 130.107,40.619 126.296,46.453 		"/>
		<path fill="#221F72" d="M105.619,23.296c-0.26-0.372-0.703-1.279-1.687-1.279c-0.126,0-0.244,0.014-0.351,0.04
			c-0.756,0.186-1.104,0.931-1.33,1.235h0.001l-2.287,3.417l3.947,5.839l3.969-5.861l-0.031-0.045L105.619,23.296L105.619,23.296z"
			/>
		<polygon fill="#221F72" points="114.484,36.572 110.601,30.756 106.67,36.623 110.56,42.379 		"/>
		<polygon fill="#221F72" points="120.999,46.324 117.122,40.521 113.256,46.366 117.136,52.107 		"/>
		<polygon fill="#221F72" points="127.592,56.196 123.718,50.397 119.915,56.217 123.792,61.954 		"/>
	</g>
	<g>
		<path d="M67.129,107.907c1.605,0,2.822-0.328,2.822-3.417V91.209l-2.347-0.119v-1.012l7.19,0.119l4.605,12.629h0.03l4.664-12.629
			l7.102-0.119v1.012l-2.405,0.119v16.578l2.405,0.12v1.01c-1.188,0-3.416-0.119-4.605-0.119c-1.188,0-3.298,0.119-4.486,0.119
			v-1.01l2.376-0.12V92.516h-0.059l-5.854,16.342h-1.455l-5.914-16.342h-0.059v11.975c0,3.089,1.158,3.417,3.061,3.417v1.01
			c-1.485,0-2.349-0.119-3.536-0.119c-1.188,0-2.051,0.119-3.536,0.119V107.907z"/>
		<path d="M91.709,102.201c0-5.051,3.417-7.398,7.221-7.398c3.86,0,7.248,2.051,7.248,7.104c0,5.079-3.326,7.396-7.248,7.396
			C95.067,109.303,91.709,107.285,91.709,102.201z M101.84,102.055c0-4.043-0.801-6.242-2.91-6.242c-2.05,0-2.882,2.199-2.882,6.242
			c0,4.07,0.832,6.24,2.882,6.24C101.039,108.295,101.84,106.125,101.84,102.055z"/>
		<path d="M108.71,97.952c0-1.634-0.507-1.634-2.02-1.634v-1.01l5.941-0.299v8.173c0,2.853,0.059,4.31,1.901,4.31
			c1.456,0,3.298-1.725,3.298-4.637v-4.903c0-1.634-0.684-1.634-1.989-1.634v-1.01l5.911-0.299v12.719l2.021,0.059v1.011
			l-5.706,0.297l-0.089-2.644h-0.029c-0.951,1.604-2.614,2.791-4.963,2.791c-3.119,0-4.277-1.602-4.277-4.99V97.952z"/>
		<path d="M132.307,107.907v1.01c-1.427,0-2.198-0.119-3.922-0.119c-1.725,0-2.526,0.119-3.981,0.119v-1.01l2.021-0.149v-9.864
			c0-1.575-0.505-1.575-2.021-1.575v-1.01l5.705-0.299l0.059,2.586h0.029c1.012-1.633,2.614-2.822,4.963-2.822
			c2.496,0,4.279,1.516,4.279,5.259v7.726l2.051,0.149v1.01c-1.456,0-2.259-0.119-3.982-0.119c-1.725,0-2.468,0.119-3.922,0.119
			v-1.01l1.96-0.149v-6.863c0-3.209-0.356-4.368-1.93-4.368c-1.457,0-3.271,1.724-3.271,4.634v6.598L132.307,107.907z"/>
		<path d="M146.929,104.965c-0.06,1.843,0,2.852,1.218,2.852c1.1,0,1.724-1.574,1.724-1.574l0.952,0.357
			c0,0-0.625,2.732-3.745,2.732c-3.655,0-4.04-1.99-4.04-4.309v-8.559h-2.229v-1.156h2.229v-4.963c2.228,0,3.892-0.563,3.892-0.563
			v5.526h3.327v1.156h-3.327V104.965z"/>
		<path d="M69.536,128.412c0.236,1.338,2.168,6.389,6.062,6.389c2.437,0,3.417-1.366,3.417-2.912c0-5.497-10.252-2.438-10.252-9.953
			c0-4.428,3.654-5.885,6.359-5.885c2.467,0,3.743,0.805,4.22,0.805c0.503,0,0.653-0.654,0.653-0.654h0.979
			c0,0.979-0.059,1.691-0.059,2.645c0,1.396,0.059,2.197,0.059,3.148h-0.979c-0.237-1.307-1.932-4.932-5.112-4.932
			c-1.781,0-2.999,1.1-2.999,2.643c0,5.053,10.548,2.141,10.548,10.105c0,4.367-3.3,6.119-6.925,6.119
			c-3.147,0-4.782-1.068-5.318-1.068c-0.623,0-0.742,0.713-0.742,0.713h-0.981c0-1.427,0.09-2.289,0.09-3.714
			c0-1.368-0.09-2.229-0.09-3.448H69.536z"/>
		<path d="M91.498,134.324v1.012c-1.426,0-2.257-0.118-3.98-0.118s-2.527,0.118-3.983,0.118v-1.012l2.021-0.146v-9.807
			c0-1.635-0.534-1.635-2.021-1.635v-1.008l5.943-0.299v12.748L91.498,134.324z M87.545,114.33c1.221,0,2.378,0.8,2.378,2.257
			c0,1.456-1.157,2.259-2.378,2.259c-1.246,0-2.404-0.803-2.404-2.259C85.141,115.13,86.299,114.33,87.545,114.33z"/>
		<path d="M100.027,134.324v1.012c-1.426,0-2.198-0.118-3.921-0.118c-1.724,0-2.526,0.118-3.981,0.118v-1.012l2.021-0.146v-9.865
			c0-1.576-0.505-1.576-2.021-1.576v-1.008l5.704-0.299l0.06,2.586h0.03c1.011-1.633,2.614-2.822,4.961-2.822
			c2.497,0,4.28,1.516,4.28,5.258v7.727l2.049,0.146v1.012c-1.455,0-2.257-0.118-3.981-0.118c-1.724,0-2.467,0.118-3.922,0.118
			v-1.012l1.961-0.146v-6.865c0-3.207-0.356-4.367-1.931-4.367c-1.456,0-3.27,1.725-3.27,4.636v6.597L100.027,134.324z"/>
		<path d="M125.051,133.047c0,0-0.416,2.705-3.478,2.705c-1.455,0-2.674-0.596-3.177-2.08h-0.062
			c-0.654,1.248-1.9,2.199-4.071,2.199c-2.079,0-4.546-0.951-4.546-4.07c0-3.863,4.546-4.22,8.588-4.19v-1.454
			c0.091-2.379-0.12-3.953-2.05-3.953c-1.484,0-2.14,0.742-2.289,1.041c0,0,0.654,0.354,0.654,1.365c0,1.039-0.771,1.782-1.99,1.782
			c-1.16,0-1.992-0.712-1.992-1.9c0-2.108,2.704-3.298,5.914-3.298c5.2,0,5.646,2.939,5.585,5.734l-0.148,5.615
			c-0.028,0.922,0.269,1.544,0.921,1.544c0.862,0,1.161-1.274,1.161-1.274L125.051,133.047z M118.247,128.621
			c-3.686-0.061-4.519,0.922-4.519,2.793c0,1.752,0.684,2.645,1.933,2.645c1.159,0,2.467-1.012,2.524-3.15L118.247,128.621z"/>
		<path d="M133.048,134.324v1.012c-1.427,0-2.258-0.118-3.982-0.118c-1.722,0-2.526,0.118-3.981,0.118v-1.012l2.019-0.146v-9.807
			c0-1.635-0.533-1.635-2.019-1.635v-1.008l5.943-0.299v12.748L133.048,134.324z M129.095,114.33c1.22,0,2.379,0.8,2.379,2.257
			c0,1.456-1.159,2.259-2.379,2.259c-1.247,0-2.406-0.803-2.406-2.259C126.688,115.13,127.848,114.33,129.095,114.33z"/>
	</g>
</g>
</svg>
