<?xml version="1.0" encoding="utf-8"?>
<!-- Generator: Adobe Illustrator 16.0.0, SVG Export Plug-In . SVG Version: 6.00 Build 0)  -->
<!DOCTYPE svg PUBLIC "-//W3C//DTD SVG 1.1//EN" "http://www.w3.org/Graphics/SVG/1.1/DTD/svg11.dtd">
<svg version="1.1" id="Layer_1" xmlns="http://www.w3.org/2000/svg" xmlns:xlink="http://www.w3.org/1999/xlink" x="0px" y="0px"
	 width="234px" height="153px" viewBox="0 0 234 153" enable-background="new 0 0 234 153" xml:space="preserve">
<rect fill="#FFFFFF" width="234" height="153"/>
<g>
	<path fill="#9B9A9A" d="M133.234,67.353c-0.843,0-6.88-0.123-8.503-0.28c-1.1-0.193-2.319-0.352-2.788-1.79
		c-0.209-0.646-0.468-2.278-0.602-4.208c0.51-0.405,0.911-0.966,1.159-1.619c0.174,0.097,0.191,0.502,0.45-0.27
		c0.21-0.633,0.128-0.128,1.333-0.78v-0.011c1.034-0.546,1.839-1.042,2.49-1.484c0.255,0.242,0.537,0.444,0.841,0.609
		c-0.055,0.147-0.062,0.309-0.032,0.465c0.236,0.024,0.472-0.036,0.646-0.2c0.006,0.003,0.014,0.005,0.021,0.007
		c-0.071,0.128-0.123,0.268-0.144,0.421c-0.054,0.445,0.134,0.853,0.439,1.154c0.333-0.184,0.598-0.475,0.698-0.843
		c0.09,0.107,0.209,0.19,0.345,0.245c0.028-0.036,0.053-0.073,0.077-0.111c0.143,0.061,0.299,0.094,0.465,0.094
		c0.662,0,1.201-0.541,1.201-1.206c0-0.048-0.013-0.093-0.016-0.14c0.262-0.163,0.504-0.357,0.725-0.577
		c-0.003,0.021,0.065-0.071,0.162-0.203c0,0.001,0,0.004,0,0.007c0.066,0.444,0.356,0.785,0.732,0.994
		c0.271-0.266,0.447-0.619,0.445-0.999c0.116,0.08,0.253,0.127,0.397,0.145c0.088-0.203,0.106-0.431,0.022-0.639l1.047,0.216
		c-0.01,0.041-0.016,0.08-0.019,0.123c-0.015,0.265,0.113,0.495,0.312,0.657c0.21-0.141,0.364-0.356,0.378-0.622
		c0.006-0.084-0.006-0.164-0.028-0.239c0.244-0.093,0.462-0.241,0.645-0.432c0.092,0.081,0.189,0.152,0.295,0.212
		c0.312-0.305,0.498-0.719,0.436-1.16c-0.022-0.16-0.075-0.305-0.149-0.437c0.001-0.033,0.005-0.066,0.005-0.098
		c0-0.61-0.246-1.145-0.63-1.518c0.174-0.038,0.328-0.126,0.46-0.241c0.092,0.792,0.565,1.451,1.211,1.726
		c0.016,0.079,0.042,0.155,0.078,0.227c0.112-0.019,0.218-0.057,0.312-0.114c0.079,0.014,0.16,0.022,0.244,0.023
		c0,0.056,0.002,0.11,0.011,0.168c0.065,0.445,0.355,0.786,0.731,0.995c0.273-0.267,0.449-0.619,0.445-0.999
		c0.116,0.079,0.254,0.126,0.397,0.144c0.104-0.233,0.113-0.499-0.021-0.729c-0.049-0.084-0.109-0.151-0.18-0.208
		c0.044-0.05,0.088-0.103,0.13-0.159c0.048,0.028,0.095,0.056,0.142,0.081c0.002,0.056,0.011,0.111,0.028,0.168
		c0.073,0.254,0.271,0.429,0.508,0.518c0.101-0.128,0.164-0.279,0.182-0.438c0.035,0.006,0.071,0.012,0.108,0.015
		c-0.015,0.064-0.024,0.13-0.024,0.196c0,0.479,0.385,0.863,0.86,0.863c0.473,0,0.861-0.384,0.861-0.863
		c0-0.215-0.082-0.41-0.213-0.56c0.542-0.36,0.951-0.943,1.124-1.636c0.26,0.26,0.59,0.421,0.965,0.421
		c0.109,0,0.216-0.015,0.319-0.041c0.003,0.007,0.006,0.015,0.011,0.022c0.245,0.376,0.652,0.566,1.077,0.599
		c0.156-0.404,0.154-0.86-0.084-1.236c-0.028-0.045-0.062-0.085-0.093-0.125c0.124-0.232,0.196-0.501,0.202-0.791
		c0.027,0.078,0.068,0.151,0.126,0.216c0.172,0.199,0.426,0.277,0.679,0.259c0.058-0.249,0.017-0.514-0.153-0.711
		c-0.154-0.177-0.365-0.258-0.588-0.261c0.081-0.144,0.13-0.307,0.13-0.486c0-0.382-0.199-0.698-0.488-0.855
		c0.005,0,0.009,0.002,0.011,0.002c0.529,0,0.953-0.473,0.953-1.063c0-0.249-0.079-0.473-0.208-0.652
		c0.238,0.021,0.46-0.079,0.625-0.241c-0.115-0.227-0.314-0.405-0.571-0.45c-0.006,0-0.009,0-0.013-0.001
		c0.164-0.004,0.331-0.038,0.491-0.113c0.405-0.197,0.643-0.574,0.734-0.995c-0.337-0.181-0.728-0.245-1.089-0.13
		c0.042-0.134,0.047-0.278,0.018-0.421c-0.233-0.026-0.472,0.033-0.649,0.2c-0.019-0.047-0.043-0.095-0.065-0.141
		c0.14-0.145,0.212-0.339,0.225-0.542c-0.207-0.075-0.434-0.08-0.631,0.011c-0.314-0.289-0.72-0.464-1.159-0.464
		c-0.784,0-1.448,0.56-1.701,1.343c-0.177-0.104-0.372-0.172-0.59-0.172c-0.214,0-0.405,0.064-0.587,0.169
		c-0.119-0.19-0.279-0.35-0.463-0.468c-0.16,0.015-0.321,0.009-0.479-0.013c0.231-0.208,0.379-0.493,0.443-0.801
		c-0.337-0.182-0.729-0.245-1.094-0.128c0.045-0.136,0.09-0.249,0.135-0.355c0.28-0.022,0.508-0.168,0.578-0.361
		c0.035,0.026,0.071,0.05,0.104,0.08c0.085,0.08,0.155,0.169,0.218,0.262c0.016-0.017,0.026-0.035,0.039-0.051
		c0.135,0.245,0.342,0.44,0.591,0.579c0.209-0.205,0.361-0.461,0.419-0.741c0.114,0.061,0.255,0.098,0.41,0.098
		c0.037,0,0.074-0.004,0.109-0.008c-0.002,0.009-0.004,0.018-0.007,0.027c0.374,0.202,0.825,0.26,1.233,0.071
		c0.121-0.059,0.225-0.134,0.316-0.222c0.018,0.065,0.041,0.128,0.076,0.19c0.135,0.229,0.366,0.351,0.619,0.38
		c0.103-0.233,0.113-0.498-0.02-0.728c-0.064-0.111-0.156-0.198-0.259-0.26c0.105-0.144,0.171-0.319,0.171-0.513
		c0-0.316-0.175-0.59-0.429-0.741c0.068-0.188,0.112-0.389,0.112-0.601c0-0.401-0.138-0.767-0.363-1.062
		c0.095-0.019,0.19-0.046,0.283-0.091c0.403-0.195,0.645-0.573,0.732-0.995c-0.335-0.18-0.724-0.244-1.087-0.129
		c0.041-0.135,0.047-0.279,0.018-0.422c-0.129-0.013-0.259-0.001-0.38,0.039c-0.151-0.103-0.338-0.158-0.531-0.146
		c-0.478,0.03-0.836,0.441-0.808,0.916c0.003,0.054,0.013,0.109,0.025,0.162c-0.262,0.051-0.5,0.168-0.706,0.324
		c-0.172-0.415-0.41-0.786-0.697-1.099c0.164-0.203,0.196-0.461,0.141-0.706c-0.247-0.015-0.49,0.062-0.66,0.247
		c-0.004-0.002-0.007-0.003-0.009-0.006c0.07-0.135,0.118-0.284,0.134-0.446c0.039-0.448-0.168-0.846-0.485-1.138
		c-0.324,0.198-0.577,0.5-0.662,0.87c-0.094-0.104-0.218-0.182-0.354-0.23c-0.088,0.117-0.147,0.252-0.167,0.393
		c-0.065-0.004-0.13-0.007-0.196-0.007c-0.027,0-0.054,0.001-0.08,0.003c-0.062-0.081-0.137-0.152-0.225-0.211
		c-0.087,0.072-0.158,0.159-0.215,0.256c-0.068,0.013-0.136,0.025-0.202,0.042c0.066-0.323-0.025-0.646-0.211-0.917
		c-0.353,0.112-0.654,0.357-0.772,0.719c-0.037,0.113-0.054,0.226-0.053,0.338c-0.131-0.045-0.271-0.041-0.402,0
		c-0.121-0.08-0.262-0.127-0.412-0.127c-0.04,0-0.075,0.017-0.11,0.026c0.001-0.044,0.01-0.088,0.01-0.13
		c0-0.724-0.431-1.328-1.022-1.522c0.228-0.202,0.396-0.476,0.486-0.79c0.021-0.002,0.043-0.005,0.065-0.009
		c0.258-0.059,0.446-0.244,0.552-0.474c-0.159-0.141-0.361-0.226-0.572-0.22c-0.002-0.017-0.004-0.034-0.006-0.05
		c0.101-0.057,0.199-0.13,0.28-0.22c0.308-0.332,0.389-0.771,0.317-1.195c-0.38-0.044-0.764,0.039-1.058,0.279
		c-0.011-0.14-0.061-0.276-0.14-0.399c-0.175,0.049-0.333,0.146-0.444,0.287c-0.058-0.018-0.115-0.031-0.175-0.04
		c0.049-0.166,0.04-0.347-0.016-0.514c-0.257,0.005-0.501,0.109-0.65,0.327c-0.068,0.099-0.109,0.207-0.123,0.318
		c-0.309,0.16-0.559,0.442-0.702,0.788c-0.174-0.08-0.374-0.095-0.554-0.006c-0.006,0.004-0.012,0.009-0.019,0.012
		c0.108-0.083,0.203-0.185,0.272-0.312c0.167-0.315,0.145-0.67,0-0.982c-0.299,0.042-0.577,0.185-0.756,0.429
		c-0.035-0.106-0.101-0.2-0.186-0.28c-0.102,0.06-0.188,0.142-0.248,0.241c-0.005,0-0.012-0.004-0.019-0.006
		c-0.158-0.154-0.351-0.269-0.566-0.319c0.01-0.021,0.017-0.042,0.024-0.064c-0.271-0.184-0.565-0.322-0.872-0.403
		c0.805-0.784,1.164-1.868,1.162-2.967c-0.524-0.155-1.066-0.222-1.6-0.18c-0.022-0.108-0.064-0.211-0.127-0.305
		c-0.221,0.062-0.415,0.199-0.521,0.41c-0.068,0.018-0.137,0.037-0.205,0.058c0.002-0.003,0.008-0.008,0.011-0.013
		c0.149-0.217,0.163-0.483,0.081-0.722c-0.215,0.005-0.42,0.079-0.568,0.229c-0.497-0.158-1.04-0.126-1.483,0.167
		c-0.024-0.194-0.066-0.383-0.125-0.562c0.023-0.01,0.048-0.018,0.073-0.03c0.322-0.155,0.511-0.457,0.58-0.793
		c-0.269-0.143-0.575-0.19-0.863-0.098c0.032-0.106,0.035-0.222,0.013-0.335c-0.179-0.018-0.358,0.024-0.495,0.142
		c-0.253-0.237-0.547-0.418-0.871-0.524c0.002-0.028,0.005-0.056,0.004-0.083c-0.012-0.332-0.197-0.605-0.452-0.789
		c-0.244,0.187-0.41,0.459-0.416,0.772c-0.006,0-0.012,0-0.016,0.001c-0.047-0.184-0.123-0.363-0.239-0.526
		c-0.339-0.453-0.863-0.657-1.397-0.667c-0.108,0.341-0.126,0.703-0.032,1.041c-0.166-0.038-0.334,0.001-0.479,0.085
		c0.024,0.099,0.066,0.19,0.125,0.268c-0.497-0.336-1.101-0.458-1.699-0.41c-0.163,0.771-0.025,1.587,0.513,2.195
		c0.131,0.146,0.276,0.269,0.43,0.371c0.024,0.119,0.062,0.232,0.113,0.343c-0.165,0.082-0.28,0.266-0.28,0.485
		c0,0.033,0.011,0.063,0.019,0.098c-0.174,0.156-0.331,0.324-0.477,0.506c-0.174-0.541-0.628-0.928-1.168-0.928
		c-0.029,0-0.059,0.011-0.098,0.011c0-0.001,0.004-0.011,0.004-0.011c0-0.473-0.196-0.892-0.504-1.164
		c0.181-0.144,0.327-0.329,0.438-0.537c-0.33-0.331-0.789-0.534-1.28-0.463c-0.21,0.032-0.396,0.111-0.56,0.223
		c-0.016-0.034-0.031-0.066-0.048-0.098c0.018-0.04,0.034-0.08,0.048-0.124c0.123-0.363,0.031-0.734-0.179-1.037
		c-0.351,0.111-0.651,0.356-0.77,0.719c-0.039,0.112-0.054,0.226-0.054,0.337c-0.147-0.051-0.309-0.04-0.457,0.018
		c0.014,0.202,0.104,0.393,0.282,0.505c0.094,0.059,0.196,0.086,0.301,0.087c-0.325,0.136-0.56,0.487-0.56,0.897
		c0,0.466,0.303,0.835,0.695,0.92c0.038,0.243,0.139,0.463,0.269,0.645c-0.316-0.095-0.644-0.165-0.982-0.207
		c0.003-0.062,0.019-0.119,0.019-0.186c0-0.608-0.137-1.179-0.376-1.681c0.087-0.116,0.16-0.242,0.214-0.383
		c0.195-0.53,0.078-1.081-0.207-1.533c-0.396,0.112-0.751,0.335-0.985,0.665c-0.019-0.015-0.036-0.03-0.054-0.045
		c0.002-0.005,0.004-0.009,0.008-0.016c0.17-0.314,0.145-0.67,0.002-0.98c-0.14,0.019-0.271,0.062-0.395,0.125
		c0.067-0.066,0.129-0.143,0.177-0.23c0.168-0.315,0.143-0.67,0-0.98c-0.307,0.043-0.589,0.19-0.768,0.445
		c-0.224-0.241-0.525-0.392-0.86-0.392c-0.552,0-1.016,0.401-1.178,0.951c-0.18-0.117-0.394-0.171-0.611-0.168
		c-0.089,0.305-0.06,0.638,0.141,0.9c0.038,0.049,0.08,0.091,0.127,0.131c-0.059,0.034-0.112,0.068-0.168,0.106
		c-0.01-0.034-0.021-0.067-0.032-0.1c-0.206-0.526-0.658-0.863-1.171-1.013c-0.296,0.457-0.406,1.015-0.21,1.538
		c0.019,0.05,0.042,0.097,0.065,0.144c-0.035,0.009-0.068,0.022-0.103,0.038c-0.474-0.276-1.026-0.377-1.575-0.332
		c-0.163,0.773-0.026,1.587,0.511,2.195c0.246,0.274,0.542,0.47,0.865,0.595c-0.124,0.225-0.199,0.482-0.199,0.761
		c0,0.02,0.007,0.034,0.007,0.049c-0.379,0.123-0.666,0.464-0.742,0.896c-0.146-0.105-0.322-0.171-0.516-0.171
		c-0.256,0-0.484,0.113-0.642,0.289c0.015-0.042,0.028-0.083,0.035-0.128c0.058-0.335-0.071-0.648-0.292-0.886
		c-0.277,0.136-0.498,0.373-0.568,0.678c-0.225-0.171-0.509-0.225-0.786-0.19c-0.013,0.071-0.016,0.142-0.015,0.214
		c-0.037-0.001-0.072-0.005-0.108-0.005c-0.14,0-0.278,0.011-0.413,0.033c-0.031-0.08-0.066-0.158-0.115-0.232
		c-0.255-0.393-0.686-0.59-1.133-0.621c-0.095,0.246-0.13,0.51-0.093,0.765c-0.291-0.013-0.558,0.112-0.767,0.31
		c0.096,0.193,0.243,0.359,0.427,0.464c-0.012-0.004-0.025-0.01-0.038-0.015c-0.195-0.072-0.401-0.024-0.569,0.089
		c0.06,0.193,0.188,0.359,0.386,0.427c0.019,0.007,0.038,0.011,0.058,0.016c-0.116,0.166-0.219,0.344-0.303,0.532
		c-0.1-0.02-0.2-0.033-0.306-0.033c-0.109,0-0.213,0.014-0.317,0.036c-0.021-0.073-0.052-0.146-0.095-0.213
		c-0.16-0.244-0.426-0.364-0.705-0.38c-0.026,0.07-0.044,0.142-0.056,0.217c-0.1-0.04-0.206-0.064-0.315-0.07
		c-0.098,0.264-0.094,0.557,0.065,0.798c0.028,0.043,0.062,0.08,0.096,0.117c-0.089,0.033-0.169,0.085-0.239,0.151
		c0.051,0.104,0.125,0.193,0.216,0.258c-0.067,0.169-0.106,0.354-0.106,0.547c0,0.011,0.002,0.025,0.002,0.038
		c-0.296,0.207-0.554,0.469-0.766,0.768c0.534,0.683,1.315,1.145,2.209,1.121c0.04-0.001,0.084-0.004,0.124-0.008
		c-0.016,0.083-0.023,0.168-0.023,0.257c0,0.45,0.218,0.847,0.552,1.095c0.104,0.36,0.428,0.626,0.819,0.626
		c0.226,0,0.429-0.089,0.583-0.23c0.08,0.582,0.312,1.11,0.646,1.538c-0.129,0.244-0.224,0.511-0.261,0.802
		c-0.05-0.011-0.1-0.011-0.15-0.021c-0.17-0.391-0.523-0.661-0.938-0.661c-0.006,0-0.014,0-0.021,0.002
		c-0.09-0.724-0.644-1.277-1.318-1.277c-0.043,0-0.084,0.004-0.125,0.008c-0.127-0.172-0.265-0.33-0.413-0.472
		c-0.011-0.15-0.049-0.298-0.112-0.438c-0.107,0.015-0.214,0.046-0.313,0.087c-0.582-0.412-1.272-0.656-1.99-0.747
		c-0.141,0.32-0.242,0.65-0.307,0.986c-0.164-0.086-0.349-0.127-0.538-0.125c-0.055,0.194-0.064,0.397-0.014,0.586
		c-0.039,0.042-0.074,0.087-0.108,0.133c-0.085-0.049-0.177-0.092-0.274-0.124c-0.539-0.167-1.082-0.027-1.522,0.281
		c0.114,0.339,0.312,0.643,0.585,0.861c-0.153,0.067-0.27,0.196-0.335,0.351c0.146,0.123,0.334,0.19,0.522,0.157
		c-0.035,0.151-0.007,0.307,0.062,0.445c-0.152,0.207-0.277,0.438-0.37,0.689c-0.16-0.046-0.332-0.07-0.505-0.07
		c-0.231,0-0.451,0.041-0.654,0.116c-0.029-0.281-0.108-0.561-0.246-0.828c-0.394-0.719-1.106-1.12-1.875-1.241
		c-0.179,0.374-0.279,0.78-0.279,1.186c-0.012,0-0.023-0.001-0.035-0.001c-0.11,0-0.22,0.01-0.325,0.026
		c-0.636-0.415-1.404-0.528-2.147-0.413c-0.059,0.436-0.038,0.878,0.075,1.292c-0.127,0.029-0.245,0.099-0.337,0.195
		c0.045,0.084,0.107,0.158,0.182,0.216c-0.038-0.003-0.075-0.006-0.112-0.006c-0.24,0-0.465,0.073-0.651,0.196
		c-0.242-0.048-0.485,0.021-0.688,0.162c0.048,0.149,0.128,0.285,0.238,0.395c-0.027,0.068-0.049,0.142-0.062,0.217
		c-0.001,0.011-0.007,0.022-0.01,0.033c-0.189-0.017-0.364,0.061-0.499,0.189c0.091,0.18,0.249,0.322,0.455,0.356
		c0.032,0.006,0.062,0.007,0.093,0.007c0.041,0.128,0.104,0.248,0.186,0.353c-0.095,0.033-0.181,0.088-0.256,0.158
		c0.092,0.18,0.249,0.323,0.454,0.356c0.156,0.028,0.308-0.011,0.433-0.094c0.098,0.026,0.202,0.041,0.309,0.041
		c0.059,0,0.118-0.009,0.176-0.016c0.012,0.146,0.061,0.281,0.136,0.398c-0.342,0.062-0.603,0.291-0.76,0.583
		c0.243,0.246,0.575,0.389,0.923,0.336c0.081-0.012,0.159-0.035,0.231-0.065c-0.011,0.04-0.019,0.082-0.022,0.123
		c0.142,0.061,0.301,0.078,0.449,0.035c-0.006,0.029-0.013,0.063-0.016,0.094c-0.003,0.004-0.008,0.007-0.015,0.009
		c0.005,0.007,0.009,0.015,0.01,0.022c-0.003,0.047-0.005,0.093-0.005,0.141c0,0.441,0.205,0.836,0.517,1.063
		c-0.176,0.101-0.335,0.229-0.475,0.381c-0.694-0.098-1.377,0.117-1.942,0.514c0.236,0.706,0.71,1.313,1.391,1.622
		c0.01,0.038,0.018,0.074,0.026,0.111c-0.187,0.101-0.345,0.247-0.459,0.426c-0.112-0.078-0.246-0.125-0.39-0.141
		c0.021-0.077,0.038-0.157,0.038-0.242c0-0.341-0.201-0.635-0.487-0.775c0.011-0.071,0.008-0.145-0.005-0.216
		c-0.184-0.026-0.372,0.014-0.517,0.139c-0.069-0.089-0.16-0.161-0.274-0.2c-0.199-0.067-0.404-0.018-0.569,0.098
		c0.03,0.094,0.076,0.182,0.141,0.254c-0.051,0.007-0.103,0.018-0.154,0.038c-0.194,0.078-0.318,0.245-0.371,0.444
		c0.158,0.095,0.345,0.137,0.527,0.083c-0.009,0.043-0.012,0.09-0.012,0.136c0,0.445,0.336,0.805,0.77,0.853
		c-0.023,0.078-0.041,0.158-0.041,0.243c0,0.478,0.388,0.861,0.863,0.861c0.197,0,0.373-0.068,0.52-0.179
		c0.178,0.251,0.448,0.434,0.762,0.499c-0.05,0.033-0.098,0.067-0.145,0.105c-0.231-0.102-0.488-0.145-0.756-0.106
		c-0.492,0.076-0.864,0.401-1.092,0.818c0.266,0.266,0.604,0.442,0.968,0.475c-0.214,0.132-0.404,0.297-0.56,0.492
		c-0.227-0.09-0.471-0.06-0.684,0.049c0.038,0.204,0.141,0.391,0.303,0.518c-0.137,0.12-0.253,0.267-0.343,0.431
		c0.073,0.072,0.151,0.135,0.232,0.193c-0.007,0.074-0.013,0.148-0.013,0.226c0,0.599,0.209,0.592,0.563,0.425
		c-0.003,0.023-0.009,0.045-0.011,0.069c0.232,0.099,0.498,0.106,0.728-0.028c0.058-0.034,0.108-0.075,0.153-0.122
		c0.18,0.097,0.385,0.132,0.589,0.071c0.226-0.067,0.387-0.233,0.479-0.437c0.146,0.063,0.294,0.155,0.434,0.261
		c-0.061,0.004-0.119,0.011-0.18,0.027c-0.371,0.092-0.636,0.368-0.781,0.707c0.282,0.237,0.649,0.36,1.021,0.268
		c0.115-0.029,0.218-0.077,0.312-0.137c0.037,0.153,0.132,0.283,0.259,0.377c0.164-0.119,0.275-0.297,0.275-0.508l0,0
		c0.202,0.116,0.364,0.112,0.466-0.15c0.033,0.386,0.208,0.731,0.471,0.983c-0.008,0.002-0.014,0.004-0.02,0.005
		c-0.2,0.066-0.334,0.229-0.397,0.419c0.158,0.114,0.358,0.165,0.551,0.108c-0.012,0.098-0.006,0.2,0.021,0.297
		c0.204,0.005,0.403-0.067,0.53-0.232c0.046-0.059,0.078-0.124,0.098-0.19c0.078,0.015,0.159,0.023,0.24,0.025
		c-0.059,0.042-0.116,0.089-0.17,0.141c-0.27,0.264-0.43,0.588-0.504,0.934c-0.209-0.015-0.412,0.052-0.586,0.173
		c0.084,0.267,0.27,0.495,0.544,0.589c0.05,0.015,0.099,0.025,0.149,0.032c-0.051,0.08-0.082,0.172-0.095,0.268
		c0.152,0.072,0.328,0.093,0.487,0.038c0.152,0.247,0.423,0.412,0.734,0.412c0.055,0,0.105-0.007,0.159-0.015
		c0.249,0.519,1.272-1.42,1.884-1.42c0.086,0,0.474,0.094,0.557,0.08c0.04,0.073,0.049,0.192,0.055,0.319
		c-0.099,0.007-0.2,0.028-0.3,0.068c-0.337,0.137-0.547,0.432-0.639,0.768c0.283,0.173,0.622,0.241,0.938,0.135
		c-0.027,0.301,0.087,0.589,0.275,0.819c0.048-0.02,0.097-0.044,0.144-0.072c0.021-0.012,0.039-0.025,0.061-0.039
		c0.063,0.012,0.129,0.023,0.196,0.032c0.007,0.004,0.014,0.011,0.021,0.016c0.005-0.004,0.01-0.009,0.016-0.013
		c0.075,0.007,0.149,0.011,0.229,0.012c0.404,0.574,0.396-0.186,1.083-0.086c0.336-0.701,1.042-0.427,0.663-1.153
		c-0.107-0.196-0.238-0.366-0.386-0.515c0.051-0.445,0.198-0.881,0.459-1.283c0.109-0.162,0.232-0.309,0.366-0.44v0.001
		c0,0.328,0.176,0.606,0.431,0.794c0.254-0.188,0.43-0.466,0.43-0.794c0-0.19-0.062-0.363-0.16-0.512
		c0.456-0.24,0.967-0.37,1.488-0.395c0.014,0.041,0.026,0.081,0.038,0.123c-0.115,0.137-0.197,0.302-0.245,0.48
		c0.123,0.076,0.258,0.129,0.396,0.159c0.014,0.101,0.026,0.202,0.031,0.302c0.262,0.059,0.421,0.005,0.516-0.111
		c0.027,0.222,0.127,0.429,0.27,0.604c0.323-0.135,0.588-0.389,0.675-0.74c0.072-0.304-0.002-0.602-0.169-0.85
		c0.387,0.164,0.793,0.339,0.789,0.304c1.514,0.11,5.151,0.689,7.441,2.217c0.197,0.132,0.364,0.251,0.512,0.364
		c-0.003,0.059-0.008,0.117-0.008,0.176c0,0.418,0.082,0.812,0.226,1.17c-0.059,2.055-0.244,4.103-0.862,4.924
		c-1.071,1.421-4.21,2.007-6.599,2.358c-8.926,0.967-16.477,2.527-23.15,3.929c3.46,0.286,6.691,0.875,9.55,1.705
		c7.578-1.647,21.61-4.721,56.003-5.509C144.338,67.584,139.532,67.357,133.234,67.353z M122.942,54.301
		c0.101-0.146,0.434-0.207,0.434-0.406c0-0.275-0.314-0.501-0.502-0.655c0.139-0.098,0.271-0.301,0.375-0.44
		c0.096-0.137,0.306-0.211,0.362-0.38c0.053-0.155,0.153-0.291,0.161-0.471c0.055,0.035,0.012,0.035,0.086,0.035
		c0.27,0,0.255-0.272,0.255-0.569c0-0.034,0.146,0.06,0.141,0.026c0.169,0.128,0.447-0.131,0.671-0.131
		c0.28,0,0.635,0.293,0.828,0.095c0.04,0.079,0.144-0.065,0.194,0.011c-0.026,0.154-0.01,0.35-0.024,0.512
		c-0.017,0.157-0.352,0.297-0.352,0.459c0,0.218,0.111,0.432,0.14,0.639c0.026,0.215,0.009,0.351,0.063,0.554l0.083,0.071
		c-0.693,0.535-1.718,0.997-3.185,1.088l-0.008-0.207C122.845,54.486,122.833,54.459,122.942,54.301z M103.474,32.501
		c-0.025-0.025-0.054-0.049-0.087-0.07c0.039,0.017,0.076,0.031,0.115,0.043C103.491,32.483,103.484,32.493,103.474,32.501z
		 M97.53,47.084c-0.205,0.063-0.473-0.023-0.663,0.076c-0.187,0.102-0.321,0.286-0.491,0.413c-0.134-0.211-0.231-0.462-0.42-0.609
		c-0.191-0.154-0.328-0.281-0.56-0.353c0.104-0.122-0.039-0.193,0.02-0.354c0.054-0.147,0.186-0.283,0.186-0.452
		c0-0.188,0.021-0.403-0.042-0.564c-0.072-0.174-0.395-0.237-0.522-0.361c0.046-0.087,0.179-0.295,0.197-0.392
		c0.189-0.042,0.405-0.064,0.573-0.155c0.173-0.09,0.339-0.218,0.477-0.351c0.08,0.145,0.239,0.245,0.35,0.366
		c0.112,0.117,0.236,0.308,0.374,0.396c-0.211,0.071-0.509,0.136-0.64,0.311c-0.127,0.17-0.222,0.423-0.222,0.656
		c0,0.192,0.294,0.271,0.384,0.422c0.091,0.161,0.066,0.371,0.226,0.462c0.155,0.087,0.319-0.052,0.513-0.052
		c0.247,0,0.476,0.214,0.656,0.072c0.061,0.12,0.258,0.282,0.338,0.383C98.047,47.024,97.732,47.024,97.53,47.084z M105.448,51.726
		c-0.176,0.117-0.317,0.203-0.418,0.399c-0.089,0.185-0.173,0.358-0.173,0.58c0,0.045,0.093,0.087,0.093,0.128
		c0-0.003-0.186,0.022-0.19,0.018c0-0.003,0.007-0.034,0.007-0.037c0-0.184-0.076-0.351-0.102-0.526
		c-0.024-0.182,0.158-0.404,0.111-0.577c-0.048-0.176-0.316-0.278-0.387-0.444c-0.07-0.166-0.184-0.437-0.273-0.59
		c0.217-0.087,0.576-0.308,0.77-0.437c0.133,0.162,0.346,0.396,0.506,0.531c0.156,0.131,0.142,0.546,0.318,0.651
		C105.621,51.527,105.543,51.658,105.448,51.726z M106.931,53.425l0.015-0.031c0.123-0.207,0.052-0.421,0.052-0.688
		c0-0.222,0.201-0.497,0.112-0.682c-0.099-0.196-0.362-0.309-0.532-0.429c-0.016-0.008-0.031-0.018-0.049-0.03
		c0.165,0.056,0.336,0.132,0.502,0.132c0.214,0,0.389-0.328,0.589-0.377c0.203-0.053,0.364-0.128,0.547-0.226
		c0.188-0.094,0.33-0.202,0.492-0.338c0.009,0,0.282,0.023,0.282,0.023c0.126,0.233,0.234,0.466,0.445,0.598
		c-0.07,0.191-0.156,0.46-0.156,0.684c0,0.228-0.108,0.464-0.038,0.66c0.071,0.211,0.199,0.417,0.335,0.579
		c0.141,0.167,0.312,0.366,0.503,0.46c0.19,0.092,0.453-0.143,0.679-0.143c0.176,0,0.367,0.196,0.525,0.132
		c0.161-0.064,0.389-0.095,0.521-0.207c0.129-0.113,0.173-0.448,0.265-0.599c0.097,0.223,0.199,0.497,0.354,0.666
		c0.021,0.23,0.133,0.422,0.236,0.611c0.109,0.199,0.085,0.576,0.265,0.699c0.183,0.125,0.532-0.038,0.76-0.019
		c0,0.034-0.219,0.141-0.219,0.181c0,0.215,0.264,0.404,0.338,0.583c0.084,0.193,0.136,0.453,0.328,0.504
		C113.292,55.957,111.918,55.148,106.931,53.425z"/>
	<g>
		<path fill="#9B9A9A" d="M63.641,99.064c-3.956,0-6.557-2.818-6.557-6.521c0-3.56,2.709-6.558,6.521-6.558
			c2.203,0,3.558,0.614,4.859,1.717l-1.409,1.679c-0.976-0.83-1.933-1.354-3.541-1.354c-2.33,0-4.1,2.023-4.1,4.48
			c0,2.619,1.716,4.533,4.299,4.533c1.192,0,2.276-0.378,3.053-0.957v-2.365h-3.232v-1.934h5.382v5.311
			C67.668,98.161,65.88,99.064,63.641,99.064z"/>
		<path fill="#9B9A9A" d="M80.366,98.848l-3.106-4.408h-2.782v4.408h-2.223V86.203h5.637c2.908,0,4.697,1.536,4.697,4.01
			c0,2.096-1.247,3.361-3.018,3.849l3.414,4.786H80.366z M77.711,88.227h-3.233v4.245h3.252c1.59,0,2.602-0.831,2.602-2.132
			C80.331,88.949,79.354,88.227,77.711,88.227z"/>
		<path fill="#9B9A9A" d="M95.142,88.19h-7.154v3.288h6.342v1.986h-6.342v3.396h7.245v1.986h-9.466V86.203h9.375V88.19z"/>
		<path fill="#9B9A9A" d="M107.694,88.19h-7.152v3.288h6.341v1.986h-6.341v3.396h7.243v1.986H98.32V86.203h9.374V88.19z"/>
		<path fill="#9B9A9A" d="M119.708,86.203h2.184v12.645h-1.859l-6.973-8.996v8.996h-2.187V86.203h2.059l6.776,8.744V86.203z"/>
		<path fill="#9B9A9A" d="M133.146,86.168h1.878l3.107,9.411l3.016-9.376h2.331l-4.407,12.735h-1.916l-3.105-9.087l-3.107,9.087
			h-1.914l-4.408-12.735h2.402l3.017,9.376L133.146,86.168z"/>
		<path fill="#9B9A9A" d="M148.554,86.203v12.645h-2.224V86.203H148.554z"/>
		<path fill="#9B9A9A" d="M158.252,99.064c-3.685,0-6.431-2.872-6.431-6.521c0-3.613,2.69-6.558,6.521-6.558
			c2.33,0,3.741,0.813,4.95,1.969l-1.427,1.645c-1.013-0.939-2.095-1.572-3.54-1.572c-2.421,0-4.174,1.987-4.174,4.48
			c0,2.492,1.753,4.516,4.174,4.516c1.553,0,2.547-0.632,3.631-1.643l1.426,1.444C162.062,98.198,160.618,99.064,158.252,99.064z"/>
		<path fill="#9B9A9A" d="M168.385,93.519v5.329h-2.222V86.203h2.222v5.257h6.033v-5.257h2.222v12.645h-2.222v-5.329H168.385z"/>
	</g>
	<g>
		<path fill="#9B9A9A" d="M81.162,121.662h-2.349l-1.282-3.055h-5.979l-1.3,3.055h-2.276l5.563-12.736h2.06L81.162,121.662z
			 M74.532,111.582l-2.168,5.058h4.354L74.532,111.582z"/>
		<path fill="#9B9A9A" d="M88.876,121.878c-3.687,0-6.432-2.872-6.432-6.521c0-3.612,2.691-6.557,6.521-6.557
			c2.33,0,3.738,0.813,4.948,1.97l-1.427,1.644c-1.012-0.94-2.096-1.572-3.54-1.572c-2.42,0-4.172,1.987-4.172,4.479
			c0,2.493,1.752,4.517,4.172,4.517c1.554,0,2.546-0.632,3.631-1.644l1.427,1.445C92.687,121.012,91.242,121.878,88.876,121.878z"/>
		<path fill="#9B9A9A" d="M108.889,121.662h-2.348l-1.284-3.055h-5.978l-1.301,3.055h-2.276l5.563-12.736h2.06L108.889,121.662z
			 M102.259,111.582l-2.167,5.058h4.354L102.259,111.582z"/>
		<path fill="#9B9A9A" d="M116.222,121.662h-4.715v-12.646h4.715c3.973,0,6.72,2.729,6.72,6.305
			C122.941,118.897,120.194,121.662,116.222,121.662z M116.222,111.039h-2.493v8.6h2.493c2.655,0,4.389-1.789,4.389-4.282
			C120.61,112.864,118.877,111.039,116.222,111.039z"/>
		<path fill="#9B9A9A" d="M135.458,111.004h-7.153v3.287h6.341v1.987h-6.341v3.396h7.244v1.987h-9.466v-12.646h9.375V111.004z"/>
		<path fill="#9B9A9A" d="M144.851,118.555h-0.072l-3.956-5.926v9.033h-2.186v-12.646h2.366l3.848,5.979l3.848-5.979h2.366v12.646
			h-2.222v-9.069L144.851,118.555z"/>
		<path fill="#9B9A9A" d="M160.728,121.662h-2.24v-4.986l-5.021-7.66h2.62l3.54,5.601l3.576-5.601h2.547l-5.021,7.605V121.662z"/>
	</g>
</g>
</svg>
