<?xml version="1.0" encoding="utf-8"?>
<!-- Generator: Adobe Illustrator 16.0.0, SVG Export Plug-In . SVG Version: 6.00 Build 0)  -->
<!DOCTYPE svg PUBLIC "-//W3C//DTD SVG 1.1//EN" "http://www.w3.org/Graphics/SVG/1.1/DTD/svg11.dtd">
<svg version="1.1" id="Layer_1" xmlns="http://www.w3.org/2000/svg" xmlns:xlink="http://www.w3.org/1999/xlink" x="0px" y="0px"
	 width="234px" height="153.328px" viewBox="0 0 234 153.328" enable-background="new 0 0 234 153.328" xml:space="preserve">
<rect fill="#FFFFFF" width="234" height="153.328"/>
<g>
	<path fill="#D6D5D4" d="M145.379,69.421c-0.003-0.132-0.076-1.849-3.346-1.849c-3.196,0-3.152,1.752-3.152,1.837
		c0,0.082-0.007,1.729-0.007,1.997c-3.971-1.639-16.711-4.907-17.793-0.946c-0.099,0.362-0.145,0.683-0.145,0.978
		c0-0.013-0.003-0.022-0.005-0.034l0.002,0.09v4.743c0,0,0.013,0.308,0.076,0.556c0,0,0.131,0.315,0.248,0.508
		c-0.856,0.226-2,0.369-3.525,0.369s-2.67-0.144-3.522-0.369c0.116-0.193,0.246-0.509,0.246-0.509
		c0.067-0.247,0.075-0.554,0.075-0.554v-4.743l0.002-0.09c-0.002,0.028-0.008,0.055-0.01,0.084c0.002-0.3-0.044-0.631-0.145-1.002
		c-1.082-3.958-13.813-0.694-17.787,0.942c-0.003-0.165-0.01-1.934-0.01-2.018c0-0.085,0.044-1.837-3.151-1.837
		c-3.252,0-3.346,1.698-3.348,1.845c-0.003-0.02-0.003-0.033-0.003-0.033v4.631c0,0,0.402,3.919,6.625,1.993
		c10.06-3.116,15.937-3.552,15.631-2.127c0,0.001-0.003,0.002-0.005,0.003c-0.476,0.283-0.687,0.611-0.673,0.959l0.003-0.034
		c0,0.048,0,0.108,0.003,0.172l-0.003,4.372c0,0.66,0.054,2.973,6.067,2.973c6.011,0,6.079-2.315,6.079-2.973V74.98
		c-0.003,0.078-0.012,0.167-0.028,0.262c0.025-0.174,0.025-0.322,0.025-0.43l0.003,0.032c0.015-0.348-0.196-0.674-0.673-0.959
		c-0.003,0-0.007-0.002-0.01-0.003c-0.379-1.455,5.509-1.031,15.63,2.104c6.22,1.924,6.626-1.996,6.626-1.996v-4.596
		C145.381,69.394,145.381,69.405,145.379,69.421"/>
	<path fill="#9B9A9A" d="M61.411,95.143l-3.203-7.433c-0.621-1.428-0.862-1.671-2.56-1.671v-0.697
		c1.266,0.025,2.505,0.052,3.743,0.052c0.915,0,1.914-0.052,2.801-0.052v0.697c-0.483,0-1.481,0.027-1.481,0.675
		c0,0.214,0.189,0.755,0.296,1.022l1.753,4.5l1.697-3.691c0.323-0.7,0.483-1.213,0.483-1.643c0-0.863-0.646-0.863-1.804-0.863
		v-0.697c0.994,0.025,2.1,0.052,3.098,0.052c0.727,0,1.589-0.052,2.344-0.052v0.697c-1.401,0-1.94,0.675-2.452,1.726l-2.748,5.765
		l3.233,7.459l4.498-12.309c0.459-1.211,0.483-1.562,0.483-1.752c0-0.484-0.268-0.861-2.021-0.889v-0.697
		c0.998,0.025,2.021,0.052,3.018,0.052c0.675,0,1.454-0.052,2.155-0.052v0.697c-1.267,0-1.562,0.756-1.993,1.859l-6.437,16.646
		h-0.702l-3.636-8.135l-3.798,8.135h-0.754l-6.68-16.377c-0.622-1.482-0.944-2.129-2.829-2.129v-0.697
		c1.186,0.025,2.504,0.052,3.692,0.052c1.022,0,2.153-0.052,3.176-0.052v0.697c-1.238,0-1.668,0.243-1.668,0.62
		c0,0.269,0,0.483,0.295,1.239l5.279,13.09L61.411,95.143z"/>
	<path fill="#9B9A9A" d="M81.414,96.707l0.245-0.161c0.027-0.161,0.027-0.322,0.027-0.485c-0.027-2.855-2.371-4.229-4.555-4.229
		c-1.884,0-5.441,1.562-5.441,6.841c0,1.725,0.863,5.873,5.146,5.873c2.209,0,3.746-1.4,4.982-3.043l-0.377-0.377
		c-0.995,0.996-2.154,1.803-3.636,1.803c-2.155,0-3.799-2.098-3.959-4.658c-0.055-0.914-0.055-1.319,0-1.562H81.414z M73.929,95.844
		c0.322-1.938,1.454-3.15,3.097-3.15c1.508,0,2.345,1.103,2.345,2.479c0,0.321-0.082,0.671-0.754,0.671H73.929z"/>
	<path fill="#9B9A9A" d="M83.742,100.396c0.35,1.779,1.428,3.287,3.396,3.287c1.588,0,2.181-0.972,2.181-1.912
		c0-3.178-5.872-2.155-5.872-6.492c0-1.509,1.213-3.449,4.177-3.449c0.86,0,2.02,0.244,3.068,0.782l0.19,2.748h-0.621
		c-0.268-1.698-1.212-2.667-2.936-2.667c-1.077,0-2.103,0.62-2.103,1.778c0,3.149,6.25,2.181,6.25,6.409
		c0,1.779-1.428,3.664-4.633,3.664c-1.077,0-2.344-0.377-3.285-0.916l-0.297-3.098L83.742,100.396z"/>
	<path fill="#9B9A9A" d="M97.049,100.829c0,1.776,0.971,2.261,1.695,2.261c0.729,0,1.27-0.242,1.889-0.779l0.404,0.402
		c-0.944,0.971-2.13,1.832-3.584,1.832c-1.725,0-2.559-0.914-2.559-2.505v-8.349h-1.778v-0.433c1.399-1.075,2.236-1.589,3.61-3.771
		h0.322v2.748h4.013v1.455h-4.013V100.829z"/>
	<path fill="#9B9A9A" d="M104.078,95.253c0-1.187-0.402-1.348-1.4-1.886v-0.43c1.267-0.379,2.746-0.893,2.883-0.971
		c0.187-0.109,0.35-0.137,0.485-0.137c0.133,0,0.188,0.163,0.188,0.379v1.643c1.481-1.051,2.722-2.021,4.66-2.021
		c1.429,0,2.479,0.674,2.854,2.075c1.455-0.968,2.694-2.075,4.634-2.075c2.344,0,3.206,1.832,3.206,3.801v6.922
		c0,0.889,0.592,0.889,1.346,0.889h0.404v0.699c-0.859,0-1.804-0.053-2.773-0.053s-1.938,0.027-2.909,0.053v-0.699h0.485
		c0.752,0,1.293,0,1.293-0.889V96.6c0-1.696-0.351-3.312-2.343-3.312c-1.052,0-2.562,0.861-3.18,1.293v7.973
		c0,0.889,0.617,0.889,1.374,0.889h0.485v0.699c-0.943,0-1.914-0.053-2.884-0.053c-0.971,0-1.938,0.027-2.908,0.053v-0.699h0.485
		c0.754,0,1.292,0,1.292-0.889V96.6c0-1.696-0.35-3.312-2.344-3.312c-1.049,0-2.56,0.861-3.179,1.293v7.973
		c0,0.889,0.595,0.889,1.348,0.889h0.483v0.699c-0.941,0-1.886-0.053-2.854-0.053c-0.972,0-1.941,0.027-2.99,0.053v-0.699h0.565
		c0.754,0,1.292,0,1.292-0.889V95.253z"/>
	<path fill="#9B9A9A" d="M127.728,89.729c-0.698,0-1.319-0.646-1.319-1.347c0-0.675,0.648-1.292,1.319-1.292
		c0.7,0,1.32,0.564,1.32,1.292C129.048,89.11,128.456,89.729,127.728,89.729 M124.846,103.441h0.513c0.755,0,1.292,0,1.292-0.889
		v-7.3c0-1.187-0.402-1.348-1.4-1.886v-0.43c1.266-0.379,2.774-0.893,2.881-0.971c0.189-0.109,0.351-0.136,0.485-0.136
		c0.136,0,0.19,0.162,0.19,0.378v10.344c0,0.889,0.592,0.889,1.346,0.889h0.457v0.699c-0.916,0-1.857-0.053-2.828-0.053
		c-0.969,0-1.939,0.027-2.936,0.053V103.441z"/>
	<path fill="#9B9A9A" d="M133.979,95.414c0-0.996-0.296-1.268-1.562-1.779v-0.51c1.157-0.379,2.262-0.729,3.554-1.295
		c0.08,0,0.161,0.057,0.161,0.271v1.75c1.536-1.105,2.855-2.021,4.658-2.021c2.291,0,3.1,1.671,3.1,3.771v6.951
		c0,0.889,0.594,0.889,1.349,0.889h0.485v0.699c-0.945,0-1.888-0.053-2.857-0.053c-0.972,0-1.938,0.027-2.909,0.053v-0.699h0.484
		c0.755,0,1.294,0,1.294-0.889v-6.977c0-1.537-0.945-2.291-2.479-2.291c-0.862,0-2.233,0.703-3.125,1.295v7.973
		c0,0.889,0.593,0.889,1.348,0.889h0.483v0.699c-0.939,0-1.885-0.053-2.853-0.053c-0.972,0-1.94,0.027-2.912,0.053v-0.699h0.485
		c0.756,0,1.295,0,1.295-0.889V95.414z"/>
	<path fill="#9B9A9A" d="M147.462,100.396c0.351,1.779,1.428,3.287,3.393,3.287c1.591,0,2.184-0.972,2.184-1.912
		c0-3.178-5.875-2.155-5.875-6.492c0-1.509,1.213-3.449,4.178-3.449c0.86,0,2.021,0.244,3.069,0.782l0.19,2.748h-0.621
		c-0.27-1.698-1.212-2.667-2.937-2.667c-1.078,0-2.102,0.62-2.102,1.778c0,3.149,6.253,2.181,6.253,6.409
		c0,1.779-1.43,3.664-4.635,3.664c-1.079,0-2.344-0.377-3.286-0.916l-0.297-3.098L147.462,100.396z"/>
	<path fill="#9B9A9A" d="M160.768,100.829c0,1.776,0.969,2.261,1.696,2.261c0.729,0,1.267-0.242,1.886-0.779l0.404,0.402
		c-0.942,0.971-2.128,1.832-3.584,1.832c-1.723,0-2.555-0.914-2.555-2.505v-8.349h-1.78v-0.433c1.4-1.075,2.237-1.589,3.611-3.771
		h0.321v2.748h4.013v1.455h-4.013V100.829z"/>
	<path fill="#9B9A9A" d="M175.932,96.707l0.243-0.161c0.027-0.161,0.027-0.322,0.027-0.485c-0.027-2.855-2.371-4.229-4.553-4.229
		c-1.884,0-5.438,1.562-5.438,6.841c0,1.725,0.86,5.873,5.144,5.873c2.207,0,3.741-1.4,4.983-3.043l-0.38-0.377
		c-0.995,0.996-2.151,1.803-3.635,1.803c-2.155,0-3.797-2.098-3.96-4.658c-0.051-0.914-0.051-1.319,0-1.562H175.932z
		 M168.445,95.844c0.322-1.938,1.453-3.15,3.097-3.15c1.509,0,2.344,1.103,2.344,2.479c0,0.321-0.079,0.671-0.754,0.671H168.445z"/>
	<path fill="#9B9A9A" d="M177.897,103.441h0.729c0.755,0,1.291,0,1.291-0.889v-7.568c0-0.836-0.995-0.998-1.398-1.214v-0.403
		c1.965-0.836,3.044-1.536,3.284-1.536c0.163,0,0.244,0.082,0.244,0.353v2.423h0.052c0.676-1.051,1.806-2.775,3.449-2.775
		c0.673,0,1.533,0.459,1.533,1.428c0,0.728-0.51,1.374-1.265,1.374c-0.834,0-0.834-0.646-1.776-0.646
		c-0.459,0-1.967,0.62-1.967,2.236v6.33c0,0.889,0.537,0.889,1.291,0.889h1.51v0.699c-1.482-0.025-2.612-0.053-3.771-0.053
		c-1.104,0-2.234,0.027-3.206,0.053V103.441z"/>
	<path fill="#9B9A9A" d="M81.747,125.805h0.62c0.456,2.021,1.965,3.987,4.199,3.987c2.074,0,3.691-1.457,3.691-3.583
		c0-5.012-7.974-3.529-7.974-9.886c0-3.476,2.478-5.28,5.766-5.28c1.104,0,2.208,0.242,3.284,0.404l0.432,3.447h-0.619
		c-0.296-1.884-1.534-2.991-3.476-2.991c-2.047,0-3.232,1.483-3.232,3.45c0,5.01,8.298,3.637,8.298,9.831
		c0,3.501-3.153,5.466-6.33,5.466c-1.401,0-2.854-0.32-4.122-0.913L81.747,125.805z"/>
	<path fill="#9B9A9A" d="M103.332,120.981c-1.129,0-1.078-2.181-3.608-2.181c-2.316,0-3.528,2.586-3.528,4.635
		c0,2.773,1.776,5.224,4.713,5.224c1.375,0,2.264-0.483,3.287-1.265l0.456,0.457c-1.319,1.534-3.122,2.801-5.252,2.801
		c-2.801,0-5.358-2.721-5.358-5.574c0-3.906,2.799-7.139,6.68-7.139c1.373,0,3.636,0.43,3.636,1.859
		C104.356,120.418,103.979,120.981,103.332,120.981"/>
	<path fill="#9B9A9A" d="M107.222,113.655c0-1.752-0.403-1.804-1.428-2.101v-0.43c1.077-0.352,2.208-0.837,2.775-1.158
		c0.295-0.162,0.513-0.297,0.591-0.297c0.162,0,0.214,0.16,0.214,0.375v10.264c0.244-0.215,1.968-2.371,4.15-2.371
		c2.344,0,3.61,1.727,3.61,4.068v6.654c0,0.887,0.591,0.887,1.347,0.887h0.484v0.701c-0.942,0-1.886-0.054-2.909-0.054
		c-0.97,0-1.938,0.028-2.909,0.054v-0.701h0.485c1.266,0,1.345-0.295,1.345-2.936v-3.042c0-1.968-0.188-4.015-2.639-4.015
		c-1.267,0-2.344,0.943-2.965,1.509v7.597c0,0.887,0.595,0.887,1.349,0.887h0.484v0.701c-0.941,0-1.885-0.054-2.855-0.054
		c-0.968,0-1.938,0.028-2.907,0.054v-0.701h0.485c0.752,0,1.292,0,1.292-0.887V113.655z"/>
	<path fill="#9B9A9A" d="M119.616,124.349c0,3.827,2.937,6.304,6.52,6.304c3.445,0,6.195-2.936,6.195-6.41
		c0-3.826-2.801-6.305-6.547-6.305C122.178,117.938,119.616,120.875,119.616,124.349 M122.095,124.079c0-2.315,1.05-5.44,3.719-5.44
		c2.854,0,4.039,3.664,4.039,5.873c0,2.316-1.051,5.439-3.745,5.439C123.278,129.951,122.095,126.289,122.095,124.079"/>
	<path fill="#9B9A9A" d="M133.988,124.349c0,3.827,2.939,6.304,6.522,6.304c3.447,0,6.192-2.936,6.192-6.41
		c0-3.826-2.8-6.305-6.543-6.305C136.55,117.938,133.988,120.875,133.988,124.349 M136.47,124.079c0-2.315,1.047-5.44,3.715-5.44
		c2.856,0,4.042,3.664,4.042,5.873c0,2.316-1.049,5.439-3.743,5.439C137.654,129.951,136.47,126.289,136.47,124.079"/>
	<path fill="#9B9A9A" d="M147.492,129.549h0.511c0.754,0,1.292,0,1.292-0.89v-15.003c0-1.752-0.404-1.805-1.427-2.102v-0.432
		c1.077-0.35,2.208-0.834,2.774-1.158c0.297-0.16,0.511-0.295,0.594-0.295c0.161,0,0.216,0.161,0.216,0.377v18.612
		c0,0.89,0.591,0.89,1.345,0.89h0.459v0.699c-0.917,0-1.858-0.053-2.831-0.053c-0.968,0-1.938,0.027-2.933,0.053V129.549z"/>
	<path fill="#9B9A9A" d="M98.077,16.981v26.24c0,11.029,17.544,24.366,19.551,25.856c2.008-1.49,19.554-14.827,19.554-25.855V16.981
		H98.077z M117.628,69.86l-0.186-0.133c-0.05-0.037-5.047-3.651-9.974-8.683c-6.652-6.789-10.023-12.786-10.023-17.823V16.348
		h40.369v26.875c0,5.037-3.372,11.033-10.025,17.822c-4.929,5.032-9.928,8.646-9.977,8.683L117.628,69.86z"/>
	<path fill="#9B9A9A" d="M135.593,18.573v24.006c0,10.795-17.967,23.728-17.967,23.728S99.669,53.374,99.669,42.579V18.573H135.593z
		"/>
	<path fill="#D6D5D4" d="M113.465,54.581c0,0,0.291-0.42,0.016-0.42C113.19,54.161,113.465,54.581,113.465,54.581 M114.866,59.582
		c-3.812-0.462-1.065-4.509-2.05-4.741c-0.072-0.017-0.246-0.145-0.246-0.145c0.279-0.108,0.338-0.248,0.36-0.318
		c0.48-1.344,2.283-1.415,2.14,1.458c-0.002,0.055,0.228,0.509,0.518,0.827c1.955,2.121,4.894,2.444,4.105,2.747
		c-2.253,0.865-4.98-0.875-5.058-0.723c-0.027,0.058,2.228,1.329,4.308,0.983c0.114-0.02,1.097,0.374,1.619,0.52
		c0.369,0.101,0.575-0.029,0.725,0.143c0.143,0.175-0.378,0.811-0.609,0.984c-0.489,0.367-1.356-0.173-4.249-1.416
		c-0.286-0.124-0.138-0.329-0.261-0.289c-0.175,0.058,0.031,1.301-0.26,1.329c-0.144,0.016-0.202,0.144-0.575,0
		C115.075,60.841,115.044,59.604,114.866,59.582"/>
	<path fill="#9B9A9A" d="M113.479,54.187c-0.05,0-0.083,0.013-0.097,0.041c-0.039,0.07,0.035,0.225,0.084,0.309
		c0.052-0.084,0.136-0.244,0.098-0.314C113.554,54.198,113.525,54.187,113.479,54.187 M113.465,54.624l-0.02-0.029
		c-0.02-0.027-0.17-0.269-0.105-0.391c0.023-0.044,0.071-0.066,0.14-0.066c0.066,0,0.109,0.021,0.129,0.062
		c0.062,0.119-0.104,0.368-0.123,0.396L113.465,54.624z M116.194,59.582c0.048,0,0.055,0.042,0.061,0.078
		c0.013,0.061,0.028,0.151,0.185,0.217c0.603,0.26,1.113,0.487,1.562,0.687c1.225,0.542,1.896,0.841,2.309,0.841
		c0.141,0,0.255-0.034,0.354-0.109c0.188-0.142,0.591-0.615,0.622-0.858c0.004-0.04-0.002-0.071-0.018-0.09
		c-0.076-0.09-0.17-0.09-0.31-0.091c-0.108,0-0.241,0-0.401-0.043c-0.233-0.066-0.563-0.182-0.857-0.285
		c-0.345-0.121-0.67-0.236-0.746-0.236c-0.243,0.04-0.498,0.06-0.756,0.06c-1.804,0-3.523-0.957-3.582-1.049l-0.007-0.012
		l0.006-0.016c0.003-0.01,0.016-0.023,0.043-0.023c0.065,0,0.215,0.064,0.461,0.169c0.663,0.281,1.896,0.806,3.185,0.806
		c0.5,0,0.966-0.081,1.381-0.241c0.101-0.038,0.116-0.07,0.116-0.084c0.003-0.08-0.31-0.211-0.705-0.377
		c-0.885-0.372-2.368-0.993-3.523-2.248c-0.298-0.321-0.528-0.779-0.526-0.842c0.062-1.222-0.228-1.794-0.479-2.061
		c-0.168-0.177-0.368-0.269-0.587-0.269c-0.426,0-0.838,0.354-1.025,0.879c-0.019,0.058-0.067,0.201-0.333,0.316
		c0.059,0.042,0.155,0.104,0.201,0.117c0.356,0.084,0.258,0.616,0.132,1.29c-0.155,0.843-0.348,1.892,0.19,2.624
		c0.328,0.449,0.909,0.727,1.727,0.825c0.094,0.012,0.137,0.221,0.207,0.59c0.061,0.321,0.136,0.721,0.264,0.77
		c0.114,0.044,0.207,0.065,0.284,0.065c0.071,0,0.119-0.018,0.168-0.035c0.036-0.014,0.071-0.027,0.112-0.031
		c0.141-0.014,0.148-0.424,0.155-0.753c0.004-0.347,0.011-0.546,0.099-0.575C116.175,59.584,116.185,59.582,116.194,59.582
		 M120.311,61.453c-0.423,0-1.1-0.299-2.328-0.846c-0.45-0.2-0.959-0.425-1.563-0.685c-0.18-0.078-0.198-0.188-0.212-0.255
		c-0.003-0.013-0.006-0.033-0.01-0.036c-0.006,0.001-0.011,0-0.02,0.003c-0.061,0.02-0.065,0.303-0.068,0.53
		c-0.008,0.384-0.014,0.782-0.199,0.801c-0.033,0.004-0.067,0.015-0.1,0.027c-0.049,0.017-0.103,0.04-0.185,0.04
		c-0.084,0-0.183-0.024-0.303-0.068c-0.152-0.059-0.225-0.441-0.294-0.809c-0.047-0.244-0.103-0.542-0.166-0.55
		c-0.829-0.102-1.42-0.383-1.759-0.843c-0.552-0.749-0.356-1.81-0.196-2.664c0.119-0.648,0.214-1.159-0.097-1.233
		c-0.079-0.019-0.248-0.144-0.256-0.149l-0.034-0.027l0.039-0.017c0.282-0.108,0.33-0.25,0.348-0.302
		c0.193-0.548,0.624-0.914,1.071-0.914c0.229,0,0.444,0.099,0.622,0.285c0.26,0.272,0.556,0.857,0.493,2.096
		c0.002,0.052,0.229,0.498,0.513,0.807c1.148,1.249,2.626,1.865,3.507,2.235c0.51,0.214,0.738,0.313,0.734,0.423
		c0,0.065-0.083,0.105-0.146,0.129c-0.424,0.162-0.892,0.243-1.399,0.243c-1.298,0-2.536-0.526-3.204-0.81
		c-0.192-0.082-0.338-0.144-0.411-0.16c0.249,0.18,1.845,0.998,3.51,0.998c0.255,0,0.507-0.019,0.742-0.058
		c0.065-0.014,0.394,0.102,0.777,0.237c0.29,0.103,0.621,0.218,0.854,0.283c0.154,0.042,0.281,0.044,0.388,0.044
		c0.143,0.001,0.254,0.001,0.348,0.106c0.023,0.032,0.033,0.074,0.028,0.127c-0.031,0.256-0.447,0.746-0.644,0.893
		C120.586,61.414,120.462,61.453,120.311,61.453"/>
	<path fill="#D6D5D4" d="M123.262,22.75c0,0,0.368-0.535,0.018-0.535C122.911,22.215,123.262,22.75,123.262,22.75 M125.044,29.105
		c-4.85-0.588-1.358-5.732-2.609-6.024c-0.089-0.024-0.312-0.187-0.312-0.187c0.36-0.137,0.428-0.313,0.459-0.403
		c0.607-1.708,2.902-1.8,2.718,1.855c0,0.068,0.292,0.645,0.664,1.048c2.48,2.699,6.218,3.105,5.217,3.491
		c-2.864,1.101-6.334-1.111-6.432-0.919c-0.037,0.075,2.83,1.689,5.478,1.251c0.143-0.027,1.395,0.476,2.055,0.66
		c0.467,0.13,0.736-0.038,0.919,0.184c0.185,0.221-0.476,1.029-0.77,1.25c-0.623,0.465-1.728-0.221-5.403-1.801
		c-0.362-0.155-0.177-0.417-0.329-0.369c-0.222,0.077,0.035,1.657-0.331,1.693c-0.183,0.018-0.259,0.184-0.733,0
		C125.307,30.705,125.265,29.132,125.044,29.105"/>
	<path fill="#9B9A9A" d="M123.278,22.24c-0.065,0-0.109,0.017-0.128,0.055c-0.054,0.096,0.049,0.306,0.111,0.41
		c0.068-0.107,0.182-0.321,0.133-0.416C123.376,22.256,123.338,22.24,123.278,22.24 M123.26,22.793l-0.02-0.029
		c-0.009-0.014-0.217-0.336-0.133-0.491c0.027-0.054,0.087-0.082,0.171-0.082c0.08,0,0.134,0.026,0.159,0.075
		c0.078,0.15-0.133,0.463-0.157,0.498L123.26,22.793z M126.728,29.11c0.056,0,0.063,0.047,0.071,0.094
		c0.015,0.078,0.035,0.195,0.239,0.283c0.764,0.33,1.409,0.616,1.979,0.868c1.559,0.691,2.417,1.075,2.945,1.075
		c0.182,0,0.325-0.045,0.451-0.14c0.243-0.181,0.754-0.782,0.791-1.095c0.006-0.052-0.001-0.092-0.024-0.119
		c-0.097-0.117-0.216-0.117-0.396-0.118c-0.136,0-0.307-0.001-0.512-0.059c-0.296-0.081-0.717-0.23-1.089-0.36
		c-0.437-0.154-0.85-0.3-0.949-0.3c-0.003,0-0.005,0-0.007,0.001c-0.305,0.049-0.627,0.075-0.96,0.075
		c-2.291,0-4.468-1.213-4.539-1.329c-0.009-0.014-0.006-0.025-0.003-0.03c0.007-0.014,0.019-0.026,0.052-0.026
		c0.08,0,0.278,0.086,0.58,0.213c0.842,0.358,2.411,1.025,4.05,1.025c0.64,0,1.232-0.102,1.763-0.309
		c0.099-0.034,0.149-0.075,0.149-0.11c0.002-0.109-0.374-0.265-0.896-0.482c-1.128-0.471-3.012-1.26-4.479-2.856
		c-0.375-0.406-0.672-0.984-0.67-1.066c0.044-0.857-0.027-2.012-0.612-2.624c-0.213-0.226-0.475-0.346-0.753-0.346
		c-0.542,0-1.067,0.452-1.306,1.123c-0.031,0.088-0.094,0.263-0.43,0.404c0.074,0.053,0.205,0.141,0.266,0.155
		c0.445,0.104,0.322,0.778,0.165,1.632c-0.197,1.073-0.445,2.409,0.241,3.341c0.42,0.571,1.161,0.924,2.2,1.05
		c0.114,0.014,0.172,0.292,0.257,0.743c0.078,0.411,0.175,0.923,0.336,0.986c0.148,0.056,0.269,0.083,0.366,0.083
		c0.093,0,0.155-0.023,0.216-0.047c0.045-0.017,0.089-0.034,0.142-0.038c0.187-0.017,0.193-0.543,0.201-0.963
		c0.007-0.426,0.019-0.691,0.123-0.726C126.705,29.112,126.718,29.11,126.728,29.11 M131.963,31.477
		c-0.54,0-1.402-0.382-2.967-1.076c-0.57-0.254-1.213-0.54-1.978-0.868c-0.228-0.098-0.252-0.237-0.269-0.32
		c-0.008-0.049-0.011-0.053-0.022-0.053c-0.005,0-0.013,0.001-0.024,0.004c-0.077,0.028-0.083,0.376-0.089,0.682
		c-0.01,0.486-0.016,0.988-0.246,1.011c-0.047,0.005-0.088,0.021-0.129,0.037c-0.062,0.022-0.132,0.049-0.233,0.049
		c-0.104,0-0.229-0.028-0.381-0.086c-0.189-0.075-0.279-0.556-0.37-1.023c-0.061-0.326-0.13-0.694-0.214-0.704
		c-1.053-0.127-1.805-0.488-2.232-1.071c-0.699-0.948-0.451-2.295-0.252-3.378c0.153-0.827,0.273-1.482-0.128-1.576
		c-0.095-0.022-0.312-0.181-0.319-0.188l-0.035-0.026l0.04-0.016c0.353-0.137,0.415-0.308,0.443-0.391
		c0.245-0.69,0.791-1.155,1.353-1.155c0.293,0,0.564,0.124,0.788,0.359c0.329,0.346,0.706,1.087,0.627,2.66
		c-0.002,0.062,0.292,0.638,0.656,1.03c1.46,1.589,3.34,2.375,4.463,2.844c0.598,0.25,0.928,0.39,0.925,0.529
		c0,0.059-0.057,0.11-0.179,0.156c-0.539,0.208-1.137,0.311-1.782,0.311c-1.648,0-3.225-0.67-4.068-1.029
		c-0.271-0.116-0.471-0.201-0.55-0.209c0.227,0.189,2.299,1.287,4.479,1.287c0.331,0,0.648-0.024,0.95-0.075
		c0.007-0.001,0.012-0.001,0.017-0.001c0.109,0,0.505,0.14,0.966,0.302c0.371,0.131,0.792,0.279,1.087,0.36
		c0.198,0.056,0.364,0.057,0.497,0.057c0.18,0.001,0.322,0.001,0.434,0.137c0.031,0.036,0.043,0.088,0.034,0.153
		c-0.036,0.325-0.56,0.946-0.81,1.13C132.308,31.431,132.156,31.477,131.963,31.477"/>
	<path fill="#D6D5D4" d="M106.209,40.902c0,0,0.288-0.42,0.014-0.42C105.932,40.482,106.209,40.902,106.209,40.902 M107.608,45.903
		c-3.816-0.462-1.069-4.51-2.05-4.741c-0.072-0.016-0.247-0.145-0.247-0.145c0.282-0.106,0.336-0.248,0.36-0.317
		c0.476-1.344,2.283-1.417,2.141,1.458c-0.003,0.054,0.229,0.51,0.521,0.824c1.948,2.124,4.89,2.445,4.103,2.747
		c-2.255,0.868-4.981-0.873-5.059-0.722c-0.026,0.057,2.226,1.329,4.307,0.983c0.114-0.02,1.098,0.374,1.619,0.519
		c0.366,0.102,0.577-0.028,0.723,0.144c0.146,0.173-0.376,0.81-0.607,0.983c-0.488,0.368-1.358-0.173-4.251-1.417
		c-0.282-0.123-0.139-0.328-0.258-0.29c-0.176,0.06,0.027,1.301-0.26,1.33c-0.143,0.016-0.203,0.145-0.578,0
		C107.815,47.164,107.785,45.923,107.608,45.903"/>
	<path fill="#9B9A9A" d="M106.223,40.507c-0.052,0-0.082,0.014-0.098,0.04c-0.04,0.073,0.035,0.227,0.084,0.311
		c0.053-0.086,0.136-0.245,0.099-0.314C106.296,40.519,106.267,40.507,106.223,40.507 M106.209,40.948l-0.021-0.032
		c-0.02-0.027-0.173-0.268-0.105-0.391c0.024-0.044,0.07-0.068,0.141-0.068c0.062,0,0.105,0.021,0.127,0.063
		c0.063,0.12-0.104,0.369-0.122,0.396L106.209,40.948z M108.938,45.902c0.045,0,0.052,0.041,0.061,0.078
		c0.011,0.061,0.026,0.15,0.181,0.219c0.609,0.262,1.122,0.488,1.574,0.69c1.216,0.54,1.888,0.837,2.299,0.837
		c0.142,0,0.254-0.036,0.35-0.109c0.194-0.144,0.597-0.625,0.625-0.862c0.002-0.038-0.003-0.067-0.019-0.086
		c-0.074-0.09-0.168-0.092-0.308-0.092c-0.106,0-0.241,0-0.403-0.046c-0.23-0.064-0.562-0.181-0.851-0.283
		c-0.347-0.121-0.672-0.237-0.752-0.237c-0.243,0.041-0.497,0.062-0.759,0.062c-1.734,0-3.495-0.918-3.578-1.05l-0.006-0.011
		l0.005-0.016c0.005-0.011,0.016-0.024,0.045-0.024c0.063,0,0.214,0.063,0.459,0.168c0.662,0.282,1.894,0.807,3.183,0.807
		c0.502,0,0.969-0.08,1.386-0.241c0.098-0.04,0.113-0.069,0.115-0.083c0-0.083-0.311-0.213-0.704-0.377
		c-0.887-0.37-2.371-0.992-3.525-2.249c-0.296-0.32-0.529-0.778-0.527-0.842c0.063-1.221-0.228-1.793-0.479-2.06
		c-0.169-0.177-0.372-0.27-0.589-0.27c-0.426,0-0.838,0.355-1.023,0.881c-0.021,0.062-0.074,0.203-0.332,0.316
		c0.059,0.042,0.157,0.104,0.2,0.114c0.355,0.084,0.258,0.616,0.132,1.289c-0.156,0.844-0.349,1.895,0.188,2.628
		c0.33,0.447,0.911,0.724,1.727,0.822c0.095,0.012,0.139,0.222,0.208,0.59c0.061,0.323,0.137,0.723,0.262,0.772
		c0.113,0.043,0.21,0.065,0.288,0.065c0.072,0,0.119-0.019,0.168-0.037c0.035-0.014,0.07-0.025,0.111-0.03
		c0.141-0.016,0.148-0.425,0.153-0.751c0.005-0.348,0.015-0.549,0.102-0.578C108.915,45.905,108.926,45.902,108.938,45.902
		 M113.052,47.776c-0.423,0-1.098-0.299-2.318-0.843c-0.452-0.2-0.966-0.426-1.573-0.69c-0.181-0.077-0.199-0.188-0.212-0.253
		c-0.002-0.015-0.005-0.036-0.011-0.038c-0.006,0-0.011,0-0.019,0.004c-0.062,0.02-0.065,0.304-0.069,0.533
		c-0.006,0.382-0.013,0.778-0.196,0.797c-0.035,0.002-0.068,0.017-0.101,0.028c-0.049,0.019-0.105,0.04-0.185,0.04
		c-0.085,0-0.185-0.022-0.304-0.069c-0.152-0.058-0.226-0.438-0.294-0.808c-0.046-0.241-0.103-0.542-0.165-0.549
		c-0.831-0.103-1.422-0.386-1.762-0.846c-0.549-0.749-0.354-1.811-0.196-2.663c0.119-0.648,0.214-1.16-0.095-1.233
		c-0.076-0.016-0.238-0.134-0.255-0.148l-0.036-0.026l0.041-0.016c0.276-0.107,0.325-0.245,0.348-0.303
		c0.192-0.547,0.621-0.914,1.068-0.914c0.232,0,0.447,0.099,0.624,0.286c0.26,0.271,0.557,0.857,0.493,2.096
		c0,0.053,0.229,0.498,0.516,0.807c1.146,1.248,2.623,1.868,3.507,2.234c0.51,0.214,0.735,0.313,0.732,0.424
		c0,0.064-0.084,0.103-0.146,0.129c-0.422,0.162-0.895,0.244-1.401,0.244c-1.297,0-2.537-0.527-3.202-0.811
		c-0.193-0.082-0.338-0.143-0.408-0.161c0.246,0.179,1.839,1.001,3.503,1.001c0.26,0,0.51-0.023,0.746-0.06
		c0.003-0.001,0.008-0.001,0.013-0.001c0.089,0,0.402,0.11,0.767,0.239c0.29,0.102,0.619,0.217,0.849,0.282
		c0.155,0.042,0.286,0.044,0.391,0.044c0.143,0,0.256,0.001,0.345,0.106c0.026,0.03,0.036,0.072,0.029,0.126
		c-0.031,0.257-0.447,0.746-0.641,0.894C113.329,47.736,113.203,47.776,113.052,47.776"/>
	<path fill="#D6D5D4" d="M121.957,40.902c0,0,0.287-0.42,0.014-0.42C121.68,40.482,121.957,40.902,121.957,40.902 M123.356,45.903
		c-3.813-0.462-1.067-4.51-2.051-4.741c-0.07-0.016-0.248-0.145-0.248-0.145c0.284-0.106,0.338-0.248,0.361-0.317
		c0.479-1.344,2.284-1.417,2.138,1.458c0,0.054,0.231,0.51,0.522,0.824c1.952,2.124,4.89,2.445,4.105,2.747
		c-2.256,0.868-4.982-0.873-5.06-0.722c-0.028,0.057,2.228,1.329,4.307,0.983c0.113-0.02,1.101,0.374,1.618,0.519
		c0.369,0.102,0.58-0.028,0.724,0.144c0.144,0.173-0.376,0.81-0.605,0.983c-0.489,0.368-1.359-0.173-4.248-1.417
		c-0.288-0.123-0.142-0.328-0.262-0.29c-0.173,0.06,0.028,1.301-0.26,1.33c-0.144,0.016-0.202,0.145-0.58,0
		C123.564,47.164,123.533,45.923,123.356,45.903"/>
	<path fill="#9B9A9A" d="M121.971,40.507c-0.052,0-0.082,0.014-0.1,0.042c-0.036,0.07,0.037,0.224,0.086,0.309
		c0.051-0.086,0.134-0.245,0.098-0.316C122.042,40.518,122.015,40.507,121.971,40.507 M121.954,40.948l-0.019-0.032
		c-0.018-0.027-0.171-0.268-0.105-0.391c0.024-0.044,0.07-0.068,0.141-0.068c0.063,0,0.105,0.021,0.128,0.061
		c0.063,0.122-0.104,0.371-0.122,0.397L121.954,40.948z M124.683,45.902c0.047,0,0.055,0.041,0.061,0.078
		c0.012,0.061,0.029,0.15,0.186,0.219c0.606,0.26,1.119,0.488,1.57,0.687c1.218,0.542,1.89,0.841,2.302,0.841
		c0.141,0,0.255-0.036,0.352-0.109c0.193-0.145,0.594-0.625,0.619-0.862c0.007-0.038,0-0.067-0.017-0.086
		c-0.074-0.09-0.168-0.092-0.306-0.092c-0.109,0-0.241,0-0.404-0.046c-0.23-0.064-0.546-0.175-0.846-0.28
		c-0.349-0.124-0.678-0.239-0.758-0.239c-0.243,0.041-0.498,0.062-0.758,0.062c-1.812,0-3.522-0.957-3.576-1.05l-0.009-0.012
		l0.006-0.016c0.006-0.01,0.018-0.022,0.046-0.022c0.062,0,0.211,0.063,0.456,0.168c0.662,0.282,1.895,0.807,3.185,0.807
		c0.501,0,0.969-0.08,1.384-0.241c0.101-0.04,0.116-0.069,0.116-0.083c0.001-0.083-0.31-0.211-0.703-0.377
		c-0.887-0.37-2.371-0.992-3.525-2.249c-0.291-0.313-0.529-0.774-0.529-0.84c0.062-1.222-0.226-1.796-0.48-2.062
		c-0.166-0.177-0.369-0.27-0.586-0.27c-0.426,0-0.838,0.355-1.022,0.881c-0.019,0.057-0.067,0.2-0.335,0.316
		c0.061,0.042,0.159,0.104,0.201,0.114c0.357,0.084,0.258,0.616,0.134,1.289c-0.155,0.845-0.349,1.895,0.188,2.628
		c0.329,0.447,0.911,0.724,1.729,0.822c0.093,0.012,0.137,0.222,0.204,0.591c0.062,0.322,0.137,0.722,0.262,0.771
		c0.116,0.043,0.211,0.065,0.287,0.065c0.072,0,0.121-0.019,0.169-0.037c0.037-0.014,0.069-0.025,0.112-0.03
		c0.141-0.016,0.148-0.427,0.154-0.757c0.006-0.344,0.012-0.544,0.099-0.573C124.663,45.905,124.672,45.902,124.683,45.902
		 M128.801,47.776c-0.424,0-1.097-0.301-2.321-0.845c-0.451-0.199-0.963-0.426-1.571-0.689c-0.179-0.077-0.201-0.188-0.214-0.253
		c-0.002-0.015-0.004-0.036-0.008-0.038c-0.006,0-0.012,0-0.023,0.004c-0.056,0.02-0.062,0.302-0.064,0.526
		c-0.008,0.386-0.015,0.786-0.198,0.804c-0.037,0.002-0.067,0.017-0.102,0.028c-0.047,0.019-0.104,0.04-0.185,0.04
		c-0.083,0-0.183-0.022-0.304-0.069c-0.151-0.058-0.222-0.438-0.292-0.807c-0.046-0.241-0.102-0.543-0.165-0.55
		c-0.829-0.103-1.422-0.386-1.76-0.844c-0.551-0.749-0.355-1.811-0.196-2.664c0.119-0.648,0.212-1.161-0.097-1.233
		c-0.072-0.016-0.238-0.134-0.256-0.148l-0.038-0.026l0.044-0.016c0.281-0.108,0.329-0.251,0.345-0.303
		c0.196-0.547,0.624-0.914,1.071-0.914c0.231,0,0.447,0.099,0.622,0.286c0.26,0.271,0.557,0.855,0.493,2.096
		c0.002,0.043,0.22,0.488,0.516,0.807c1.147,1.249,2.625,1.868,3.51,2.236c0.508,0.212,0.733,0.311,0.732,0.422
		c-0.002,0.064-0.084,0.103-0.147,0.129c-0.423,0.162-0.894,0.244-1.401,0.244c-1.3,0-2.539-0.527-3.204-0.811
		c-0.192-0.082-0.338-0.144-0.408-0.161c0.245,0.179,1.835,1.001,3.505,1.001c0.258,0,0.508-0.023,0.744-0.06
		c0.006-0.001,0.009-0.001,0.014-0.001c0.088,0,0.404,0.11,0.773,0.241c0.287,0.1,0.615,0.216,0.844,0.28
		c0.156,0.042,0.284,0.044,0.391,0.044c0.143,0,0.254,0.001,0.343,0.106c0.025,0.03,0.036,0.072,0.027,0.126
		c-0.027,0.256-0.441,0.746-0.636,0.894C129.077,47.736,128.952,47.776,128.801,47.776"/>
	<path fill="#D6D5D4" d="M103.67,22.75c0,0,0.369-0.535,0.02-0.535C103.319,22.215,103.67,22.75,103.67,22.75 M105.45,29.105
		c-4.848-0.588-1.357-5.732-2.605-6.024c-0.094-0.024-0.313-0.187-0.313-0.187c0.357-0.137,0.429-0.313,0.458-0.403
		c0.607-1.708,2.901-1.8,2.719,1.855c-0.003,0.068,0.292,0.645,0.663,1.048c2.48,2.699,6.218,3.105,5.218,3.491
		c-2.865,1.101-6.337-1.111-6.431-0.919c-0.037,0.075,2.83,1.689,5.475,1.251c0.146-0.027,1.396,0.476,2.058,0.66
		c0.466,0.13,0.734-0.038,0.918,0.184c0.184,0.221-0.477,1.029-0.771,1.25c-0.622,0.465-1.728-0.221-5.403-1.801
		c-0.361-0.155-0.177-0.417-0.327-0.369c-0.221,0.077,0.034,1.657-0.331,1.693c-0.185,0.018-0.259,0.184-0.735,0
		C105.715,30.705,105.674,29.132,105.45,29.105"/>
	<path fill="#9B9A9A" d="M103.689,22.24c-0.068,0-0.109,0.017-0.131,0.055c-0.051,0.096,0.049,0.306,0.111,0.41
		c0.07-0.107,0.183-0.321,0.133-0.416C103.787,22.256,103.748,22.24,103.689,22.24 M103.67,22.793l-0.019-0.029
		c-0.011-0.014-0.22-0.336-0.135-0.491c0.028-0.054,0.086-0.082,0.173-0.082c0.078,0,0.132,0.026,0.158,0.075
		c0.077,0.15-0.134,0.463-0.157,0.498L103.67,22.793z M107.139,29.11c0.052,0,0.061,0.047,0.07,0.094
		c0.013,0.078,0.033,0.195,0.236,0.283c0.767,0.33,1.411,0.616,1.982,0.868c1.558,0.693,2.417,1.075,2.943,1.075
		c0.182,0,0.326-0.045,0.451-0.14c0.244-0.181,0.756-0.782,0.792-1.095c0.008-0.052,0-0.092-0.023-0.119
		c-0.096-0.117-0.222-0.117-0.396-0.118c-0.136,0-0.306-0.001-0.513-0.059c-0.295-0.081-0.718-0.23-1.089-0.362
		c-0.438-0.154-0.851-0.298-0.949-0.298c-0.002,0-0.005,0-0.008,0.001c-0.304,0.049-0.626,0.075-0.957,0.075
		c-2.293,0-4.469-1.213-4.54-1.329c-0.009-0.014-0.006-0.025-0.003-0.03c0.006-0.014,0.02-0.026,0.051-0.026
		c0.079,0,0.278,0.085,0.578,0.213c0.842,0.358,2.41,1.025,4.053,1.025c0.638,0,1.231-0.102,1.762-0.309
		c0.099-0.034,0.15-0.075,0.15-0.11c0.002-0.109-0.376-0.265-0.896-0.482c-1.127-0.471-3.015-1.26-4.481-2.856
		c-0.365-0.399-0.672-0.99-0.669-1.066c0.044-0.857-0.026-2.012-0.611-2.624c-0.214-0.226-0.475-0.346-0.753-0.346
		c-0.543,0-1.067,0.452-1.306,1.123c-0.029,0.079-0.092,0.26-0.433,0.404c0.076,0.053,0.208,0.141,0.268,0.155
		c0.447,0.104,0.323,0.778,0.165,1.631c-0.198,1.074-0.445,2.411,0.241,3.343c0.418,0.571,1.159,0.924,2.2,1.05
		c0.113,0.014,0.171,0.293,0.256,0.746c0.077,0.41,0.174,0.92,0.338,0.983c0.146,0.056,0.269,0.083,0.366,0.083
		c0.093,0,0.155-0.023,0.215-0.047c0.046-0.017,0.089-0.034,0.145-0.038c0.183-0.017,0.191-0.543,0.199-0.963
		c0.008-0.426,0.018-0.691,0.126-0.726C107.114,29.112,107.126,29.11,107.139,29.11 M112.371,31.477
		c-0.537,0-1.399-0.382-2.963-1.076c-0.569-0.254-1.215-0.54-1.981-0.868c-0.228-0.098-0.252-0.237-0.267-0.32
		c-0.009-0.049-0.012-0.053-0.021-0.053c-0.007,0-0.016,0.001-0.024,0.004c-0.081,0.028-0.086,0.376-0.092,0.683
		c-0.008,0.487-0.016,0.987-0.244,1.01c-0.049,0.005-0.088,0.021-0.132,0.037c-0.062,0.022-0.13,0.049-0.231,0.049
		c-0.105,0-0.23-0.028-0.385-0.086c-0.188-0.075-0.28-0.554-0.366-1.02c-0.061-0.327-0.131-0.697-0.215-0.707
		c-1.055-0.127-1.806-0.488-2.233-1.071c-0.698-0.948-0.45-2.296-0.251-3.378c0.154-0.827,0.273-1.482-0.128-1.576
		c-0.095-0.022-0.312-0.181-0.319-0.188l-0.037-0.026l0.042-0.016c0.358-0.138,0.419-0.314,0.445-0.391
		c0.244-0.69,0.787-1.155,1.352-1.155c0.293,0,0.566,0.124,0.788,0.359c0.329,0.346,0.705,1.087,0.627,2.66
		c-0.002,0.061,0.29,0.636,0.653,1.03c1.463,1.59,3.342,2.375,4.465,2.846c0.599,0.249,0.929,0.388,0.926,0.528
		c0,0.059-0.056,0.11-0.18,0.156c-0.537,0.208-1.137,0.311-1.78,0.311c-1.651,0-3.227-0.67-4.073-1.029
		c-0.269-0.116-0.467-0.201-0.547-0.209c0.229,0.189,2.303,1.287,4.481,1.287c0.33,0,0.646-0.024,0.95-0.075
		c0.004-0.001,0.009-0.001,0.015-0.001c0.108,0,0.505,0.14,0.964,0.302c0.371,0.13,0.792,0.279,1.089,0.36
		c0.199,0.056,0.363,0.057,0.498,0.057c0.181,0.001,0.322,0.001,0.432,0.137c0.032,0.036,0.043,0.088,0.036,0.153
		c-0.038,0.325-0.562,0.944-0.812,1.13C112.719,31.431,112.563,31.477,112.371,31.477"/>
	<path fill="#D6D5D4" d="M132.854,34.4h-0.004c-0.151-0.124,0.126-1.553-0.184-1.802c-0.414-0.33-1.583,1.49-4.065,1.614h-9.666
		v-8.368c0.123-2.483,1.943-3.654,1.615-4.066c-0.25-0.31-1.675-0.031-1.802-0.188l-0.003-0.001
		c-0.185-0.154-0.838-1.084-1.146-1.084c-0.312,0-0.89,0.838-1.086,1.084c-0.124,0.155-1.554-0.124-1.802,0.188
		c-0.329,0.412,1.49,1.583,1.612,4.067v8.368h-9.661c-2.483-0.124-3.653-1.944-4.066-1.614c-0.311,0.249-0.03,1.678-0.188,1.802
		c-0.155,0.187-1.086,0.839-1.086,1.151c0,0.309,0.84,0.887,1.086,1.084c0.155,0.123-0.123,1.552,0.187,1.799
		c0.411,0.331,1.582-1.489,4.064-1.612h9.665v10.96c0,0.025,0,0.053-0.003,0.078c-0.157,2.431-1.935,3.579-1.609,3.988
		c0.248,0.311,1.678,0.031,1.802,0.186c0.196,0.247,0.773,1.087,1.086,1.087c0.309,0,0.962-0.93,1.146-1.087l0.003-0.002
		c0.127-0.154,1.552,0.125,1.802-0.185c0.328-0.414-1.492-1.583-1.615-4.067V36.823h9.666c0.026,0.001,0.053,0.002,0.081,0.004
		c2.425,0.158,3.578,1.935,3.984,1.608c0.312-0.248,0.032-1.677,0.188-1.799c0.246-0.197,1.086-0.776,1.086-1.084
		C133.939,35.239,133.009,34.587,132.854,34.4"/>
	<path fill="#9B9A9A" d="M93.434,67.62c-2.742,0-3.143,1.257-3.143,1.569c0,0.275-0.142,2.601,3.102,2.756l-0.01-0.98
		c2.964,0,3.013-1.661,3.013-1.817C96.396,68.993,96.176,67.62,93.434,67.62"/>
	<path fill="#9B9A9A" d="M111.968,74.759c0,0.496,0.07,1.87,2.24,2.554l0.048-0.093c0.112-0.171,0.212-0.476,0.212-0.476
		c0.058-0.237,0.068-0.615,0.068-0.615v-4.553l0.003-0.088c-0.045,1.024-0.638,1.677-1.76,2.261
		c-0.077,0.039-0.146,0.081-0.213,0.122c-0.425,0.274-0.616,0.587-0.602,0.923"/>
	<path fill="#9B9A9A" d="M142.033,67.604c2.743,0,3.144,1.257,3.144,1.571c0,0.273,0.143,2.599-3.099,2.754l0.007-0.979
		c-2.964,0-3.013-1.662-3.013-1.816C139.072,68.979,139.295,67.604,142.033,67.604"/>
	<path fill="#9B9A9A" d="M123.502,74.742c0,0.497-0.07,1.869-2.241,2.553l-0.05-0.094c-0.111-0.17-0.23-0.495-0.23-0.495
		c-0.057-0.236-0.049-0.594-0.049-0.594V71.56l-0.003-0.087c0.046,1.022,0.638,1.674,1.764,2.259
		c0.073,0.041,0.144,0.083,0.21,0.122c0.428,0.276,0.616,0.588,0.603,0.923"/>
</g>
</svg>
