<?xml version="1.0" encoding="utf-8"?>
<!-- Generator: Adobe Illustrator 16.0.0, SVG Export Plug-In . SVG Version: 6.00 Build 0)  -->
<!DOCTYPE svg PUBLIC "-//W3C//DTD SVG 1.1//EN" "http://www.w3.org/Graphics/SVG/1.1/DTD/svg11.dtd">
<svg version="1.1" id="Layer_1" xmlns="http://www.w3.org/2000/svg" xmlns:xlink="http://www.w3.org/1999/xlink" x="0px" y="0px"
	 width="234px" height="153px" viewBox="0 0 234 153" enable-background="new 0 0 234 153" xml:space="preserve">
<rect fill="#FFFFFF" width="234" height="153"/>
<g>
	<g>
		<path fill="#9B9A9A" d="M37.174,79.715c0-2.061,1.072-2.711,2.709-2.711h6.157c3.389,0,7.428,0.764,7.428,5.253
			c0,1.722-0.934,3.36-2.852,4.122v0.057c2.145,0.564,3.557,2.09,3.557,4.886c0,4.265-3.474,6.015-7.483,6.015h-6.807
			c-1.637,0-2.709-0.649-2.709-2.711V79.715z M41.805,85.362h3.812c2.175,0,3.219-0.876,3.219-2.485c0-1.947-1.639-2.484-3.36-2.484
			h-3.671V85.362z M41.805,93.777h3.897c1.805,0,3.839-0.367,3.839-2.711c0-2.455-2.146-2.768-4.405-2.768h-3.331V93.777z"/>
		<path fill="#9B9A9A" d="M57.675,79.715c0-2.061,1.074-2.711,2.712-2.711h10.871c1.355,0,2.343,0.396,2.343,1.864
			s-0.987,1.864-2.343,1.864h-8.952v4.404h7.851c1.215,0,2.174,0.34,2.174,1.779s-0.959,1.779-2.174,1.779h-7.851v4.913h9.178
			c1.357,0,2.346,0.396,2.346,1.863s-0.988,1.864-2.346,1.864H60.387c-1.638,0-2.712-0.649-2.712-2.711V79.715z"/>
		<path fill="#9B9A9A" d="M81.454,78.049c0.395-1.045,1.129-1.412,2.259-1.412h1.101c1.046,0,1.977,0.254,2.485,1.695l5.591,15.559
			c0.169,0.451,0.451,1.271,0.451,1.779c0,1.129-0.986,2.033-2.174,2.033c-1.017,0-1.751-0.367-2.09-1.271l-1.186-3.389h-7.455
			l-1.215,3.389c-0.31,0.904-0.959,1.271-2.062,1.271c-1.27,0-2.146-0.791-2.146-2.033c0-0.509,0.282-1.328,0.451-1.779
			L81.454,78.049z M84.249,81.664h-0.057l-2.738,8.16h5.421L84.249,81.664z"/>
		<path fill="#9B9A9A" d="M95.24,78.953c0-1.385,0.903-2.316,2.312-2.316c1.415,0,2.318,0.931,2.318,2.316v11.125
			c0,2.768,1.554,4.01,4.207,4.01c2.655,0,4.209-1.242,4.209-4.01V78.953c0-1.385,0.901-2.316,2.315-2.316
			c1.411,0,2.314,0.931,2.314,2.316v10.758c0,5.592-3.444,8.105-8.839,8.105c-5.393,0-8.837-2.514-8.837-8.105V78.953z"/>
		<path fill="#9B9A9A" d="M120.824,80.9h-4.376c-1.328,0-2.401-0.677-2.401-1.947c0-1.271,1.073-1.949,2.401-1.949h13.384
			c1.328,0,2.401,0.678,2.401,1.949c0,1.271-1.073,1.947-2.401,1.947h-4.376v14.486c0,1.385-0.904,2.316-2.316,2.316
			s-2.315-0.932-2.315-2.316V80.9z"/>
		<path fill="#9B9A9A" d="M134.719,78.953c0-1.385,0.904-2.316,2.316-2.316s2.313,0.931,2.313,2.316v16.434
			c0,1.385-0.901,2.316-2.313,2.316s-2.316-0.932-2.316-2.316V78.953z"/>
		<path fill="#9B9A9A" d="M143.755,79.715c0-2.061,1.073-2.711,2.71-2.711h10.194c1.356,0,2.345,0.396,2.345,1.864
			s-0.988,1.864-2.345,1.864h-8.272v4.744h7.004c1.213,0,2.174,0.338,2.174,1.777c0,1.441-0.961,1.779-2.174,1.779h-7.004v6.354
			c0,1.385-0.903,2.316-2.315,2.316s-2.316-0.932-2.316-2.316V79.715z"/>
		<path fill="#9B9A9A" d="M161.434,78.953c0-1.385,0.903-2.316,2.315-2.316s2.315,0.931,2.315,2.316v11.125
			c0,2.768,1.553,4.01,4.207,4.01c2.655,0,4.208-1.242,4.208-4.01V78.953c0-1.385,0.904-2.316,2.314-2.316
			c1.414,0,2.317,0.931,2.317,2.316v10.758c0,5.592-3.446,8.105-8.84,8.105c-5.393,0-8.838-2.514-8.838-8.105V78.953z"/>
		<path fill="#9B9A9A" d="M183.404,78.953c0-1.385,0.903-2.316,2.315-2.316c1.414,0,2.315,0.931,2.315,2.316v14.486h7.736
			c1.327,0,2.401,0.678,2.401,1.947c0,1.271-1.074,1.949-2.401,1.949h-9.656c-1.638,0-2.711-0.649-2.711-2.711V78.953z"/>
	</g>
	<g>
		<path fill="#9B9A9A" d="M37.367,56.996c0-1.032,0.675-1.727,1.728-1.727c1.054,0,1.729,0.695,1.729,1.727v5.013l5.433-5.981
			c0.401-0.421,0.758-0.758,1.37-0.758c0.822,0,1.643,0.505,1.643,1.389c0,0.527-0.273,0.886-0.568,1.181l-3.539,3.728l4.191,6.382
			c0.316,0.484,0.652,0.927,0.652,1.369c0,1.284-0.948,1.664-1.769,1.664c-0.696,0-1.075-0.168-1.539-0.906l-3.98-6.15l-1.894,1.895
			v3.434c0,1.032-0.675,1.728-1.729,1.728c-1.053,0-1.728-0.695-1.728-1.728V56.996z"/>
		<path fill="#9B9A9A" d="M51.88,57.564c0-1.537,0.8-2.021,2.021-2.021h8.109c1.012,0,1.749,0.294,1.749,1.389
			s-0.737,1.39-1.749,1.39h-6.676v3.286h5.854c0.906,0,1.623,0.252,1.623,1.327c0,1.074-0.717,1.327-1.623,1.327h-5.854v3.665h6.847
			c1.008,0,1.747,0.295,1.747,1.39s-0.739,1.39-1.747,1.39h-8.28c-1.222,0-2.021-0.484-2.021-2.022V57.564z"/>
		<path fill="#9B9A9A" d="M66.307,57.564c0-1.537,0.801-2.021,2.022-2.021h8.11c1.011,0,1.747,0.294,1.747,1.389
			s-0.736,1.39-1.747,1.39h-6.677v3.286h5.854c0.906,0,1.623,0.252,1.623,1.327c0,1.074-0.717,1.327-1.623,1.327h-5.854v3.665h6.845
			c1.01,0,1.749,0.295,1.749,1.39s-0.739,1.39-1.749,1.39h-8.278c-1.222,0-2.022-0.484-2.022-2.022V57.564z"/>
		<path fill="#9B9A9A" d="M80.651,57.564c0-1.537,0.801-2.021,2.021-2.021h5.287c2.906,0,5.246,1.431,5.246,4.801
			c0,2.759-1.917,4.803-5.267,4.803h-3.834v4.106c0,1.032-0.673,1.728-1.727,1.728c-1.053,0-1.727-0.695-1.727-1.728V57.564z
			 M84.104,62.494h3.224c1.39,0,2.423-0.843,2.423-2.149c0-1.516-1.074-2.148-2.781-2.148h-2.865V62.494z"/>
		<path fill="#9B9A9A" d="M105.315,56.322c0.295-0.778,0.843-1.053,1.685-1.053h0.821c0.779,0,1.476,0.189,1.852,1.264l4.173,11.606
			c0.125,0.337,0.337,0.948,0.337,1.327c0,0.843-0.737,1.517-1.622,1.517c-0.759,0-1.307-0.274-1.559-0.948l-0.886-2.527h-5.56
			l-0.906,2.527c-0.231,0.674-0.716,0.948-1.536,0.948c-0.949,0-1.602-0.59-1.602-1.517c0-0.379,0.211-0.99,0.336-1.327
			L105.315,56.322z M107.399,59.018h-0.041l-2.043,6.087h4.044L107.399,59.018z"/>
		<path fill="#9B9A9A" d="M115.909,56.974c0-1.39,0.946-1.706,1.875-1.706h1.011c1.074,0,1.579,0.421,1.938,1.58l3.013,9.731h0.042
			l2.969-9.731c0.358-1.159,0.865-1.58,1.938-1.58h0.969c0.928,0,1.876,0.315,1.876,1.706v12.322c0,0.864-0.421,1.686-1.538,1.686
			s-1.54-0.821-1.54-1.686v-9.394h-0.041l-3.223,10.068c-0.231,0.716-0.757,1.011-1.474,1.011c-0.716,0-1.243-0.295-1.475-1.011
			l-3.224-10.068h-0.041v9.394c0,0.864-0.421,1.686-1.538,1.686c-1.116,0-1.537-0.821-1.537-1.686V56.974z"/>
		<path fill="#9B9A9A" d="M134.759,57.564c0-1.537,0.801-2.021,2.022-2.021h8.109c1.012,0,1.749,0.294,1.749,1.389
			s-0.737,1.39-1.749,1.39h-6.677v3.286h5.855c0.905,0,1.621,0.252,1.621,1.327c0,1.074-0.716,1.327-1.621,1.327h-5.855v3.665h6.845
			c1.013,0,1.749,0.295,1.749,1.39s-0.736,1.39-1.749,1.39h-8.277c-1.222,0-2.022-0.484-2.022-2.022V57.564z"/>
		<path fill="#9B9A9A" d="M149.103,57.564c0-1.537,0.8-2.021,2.022-2.021h5.75c4.106,0,5.204,2.252,5.204,4.212
			c0,1.643-0.971,3.265-2.613,3.644v0.042c1.77,0.253,2.086,1.538,2.086,3.075c0,1.749,0.463,2.401,0.463,3.117
			c0,0.801-0.822,1.349-1.621,1.349c-1.897,0-2.045-1.833-2.045-2.443c0-2.654-0.484-3.729-2.379-3.729h-3.413v4.444
			c0,1.032-0.674,1.728-1.727,1.728c-1.054,0-1.728-0.695-1.728-1.728V57.564z M152.557,62.283h3.455
			c1.307,0,2.613-0.337,2.613-2.043c0-1.622-0.992-2.042-2.509-2.042h-3.56V62.283z"/>
		<path fill="#9B9A9A" d="M164.711,56.996c0-1.032,0.672-1.727,1.726-1.727c1.053,0,1.729,0.695,1.729,1.727v12.259
			c0,1.032-0.677,1.728-1.729,1.728c-1.054,0-1.726-0.695-1.726-1.728V56.996z"/>
		<path fill="#9B9A9A" d="M177.158,55.184c3.959,0,6.129,2.486,6.129,3.959c0,0.97-0.527,1.56-1.56,1.56
			c-1.999,0-1.41-2.739-4.569-2.739c-2.168,0-3.959,1.875-3.959,5.161c0,2.759,1.096,5.16,4.085,5.16
			c2.718,0,2.654-2.907,4.317-2.907c0.843,0,1.686,0.484,1.686,1.327c0,2.19-2.655,4.36-6.003,4.36c-4.738,0-7.54-2.717-7.54-7.94
			C169.744,58.85,172.271,55.184,177.158,55.184z"/>
		<path fill="#9B9A9A" d="M188.826,56.322c0.294-0.778,0.843-1.053,1.685-1.053h0.821c0.78,0,1.476,0.189,1.854,1.264l4.17,11.606
			c0.126,0.337,0.338,0.948,0.338,1.327c0,0.843-0.737,1.517-1.622,1.517c-0.758,0-1.306-0.274-1.56-0.948l-0.885-2.527h-5.561
			l-0.905,2.527c-0.23,0.674-0.717,0.948-1.538,0.948c-0.947,0-1.601-0.59-1.601-1.517c0-0.379,0.212-0.99,0.336-1.327
			L188.826,56.322z M190.911,59.018h-0.043l-2.042,6.087h4.044L190.911,59.018z"/>
	</g>
</g>
</svg>
