<?xml version="1.0" encoding="utf-8"?>
<!-- Generator: Adobe Illustrator 16.0.0, SVG Export Plug-In . SVG Version: 6.00 Build 0)  -->
<!DOCTYPE svg PUBLIC "-//W3C//DTD SVG 1.1//EN" "http://www.w3.org/Graphics/SVG/1.1/DTD/svg11.dtd">
<svg version="1.1" id="Layer_1" xmlns="http://www.w3.org/2000/svg" xmlns:xlink="http://www.w3.org/1999/xlink" x="0px" y="0px"
	 width="234px" height="153px" viewBox="0 0 234 153" enable-background="new 0 0 234 153" xml:space="preserve">
<rect fill="#FFFFFF" width="234" height="153"/>
<g>
	<g>
		<polygon fill="#C0BEBE" points="101.805,75.086 94.276,75.086 129.783,21.432 133.777,27.219 		"/>
		<polygon fill="#C0BEBE" points="115.129,75.086 107.599,75.086 136.396,31.009 140.391,36.799 		"/>
		<path fill="#C0BEBE" d="M124.948,14.428L124.948,14.428c-0.259-0.374-0.701-1.28-1.685-1.28c-1.009,0-1.428,0.932-1.687,1.28
			h0.003L80.954,75.086h7.53l38.759-57.334L124.948,14.428z"/>
		<path fill="#C0BEBE" d="M105.641,23.355L105.641,23.355c-0.258-0.371-0.702-1.276-1.687-1.276c-1.006,0-1.427,0.93-1.684,1.276
			h0.002L67.63,75.086h7.53l32.733-48.341L105.641,23.355z"/>
		<path fill="#9B9A9A" d="M105.634,23.36L105.634,23.36c-0.26-0.372-0.702-1.278-1.685-1.278c-1.01,0-1.428,0.932-1.687,1.278
			l-2.275,3.408l32.664,48.319h7.529L105.634,23.36z"/>
		<path fill="#9B9A9A" d="M124.939,14.43L124.939,14.43c-0.259-0.373-0.701-1.28-1.684-1.28c-1.007,0-1.427,0.932-1.687,1.28
			l-2.272,3.407l39.982,57.25h7.529L124.939,14.43z"/>
		<polygon fill="#828386" points="133.771,27.228 129.777,21.439 125.902,27.295 129.902,33.022 		"/>
		<polygon fill="#828386" points="140.386,36.805 136.39,31.019 132.578,36.853 136.576,42.579 		"/>
		<polygon fill="#9B9A9A" points="145.967,75.086 153.497,75.086 116.963,21.353 113.02,27.213 		"/>
		<path fill="#828386" d="M124.939,14.43L124.939,14.43c-0.259-0.373-0.701-1.28-1.684-1.28c-0.124,0-0.243,0.015-0.351,0.041
			c-0.752,0.186-1.102,0.935-1.328,1.238h0.003l-2.057,3.069l-0.227,0.339l4.008,5.74l3.933-5.816L124.939,14.43z"/>
		<polygon fill="#828386" points="116.963,21.353 113.02,27.213 116.967,32.952 120.897,27.139 		"/>
		<polygon fill="#828386" points="123.555,42.523 127.422,36.735 123.487,30.947 119.615,36.797 		"/>
		<polygon fill="#828386" points="130.222,52.21 134.022,46.447 130.09,40.661 126.284,46.487 		"/>
		<path fill="#828386" d="M105.634,23.36c-0.26-0.372-0.702-1.278-1.685-1.278c-0.126,0-0.243,0.015-0.352,0.04
			c-0.754,0.186-1.101,0.93-1.327,1.233h0.002l-2.285,3.412l3.941,5.832l3.965-5.854l-0.031-0.045L105.634,23.36L105.634,23.36z"/>
		<polygon fill="#828386" points="114.487,36.62 110.608,30.811 106.683,36.67 110.568,42.419 		"/>
		<polygon fill="#828386" points="120.994,46.359 117.122,40.563 113.261,46.401 117.136,52.135 		"/>
		<polygon fill="#828386" points="127.577,56.218 123.71,50.426 119.912,56.239 123.784,61.968 		"/>
	</g>
	<g>
		<path fill="#9B9A9A" d="M67.191,107.863c1.604,0,2.819-0.326,2.819-3.41V91.186l-2.344-0.117v-1.01l7.182,0.119l4.6,12.611h0.029
			l4.659-12.611l7.092-0.119v1.01l-2.402,0.117v16.559l2.402,0.119v1.01c-1.187,0-3.411-0.119-4.6-0.119
			c-1.187,0-3.293,0.119-4.48,0.119v-1.01l2.373-0.119V92.492h-0.059l-5.846,16.32h-1.454l-5.906-16.32h-0.059v11.961
			c0,3.084,1.157,3.41,3.057,3.41v1.01c-1.483,0-2.346-0.119-3.531-0.119c-1.188,0-2.049,0.119-3.532,0.119V107.863z"/>
		<path fill="#9B9A9A" d="M91.74,102.166c0-5.045,3.413-7.391,7.212-7.391c3.855,0,7.24,2.051,7.24,7.096
			c0,5.074-3.323,7.387-7.24,7.387C95.095,109.258,91.74,107.242,91.74,102.166z M101.859,102.019c0-4.038-0.8-6.233-2.907-6.233
			c-2.047,0-2.879,2.195-2.879,6.233c0,4.065,0.832,6.232,2.879,6.232C101.06,108.251,101.859,106.084,101.859,102.019z"/>
		<path fill="#9B9A9A" d="M108.72,97.922c0-1.633-0.507-1.633-2.017-1.633v-1.006l5.935-0.299v8.162
			c0,2.848,0.058,4.303,1.898,4.303c1.454,0,3.294-1.722,3.294-4.631v-4.896c0-1.633-0.684-1.633-1.987-1.633v-1.006l5.904-0.299
			v12.701l2.019,0.059v1.01l-5.699,0.297l-0.089-2.641h-0.029c-0.949,1.603-2.61,2.788-4.956,2.788
			c-3.115,0-4.272-1.602-4.272-4.983V97.922z"/>
		<path fill="#9B9A9A" d="M132.287,107.863v1.01c-1.424,0-2.195-0.119-3.917-0.119s-2.523,0.119-3.976,0.119v-1.01l2.017-0.147
			v-9.853c0-1.574-0.503-1.574-2.017-1.574v-1.006l5.697-0.299l0.059,2.581h0.028c1.011-1.63,2.612-2.819,4.958-2.819
			c2.492,0,4.272,1.516,4.272,5.254v7.716l2.049,0.147v1.01c-1.454,0-2.256-0.119-3.978-0.119s-2.465,0.119-3.917,0.119v-1.01
			l1.959-0.147v-6.856c0-3.205-0.357-4.361-1.929-4.361c-1.455,0-3.267,1.721-3.267,4.627v6.591L132.287,107.863z"/>
		<path fill="#9B9A9A" d="M146.891,104.926c-0.06,1.842,0,2.849,1.217,2.849c1.098,0,1.722-1.573,1.722-1.573l0.95,0.357
			c0,0-0.625,2.729-3.74,2.729c-3.65,0-4.035-1.987-4.035-4.303v-8.547h-2.226v-1.154h2.226v-4.959c2.227,0,3.887-0.561,3.887-0.561
			v5.52h3.324v1.154h-3.324V104.926z"/>
		<path fill="#9B9A9A" d="M69.596,128.344c0.236,1.335,2.165,6.381,6.054,6.381c2.434,0,3.412-1.364,3.412-2.908
			c0-5.49-10.237-2.435-10.237-9.941c0-4.423,3.649-5.877,6.351-5.877c2.464,0,3.738,0.803,4.214,0.803
			c0.504,0,0.653-0.653,0.653-0.653h0.979c0,0.979-0.06,1.69-0.06,2.641c0,1.396,0.06,2.196,0.06,3.146h-0.979
			c-0.237-1.307-1.929-4.926-5.106-4.926c-1.778,0-2.995,1.099-2.995,2.641c0,5.045,10.534,2.137,10.534,10.092
			c0,4.361-3.295,6.111-6.915,6.111c-3.144,0-4.776-1.068-5.312-1.068c-0.623,0-0.742,0.713-0.742,0.713h-0.979
			c0-1.425,0.09-2.287,0.09-3.709c0-1.366-0.09-2.226-0.09-3.443H69.596z"/>
		<path fill="#9B9A9A" d="M91.53,134.249v1.009c-1.424,0-2.254-0.117-3.976-0.117c-1.721,0-2.524,0.117-3.978,0.117v-1.009
			l2.018-0.147v-9.794c0-1.632-0.533-1.632-2.018-1.632v-1.008l5.935-0.299v12.732L91.53,134.249z M87.583,114.279
			c1.218,0,2.374,0.799,2.374,2.254c0,1.454-1.156,2.255-2.374,2.255c-1.245,0-2.402-0.801-2.402-2.255
			C85.181,115.078,86.338,114.279,87.583,114.279z"/>
		<path fill="#9B9A9A" d="M100.049,134.249v1.009c-1.424,0-2.195-0.117-3.917-0.117c-1.72,0-2.522,0.117-3.976,0.117v-1.009
			l2.018-0.147v-9.852c0-1.574-0.504-1.574-2.018-1.574v-1.008l5.697-0.299l0.06,2.583h0.029c1.01-1.631,2.611-2.818,4.955-2.818
			c2.494,0,4.274,1.513,4.274,5.251v7.717l2.046,0.147v1.009c-1.452,0-2.254-0.117-3.975-0.117c-1.722,0-2.465,0.117-3.918,0.117
			v-1.009l1.959-0.147v-6.855c0-3.203-0.356-4.361-1.928-4.361c-1.455,0-3.267,1.721-3.267,4.629v6.588L100.049,134.249z"/>
		<path fill="#9B9A9A" d="M125.04,132.973c0,0-0.415,2.701-3.473,2.701c-1.453,0-2.67-0.594-3.174-2.076h-0.061
			c-0.653,1.246-1.898,2.195-4.064,2.195c-2.077,0-4.542-0.949-4.542-4.065c0-3.856,4.542-4.214,8.577-4.185v-1.453
			c0.09-2.377-0.12-3.947-2.048-3.947c-1.482,0-2.136,0.742-2.286,1.039c0,0,0.654,0.354,0.654,1.364c0,1.038-0.771,1.78-1.988,1.78
			c-1.157,0-1.989-0.712-1.989-1.898c0-2.106,2.7-3.294,5.907-3.294c5.193,0,5.639,2.937,5.577,5.727l-0.147,5.608
			c-0.028,0.922,0.267,1.543,0.92,1.543c0.86,0,1.158-1.273,1.158-1.273L125.04,132.973z M118.244,128.552
			c-3.679-0.06-4.512,0.921-4.512,2.792c0,1.748,0.683,2.639,1.93,2.639c1.157,0,2.464-1.01,2.521-3.146L118.244,128.552z"/>
		<path fill="#9B9A9A" d="M133.027,134.249v1.009c-1.425,0-2.254-0.117-3.978-0.117c-1.719,0-2.522,0.117-3.977,0.117v-1.009
			l2.017-0.147v-9.794c0-1.632-0.532-1.632-2.017-1.632v-1.008l5.937-0.299v12.732L133.027,134.249z M129.08,114.279
			c1.217,0,2.375,0.799,2.375,2.254c0,1.454-1.158,2.255-2.375,2.255c-1.246,0-2.403-0.801-2.403-2.255
			C126.677,115.078,127.834,114.279,129.08,114.279z"/>
	</g>
</g>
</svg>
