<?xml version="1.0" encoding="utf-8"?>
<!-- Generator: Adobe Illustrator 16.0.0, SVG Export Plug-In . SVG Version: 6.00 Build 0)  -->
<!DOCTYPE svg PUBLIC "-//W3C//DTD SVG 1.1//EN" "http://www.w3.org/Graphics/SVG/1.1/DTD/svg11.dtd">
<svg version="1.1" id="Layer_1" xmlns="http://www.w3.org/2000/svg" xmlns:xlink="http://www.w3.org/1999/xlink" x="0px" y="0px"
	 width="234px" height="153px" viewBox="0 0 234 153" enable-background="new 0 0 234 153" xml:space="preserve">
<rect fill="#FFFFFF" width="234" height="153"/>
<g>
	<g>
		<path fill-rule="evenodd" clip-rule="evenodd" fill="#0668B3" d="M74.049,83.511c6.855-6.482,16.076-6.978,16.076-6.978
			s0.064,8.849-6.479,14.953c-7.167,6.731-15.954,6.731-15.954,6.731S67.317,89.804,74.049,83.511 M59.777,70.924
			C59.777,70.924,59.777,70.863,59.777,70.924c1.246,2.243,5.357,2.243,6.916,0c1.311,2.243,5.859,2.243,7.231,0
			c1.31,2.243,5.483,2.243,6.54,0c-1.684,6.169-6.666,10.47-13.647,10.47c-6.979,0-12.523-4.301-13.771-10.47
			C54.044,73.167,58.469,73.167,59.777,70.924z M43.761,76.533h-0.125c0,0,8.727,0,15.954,6.792
			c6.916,6.479,6.42,14.832,6.42,14.832s-8.226,0.687-15.828-6.545C42.951,84.82,43.761,76.533,43.761,76.533z M66.756,54.782
			C66.693,54.969,66.693,54.782,66.756,54.782c9.163,0,14.271,6.731,14.209,13.958c0-0.061-11.84,0-11.84,0
			c1.059-0.561,2.43-1.991,2.43-3.801c0-2.678-2.242-4.427-4.737-4.427c-2.118,0-4.8,1.496-4.8,4.366
			c0,1.617,1.311,3.301,2.682,3.861c0,0-9.72,0-12.088,0C52.611,61.079,58.155,54.908,66.756,54.782z"/>
	</g>
	<g>
		<polyline fill-rule="evenodd" clip-rule="evenodd" fill="#0668B3" points="94.675,96.848 94.675,55.53 121.469,55.53 
			121.469,62.574 103.273,62.574 103.273,72.546 121.469,72.546 121.469,79.585 103.273,79.585 103.273,89.868 121.469,89.868 
			121.469,96.848 94.675,96.848 		"/>
		<path fill-rule="evenodd" clip-rule="evenodd" fill="#0668B3" d="M155.622,67.31c0-3.618-1.186-6.109-3.613-8.354
			c-2.494-2.43-5.8-3.365-11.155-3.365h-15.766v41.257h8.599V79.585h7.226c4.738,0,8.228-0.436,10.659-2.492
			C154.249,74.724,155.622,71.297,155.622,67.31 M146.524,67.436c0,1.805-0.687,3.175-1.872,4.109
			c-1.182,1.062-3.115,1.001-5.98,1.001h-4.985v-9.972h5.794C144.342,62.574,146.524,63.57,146.524,67.436z"/>
		<path fill-rule="evenodd" clip-rule="evenodd" fill="#0668B3" d="M191.265,96.908l-15.951-41.317h-10.718l-15.268,41.257h8.787
			l3.864-10.471h16.575l3.801,10.531H191.265 M175.938,79.337h-11.529l5.672-15.706L175.938,79.337z"/>
	</g>
</g>
</svg>
