<?xml version="1.0" encoding="utf-8"?>
<!-- Generator: Adobe Illustrator 16.0.0, SVG Export Plug-In . SVG Version: 6.00 Build 0)  -->
<!DOCTYPE svg PUBLIC "-//W3C//DTD SVG 1.1//EN" "http://www.w3.org/Graphics/SVG/1.1/DTD/svg11.dtd">
<svg version="1.1" id="Layer_1" xmlns="http://www.w3.org/2000/svg" xmlns:xlink="http://www.w3.org/1999/xlink" x="0px" y="0px"
	 width="234px" height="153px" viewBox="0 0 234 153" enable-background="new 0 0 234 153" xml:space="preserve">
<rect fill="#FFFFFF" width="234" height="153"/>
<g>
	<path fill="#9B9A9A" d="M67.551,52.34l-0.482-2.496c-0.063-0.312-0.031-0.56,0.096-0.711c0.081-0.1,0.199-0.155,0.33-0.155
		c0.412,0,0.484,0.339,0.548,0.635l0.036,0.171c0.199,0.761,1.279,2.736,3.854,2.736c1.647,0,3.419-0.885,3.419-2.836
		c0-1.559-1.544-2.003-3.328-2.516c-2.126-0.608-4.535-1.298-4.535-4.182c0-2.669,2.27-3.867,4.521-3.867
		c1.799,0,2.646,0.412,3.052,0.611l0.195,0.089l0.044-0.041l0.37-0.172c0.096,0,0.413,0.036,0.452,0.466l0.291,2.634l-0.101,0.402
		l-0.334,0.137c-0.371,0-0.535-0.496-0.615-0.731c-0.526-1.504-1.796-2.37-3.491-2.37c-1.353,0-2.933,0.602-2.933,2.299
		c0,1.478,1.485,1.909,3.209,2.408c2.181,0.635,4.649,1.348,4.649,4.444c0,1.979-1.507,4.285-5.754,4.285
		C69.63,53.581,67.675,52.886,67.551,52.34"/>
	<path fill="#9B9A9A" d="M88.751,53.586l-0.086-0.005l-1.628-0.075l-1.549,0.075c-0.229,0-0.397-0.179-0.397-0.434
		c0-0.324,0.291-0.415,0.502-0.482c0.299-0.092,0.67-0.212,0.934-0.79L91.153,42l0.672-1.452c0.578-1.264,0.65-1.429,0.98-1.429
		c0.338,0,0.487,0.459,0.582,0.764l0.032,0.095l4.026,9.969l0.223,0.586c0.203,0.543,0.412,1.105,0.727,1.585
		c0.271,0.419,0.683,0.49,1.045,0.55c0.312,0.056,0.695,0.12,0.695,0.518c0,0.264-0.168,0.395-0.496,0.395l-2.379-0.075
		l-1.566,0.075c-0.538,0-0.652-0.223-0.652-0.415c0-0.362,0.354-0.483,0.637-0.578c0.358-0.12,0.526-0.202,0.526-0.427
		c0-0.282-0.244-0.893-0.419-1.339l-0.785-2.008l-0.01-0.017c-0.191-0.45-0.267-0.578-0.635-0.578h-4.26
		c-0.379,0-0.582,0.012-0.711,0.279l-1.236,2.705c-0.047,0.112-0.114,0.372-0.114,0.59c0,0.655,0.345,0.718,0.75,0.791
		c0.247,0.044,0.622,0.112,0.622,0.485l-0.14,0.384c-0.117,0.117-0.276,0.133-0.419,0.133
		C88.814,53.587,88.784,53.586,88.751,53.586 M90.176,46.895l-0.009,0.025l0.065,0.004h3.834c0,0,0.067-0.008,0.124-0.011
		l-0.02-0.07c0,0-1.573-3.861-1.853-4.55C92.223,42.495,90.176,46.895,90.176,46.895"/>
	<path fill="#9B9A9A" d="M112.822,53.581l-0.212-0.012l-2.016-0.063l-2.209,0.075c-0.232,0-0.416-0.185-0.416-0.434
		c0-0.324,0.301-0.447,0.567-0.555c0.4-0.159,0.849-0.342,0.849-1.13V41.61c0-0.982-0.489-1.075-0.963-1.162
		c-0.296-0.056-0.704-0.131-0.704-0.563c0-0.258,0.264-0.455,0.611-0.455l0.318,0.029l0.923,0.052l3.231-0.081h0.074
		c2.104-0.087,3.22,0.542,3.788,1.089c0.629,0.606,0.947,1.44,0.947,2.482c0,1.429-0.946,2.76-2.349,3.423
		c0.24,0.362,3.107,4.704,3.107,4.704c0.879,1.341,1.545,1.488,1.903,1.564c0.199,0.042,0.476,0.103,0.476,0.438
		c0,0.271-0.251,0.451-1.481,0.451c-1.504,0-2.317-1.032-3.092-2.19L114.031,48l-0.196-0.308c-0.378-0.618-0.378-0.618-1.88-0.614
		h-0.314c-0.219,0-0.27,0.048-0.275,0.056c-0.02,0.023-0.016,0.104-0.013,0.167l0.004,0.095v4.086c0,0.786,0.488,0.953,1.174,1.105
		c0.395,0.087,0.842,0.186,0.842,0.618l-0.106,0.276l-0.384,0.104L112.822,53.581 M111.453,40.611
		c-0.063,0.063-0.097,0.195-0.097,0.395c0,0,0,4.808,0,4.883c0.157,0.112,0.93,0.1,1.402,0.091l0.489-0.003
		c0.58,0,2.47-0.184,2.47-2.53c0-2.553-2.178-2.937-3.479-2.937h-0.095C111.812,40.511,111.553,40.511,111.453,40.611"/>
	<path fill="#9B9A9A" d="M131.577,53.586l-0.088-0.005l-1.627-0.075l-1.549,0.075c-0.23,0-0.395-0.179-0.395-0.434
		c0-0.324,0.288-0.415,0.498-0.482c0.301-0.092,0.672-0.212,0.935-0.79L133.98,42l0.669-1.447c0.578-1.269,0.656-1.434,0.986-1.434
		c0.34,0,0.483,0.459,0.578,0.764l0.032,0.095l4.03,9.969l0.223,0.586c0.198,0.543,0.406,1.105,0.722,1.585
		c0.275,0.419,0.686,0.49,1.05,0.55c0.308,0.056,0.691,0.12,0.691,0.518c0,0.264-0.165,0.395-0.492,0.395l-2.383-0.075l-1.567,0.075
		c-0.534,0-0.65-0.223-0.65-0.415c0-0.362,0.352-0.483,0.635-0.578c0.358-0.12,0.53-0.202,0.53-0.427
		c0-0.287-0.248-0.902-0.427-1.352l-0.778-1.996l-0.008-0.017c-0.195-0.45-0.268-0.578-0.638-0.578h-4.261
		c-0.38,0-0.584,0.012-0.705,0.279l-1.238,2.705c-0.051,0.112-0.119,0.372-0.119,0.59c0,0.655,0.348,0.718,0.749,0.791
		c0.248,0.044,0.626,0.112,0.626,0.485l-0.141,0.384c-0.117,0.117-0.273,0.133-0.419,0.133
		C131.642,53.587,131.609,53.586,131.577,53.586 M133.007,46.895l-0.008,0.025l0.059,0.004h3.834c0,0,0.068-0.008,0.125-0.011
		l-0.021-0.07c0,0-1.568-3.861-1.852-4.55C135.053,42.495,133.007,46.895,133.007,46.895"/>
	<path fill="#9B9A9A" d="M160.623,53.458l-0.133-0.347c0-0.336,0.311-0.446,0.587-0.543c0.396-0.14,0.766-0.274,0.766-0.869v-4.647
		l0.009-0.2v-0.064c-0.112,0-7.089,0-7.089,0c-0.006,0.044-0.009,0.107-0.009,0.107v4.82c0,0.574,0.403,0.718,1.017,0.87
		c0.387,0.099,0.822,0.208,0.822,0.622c0,0.189-0.163,0.375-0.53,0.375l-0.582-0.018l-2.107-0.057c-1.097,0-1.44,0.048-1.567,0.069
		l-0.1,0.006c-0.133,0-0.435-0.048-0.435-0.511c0-0.365,0.343-0.457,0.595-0.521c0.431-0.116,0.916-0.244,0.916-1.318v-9.909
		c-0.01-0.687-0.435-0.839-1.031-0.979c-0.308-0.071-0.652-0.151-0.652-0.478c0-0.1,0.037-0.435,0.531-0.435l2.131,0.081l1.8-0.081
		c0.53,0,0.59,0.291,0.59,0.415c0,0.304-0.299,0.383-0.539,0.451c-0.403,0.108-0.857,0.231-0.857,1.021v4.18
		c0,0,0.003,0.076,0.009,0.125l0.063,0.004c0,0,6.85,0,7.005,0c0.01-0.037,0.017-0.091,0.017-0.216c0-0.036,0-0.076-0.005-0.124
		v-3.969c0-0.683-0.434-0.814-0.854-0.941c-0.277-0.087-0.598-0.184-0.598-0.511c0-0.199,0.097-0.435,0.552-0.435l1.271,0.048
		l0.742,0.033l0.895-0.049l0.502-0.032c0.632,0,0.762,0.288,0.762,0.531c0,0.287-0.282,0.366-0.506,0.427
		c-0.392,0.104-0.79,0.215-0.79,0.93v10.261c0,0.671,0.435,0.841,1.054,1.01c0.347,0.094,0.705,0.191,0.705,0.542
		c0,0.156-0.146,0.451-0.431,0.451l-0.797-0.032l-1.026-0.043l-1.656,0.057l-0.491,0.018l-0.066,0.005
		c-0.026,0-0.055,0.001-0.084,0.001C160.896,53.587,160.741,53.571,160.623,53.458"/>
	<path fill="#9B9A9A" d="M41.552,84.348h-0.129l-1.896-0.039l-2.512-0.035l-0.94,0.035l-1.429,0.039
		c-0.463,0-0.511-0.285-0.507-0.448c0.044-0.276,0.237-0.352,0.482-0.448l0.495-0.219c0.35-0.164,0.411-0.53,0.411-1.483v-9.82
		c0-0.422-0.387-0.571-0.935-0.739c-0.355-0.104-0.689-0.207-0.689-0.518c0-0.475,0.459-0.475,0.606-0.475l0.599,0.028l1.359,0.052
		l1.47-0.059l0.391-0.021c0.158,0,0.586,0,0.586,0.494c0,0.319-0.312,0.403-0.544,0.468c-0.404,0.107-0.867,0.235-0.867,1.176v9.413
		l-0.006,0.274c-0.004,0.451-0.005,0.744,0.141,0.894c0.144,0.147,0.499,0.216,1.113,0.216c3.516,0,4.596-1.254,5.002-1.725
		c0.14-0.162,0.231-0.271,0.384-0.271c0.243,0,0.374,0.236,0.374,0.457c0,0.613-0.334,1.279-1.024,2.025
		c-0.609,0.684-1.092,0.732-1.778,0.732C41.655,84.352,41.604,84.352,41.552,84.348"/>
	<path fill="#9B9A9A" d="M56.857,84.354l-0.092-0.006l-1.625-0.074l-1.552,0.074c-0.227,0-0.395-0.178-0.395-0.434
		c0-0.322,0.292-0.415,0.502-0.482c0.295-0.094,0.667-0.212,0.934-0.791l4.628-9.873l0.667-1.449
		c0.577-1.268,0.653-1.433,0.983-1.433c0.34,0,0.488,0.46,0.584,0.763l0.028,0.096l4.03,9.97l0.223,0.583
		c0.199,0.546,0.406,1.108,0.725,1.587c0.272,0.42,0.683,0.49,1.046,0.551c0.312,0.057,0.695,0.119,0.695,0.518
		c0,0.266-0.168,0.395-0.494,0.395l-2.382-0.074l-1.569,0.074c-0.534,0-0.646-0.221-0.646-0.414c0-0.363,0.352-0.482,0.629-0.578
		c0.36-0.119,0.532-0.199,0.532-0.426c0-0.289-0.247-0.904-0.428-1.354l-0.778-1.995l-0.009-0.019
		c-0.194-0.447-0.267-0.576-0.638-0.576h-4.261c-0.374,0-0.577,0.012-0.705,0.28l-1.237,2.704c-0.047,0.113-0.119,0.371-0.119,0.592
		c0,0.654,0.346,0.717,0.749,0.789c0.252,0.045,0.625,0.112,0.625,0.486l-0.138,0.385c-0.12,0.115-0.276,0.131-0.419,0.131
		C56.919,84.354,56.887,84.354,56.857,84.354 M58.28,77.662l-0.008,0.023l0.061,0.006h3.838c0,0,0.067-0.009,0.124-0.012
		l-0.021-0.07c0,0-1.571-3.865-1.852-4.55C60.327,73.262,58.28,77.662,58.28,77.662"/>
	<path fill="#9B9A9A" d="M85.754,83.48c0,0-1.796-4.298-2.086-4.992c-0.332,0.818-2.112,5.236-2.112,5.23
		c-0.111,0.326-0.274,0.629-0.689,0.629c-0.379,0-0.521-0.366-0.869-1.26l-0.305-0.773l-4.241-10.533
		c-0.251-0.61-0.625-0.758-0.928-0.872c-0.216-0.085-0.482-0.189-0.482-0.487c0-0.316,0.274-0.536,0.665-0.536l1.703,0.081
		l1.397-0.081c0.063,0,0.374,0.025,0.374,0.455c0,0.227-0.191,0.372-0.413,0.543c-0.244,0.18-0.52,0.392-0.52,0.674
		c0,0.089,0.035,0.252,0.101,0.4l3.682,9.111c0.036,0.101,0.103,0.188,0.159,0.253c0.062-0.101,0.144-0.253,0.198-0.408l1.433-3.402
		c0.156-0.396,0.216-0.646,0.216-0.699l-0.079-0.168l-0.17-0.331l-1.933-4.667c-0.252-0.615-0.723-0.683-1.138-0.743
		c-0.319-0.048-0.758-0.107-0.758-0.579c0-0.29,0.173-0.439,0.511-0.439l1.374,0.056l0.584,0.025l1.276-0.048l0.6-0.032
		c0.199,0,0.339,0.188,0.339,0.455c0,0.26-0.231,0.388-0.456,0.515c-0.286,0.16-0.474,0.283-0.474,0.512
		c0,0.194,0.028,0.282,0.12,0.501l1.004,2.55c0.038,0.092,0.064,0.132,0.092,0.179c0.064-0.1,0.121-0.204,0.161-0.299l1.018-2.29
		c0.076-0.194,0.155-0.471,0.155-0.619v-0.011c0-0.3-0.224-0.403-0.595-0.543c-0.279-0.104-0.6-0.22-0.6-0.552
		c0-0.179,0.108-0.398,0.612-0.398l1.257,0.081l1.017-0.051l0.398-0.029c0.169,0,0.355,0.149,0.355,0.339
		c0,0.315-0.147,0.407-0.311,0.483c-0.172,0.075-0.522,0.231-1.043,1.443l-1.371,3.172l-0.119,0.284
		c-0.085,0.207-0.177,0.419-0.177,0.506c0,0.135,0.112,0.535,0.237,0.845l1.623,4.003c0.107,0.242,0.171,0.354,0.21,0.414
		c0.084-0.097,0.228-0.318,0.367-0.662l3.527-8.682c0.084-0.18,0.12-0.343,0.12-0.546c0-0.315-0.262-0.426-0.658-0.563
		c-0.282-0.099-0.603-0.206-0.603-0.522c0-0.295,0.182-0.515,0.435-0.515l1.355,0.081l0.895-0.043l0.715-0.037
		c0.123,0,0.451,0,0.451,0.439c0,0.3-0.188,0.384-0.312,0.435c-0.172,0.076-0.46,0.199-0.831,1.081l-4.978,11.747
		c-0.133,0.302-0.327,0.76-0.762,0.76C86.132,84.348,86.009,84.062,85.754,83.48"/>
	<path fill="#9B9A9A" d="M106.583,84.348l-0.207-0.011l-2.019-0.063l-2.206,0.074c-0.232,0-0.416-0.187-0.416-0.434
		c0-0.322,0.301-0.447,0.567-0.555c0.395-0.158,0.846-0.344,0.846-1.13v-9.853c0-0.982-0.486-1.074-0.962-1.163
		c-0.295-0.055-0.701-0.13-0.701-0.561c0-0.26,0.263-0.456,0.609-0.456l0.314,0.028l0.923,0.052l3.234-0.08h0.076
		c2.104-0.088,3.215,0.542,3.783,1.09c0.631,0.606,0.954,1.439,0.954,2.481c0,1.428-0.947,2.76-2.351,3.422
		c0.238,0.363,3.104,4.703,3.104,4.703c0.878,1.342,1.546,1.49,1.903,1.566c0.203,0.043,0.478,0.102,0.478,0.438
		c0,0.271-0.255,0.448-1.48,0.448c-1.504,0-2.322-1.032-3.091-2.189l-2.151-3.39l-0.191-0.308c-0.38-0.618-0.38-0.618-1.879-0.615
		h-0.318c-0.217,0-0.269,0.048-0.271,0.057c-0.025,0.023-0.017,0.104-0.013,0.166l0.003,0.098v4.084c0,0.787,0.484,0.954,1.17,1.105
		c0.396,0.088,0.842,0.188,0.842,0.619l-0.104,0.275l-0.382,0.104L106.583,84.348 M105.214,71.379
		c-0.06,0.063-0.092,0.195-0.092,0.396c0,0,0,4.806,0,4.881c0.155,0.112,0.93,0.1,1.402,0.092l0.486-0.004
		c0.578,0,2.469-0.183,2.469-2.529c0-2.553-2.177-2.938-3.475-2.938h-0.1C105.579,71.278,105.318,71.278,105.214,71.379"/>
	<path fill="#9B9A9A" d="M130.885,84.348h-0.129l-1.902-0.039l-2.504-0.035l-0.942,0.035l-1.429,0.039
		c-0.463,0-0.511-0.285-0.507-0.448c0.044-0.272,0.234-0.352,0.482-0.448l0.495-0.219c0.351-0.164,0.411-0.53,0.411-1.483V72.92
		c0-1.002-0.057-1.621-0.878-1.741l-0.079-0.019c-0.216-0.04-0.668-0.128-0.668-0.506c0-0.456,0.54-0.456,0.899-0.456l4.563,0.061
		l0.918,0.019l1.113-0.036l1.656-0.044c0.186,0,0.413,0.112,0.413,0.651c0,2.095-0.243,2.525-0.609,2.525
		c-0.472,0-0.498-0.488-0.52-0.838c-0.011-0.231-0.028-0.492-0.122-0.626c-0.377-0.491-2.012-0.47-2.799-0.459l-0.314,0.004h-0.298
		c-0.663,0-1.107-0.004-1.215,0.107c-0.083,0.085-0.087,0.359-0.087,0.746v3.902c0,0.111,0,0.215,0.016,0.255
		c0.059,0.024,0.268,0.029,0.499,0.029h2.091c1.193,0,1.353-0.559,1.479-1.006c0.07-0.244,0.156-0.546,0.476-0.546
		c0.255,0,0.436,0.243,0.436,0.59l-0.041,1.956l0.041,1.531c0,0.287-0.172,0.471-0.436,0.471c-0.411,0-0.487-0.402-0.551-0.727
		c-0.097-0.504-0.188-0.978-1.017-0.978h-2.865c-0.069,0-0.1,0.013-0.104,0.021c-0.032,0.031-0.027,0.184-0.027,0.274l0.004,0.104
		v3.564l-0.004,0.274c-0.005,0.447-0.008,0.744,0.139,0.894c0.145,0.147,0.5,0.216,1.115,0.216c3.515,0,4.595-1.254,5.001-1.725
		c0.14-0.162,0.233-0.271,0.38-0.271c0.248,0,0.378,0.229,0.378,0.457c0,0.613-0.334,1.279-1.024,2.025
		c-0.609,0.684-1.09,0.732-1.778,0.732C130.989,84.352,130.937,84.352,130.885,84.348"/>
	<path fill="#9B9A9A" d="M155.126,83.735l-8.313-9.36l-0.066-0.072c-0.038-0.055-0.062-0.08-0.095-0.111
		c-0.004,0.048-0.007,0.1-0.007,0.1v7.924c0,0.934,0.522,1.021,1.028,1.101c0.299,0.052,0.674,0.112,0.674,0.487
		c0,0.347-0.224,0.471-0.434,0.471l-0.65-0.029l-1.305-0.047l-1.469,0.059l-0.352,0.018c-0.305,0-0.475-0.158-0.475-0.436
		c0-0.39,0.335-0.49,0.604-0.566c0.463-0.139,1.102-0.326,1.102-1.971v-7.144c0-2.658-1.01-2.905-1.679-3.07
		c-0.313-0.079-0.664-0.163-0.664-0.549c0-0.276,0.327-0.416,0.511-0.416l0.914,0.076l0.889-0.076c0.279,0,0.462,0.248,0.599,0.428
		l0.068,0.092c0,0,8.151,9.072,9.139,10.172c0-0.479,0-7.835,0-7.835c0-1.516-0.786-1.716-1.419-1.875
		c-0.339-0.084-0.727-0.18-0.727-0.566c0-0.244,0.175-0.416,0.432-0.416l1.762,0.076l1.13-0.043l0.827-0.032
		c0.246,0,0.413,0.163,0.413,0.395c0,0.335-0.271,0.451-0.489,0.547c-0.32,0.138-0.65,0.283-0.65,1.021v11.211
		c0,0.566,0,1.052-0.396,1.052C155.783,84.348,155.532,84.178,155.126,83.735"/>
	<path fill="#9B9A9A" d="M167.031,77.393c0-4.278,3.092-7.506,7.192-7.506c2.678,0,3.989,0.806,4.697,1.237
		c0.223,0.14,0.417,0.256,0.505,0.256l0.089-0.049l0.384-0.143c0.41,0,0.427,0.327,0.48,1.556l0.013,0.224l0.047,0.731
		c0.045,0.538,0.069,0.862-0.103,1.044l-0.282,0.121c-0.327,0-0.482-0.379-0.587-0.631l-0.053-0.115
		c-1.324-2.289-2.74-3.219-4.879-3.219c-3.415,0-5.374,2.145-5.374,5.896c0,3.235,1.863,6.515,5.432,6.515
		c2.954,0,4.763-1.889,5.014-2.669c0.067-0.237,0.271-0.407,0.482-0.407c0.115,0,0.227,0.051,0.309,0.152
		c0.075,0.096,0.105,0.213,0.082,0.33l-0.441,1.936c-0.053,0.209-1.514,1.697-5.97,1.697
		C169.927,84.348,167.031,81.488,167.031,77.393"/>
	<path fill="#9B9A9A" d="M198.263,84.348h-0.129l-1.902-0.039l-2.51-0.035l-0.938,0.035l-1.428,0.039
		c-0.463,0-0.511-0.285-0.507-0.448c0.044-0.276,0.234-0.352,0.481-0.448l0.496-0.219c0.35-0.164,0.41-0.53,0.41-1.483V72.92
		c0-1.002-0.056-1.621-0.877-1.741l-0.079-0.019c-0.219-0.04-0.667-0.128-0.667-0.506c0-0.456,0.539-0.456,0.897-0.456l4.564,0.061
		l0.917,0.019l1.108-0.036l1.657-0.044c0.19,0,0.418,0.112,0.418,0.651c0,2.095-0.243,2.525-0.609,2.525
		c-0.472,0-0.5-0.488-0.52-0.843c-0.012-0.227-0.028-0.487-0.124-0.622c-0.378-0.491-2.016-0.47-2.8-0.459l-0.316,0.004h-0.295
		c-0.664,0-1.102-0.004-1.213,0.107c-0.083,0.085-0.089,0.359-0.089,0.746v3.902c0,0.111,0.006,0.215,0.018,0.255
		c0.059,0.024,0.268,0.029,0.499,0.029h2.09c1.192,0,1.354-0.559,1.481-1.006c0.066-0.244,0.155-0.546,0.474-0.546
		c0.254,0,0.435,0.243,0.435,0.59l-0.041,1.956l0.041,1.531c0,0.287-0.171,0.471-0.435,0.471c-0.41,0-0.487-0.402-0.551-0.727
		c-0.095-0.504-0.187-0.978-1.018-0.978h-2.864c-0.071,0-0.101,0.016-0.104,0.021c-0.032,0.031-0.026,0.188-0.025,0.274v0.104v3.564
		l-0.001,0.276c-0.006,0.449-0.01,0.742,0.14,0.892c0.141,0.147,0.499,0.216,1.111,0.216c3.515,0,4.596-1.254,5.002-1.725
		c0.143-0.162,0.232-0.271,0.381-0.271c0.247,0,0.379,0.236,0.379,0.457c0,0.615-0.341,1.279-1.026,2.025
		c-0.609,0.684-1.094,0.732-1.779,0.732C198.365,84.352,198.314,84.352,198.263,84.348"/>
	<path fill="#9B9A9A" d="M46.628,106.922c0-4.275,3.091-7.504,7.188-7.504c2.676,0,3.989,0.807,4.694,1.236
		c0.224,0.14,0.42,0.256,0.508,0.256l0.092-0.051l0.379-0.141c0.413,0,0.431,0.326,0.484,1.557l0.01,0.227l0.048,0.739
		c0.044,0.53,0.067,0.85-0.099,1.038l-0.288,0.113c-0.323,0-0.482-0.377-0.587-0.631l-0.048-0.114c-1.327-2.29-2.74-3.22-4.884-3.22
		c-3.414,0-5.372,2.146-5.372,5.897c0,3.234,1.867,6.515,5.432,6.515c2.954,0,4.761-1.889,5.017-2.666
		c0.067-0.238,0.271-0.41,0.482-0.41c0.112,0,0.224,0.053,0.305,0.152c0.077,0.096,0.109,0.213,0.086,0.329l-0.446,1.94
		c-0.052,0.21-1.517,1.695-5.97,1.695C49.519,113.881,46.628,111.02,46.628,106.922"/>
	<path fill="#9B9A9A" d="M69.436,106.592c0-4.086,3.148-7.174,7.329-7.174c4.11,0,7.209,3.044,7.209,7.078
		c0,4.42-3.029,7.385-7.539,7.385C72.248,113.881,69.436,110.951,69.436,106.592 M71.29,106.033c0,3.307,2.086,6.826,5.957,6.826
		c2.869,0,4.87-2.314,4.87-5.625c0-3.309-2.22-6.73-5.936-6.73C72.823,100.504,71.29,103.367,71.29,106.033"/>
	<path fill="#9B9A9A" d="M119.407,113.881h-0.133l-1.903-0.04l-2.509-0.036l-0.938,0.036l-1.429,0.04
		c-0.461,0-0.511-0.289-0.506-0.451c0.045-0.271,0.236-0.352,0.478-0.447l0.499-0.221c0.352-0.162,0.412-0.529,0.412-1.482v-9.818
		c0-0.424-0.387-0.57-0.933-0.738c-0.356-0.104-0.69-0.207-0.69-0.518c0-0.476,0.458-0.476,0.61-0.476l0.593,0.027l1.358,0.054
		l1.471-0.061l0.391-0.021c0.161,0,0.587,0,0.587,0.495c0,0.318-0.311,0.402-0.543,0.467c-0.406,0.107-0.87,0.234-0.87,1.176v9.412
		l-0.003,0.276c-0.003,0.449-0.009,0.745,0.141,0.894c0.143,0.146,0.498,0.215,1.112,0.215c3.515,0,4.595-1.252,5.003-1.725
		c0.14-0.164,0.231-0.271,0.382-0.271c0.244,0,0.376,0.236,0.376,0.454c0,0.62-0.336,1.281-1.025,2.027
		c-0.609,0.684-1.091,0.73-1.775,0.73C119.51,113.881,119.459,113.881,119.407,113.881"/>
	<path fill="#9B9A9A" d="M100.47,113.881h-0.129l-1.9-0.04l-2.51-0.036l-0.941,0.036l-1.428,0.04c-0.46,0-0.511-0.289-0.507-0.451
		c0.044-0.271,0.238-0.352,0.482-0.447l0.495-0.221c0.352-0.162,0.416-0.529,0.416-1.482v-9.818c0-0.424-0.394-0.57-0.939-0.738
		c-0.354-0.104-0.689-0.207-0.689-0.518c0-0.476,0.458-0.476,0.61-0.476l0.595,0.027l1.36,0.054l1.469-0.061l0.39-0.021
		c0.159,0,0.591,0,0.591,0.495c0,0.318-0.314,0.402-0.543,0.467c-0.411,0.107-0.873,0.234-0.873,1.176v9.412l-0.003,0.276
		c-0.006,0.449-0.009,0.745,0.138,0.894c0.148,0.146,0.5,0.215,1.114,0.215c3.516,0,4.596-1.252,5.004-1.725
		c0.14-0.164,0.231-0.271,0.381-0.271c0.244,0,0.375,0.236,0.375,0.454c0,0.62-0.334,1.281-1.024,2.027
		c-0.61,0.684-1.092,0.73-1.777,0.73C100.574,113.881,100.523,113.881,100.47,113.881"/>
	<path fill="#9B9A9A" d="M138.476,113.881h-0.127l-1.898-0.04l-2.509-0.036l-0.942,0.036l-1.429,0.04
		c-0.463,0-0.511-0.289-0.511-0.451c0.048-0.271,0.239-0.352,0.482-0.447l0.495-0.221c0.353-0.162,0.414-0.529,0.414-1.482v-8.83
		c0-1-0.055-1.619-0.876-1.738l-0.08-0.02c-0.216-0.039-0.667-0.127-0.667-0.508c0-0.454,0.54-0.454,0.898-0.454l4.563,0.06
		l0.915,0.021l1.113-0.038l1.654-0.043c0.191,0,0.419,0.112,0.419,0.65c0,2.094-0.244,2.526-0.611,2.526
		c-0.471,0-0.499-0.488-0.518-0.84c-0.012-0.23-0.029-0.489-0.124-0.625c-0.375-0.49-2.011-0.473-2.797-0.459l-0.314,0.004h-0.299
		c-0.666,0-1.106-0.004-1.218,0.107c-0.079,0.084-0.084,0.359-0.084,0.742v3.91c0,0.107,0,0.211,0.013,0.25
		c0.063,0.025,0.271,0.029,0.502,0.029h2.092c1.193,0,1.352-0.559,1.479-1.01c0.067-0.239,0.155-0.541,0.476-0.541
		c0.255,0,0.435,0.242,0.435,0.589l-0.04,1.956l0.04,1.531c0,0.287-0.172,0.471-0.435,0.471c-0.412,0-0.487-0.403-0.552-0.727
		c-0.096-0.502-0.187-0.978-1.017-0.978h-2.869c-0.068,0-0.097,0.017-0.101,0.021c-0.031,0.031-0.026,0.189-0.026,0.275l0.003,0.104
		v3.562l-0.003,0.278c-0.005,0.447-0.007,0.743,0.135,0.892c0.148,0.146,0.504,0.215,1.117,0.215c3.516,0,4.596-1.252,5.002-1.725
		c0.142-0.164,0.231-0.271,0.381-0.271c0.247,0,0.378,0.236,0.378,0.454c0,0.615-0.338,1.281-1.025,2.027
		c-0.609,0.684-1.089,0.73-1.78,0.73C138.582,113.881,138.529,113.881,138.476,113.881"/>
	<path fill="#9B9A9A" d="M149.84,106.713c0-4.227,3.14-7.295,7.464-7.295c2.449,0,3.688,0.707,4.352,1.086
		c0.216,0.123,0.405,0.227,0.504,0.23l0.088-0.092c0.084-0.1,0.213-0.255,0.423-0.255l0.305,0.116
		c0.127,0.131,0.127,0.311,0.127,0.438v0.095l0.194,2.555c0,0.494-0.271,0.57-0.433,0.57c-0.248,0-0.403-0.243-0.683-0.684
		c-0.683-1.068-1.955-3.051-5.263-3.051c-3.459,0-5.008,2.968-5.008,5.912c0,3.121,1.72,6.479,5.494,6.479
		c1.591,0,3.802-0.798,3.802-2.294v-3.004c0-0.287-0.26-0.375-0.851-0.462c-0.39-0.062-0.833-0.128-0.833-0.523l0.12-0.307
		c0.14-0.138,0.343-0.133,0.491-0.128h0.054h3.237l0.078-0.005c0.17-0.013,0.392-0.027,0.547,0.116l0.116,0.283
		c0,0.314-0.279,0.396-0.451,0.441c-0.274,0.082-0.533,0.152-0.533,0.819v4.112l-0.156,0.049c-0.646,0.207-1.13,0.486-1.641,0.782
		c-1.006,0.577-2.047,1.181-4.391,1.181C152.58,113.881,149.84,111.135,149.84,106.713"/>
	<path fill="#9B9A9A" d="M179.919,113.881h-0.134l-1.81-0.04l-2.312-0.036l-0.939,0.036l-1.431,0.04
		c-0.461,0-0.511-0.289-0.506-0.451c0.045-0.271,0.236-0.352,0.483-0.447l0.495-0.221c0.35-0.162,0.409-0.529,0.409-1.482v-8.83
		c0-1-0.054-1.619-0.876-1.738l-0.08-0.02c-0.216-0.039-0.666-0.127-0.666-0.508c0-0.454,0.539-0.454,0.896-0.454l4.563,0.06
		l0.919,0.021l0.989-0.038l1.491-0.043c0.188,0,0.415,0.112,0.415,0.65c0,2.094-0.243,2.526-0.611,2.526
		c-0.47,0-0.499-0.488-0.518-0.84c-0.011-0.23-0.028-0.489-0.118-0.625c-0.381-0.49-1.768-0.473-2.518-0.459l-0.313,0.004h-0.298
		c-0.663,0-1.1-0.004-1.213,0.107c-0.083,0.084-0.088,0.359-0.088,0.742v3.91c0,0.107,0.005,0.211,0.018,0.25
		c0.059,0.025,0.265,0.029,0.499,0.029h2.088c1.163,0,1.213-0.516,1.258-0.971c0.024-0.23,0.06-0.58,0.411-0.58
		c0.255,0,0.436,0.242,0.436,0.589l-0.041,1.956l0.041,1.531c0,0.287-0.172,0.471-0.436,0.471c-0.444,0-0.456-0.46-0.463-0.762
		c-0.013-0.508-0.024-0.942-0.818-0.942h-2.865c-0.071,0-0.099,0.017-0.103,0.021c-0.032,0.031-0.026,0.188-0.024,0.275v0.104v3.562
		v0.278c-0.008,0.447-0.012,0.743,0.135,0.892c0.147,0.146,0.499,0.215,1.114,0.215c3.502,0,4.396-1.24,4.73-1.713
		c0.113-0.154,0.205-0.282,0.364-0.282c0.248,0,0.379,0.236,0.379,0.454c0,0.62-0.335,1.281-1.025,2.027
		c-0.609,0.684-1.09,0.73-1.775,0.73C180.022,113.881,179.97,113.881,179.919,113.881"/>
</g>
</svg>
