<?xml version="1.0" encoding="utf-8"?>
<!-- Generator: Adobe Illustrator 16.0.0, SVG Export Plug-In . SVG Version: 6.00 Build 0)  -->
<!DOCTYPE svg PUBLIC "-//W3C//DTD SVG 1.1//EN" "http://www.w3.org/Graphics/SVG/1.1/DTD/svg11.dtd">
<svg version="1.1" id="Layer_1" xmlns="http://www.w3.org/2000/svg" xmlns:xlink="http://www.w3.org/1999/xlink" x="0px" y="0px"
	 width="234px" height="153px" viewBox="0 0 234 153" enable-background="new 0 0 234 153" xml:space="preserve">
<rect fill="#FFFFFF" width="234" height="153"/>
<g>
	<g>
		<g>
			<path fill="#0F79BF" d="M87.876,42.21l0.907,18.566l18.947,5.192l-18.352,6.949l0.961,19.663l-12.323-15.36l-13.343,5.053
				c0,13.518,0,28.383,0,28.516h105.777V42.21H87.876z"/>
			<path fill="#0F79BF" d="M64.674,60.594v-0.003c0,0,0,7.054,0,15.873l5.729-8.73L64.674,60.594z"/>
			<polygon fill="#0F79BF" points="77.068,57.582 87.174,42.21 64.674,42.21 64.674,54.216 64.674,54.223 			"/>
		</g>
		<path fill="#FFFFFF" d="M70.242,107.057c-0.212-0.107-0.227-0.168-0.227-0.577c0-0.757,0.059-1.361,0.075-1.603
			c0.015-0.168,0.045-0.246,0.121-0.246c0.091,0,0.106,0.048,0.106,0.17c0,0.137,0,0.348,0.045,0.561
			c0.227,1.118,1.227,1.543,2.24,1.543c1.452,0,2.166-1.047,2.166-2.015c0-1.043-0.44-1.649-1.743-2.724l-0.68-0.56
			c-1.605-1.317-1.969-2.255-1.969-3.284c0-1.619,1.212-2.727,3.134-2.727c0.591,0,1.029,0.063,1.406,0.152
			c0.288,0.062,0.409,0.076,0.531,0.076c0.12,0,0.151,0.031,0.151,0.107c0,0.075-0.062,0.575-0.062,1.604
			c0,0.242-0.028,0.348-0.105,0.348c-0.09,0-0.105-0.076-0.12-0.195c-0.015-0.184-0.106-0.593-0.198-0.76
			c-0.089-0.166-0.498-0.801-1.892-0.801c-1.042,0-1.861,0.652-1.861,1.756c0,0.863,0.424,1.377,1.848,2.543l0.425,0.333
			c1.784,1.407,2.209,2.347,2.209,3.557c0,0.622-0.242,1.77-1.285,2.513c-0.652,0.453-1.469,0.637-2.288,0.637
			C71.56,107.465,70.863,107.357,70.242,107.057"/>
		<path fill="#FFFFFF" d="M83.062,102.863c0,1.452,0,2.648,0.077,3.283c0.043,0.439,0.134,0.773,0.59,0.834
			c0.211,0.029,0.543,0.059,0.68,0.059c0.091,0,0.122,0.046,0.122,0.092c0,0.074-0.076,0.121-0.242,0.121
			c-0.834,0-1.786-0.047-1.862-0.047s-1.029,0.047-1.483,0.047c-0.167,0-0.241-0.029-0.241-0.121c0-0.046,0.029-0.092,0.12-0.092
			c0.136,0,0.317-0.029,0.454-0.059c0.303-0.061,0.379-0.395,0.438-0.834c0.077-0.635,0.077-1.831,0.077-3.283v-6.404l-2.24,0.033
			c-0.938,0.013-1.303,0.119-1.545,0.482c-0.165,0.258-0.212,0.363-0.258,0.471c-0.045,0.121-0.09,0.151-0.15,0.151
			c-0.045,0-0.075-0.048-0.075-0.138c0-0.152,0.303-1.452,0.333-1.574c0.029-0.09,0.091-0.287,0.15-0.287
			c0.106,0,0.259,0.15,0.667,0.183c0.437,0.044,1.012,0.075,1.195,0.075h5.675c0.97,0,1.378-0.152,1.498-0.152
			c0.076,0,0.076,0.092,0.076,0.182c0,0.454-0.044,1.498-0.044,1.664c0,0.139-0.048,0.197-0.107,0.197
			c-0.074,0-0.106-0.045-0.12-0.256l-0.016-0.166c-0.061-0.454-0.409-0.803-1.861-0.832l-1.907-0.033V102.863z"/>
		<path fill="#FFFFFF" d="M93.37,102.242c0.076,0,0.076-0.045,0.061-0.105l-1.438-4.088c-0.076-0.226-0.151-0.226-0.228,0
			l-1.331,4.088c-0.03,0.075,0,0.105,0.046,0.105H93.37z M91.795,96.186c0.183-0.497,0.244-0.59,0.333-0.59
			c0.092,0,0.152,0.078,0.334,0.549c0.226,0.572,2.603,6.823,3.525,9.123c0.546,1.35,0.984,1.59,1.304,1.682
			c0.226,0.076,0.452,0.09,0.604,0.09c0.091,0,0.153,0.015,0.153,0.092c0,0.092-0.138,0.121-0.306,0.121
			c-0.227,0-1.332,0-2.375-0.029c-0.288-0.018-0.454-0.018-0.454-0.107c0-0.062,0.045-0.09,0.105-0.105
			c0.09-0.029,0.182-0.166,0.09-0.409l-1.406-3.724c-0.031-0.059-0.062-0.09-0.137-0.09h-3.253c-0.078,0-0.123,0.045-0.151,0.121
			l-0.91,2.679c-0.136,0.378-0.212,0.742-0.212,1.014c0,0.304,0.319,0.438,0.577,0.438h0.149c0.106,0,0.152,0.031,0.152,0.092
			c0,0.092-0.091,0.121-0.229,0.121c-0.363,0-1.013-0.047-1.18-0.047s-0.999,0.047-1.709,0.047c-0.198,0-0.288-0.029-0.288-0.121
			c0-0.061,0.061-0.092,0.136-0.092c0.105,0,0.318-0.014,0.438-0.029c0.695-0.09,0.999-0.666,1.271-1.423L91.795,96.186z"/>
		<path fill="#FFFFFF" d="M101.421,101.516c0,0.074,0.03,0.137,0.107,0.181c0.226,0.138,0.923,0.243,1.589,0.243
			c0.362,0,0.784-0.046,1.135-0.287c0.529-0.361,0.923-1.182,0.923-2.332c0-1.893-1-3.027-2.616-3.027
			c-0.456,0-0.864,0.046-1.017,0.091c-0.075,0.03-0.121,0.091-0.121,0.183V101.516z M100.21,100.198c0-2.36,0-2.784-0.03-3.271
			c-0.029-0.514-0.15-0.756-0.649-0.861c-0.122-0.031-0.379-0.044-0.517-0.044c-0.06,0-0.12-0.03-0.12-0.093
			c0-0.09,0.077-0.12,0.243-0.12c0.68,0,1.634,0.046,1.709,0.046c0.166,0,1.317-0.046,1.786-0.046c0.953,0,1.967,0.091,2.771,0.665
			c0.379,0.272,1.044,1.016,1.044,2.059c0,1.121-0.469,2.241-1.831,3.498c1.24,1.588,2.271,2.936,3.147,3.873
			c0.816,0.863,1.469,1.029,1.847,1.09c0.288,0.045,0.501,0.045,0.59,0.045c0.076,0,0.136,0.046,0.136,0.092
			c0,0.092-0.089,0.121-0.362,0.121h-1.073c-0.85,0-1.228-0.076-1.621-0.287c-0.65-0.348-1.18-1.09-2.043-2.227
			c-0.637-0.832-1.346-1.845-1.65-2.238c-0.06-0.062-0.105-0.092-0.196-0.092l-1.86-0.029c-0.077,0-0.107,0.045-0.107,0.121v0.363
			c0,1.452,0,2.647,0.076,3.283c0.045,0.438,0.138,0.773,0.59,0.834c0.211,0.029,0.545,0.059,0.682,0.059
			c0.09,0,0.121,0.046,0.121,0.092c0,0.074-0.075,0.121-0.241,0.121c-0.833,0-1.787-0.047-1.862-0.047
			c-0.016,0-0.97,0.047-1.424,0.047c-0.165,0-0.241-0.029-0.241-0.121c0-0.046,0.03-0.092,0.121-0.092
			c0.137,0,0.318-0.029,0.455-0.059c0.301-0.061,0.378-0.396,0.438-0.834c0.075-0.636,0.075-1.831,0.075-3.283V100.198z"/>
		<path fill="#FFFFFF" d="M120.962,105.162h0.059c0.408-1.391,1.801-5.782,2.333-7.717c0.15-0.561,0.166-0.773,0.166-0.971
			c0-0.271-0.166-0.453-0.863-0.453c-0.074,0-0.134-0.045-0.134-0.105c0-0.076,0.072-0.106,0.254-0.106
			c0.773,0,1.408,0.045,1.546,0.045c0.105,0,0.756-0.045,1.225-0.045c0.135,0,0.211,0.03,0.211,0.091
			c0,0.076-0.043,0.121-0.135,0.121c-0.061,0-0.349,0.016-0.515,0.076c-0.455,0.166-0.695,0.802-0.984,1.634
			c-0.666,1.923-2.194,6.735-2.783,8.433c-0.395,1.117-0.471,1.301-0.638,1.301c-0.149,0-0.241-0.197-0.454-0.788l-2.964-8.415
			h-0.031c-0.546,1.451-2.618,6.991-3.164,8.398c-0.241,0.637-0.317,0.805-0.498,0.805c-0.151,0-0.228-0.168-0.53-1.196
			l-2.694-8.976c-0.242-0.801-0.438-1.029-0.833-1.18c-0.195-0.076-0.573-0.092-0.681-0.092c-0.075,0-0.136-0.015-0.136-0.105
			c0-0.076,0.091-0.106,0.243-0.106c0.786,0,1.619,0.045,1.785,0.045c0.136,0,0.8-0.045,1.559-0.045
			c0.211,0,0.273,0.045,0.273,0.106c0,0.091-0.077,0.105-0.153,0.105c-0.12,0-0.407,0-0.589,0.092
			c-0.091,0.045-0.197,0.166-0.197,0.361c0,0.197,0.135,0.729,0.287,1.393c0.228,0.969,1.801,6.523,2.028,7.326h0.03l3.209-8.625
			c0.228-0.621,0.286-0.697,0.377-0.697c0.106,0,0.198,0.195,0.379,0.711L120.962,105.162z"/>
		<path fill="#FFFFFF" d="M132.781,106.889c1.362,0,4.18-0.787,4.18-5.191c0-3.632-2.213-5.584-4.602-5.584
			c-2.528,0-4.419,1.664-4.419,4.979C127.94,104.617,130.059,106.889,132.781,106.889 M132.465,95.598
			c3.405,0,5.948,2.15,5.948,5.676c0,3.391-2.393,6.191-6.039,6.191c-4.147,0-5.874-3.225-5.874-5.949
			C126.5,99.063,128.287,95.598,132.465,95.598"/>
		<path fill="#FFFFFF" d="M146.631,106.889c1.361,0,4.178-0.787,4.178-5.191c0-3.632-2.211-5.584-4.601-5.584
			c-2.528,0-4.42,1.664-4.42,4.979C141.788,104.617,143.908,106.889,146.631,106.889 M146.312,95.598
			c3.404,0,5.948,2.15,5.948,5.676c0,3.391-2.393,6.191-6.038,6.191c-4.147,0-5.874-3.225-5.874-5.949
			C140.349,99.063,142.136,95.598,146.312,95.598"/>
		<path fill="#FFFFFF" d="M156.744,101.834c0,1.604,0.016,2.995,0.03,3.284c0.016,0.377,0.046,0.983,0.165,1.15
			c0.197,0.286,0.787,0.606,2.574,0.606c1.407,0,2.709-0.516,3.603-1.409c0.788-0.772,1.212-2.226,1.212-3.618
			c0-1.921-0.834-3.162-1.455-3.812c-1.423-1.498-3.148-1.711-4.948-1.711c-0.303,0-0.862,0.047-0.985,0.105
			c-0.135,0.062-0.18,0.137-0.18,0.303c-0.016,0.515-0.016,2.059-0.016,3.223V101.834z M155.473,100.198c0-2.36,0-2.784-0.03-3.271
			c-0.03-0.514-0.15-0.756-0.65-0.861c-0.121-0.031-0.379-0.044-0.517-0.044c-0.061,0-0.119-0.03-0.119-0.093
			c0-0.09,0.076-0.12,0.242-0.12c0.68,0,1.632,0.046,1.71,0.046c0.181,0,1.135-0.046,2.043-0.046c1.498,0,4.268-0.136,6.069,1.726
			c0.757,0.787,1.468,2.043,1.468,3.844c0,1.908-0.786,3.375-1.633,4.268c-0.652,0.683-2.016,1.74-4.587,1.74
			c-1.302,0-3.208-0.182-3.36-0.182c-0.078,0-1.03,0.047-1.484,0.047c-0.166,0-0.241-0.029-0.241-0.121
			c0-0.046,0.03-0.092,0.122-0.092c0.135,0,0.317-0.029,0.453-0.059c0.303-0.061,0.379-0.396,0.439-0.834
			c0.075-0.636,0.075-1.831,0.075-3.283V100.198z"/>
	</g>
</g>
</svg>
