<?xml version="1.0" encoding="utf-8"?>
<!-- Generator: Adobe Illustrator 16.0.0, SVG Export Plug-In . SVG Version: 6.00 Build 0)  -->
<!DOCTYPE svg PUBLIC "-//W3C//DTD SVG 1.1//EN" "http://www.w3.org/Graphics/SVG/1.1/DTD/svg11.dtd">
<svg version="1.1" id="Layer_1" xmlns="http://www.w3.org/2000/svg" xmlns:xlink="http://www.w3.org/1999/xlink" x="0px" y="0px"
	 width="234px" height="153px" viewBox="0 0 234 153" enable-background="new 0 0 234 153" xml:space="preserve">
<rect fill="#FFFFFF" width="234" height="153"/>
<g>
	<path fill="#9B9A9A" d="M54.49,61.661l-7.164-5.538l-7.163,5.538l-1.564-2.047l8.728-6.803l8.729,6.803L54.49,61.661z
		 M63.04,99.104V82.368h2.829v11.438c1.384-1.688,2.889-3.793,4.033-5.779c2.166-3.852,3.371-8.008,3.371-12.823
		c0-14.448-11.619-26.186-25.947-26.186c-14.326,0-25.945,11.738-25.945,26.186c0,4.815,1.144,8.971,3.312,12.762
		c1.204,2.047,2.647,4.152,4.033,5.84V82.368h2.89v16.735c-7.765-5.116-12.882-13.906-12.882-23.899
		c0-15.771,12.821-28.594,28.593-28.594c15.773,0,28.596,12.823,28.596,28.594C75.922,85.197,70.805,93.987,63.04,99.104z
		 M51.602,103.56V63.767h2.829v39.129C53.528,103.078,52.565,103.377,51.602,103.56z M57.32,102.055V82.368h2.89v18.36
		C59.247,101.211,58.283,101.632,57.32,102.055z M47.326,103.799c-0.48,0-0.962-0.061-1.444-0.061V63.767h2.83v39.971
		C48.29,103.738,47.81,103.799,47.326,103.799z M40.163,102.896V63.767h2.83v39.731C42.029,103.377,41.127,103.078,40.163,102.896z
		 M34.444,100.729v-18.36h2.829v19.625C36.312,101.632,35.348,101.211,34.444,100.729z"/>
	<path fill="#9B9A9A" d="M125.646,61.178h-4.576c0.182-1.806,0.604-4.516,2.53-4.516C125.405,56.663,125.586,59.373,125.646,61.178z
		 M128.717,62.624c-0.062-3.552-0.724-7.406-5.177-7.406c-4.336,0-5.479,4.635-5.479,8.006c0,4.334,1.865,7.284,5.418,7.284
		c2.77,0,3.973-1.143,5.176-3.491l-1.324-0.542c-0.601,0.963-1.443,1.925-2.709,1.925c-2.948,0-3.431-3.37-3.553-5.777H128.717z
		 M115.834,62.683c0-6.561-4.153-7.524-5.899-7.524c-4.215,0-5.961,4.333-5.961,7.886c0,4.695,2.529,7.464,5.78,7.464
		C112.943,70.509,115.834,67.8,115.834,62.683z M101.626,64.67c0-1.446-0.48-2.769-1.504-3.853
		c-0.963-1.023-2.047-1.385-3.252-1.626c1.506-0.662,3.612-2.047,3.612-4.937c0-1.143-0.48-2.408-1.264-3.311
		c-1.505-1.625-3.793-1.625-4.937-1.625c-1.324,0-2.589,0.18-3.913,0.18h-3.672v1.265l2.047,0.36v17.518l-2.047,0.362v1.204h3.491
		c0.723,0,3.974,0.061,4.635,0.061c1.686,0,4.517,0.059,6.142-2.71C101.386,66.778,101.687,65.813,101.626,64.67z M123.418,88.148
		v-1.807l-3.491,0.121c-1.022,0-2.046-0.48-3.13-0.48c-2.89,0-5.177,1.984-5.177,4.994c0,2.528,1.505,3.492,2.468,4.094
		c-1.565,0.964-2.709,2.048-2.709,3.191c0,0.963,0.663,1.564,1.687,1.926c-1.085,0.662-2.349,1.625-2.349,3.131
		c0,2.227,2.77,3.07,5.298,3.07c4.635,0,7.223-2.288,7.223-5.117c0-2.59-1.563-3.432-4.152-3.552l-3.854-0.183
		c-0.241,0-1.024-0.119-1.024-0.541c0-0.48,0.544-0.962,1.145-1.384c0.542,0.181,1.144,0.241,1.687,0.241
		c2.106,0,4.996-1.444,4.996-4.877c0-1.145-0.423-1.926-1.084-2.89L123.418,88.148z M109.332,100.97v-1.265l-1.565-0.36v-9.45
		c0-2.289-1.203-3.793-3.672-3.793c-1.564,0-2.77,0.902-3.854,1.745v-1.806h-0.843l-3.731,0.963v1.203l1.746,0.242v10.957
		l-1.746,0.36v1.203h6.2v-1.265l-1.565-0.36v-9.813c0.844-0.723,1.747-1.324,2.829-1.324c1.686,0,1.686,1.688,1.686,2.469v8.789
		l-1.564,0.302v1.203H109.332z M93.681,100.97v-1.265l-1.746-0.36V81.826l1.806-0.36v-1.264h-6.923v1.325l1.927,0.299v17.58
		l-1.927,0.36v1.203H93.681z M112.583,62.624c0,1.925-0.241,6.38-2.829,6.38c-1.686,0-2.589-2.348-2.589-5.9
		c0-1.685,0.12-6.502,2.829-6.502C112.162,56.602,112.583,60.155,112.583,62.624z M96.991,54.616c0,3.914-2.348,4.034-3.731,4.034
		h-1.506v-7.645c0.723-0.241,1.144-0.362,1.986-0.362C94.823,50.643,96.991,51.125,96.991,54.616z M98.195,64.49
		c0,1.565-0.541,3.069-1.866,3.792c-0.782,0.481-1.806,0.723-2.648,0.723c-0.783,0-1.386-0.121-1.927-0.482v-8.427h1.324
		C95.126,60.095,98.195,60.396,98.195,64.49z M118.904,91.098c0,1.445-0.241,3.371-2.047,3.371c-1.867,0-2.047-2.047-2.047-3.611
		c0-1.505,0.12-3.612,1.926-3.612C118.663,87.245,118.904,89.473,118.904,91.098z M121.131,102.416c0,1.322-1.927,2.346-4.395,2.346
		c-1.806,0-3.13-0.781-3.13-2.046c0-1.144,0.542-1.807,1.083-2.286c3.069,0.179,4.334,0.299,5.358,0.54
		C120.649,101.09,121.131,101.392,121.131,102.416z"/>
	<path fill="#9B9A9A" d="M168.989,91.939h-4.574c0.18-1.806,0.602-4.515,2.527-4.515C168.749,87.425,168.93,90.134,168.989,91.939z
		 M161.465,50.042c0-1.083-0.843-1.927-1.927-1.927c-1.085,0-1.927,0.844-1.927,1.927c0,1.083,0.842,1.927,1.927,1.927
		C160.622,51.968,161.465,51.125,161.465,50.042z M162.909,70.208v-1.265l-1.686-0.301V55.459h-0.722l-3.794,0.963v1.023
		l1.626,0.362v10.835l-1.626,0.362v1.204H162.909z M155.203,57.265c0-1.203-0.782-1.746-1.746-1.746
		c-1.264,0-1.927,0.963-2.889,2.589v-2.77h-0.904l-3.61,0.963v0.963l1.745,0.301v11.076l-1.745,0.362v1.204h6.682v-1.265
		l-2.106-0.301v-7.886c0-0.481,0.662-1.987,1.866-2.528l1.565,0.843C154.542,58.65,155.203,58.168,155.203,57.265z M144.007,70.208
		v-1.265l-1.565-0.301v-9.451c0-2.168-1.204-3.732-3.552-3.732c-1.625,0-2.829,0.903-3.913,1.746v-9.09h-0.843l-3.731,0.783v1.024
		l1.686,0.36v18.361l-1.808,0.362v1.204h6.142v-1.265l-1.445-0.301v-9.692c0.843-0.722,1.625-1.324,2.769-1.324
		c1.746,0,1.746,1.746,1.746,2.95v8.126l-1.444,0.302v1.204H144.007z M159.478,100.97v-1.265l-1.624-0.36v-9.45
		c0-2.168-1.146-3.674-3.554-3.674c-1.625,0-2.828,0.844-3.912,1.746v-9.15h-0.782l-3.793,0.844v1.023l1.686,0.3v18.423l-1.746,0.36
		v1.203h6.081v-1.265l-1.445-0.36v-9.633c0.843-0.721,1.686-1.384,2.828-1.384c1.687,0,1.687,1.746,1.687,2.95v8.187l-1.445,0.302
		v1.203H159.478z M143.766,100.97v-1.265l-1.625-0.36V78.816h-0.783l-3.792,0.844v1.023l1.685,0.18v18.543l-1.746,0.36v1.203
		H143.766z M172.06,93.385c-0.06-3.553-0.723-7.402-5.177-7.402c-4.334,0-5.479,4.634-5.479,8.005c0,4.333,1.865,7.284,5.418,7.284
		c2.769,0,3.973-1.145,5.178-3.491l-1.324-0.542c-0.604,0.963-1.445,1.926-2.709,1.926c-2.95,0-3.433-3.371-3.552-5.779H172.06z
		 M135.76,93.385c-0.06-3.553-0.723-7.402-5.178-7.402c-4.333,0-5.478,4.634-5.478,8.005c0,4.333,1.865,7.284,5.418,7.284
		c2.768,0,3.973-1.145,5.178-3.491l-1.325-0.542c-0.602,0.963-1.445,1.926-2.709,1.926c-2.949,0-3.433-3.371-3.551-5.779H135.76z
		 M132.688,91.939h-4.573c0.181-1.806,0.602-4.515,2.526-4.515C132.448,87.425,132.629,90.134,132.688,91.939z"/>
	<path fill="#9B9A9A" d="M188.252,60.336c0,1.505-0.241,3.371-2.045,3.371c-1.867,0-2.047-1.986-2.047-3.612
		c0-1.505,0.12-3.552,1.926-3.552C188.011,56.543,188.252,58.709,188.252,60.336z M216.728,57.265c0-1.203-0.844-1.746-1.745-1.746
		c-1.267,0-1.989,0.963-2.95,2.589v-2.77h-0.844l-3.672,0.963v0.963l1.747,0.301v11.076l-1.747,0.362v1.204h6.682v-1.265
		l-2.107-0.301v-7.886c0-0.481,0.724-1.987,1.928-2.528l1.565,0.843C216.003,58.65,216.728,58.168,216.728,57.265z M192.707,57.386
		v-1.805l-3.432,0.12c-1.023,0-2.047-0.482-3.13-0.482c-2.829,0-5.116,1.987-5.116,4.997c0,2.528,1.444,3.552,2.469,4.153
		c-1.566,0.963-2.771,1.987-2.771,3.13c0,1.023,0.663,1.626,1.688,1.928c-1.085,0.722-2.349,1.624-2.349,3.131
		c0,2.227,2.77,3.069,5.358,3.069c4.575,0,7.225-2.288,7.225-5.057c0-2.649-1.688-3.552-4.215-3.612l-3.853-0.12
		c-0.241,0-1.023-0.181-1.023-0.663c0-0.362,0.54-0.843,1.145-1.265c0.541,0.122,1.142,0.241,1.684,0.241
		c2.107,0,4.998-1.505,4.998-4.876c0-1.203-0.423-1.986-1.085-2.95L192.707,57.386z M178.681,70.208v-1.265l-1.564-0.301v-9.451
		c0-2.349-1.204-3.792-3.673-3.792c-1.565,0-2.771,0.843-3.853,1.745v-1.806h-0.842l-3.732,0.963v1.203l1.744,0.182v10.956
		l-1.744,0.362v1.204h6.14v-1.265l-1.505-0.301v-9.812c0.844-0.722,1.686-1.385,2.829-1.385c1.626,0,1.686,1.746,1.686,2.468v8.789
		l-1.565,0.302v1.204H178.681z M204.267,100.97v-1.265l-1.688-0.36v-9.513c0-2.407-1.443-3.611-3.793-3.611
		c-1.624,0-2.889,0.844-4.032,1.986c-0.662-1.264-1.926-1.926-3.37-1.926c-1.505,0-2.891,0.662-4.095,1.746v-1.986h-0.782
		l-3.792,0.963v1.023l1.746,0.301v11.078l-1.746,0.36v1.203h6.14v-1.265l-1.384-0.36v-9.692c0.661-0.661,1.443-1.384,2.769-1.384
		c1.565,0,1.866,1.384,1.866,2.528v8.609l-1.686,0.36v1.203h6.08v-1.265l-1.505-0.36v-9.633c0.843-0.781,1.686-1.443,2.829-1.443
		c1.687,0,1.807,1.685,1.807,2.468v8.67l-1.626,0.36v1.203H204.267z M179.224,80.743c0-1.023-0.784-1.927-1.867-1.927
		c-1.084,0-1.986,0.903-1.986,1.986c0,1.023,0.843,1.926,1.927,1.926C178.38,82.729,179.224,81.826,179.224,80.743z M180.668,100.97
		v-1.265l-1.687-0.36V86.221h-0.722l-3.793,0.963v0.965l1.626,0.36v10.897l-1.626,0.36v1.203H180.668z M190.479,71.653
		c0,1.324-1.926,2.348-4.394,2.348c-1.806,0-3.13-0.723-3.13-2.046c0-1.144,0.602-1.746,1.082-2.288
		c3.131,0.181,4.396,0.361,5.358,0.542C189.999,70.328,190.479,70.63,190.479,71.653z M205.048,62.624
		c-0.061-3.552-0.721-7.406-5.177-7.406c-4.335,0-5.478,4.635-5.478,8.006c0,4.334,1.865,7.284,5.417,7.284
		c2.769,0,3.974-1.143,5.177-3.491l-1.323-0.542c-0.602,0.963-1.445,1.925-2.708,1.925c-2.951,0-3.433-3.37-3.553-5.777H205.048z
		 M201.979,61.178h-4.575c0.181-1.806,0.602-4.516,2.527-4.516C201.737,56.663,201.918,59.373,201.979,61.178z"/>
</g>
</svg>
