<?xml version="1.0" encoding="utf-8"?>
<!-- Generator: Adobe Illustrator 16.0.0, SVG Export Plug-In . SVG Version: 6.00 Build 0)  -->
<!DOCTYPE svg PUBLIC "-//W3C//DTD SVG 1.1//EN" "http://www.w3.org/Graphics/SVG/1.1/DTD/svg11.dtd">
<svg version="1.1" id="Layer_1" xmlns="http://www.w3.org/2000/svg" xmlns:xlink="http://www.w3.org/1999/xlink" x="0px" y="0px"
	 width="234px" height="153px" viewBox="0 0 234 153" enable-background="new 0 0 234 153" xml:space="preserve">
<rect fill="#FFFFFF" width="234" height="153"/>
<g>
	<g>
		<path fill="#00609C" d="M78.519,59.808c-3.271,0-6.033,1.094-8.166,3.16v-13.33h-4.876v39.104h4.876V72.547
			c0-4.674,3.285-8.065,7.81-8.065c4.411,0,7.046,2.861,7.046,7.658v16.602h4.877V71.682C90.085,64.58,85.437,59.808,78.519,59.808"
			/>
		<path fill="#00609C" d="M104.896,60.012c-4.099,0-7.206,1.188-9.709,2.349l-1.041,0.483l1.855,4.433l1.146-0.585
			c2.611-1.335,5.025-1.956,7.596-1.956c3.268,0,7.138,1.123,7.335,6.336c-1.95-0.44-4.253-0.788-7.386-0.788
			c-7.616,0-12.533,3.784-12.533,9.636v0.102c0,6.061,5.777,9.33,11.21,9.33c4.044,0,6.855-1.498,8.726-3.1v2.49h4.825V71.376
			C116.92,64.26,112.426,60.012,104.896,60.012 M97.188,79.77c0-3.044,2.748-4.86,7.353-4.86c3.132,0,5.64,0.457,7.604,0.92v2.004
			c0,3.873-3.706,6.794-8.621,6.794c-3.149,0-6.336-1.633-6.336-4.758V79.77z"/>
		<path fill="#00609C" d="M124.617,64.83v-4.411h-4.877v28.323h4.877V76.919c0-8.134,5.046-11.775,10.046-11.775h1.447V60.02
			l-1.146,0C131.03,60.02,127.255,61.675,124.617,64.83"/>
		<path fill="#00609C" d="M149.853,84.475c-2.762,0-3.994-1.184-3.994-3.842V65.145h9.103V60.02h-9.103v-7.89h-4.876v7.89h-3.291
			v5.125h3.291v15.742c0,5.128,3.241,8.312,8.462,8.312c1.729,0,3.187-0.315,4.722-1.023l0.692-0.32V82.91l-1.68,0.754
			C151.858,84.256,150.957,84.475,149.853,84.475"/>
		<path fill="#00609C" d="M168.145,59.808c-7.57,0-13.5,6.467-13.5,14.722v0.102c0,8.393,5.979,14.723,13.906,14.723
			c5.954,0,9.329-2.814,11.607-5.264l0.828-0.896l-3.514-3.102l-0.792,0.848c-2.351,2.516-4.9,3.688-8.028,3.688
			c-3.729,0-7.893-2.465-8.821-7.838h21.293l0.053-1.047l0.059-1.061v-0.101C181.235,65.883,175.853,59.808,168.145,59.808
			 M168.043,64.482c4.994,0,7.338,3.768,7.966,7.685h-16.135C160.725,67.654,163.984,64.482,168.043,64.482"/>
		<path fill="#00609C" d="M199.045,60.012c-3.958-0.158-7.712,1.665-10.35,4.817v-4.411h-4.876v28.323h4.876V76.918
			c0-8.133,5.048-11.775,10.047-11.775h1.447v-5.086L199.045,60.012z"/>
		<path fill="#00609C" d="M59.51,81.366c-2.586,2.149-5.134,3.106-8.264,3.106c-6.979,0-12.445-6.469-12.445-14.728
			c0-8.337,5.352-14.624,12.445-14.624c2.997,0,5.447,0.886,7.945,2.873l0.833,0.664l3.599-3.602l-0.994-0.835
			c-2.041-1.719-5.437-4.006-11.335-4.006c-9.968,0-17.483,8.441-17.483,19.634c0,11.133,7.455,19.529,17.339,19.529
			c6.021,0,9.538-2.557,11.659-4.482l0.926-0.84l-3.389-3.386L59.51,81.366z"/>
	</g>
	<g>
		<path fill="#919195" d="M36.724,98.279v-0.021c0-2.096,1.569-3.814,3.804-3.814c1.359,0,2.18,0.477,2.886,1.148l-0.83,0.959
			c-0.592-0.547-1.224-0.916-2.066-0.916c-1.401,0-2.435,1.158-2.435,2.602v0.021c0,1.444,1.022,2.613,2.435,2.613
			c0.905,0,1.486-0.357,2.117-0.949l0.832,0.844c-0.77,0.801-1.612,1.307-2.99,1.307C38.324,102.072,36.724,100.397,36.724,98.279z"
			/>
		<path fill="#919195" d="M48.084,98.279v-0.021c0-2.074,1.603-3.814,3.866-3.814c2.266,0,3.848,1.719,3.848,3.793v0.021
			c0,2.076-1.603,3.814-3.869,3.814C49.664,102.072,48.084,100.355,48.084,98.279z M54.437,98.279v-0.021
			c0-1.434-1.041-2.623-2.508-2.623c-1.464,0-2.485,1.17-2.485,2.602v0.021c0,1.434,1.044,2.613,2.507,2.613
			C53.416,100.871,54.437,99.712,54.437,98.279z"/>
		<path fill="#919195" d="M61.162,94.57h1.38l2.245,3.487l2.244-3.487h1.38v7.375h-1.296v-5.288l-2.328,3.478h-0.042l-2.309-3.457
			v5.268h-1.274V94.57z"/>
		<path fill="#919195" d="M74.092,94.57h1.382l2.244,3.487l2.242-3.487h1.383v7.375h-1.298v-5.288l-2.327,3.478h-0.044l-2.307-3.457
			v5.268h-1.275V94.57z"/>
		<path fill="#919195" d="M86.908,98.816V94.57h1.295v4.193c0,1.371,0.705,2.097,1.866,2.097c1.147,0,1.853-0.686,1.853-2.044V94.57
			h1.296v4.184c0,2.201-1.242,3.309-3.17,3.309C88.13,102.062,86.908,100.955,86.908,98.816z"/>
		<path fill="#919195" d="M98.784,94.57h1.201l3.952,5.1v-5.1h1.273v7.375h-1.084l-4.067-5.246v5.246h-1.275V94.57z"/>
		<path fill="#919195" d="M110.979,94.57h1.294v7.375h-1.294V94.57z"/>
		<path fill="#919195" d="M117.711,98.279v-0.021c0-2.096,1.571-3.814,3.804-3.814c1.359,0,2.182,0.477,2.887,1.148l-0.833,0.959
			c-0.589-0.547-1.222-0.916-2.064-0.916c-1.401,0-2.432,1.158-2.432,2.602v0.021c0,1.444,1.021,2.613,2.432,2.613
			c0.907,0,1.485-0.357,2.119-0.949l0.832,0.844c-0.77,0.801-1.612,1.307-2.993,1.307
			C119.313,102.072,117.711,100.397,117.711,98.279z"/>
		<path fill="#919195" d="M132.223,94.518h1.201l3.243,7.428h-1.369l-0.747-1.779h-3.488l-0.757,1.779h-1.329L132.223,94.518z
			 M134.076,99.018l-1.274-2.951l-1.264,2.951H134.076z"/>
		<path fill="#919195" d="M142.593,95.771h-2.339V94.57h5.985v1.201h-2.341v6.174h-1.306V95.771z"/>
		<path fill="#919195" d="M151.467,94.57h1.295v7.375h-1.295V94.57z"/>
		<path fill="#919195" d="M158.2,98.279v-0.021c0-2.074,1.602-3.814,3.866-3.814c2.266,0,3.847,1.719,3.847,3.793v0.021
			c0,2.076-1.603,3.814-3.866,3.814C159.781,102.072,158.2,100.355,158.2,98.279z M164.553,98.279v-0.021
			c0-1.434-1.043-2.623-2.506-2.623c-1.467,0-2.488,1.17-2.488,2.602v0.021c0,1.434,1.043,2.613,2.508,2.613
			S164.553,99.712,164.553,98.279z"/>
		<path fill="#919195" d="M171.277,94.57h1.202l3.95,5.1v-5.1h1.275v7.375h-1.086l-4.066-5.246v5.246h-1.275V94.57z"/>
		<path fill="#919195" d="M182.892,100.871l0.779-0.926c0.706,0.609,1.423,0.957,2.329,0.957c0.8,0,1.305-0.379,1.305-0.927v-0.021
			c0-0.527-0.292-0.811-1.663-1.129c-1.569-0.379-2.455-0.842-2.455-2.201v-0.021c0-1.265,1.054-2.139,2.519-2.139
			c1.073,0,1.928,0.327,2.677,0.927l-0.696,0.98c-0.665-0.496-1.327-0.76-2.002-0.76c-0.76,0-1.201,0.391-1.201,0.875v0.021
			c0,0.569,0.337,0.823,1.76,1.159c1.56,0.379,2.36,0.938,2.36,2.16v0.021c0,1.379-1.085,2.202-2.635,2.202
			C184.841,102.052,183.776,101.66,182.892,100.871z"/>
	</g>
</g>
</svg>
