<?xml version="1.0" encoding="utf-8"?>
<!-- Generator: Adobe Illustrator 16.0.0, SVG Export Plug-In . SVG Version: 6.00 Build 0)  -->
<!DOCTYPE svg PUBLIC "-//W3C//DTD SVG 1.1//EN" "http://www.w3.org/Graphics/SVG/1.1/DTD/svg11.dtd">
<svg version="1.1" id="Layer_1" xmlns="http://www.w3.org/2000/svg" xmlns:xlink="http://www.w3.org/1999/xlink" x="0px" y="0px"
	 width="234px" height="153px" viewBox="0 0 234 153" enable-background="new 0 0 234 153" xml:space="preserve">
<rect fill="#FFFFFF" width="234" height="153"/>
<g>
	<path fill-rule="evenodd" clip-rule="evenodd" fill="#9B9A9A" d="M121.518,79.436c3.776-7.115,7.492-14.115,11.227-21.15
		c0.758,0.041,1.505,0.111,2.254,0.112c0.733,0,1.467-0.071,2.209-0.111c0.119,0.244,0.062,0.479,0.044,0.766
		c-0.207,0.021-0.404,0.056-0.603,0.059c-0.627,0.006-1.046,0.313-1.24,0.892c-0.107,0.319-0.188,0.666-0.188,1
		c0,1.011,0.05,2.021,0.072,3.031c0.018,0.824,0.02,1.647,0.038,2.47c0.03,1.337,0.066,2.673,0.103,4.009
		c0.032,1.148,0.07,2.295,0.102,3.442c0.037,1.354,0.065,2.708,0.105,4.061c0.019,0.582,0.045,1.162,0.095,1.742
		c0.022,0.27,0.091,0.539,0.17,0.798c0.16,0.522,0.551,0.763,1.073,0.814c0.251,0.024,0.506,0.028,0.781,0.043
		c0,0.263,0,0.493,0,0.779c-2.112-0.181-4.206-0.18-6.324,0.003c0-0.283,0-0.516,0-0.776c0.217-0.016,0.419-0.026,0.62-0.044
		c0.782-0.062,1.225-0.522,1.224-1.299c-0.002-0.875-0.015-1.75-0.034-2.625c-0.026-1.199-0.066-2.398-0.101-3.597
		c-0.035-1.251-0.067-2.5-0.104-3.752c-0.033-1.198-0.069-2.397-0.103-3.596c-0.035-1.267-0.063-2.534-0.105-3.801
		c-0.014-0.39-0.064-0.779-0.106-1.264c-0.133,0.225-0.229,0.375-0.312,0.532c-1.116,2.103-2.229,4.208-3.344,6.312
		c-1.516,2.861-3.031,5.721-4.547,8.581c-1.084,2.042-2.166,4.085-3.251,6.128c-0.056,0.104-0.121,0.201-0.218,0.364
		c-4.031-6.83-8.037-13.616-12.044-20.402c-0.03,0.002-0.062,0.006-0.094,0.01c-0.021,0.143-0.053,0.284-0.061,0.427
		c-0.083,1.23-0.157,2.46-0.238,3.691c-0.062,0.921-0.13,1.842-0.195,2.764c-0.105,1.485-0.213,2.97-0.318,4.455
		c-0.102,1.416-0.213,2.833-0.297,4.25c-0.032,0.547-0.021,1.099,0.007,1.646c0.039,0.729,0.443,1.117,1.169,1.178
		c0.219,0.02,0.438,0.029,0.676,0.045c0,0.248,0,0.469,0,0.712c-0.305,0.116-0.628,0.04-0.945,0.031
		c-0.924-0.025-1.848-0.079-2.771-0.081c-0.58-0.002-1.161,0.07-1.741,0.105c-0.082,0.004-0.166-0.008-0.278-0.014
		c0-0.254,0-0.484,0-0.738c0.08-0.019,0.161-0.053,0.242-0.053c0.758-0.002,1.382-0.567,1.583-1.314
		c0.09-0.328,0.155-0.666,0.196-1.005c0.057-0.476,0.08-0.955,0.123-1.433c0.057-0.647,0.121-1.292,0.18-1.94
		c0.04-0.443,0.08-0.887,0.114-1.33c0.045-0.598,0.073-1.197,0.125-1.794c0.086-0.987,0.188-1.974,0.279-2.962
		c0.042-0.46,0.078-0.92,0.113-1.381c0.077-1.007,0.145-2.015,0.23-3.02c0.085-0.989,0.192-1.975,0.281-2.961
		c0.041-0.444,0.061-0.888,0.094-1.384c-0.131-0.24-0.286-0.524-0.443-0.809c-0.345-0.632-0.85-1.021-1.596-1.035
		c-0.049,0-0.097-0.019-0.17-0.033c0-0.218,0-0.432,0-0.704c0.677,0.042,1.335,0.116,1.993,0.117c0.664,0,1.328-0.072,1.968-0.11
		C113.32,65.321,117.387,72.324,121.518,79.436z"/>
	<path fill-rule="evenodd" clip-rule="evenodd" fill="#9B9A9A" d="M78.169,58.976c0-0.267,0-0.486,0-0.712
		c0.154-0.124,0.328-0.058,0.491-0.051c0.634,0.032,1.266,0.098,1.897,0.103c1.167,0.009,2.334,0.001,3.5-0.034
		c0.906-0.028,1.81-0.108,2.715-0.165c0.053-0.003,0.104-0.004,0.154-0.007c1.782-0.066,3.564-0.192,5.347-0.11
		c1.687,0.077,3.333,0.374,4.858,1.139c1.979,0.993,3.238,2.592,3.883,4.692c0.38,1.236,0.554,2.502,0.53,3.795
		c-0.01,0.515,0.007,1.03-0.016,1.544c-0.079,1.859-0.371,3.691-1.159,5.381c-1.133,2.43-2.695,4.536-5.035,5.962
		c-1.034,0.63-2.166,1.011-3.344,1.265c-2.008,0.434-4.047,0.445-6.086,0.408c-1.645-0.028-3.29-0.084-4.934-0.121
		c-0.565-0.013-1.13-0.002-1.737-0.002c0.083-0.159,0.167-0.312,0.245-0.469c0.315-0.637,0.473-1.309,0.539-2.018
		c0.175-1.883,0.105-3.77,0.111-5.654c0.013-3.382,0.005-6.763,0.002-10.146c0-0.668,0.008-1.339-0.031-2.006
		c-0.031-0.544-0.099-1.09-0.201-1.626c-0.131-0.688-0.529-1.032-1.22-1.126C78.528,58.999,78.376,58.993,78.169,58.976z
		 M82.613,59.833c-0.057,0.18-0.12,0.305-0.133,0.437c-0.077,0.697-0.198,1.394-0.2,2.092c-0.02,5.028-0.02,10.055-0.011,15.083
		c0.001,0.891,0.066,1.781,0.109,2.67c0.007,0.131,0.051,0.26,0.077,0.389c0.103,0.018,0.168,0.04,0.234,0.043
		c1.01,0.031,2.02,0.078,3.029,0.086c0.701,0.008,1.402-0.051,2.104-0.058c1.525-0.016,3.049-0.048,4.551-0.335
		c0.999-0.19,1.953-0.504,2.826-1.034c1.588-0.964,2.63-2.381,3.343-4.058c0.63-1.483,0.863-3.057,0.92-4.652
		c0.028-0.802-0.03-1.609-0.082-2.411c-0.08-1.239-0.349-2.439-0.843-3.577c-0.993-2.291-2.619-3.902-5.058-4.616
		c-1.126-0.329-2.282-0.448-3.446-0.456c-0.889-0.007-1.779,0.041-2.67,0.073c-1.078,0.04-2.156,0.076-3.232,0.141
		C83.638,59.676,83.148,59.765,82.613,59.833z"/>
	<path fill-rule="evenodd" clip-rule="evenodd" fill="#9B9A9A" d="M155.353,57.461c1.987-0.024,3.881,0.302,5.689,1.051
		c1.973,0.817,3.579,2.075,4.654,3.95c0.55,0.958,0.897,1.995,1.127,3.069c0.301,1.415,0.395,2.851,0.305,4.291
		c-0.104,1.682-0.463,3.318-1.128,4.871c-0.66,1.542-1.564,2.925-2.747,4.125c-1.71,1.736-3.752,2.906-6.088,3.568
		c-1.07,0.305-2.166,0.461-3.278,0.555c-0.862,0.073-1.715,0.049-2.561-0.045c-3.71-0.414-6.657-2.076-8.562-5.375
		c-0.77-1.332-1.219-2.772-1.489-4.286c-0.25-1.398-0.268-2.804-0.163-4.201c0.175-2.292,0.886-4.423,2.297-6.274
		c1.121-1.468,2.54-2.585,4.173-3.437c1.605-0.838,3.304-1.381,5.093-1.664C153.576,57.517,154.476,57.454,155.353,57.461z
		 M164.84,69.856c-0.052-0.682-0.102-1.365-0.157-2.047c-0.087-1.081-0.344-2.125-0.747-3.129c-0.465-1.16-1.119-2.201-2.068-3.028
		c-1.112-0.968-2.399-1.64-3.786-2.122c-1.1-0.381-2.229-0.624-3.393-0.75c-1.015-0.11-2.02-0.105-3.02,0.066
		c-1.258,0.213-2.438,0.662-3.553,1.285c-1.614,0.904-2.858,2.161-3.681,3.831c-0.658,1.343-0.968,2.777-1.067,4.25
		c-0.076,1.159-0.075,2.325,0.066,3.49c0.158,1.284,0.46,2.523,0.971,3.706c0.751,1.739,1.887,3.177,3.495,4.207
		c2.029,1.303,4.282,1.871,6.665,1.938c0.712,0.021,1.432-0.084,2.143-0.181c1.042-0.144,2.025-0.489,2.941-1.011
		c2.04-1.162,3.377-2.912,4.215-5.074C164.542,73.54,164.821,71.725,164.84,69.856z"/>
	<path fill-rule="evenodd" clip-rule="evenodd" fill="#9B9A9A" d="M176.08,81.406c0,0.26,0,0.491,0,0.779
		c-2.001-0.166-3.993-0.178-6.013,0.006c0-0.27,0-0.502,0-0.758c0.262-0.051,0.527-0.099,0.791-0.154
		c0.516-0.11,0.774-0.478,0.906-0.949c0.06-0.213,0.094-0.438,0.107-0.658c0.054-0.924,0.129-1.847,0.137-2.771
		c0.035-4.066,0.062-8.133,0.063-12.199c0.001-0.991-0.1-1.981-0.162-2.972c-0.032-0.512-0.067-1.024-0.126-1.534
		c-0.076-0.648-0.396-0.973-1.035-1.091c-0.217-0.04-0.435-0.074-0.681-0.117c0-0.209,0-0.424,0-0.662
		c0.408,0,0.813-0.022,1.215,0.005c1.353,0.093,2.703,0.13,4.054-0.011c0.767-0.079,1.535-0.192,2.302-0.179
		c0.936,0.015,1.88,0.07,2.785,0.37c0.772,0.257,1.483,0.608,2.05,1.223c0.472,0.511,0.729,1.109,0.844,1.781
		c0.265,1.585-0.305,2.924-1.243,4.148c-0.838,1.093-1.897,1.925-3.099,2.584c-0.131,0.073-0.264,0.144-0.451,0.246
		c0.451,0.518,0.873,1.006,1.298,1.491c1.223,1.39,2.446,2.78,3.673,4.168c0.839,0.952,1.681,1.9,2.521,2.852
		c0.454,0.513,0.898,1.036,1.364,1.538c0.655,0.706,1.362,1.351,2.25,1.769c0.596,0.281,1.219,0.438,1.935,0.475
		c-0.263,0.364-0.588,0.578-0.898,0.787c-0.543,0.364-1.115,0.662-1.811,0.637c-0.354-0.012-0.688-0.079-0.979-0.262
		c-0.463-0.289-0.929-0.586-1.345-0.939c-1.01-0.855-1.872-1.854-2.722-2.865c-0.705-0.84-1.429-1.666-2.145-2.497
		c-0.972-1.132-1.942-2.265-2.914-3.396c-0.917-1.066-1.835-2.13-2.751-3.197c-0.233-0.271-0.461-0.544-0.732-0.866
		c0.397-0.076,0.749-0.127,1.093-0.21c1.343-0.321,2.55-0.89,3.495-1.934c0.697-0.771,1.058-1.688,1.069-2.709
		c0.009-0.921-0.209-1.796-0.857-2.516c-0.414-0.462-0.924-0.771-1.495-0.963c-0.989-0.33-2.007-0.415-3.041-0.263
		c-0.372,0.055-0.745,0.097-1.166,0.152c-0.035,0.186-0.087,0.362-0.099,0.541c-0.112,1.781-0.133,3.564-0.127,5.348
		c0.012,3.759-0.007,7.519,0.019,11.278c0.007,1.042,0.104,2.085,0.197,3.125c0.076,0.859,0.5,1.249,1.351,1.334
		C175.822,81.383,175.939,81.393,176.08,81.406z"/>
	<path fill-rule="evenodd" clip-rule="evenodd" fill="#9B9A9A" d="M206.856,86.367c0.009,0.066,0.023,0.133,0.023,0.197
		c-0.002,0.119-0.013,0.238-0.018,0.338c-0.029,0.028-0.041,0.043-0.054,0.053c-0.014,0.011-0.028,0.023-0.043,0.026
		c-0.084,0.011-0.169,0.026-0.254,0.026c-59.378,0.001-118.755,0.001-178.171,0.001c0-0.222,0-0.419,0-0.632
		c-0.004,0.005,0.006-0.01,0.02-0.02c0.013-0.01,0.027-0.025,0.042-0.025c59.431-0.004,118.862-0.006,178.294-0.008
		C206.743,86.324,206.791,86.349,206.856,86.367z"/>
	<path fill-rule="evenodd" clip-rule="evenodd" fill="#9B9A9A" d="M46.249,58.979c0-0.224,0-0.439,0-0.684
		c0.915,0.038,1.801,0.102,2.686,0.103c0.889,0.002,1.777-0.061,2.681-0.095c0.139,0.199,0.054,0.422,0.071,0.681
		c-0.145,0.044-0.283,0.097-0.429,0.125c-0.692,0.14-1.009,0.432-1.113,1.095c-0.064,0.405-0.085,0.817-0.112,1.226
		c-0.171,2.501-0.086,5.005-0.104,7.508c-0.001,0.17,0,0.34,0,0.592c0.146-0.131,0.248-0.205,0.328-0.297
		c1.259-1.45,2.513-2.902,3.773-4.35c1.058-1.215,2.116-2.431,3.187-3.635c0.721-0.811,1.388-1.654,1.847-2.646
		c0.042-0.093,0.097-0.182,0.147-0.27c0.018-0.029,0.045-0.051,0.081-0.091c0.979,0,1.968,0,3.04,0
		c-0.365,0.34-0.683,0.618-0.979,0.917c-0.495,0.498-0.991,0.995-1.462,1.516c-0.964,1.07-1.908,2.155-2.862,3.234
		c-1.261,1.426-2.521,2.852-3.781,4.275c-0.409,0.461-0.823,0.918-1.255,1.399c0.557,0.511,1.096,1.011,1.642,1.505
		c0.483,0.437,0.977,0.863,1.459,1.3c1.769,1.597,3.533,3.197,5.304,4.792c0.661,0.599,1.311,1.212,2.006,1.767
		c0.506,0.404,1.056,0.764,1.626,1.072c0.808,0.436,1.686,0.533,2.591,0.348c0.081-0.018,0.165-0.012,0.344-0.021
		c-0.785,0.744-1.532,1.373-2.497,1.699c-0.87,0.295-1.671,0.085-2.403-0.368c-0.608-0.376-1.189-0.813-1.723-1.29
		c-0.933-0.835-1.817-1.723-2.724-2.586c-1.403-1.335-2.808-2.672-4.213-4.005c-1.032-0.978-2.068-1.954-3.104-2.93
		c-0.099-0.093-0.204-0.176-0.346-0.298c-0.01,0.181-0.025,0.313-0.025,0.445c0.003,2.112-0.01,4.223,0.02,6.334
		c0.012,0.887,0.101,1.774,0.179,2.66c0.079,0.893,0.413,1.229,1.304,1.367c0.065,0.01,0.131,0.021,0.228,0.035
		c0,0.244,0,0.478,0,0.769c-1.782-0.144-3.57-0.18-5.353,0.013c-0.099-0.334-0.099-0.334-0.039-0.764
		c0.208-0.047,0.422-0.094,0.636-0.143c0.447-0.104,0.709-0.406,0.829-0.825c0.075-0.261,0.104-0.537,0.131-0.809
		c0.043-0.425,0.074-0.853,0.096-1.278c0.04-0.805,0.098-1.608,0.101-2.413c0.01-3.913,0.014-7.826-0.004-11.739
		c-0.002-0.819-0.1-1.637-0.157-2.455c-0.037-0.513-0.059-1.026-0.13-1.534c-0.096-0.684-0.413-0.987-1.083-1.118
		c-0.102-0.019-0.201-0.04-0.3-0.067C46.337,59.033,46.295,59.003,46.249,58.979z"/>
	<path fill-rule="evenodd" clip-rule="evenodd" fill="#9B9A9A" d="M28.936,77.165c0.24,0,0.44,0,0.674,0
		c0.042,0.396,0.077,0.782,0.126,1.166c0.118,0.929,0.481,1.719,1.332,2.194c0.559,0.312,1.185,0.457,1.814,0.523
		c0.713,0.076,1.434,0.112,2.152,0.113c1,0.002,1.971-0.188,2.898-0.579c1.706-0.72,2.685-1.987,2.956-3.828
		c0.122-0.83,0.087-1.637-0.121-2.441c-0.38-1.466-1.291-2.471-2.69-3.022c-0.8-0.315-1.648-0.439-2.5-0.538
		c-1.067-0.124-2.139-0.214-3.188-0.487c-1.884-0.491-2.978-1.732-3.465-3.561c-0.404-1.52-0.2-3.005,0.46-4.401
		c1.224-2.587,3.275-4.155,6.08-4.744c1.498-0.315,2.958-0.115,4.403,0.291c0.758,0.214,1.495,0.483,2.186,0.838
		c0.063,0.498-0.183,3.384-0.323,3.762c-0.172,0.059-0.362,0.125-0.584,0.2c-0.179-0.433-0.209-0.876-0.265-1.303
		c-0.128-0.975-0.64-1.578-1.571-1.887c-1.062-0.353-2.148-0.389-3.248-0.368c-0.775,0.014-1.537,0.11-2.277,0.338
		c-1.607,0.494-2.693,1.499-2.953,3.208c-0.208,1.362-0.122,2.699,0.655,3.913c0.475,0.74,1.16,1.202,1.959,1.512
		c0.608,0.237,1.25,0.352,1.896,0.432c1.104,0.137,2.209,0.25,3.307,0.416c0.956,0.144,1.859,0.453,2.641,1.056
		c0.988,0.762,1.533,1.79,1.729,2.996c0.369,2.286-0.2,4.354-1.604,6.179c-1.42,1.849-3.293,3.024-5.559,3.554
		c-0.662,0.154-1.35,0.271-2.027,0.279c-1.885,0.023-3.661-0.418-5.275-1.428c-0.07-0.045-0.133-0.105-0.211-0.17
		C28.537,79.989,28.731,78.604,28.936,77.165z"/>
	<path fill-rule="evenodd" clip-rule="evenodd" fill="#9B9A9A" d="M192.084,59.083c0-0.268,0-0.487,0-0.714
		c0.145-0.13,0.323-0.065,0.487-0.059c0.649,0.028,1.299,0.094,1.949,0.098c1.303,0.009,2.61,0.04,3.911-0.034
		c1.883-0.108,3.764-0.2,5.649-0.186c0.448,0.004,0.879,0.076,1.303,0.155c-0.064,0.982-0.127,1.931-0.194,2.947
		c-0.131,0.067-0.321,0.166-0.544,0.28c-0.063-0.149-0.124-0.267-0.167-0.39c-0.24-0.672-0.72-1.083-1.407-1.218
		c-0.534-0.105-1.081-0.192-1.625-0.204c-1.27-0.03-2.539-0.018-3.81-0.004c-0.407,0.004-0.813,0.061-1.278,0.098
		c-0.055,0.384-0.138,0.766-0.158,1.152c-0.032,0.616-0.029,1.235-0.03,1.853c-0.002,1.785-0.001,3.571-0.001,5.355
		c0,0.186,0,0.37,0,0.602c0.729,0.029,1.411,0.01,2.092,0.014c0.686,0.002,1.373,0,2.06,0c0.669,0,1.338,0,2.008,0
		c0.685,0,1.368,0,2.098,0c-0.145,0.595-0.464,1.06-0.691,1.608c-2.501,0-4.999,0-7.532,0c-0.013,0.175-0.031,0.306-0.031,0.437
		c-0.003,2.644-0.002,5.287-0.001,7.93c0,0.67,0.059,1.332,0.263,2.025c0.164,0.006,0.33,0.018,0.497,0.014
		c1.062-0.025,2.123-0.061,3.185-0.082c0.738-0.015,1.477,0.008,2.214-0.025c0.939-0.042,1.876-0.123,2.815-0.184
		c0.424-0.027,0.713-0.245,0.844-0.641c0.17-0.518,0.312-1.044,0.479-1.609c0.178,0.262,0.354,0.52,0.542,0.794
		c-0.054,0.583-0.103,1.177-0.164,1.771c-0.032,0.305-0.085,0.607-0.126,0.912c-0.034,0.262-0.187,0.379-0.443,0.413
		c-1.242,0.168-2.488,0.251-3.74,0.179c-1.229-0.072-2.454-0.215-3.684-0.256c-1.39-0.047-2.778-0.023-4.168-0.007
		c-0.509,0.007-1.017,0.077-1.6,0.125c0.064-0.167,0.087-0.258,0.132-0.335c0.496-0.869,0.683-1.812,0.722-2.803
		c0.212-5.267,0.067-10.534,0.086-15.802c0.003-0.921-0.094-1.845-0.189-2.763c-0.098-0.965-0.468-1.302-1.442-1.411
		C192.308,59.107,192.225,59.098,192.084,59.083z"/>
	<path fill-rule="evenodd" clip-rule="evenodd" fill="#9B9A9A" d="M73.611,81.408c0,0.197,0.001,0.334,0,0.47
		c-0.001,0.084-0.009,0.167-0.015,0.312c-2.009-0.16-4-0.195-6.011,0.008c-0.085-0.275-0.066-0.52-0.023-0.769
		c0.271-0.056,0.521-0.107,0.77-0.155c0.54-0.106,0.825-0.475,0.94-0.973c0.077-0.33,0.105-0.676,0.121-1.016
		c0.236-5.469,0.07-10.94,0.096-16.409c0.004-0.852-0.107-1.706-0.195-2.555c-0.076-0.759-0.537-1.083-1.195-1.203
		c-0.135-0.025-0.27-0.046-0.402-0.076c-0.047-0.011-0.089-0.043-0.151-0.075c-0.005-0.083-0.013-0.166-0.015-0.249
		c-0.002-0.119,0-0.237,0-0.379c0.689-0.139,1.343,0.076,2.001,0.062c0.669-0.014,1.339,0.014,2.007-0.007
		c0.666-0.021,1.33-0.081,1.996-0.124c0.132,0.231,0.06,0.453,0.075,0.7c-0.146,0.044-0.286,0.107-0.431,0.127
		c-1.131,0.152-1.323,0.68-1.4,1.581c-0.085,0.988-0.117,1.984-0.118,2.976c-0.01,4.701-0.01,9.401,0.01,14.102
		c0.003,0.801,0.08,1.605,0.188,2.398c0.104,0.762,0.487,1.09,1.248,1.207C73.255,81.383,73.407,81.389,73.611,81.408z"/>
	<path fill-rule="evenodd" clip-rule="evenodd" fill="#9B9A9A" d="M174.56,93.113c-0.388,0-0.725,0-1.092,0c0-0.281,0-0.527,0-0.797
		c0.664,0,1.309,0,1.953,0c0.088,0.385,0.102,2.033,0.018,2.618c-0.193,0-0.391,0-0.617,0c-0.029-0.175-0.056-0.341-0.085-0.52
		c-0.052,0.021-0.105,0.028-0.133,0.059c-0.631,0.685-1.412,0.739-2.222,0.464c-0.845-0.287-1.285-0.965-1.403-1.813
		c-0.095-0.677-0.073-1.363,0.25-2.009c0.335-0.668,0.872-1.058,1.587-1.17c0.417-0.066,0.848-0.057,1.274,0.057
		c0.783,0.205,1.21,0.715,1.403,1.5c-0.334,0.109-0.652,0.038-0.972,0.055c-0.062-0.1-0.12-0.184-0.17-0.27
		c-0.407-0.711-1.454-0.721-1.977-0.089c-0.085,0.104-0.167,0.221-0.22,0.345c-0.256,0.609-0.266,1.244-0.045,1.854
		c0.224,0.621,0.754,0.848,1.346,0.828C174.018,94.205,174.424,93.788,174.56,93.113z"/>
	<path fill-rule="evenodd" clip-rule="evenodd" fill="#9B9A9A" d="M63.992,92.521c-0.079,0.363-0.127,0.736-0.242,1.088
		c-0.287,0.879-1.04,1.42-1.96,1.46c-0.379,0.017-0.755-0.013-1.108-0.144c-0.666-0.247-1.124-0.705-1.325-1.395
		c-0.21-0.724-0.207-1.447,0.034-2.166c0.294-0.879,0.952-1.31,1.823-1.432c0.314-0.045,0.656-0.027,0.967,0.043
		c1.164,0.266,1.634,1.068,1.748,2.121c0.015,0.136,0.002,0.273,0.002,0.41C63.952,92.513,63.972,92.516,63.992,92.521z
		 M62.92,92.482c-0.009-0.17-0.005-0.344-0.032-0.512c-0.021-0.133-0.073-0.264-0.126-0.39c-0.21-0.508-0.678-0.833-1.186-0.833
		c-0.501,0-0.997,0.34-1.188,0.843c-0.229,0.599-0.229,1.208,0,1.806c0.312,0.812,1.488,1.234,2.202,0.302
		C62.863,93.341,62.935,92.922,62.92,92.482z"/>
	<path fill-rule="evenodd" clip-rule="evenodd" fill="#9B9A9A" d="M199.845,94.869c0-1.595,0-3.188,0-4.809c1.176,0,2.335,0,3.525,0
		c0.084,0.232,0.042,0.48,0.026,0.787c-0.845,0.022-1.678-0.002-2.536,0.015c0,0.376,0,0.709,0,1.102c0.777,0,1.539,0,2.323,0
		c0,0.292,0,0.526,0,0.786c-0.374,0.113-0.769,0.035-1.154,0.049c-0.376,0.014-0.751,0.004-1.163,0.004c0,0.416,0,0.8,0,1.229
		c0.434,0.071,0.875,0.022,1.313,0.031c0.442,0.009,0.886,0.002,1.366,0.002c0,0.31,0,0.572,0,0.836
		C202.951,95.008,200.167,94.98,199.845,94.869z"/>
	<path fill-rule="evenodd" clip-rule="evenodd" fill="#9B9A9A" d="M144.22,90.857c0,0.393,0,0.709,0,1.074
		c0.795,0.09,1.578-0.013,2.377,0.062c0,0.26,0,0.492,0,0.76c-0.375,0.105-0.768,0.033-1.152,0.045
		c-0.393,0.014-0.785,0.004-1.217,0.004c0,0.414,0,0.797,0,1.218c0.432,0.093,0.873,0.03,1.312,0.041
		c0.444,0.011,0.89,0.003,1.354,0.003c0.106,0.279,0.042,0.55,0.053,0.812c-0.363,0.104-2.617,0.135-3.631,0.055
		c-0.094-0.354-0.121-4.162-0.029-4.875c1.17,0,2.343,0,3.539,0c0,0.252,0,0.484,0,0.752c-0.412,0.1-0.837,0.033-1.256,0.045
		C145.142,90.865,144.715,90.857,144.22,90.857z"/>
	<path fill-rule="evenodd" clip-rule="evenodd" fill="#9B9A9A" d="M35.31,93.268c-0.082,0.236-0.133,0.398-0.193,0.557
		c-0.3,0.796-0.91,1.172-1.728,1.24c-0.502,0.043-0.99-0.023-1.434-0.298c-0.269-0.165-0.502-0.366-0.646-0.648
		c-0.558-1.099-0.577-2.201,0.039-3.282c0.268-0.468,0.695-0.753,1.227-0.856c0.713-0.14,1.401-0.107,2.006,0.354
		c0.411,0.314,0.645,0.734,0.703,1.283c-0.327,0-0.63,0-0.972,0c-0.203-0.48-0.516-0.868-1.136-0.844
		c-0.787,0.062-1.212,0.712-1.197,1.508c0.005,0.258-0.004,0.518,0.026,0.771c0.089,0.746,0.609,1.166,1.336,1.112
		c0.338-0.022,0.587-0.181,0.761-0.458c0.082-0.129,0.139-0.274,0.22-0.439C34.622,93.268,34.94,93.268,35.31,93.268z"/>
	<path fill-rule="evenodd" clip-rule="evenodd" fill="#9B9A9A" d="M88.167,94.932c0-1.646,0-3.252,0-4.879c0.325,0,0.628,0,0.982,0
		c0,1.311,0,2.62,0,3.979c0.831,0.035,1.613-0.002,2.412,0.022c0.106,0.288,0.046,0.569,0.048,0.878
		C90.451,94.932,89.328,94.932,88.167,94.932z"/>
	<path fill-rule="evenodd" clip-rule="evenodd" fill="#9B9A9A" d="M119.128,94.046c0,0.325,0,0.581,0,0.833
		c-0.354,0.102-2.462,0.131-3.411,0.051c-0.08-0.373-0.102-4.188-0.02-4.9c0.142,0,0.29,0,0.438,0c0.153,0,0.307,0,0.487,0
		c0.105,0.447,0.036,0.889,0.05,1.325c0.011,0.428,0.001,0.856,0.001,1.284c0,0.443,0,0.887,0,1.393
		c0.429,0.004,0.832,0.012,1.235,0.014C118.3,94.047,118.69,94.046,119.128,94.046z"/>
</g>
</svg>
