<?xml version="1.0" encoding="utf-8"?>
<!-- Generator: Adobe Illustrator 16.0.0, SVG Export Plug-In . SVG Version: 6.00 Build 0)  -->
<!DOCTYPE svg PUBLIC "-//W3C//DTD SVG 1.1//EN" "http://www.w3.org/Graphics/SVG/1.1/DTD/svg11.dtd">
<svg version="1.1" id="Layer_1" xmlns="http://www.w3.org/2000/svg" xmlns:xlink="http://www.w3.org/1999/xlink" x="0px" y="0px"
	 width="234px" height="153px" viewBox="0 0 234 153" enable-background="new 0 0 234 153" xml:space="preserve">
<rect fill="#FFFFFF" width="234" height="153"/>
<g>
	<polygon fill="#313333" points="69.964,99.946 63.747,99.946 53.722,52.658 61.187,52.658 66.784,85.669 66.921,85.669 
		72.589,52.658 80.054,52.658 	"/>
	<path fill="#313333" d="M80.964,63.815c0-7.703,6.076-11.554,11.816-11.554c5.732,0,11.812,3.852,11.812,11.554v24.97
		c0,7.706-6.08,11.557-11.812,11.557c-5.74,0-11.816-3.851-11.816-11.557V63.815z M88.009,88.785c0,3.26,2.213,4.789,4.771,4.789
		c2.549,0,4.768-1.529,4.768-4.789v-24.97c0-3.254-2.219-4.783-4.768-4.783c-2.559,0-4.771,1.529-4.771,4.783V88.785z"/>
	<path fill="#313333" d="M107.997,63.812c0-7.7,6.072-11.556,11.812-11.556c5.732,0,11.816,3.855,11.816,11.556v2.396h-7.051v-2.396
		c0-3.25-2.215-4.778-4.766-4.778c-2.562,0-4.775,1.528-4.775,4.778v24.973c0,3.26,2.213,4.785,4.775,4.785
		c2.551,0,4.766-1.525,4.766-4.785v-8.898h-5.598v-5.979h12.648v14.877c0,7.706-6.084,11.557-11.816,11.557
		c-5.74,0-11.812-3.851-11.812-11.557V63.812z"/>
	<path fill="#313333" d="M157.401,89.322c0,6.173-5.115,11.02-11.404,11.02c-6.287,0-11.398-4.847-11.398-11.02V52.658h7.043v35.994
		c0,3.326,1.867,4.918,4.355,4.918c2.49,0,4.355-1.592,4.355-4.918V52.658h7.049V89.322z"/>
	<polygon fill="#313333" points="160.612,52.658 181.626,52.658 181.626,59.034 167.659,59.034 167.659,72.914 179.823,72.914 
		179.823,79.289 167.659,79.289 167.659,93.168 181.626,93.168 181.626,99.946 160.612,99.946 	"/>
</g>
</svg>
