<?xml version="1.0" encoding="utf-8"?>
<!-- Generator: Adobe Illustrator 16.0.0, SVG Export Plug-In . SVG Version: 6.00 Build 0)  -->
<!DOCTYPE svg PUBLIC "-//W3C//DTD SVG 1.1//EN" "http://www.w3.org/Graphics/SVG/1.1/DTD/svg11.dtd">
<svg version="1.1" id="Layer_1" xmlns="http://www.w3.org/2000/svg" xmlns:xlink="http://www.w3.org/1999/xlink" x="0px" y="0px"
	 width="234px" height="153px" viewBox="0 0 234 153" enable-background="new 0 0 234 153" xml:space="preserve">
<rect fill="#FFFFFF" width="234" height="153"/>
<g>
	<g>
		<g>
			<path fill="#FFFFFF" d="M34.595,63.133c-0.905,0-1.643,0.739-1.643,1.647V87.72c0,0.909,0.737,1.647,1.643,1.647h27.188
				c0.905,0,1.641-0.738,1.641-1.647V64.781c0-0.909-0.735-1.647-1.641-1.647H34.595z"/>
			<path d="M34.179,87.72V64.781c0-0.229,0.189-0.416,0.416-0.416h27.188c0.224,0,0.413,0.187,0.413,0.416V87.72
				c0,0.23-0.189,0.423-0.413,0.423H34.595C34.368,88.143,34.179,87.95,34.179,87.72z M34.595,63.133
				c-0.905,0-1.643,0.739-1.643,1.647V87.72c0,0.909,0.737,1.647,1.643,1.647h27.188c0.905,0,1.641-0.738,1.641-1.647V64.781
				c0-0.909-0.735-1.647-1.641-1.647H34.595z"/>
			<path fill="#D71635" d="M57.791,78.844l-7.664-0.02c-0.521,0-0.944-0.419-0.944-0.937c0-0.2,0.066-0.392,0.177-0.544l3.918-3.937
				c0.172-0.209,0.379-0.284,0.67-0.284c0.234,0,0.446,0.085,0.607,0.223l4.015,4.035c0.102,0.15,0.156,0.33,0.156,0.521
				C58.726,78.422,58.312,78.844,57.791,78.844z M46.288,78.824l-7.672,0.02c-0.517,0-0.937-0.422-0.937-0.941
				c0-0.191,0.055-0.371,0.159-0.521l4.017-4.035c0.16-0.138,0.373-0.223,0.604-0.223c0.298,0,0.501,0.075,0.672,0.284l3.917,3.937
				c0.11,0.152,0.178,0.344,0.178,0.544C47.227,78.405,46.802,78.824,46.288,78.824z M59.639,66.667l-5.051,5.048v0.016
				c-0.159,0.187-0.422,0.283-0.657,0.283c-0.234,0-0.446-0.115-0.623-0.314l-5.118-5.107l-5.105,5.111
				c-0.179,0.203-0.398,0.31-0.633,0.31c-0.24,0-0.496-0.115-0.657-0.299l-5.049-5.048l-0.038-0.035v19.375h10.766h1.439h10.761
				V66.633L59.639,66.667z"/>
		</g>
		<polygon points="77.485,86.764 77.485,68.934 68.468,68.934 68.468,64.136 92.637,64.136 92.637,68.934 84.125,68.934 
			84.125,86.764 		"/>
		<polygon points="95.625,86.764 95.625,64.136 117.408,64.136 117.408,69.107 101.406,69.107 101.406,73.392 117.067,73.392 
			117.067,77.846 101.406,77.846 101.406,82.305 117.408,82.305 117.408,86.764 		"/>
		<polygon points="150.02,86.764 150.02,64.136 171.807,64.136 171.807,69.107 155.806,69.107 155.806,73.392 171.467,73.392 
			171.467,77.846 155.806,77.846 155.806,82.305 171.807,82.305 171.807,86.764 		"/>
		<path d="M121.584,64.136v22.627h5.955v-8.568h5.871l6.553,8.568h7.149c0,0-6.554-8.656-6.474-8.568
			c7.322,0.164,10.056-14.059-2.38-14.059H121.584z M127.583,68.762c0,0,8.738,0,10.55,0c3.447,0,3.533,4.63,0.126,4.63
			c-3.399,0-10.72,0-10.72,0L127.583,68.762z"/>
	</g>
	<polygon points="173.333,86.764 181.545,86.764 187.799,79.922 194.172,86.764 202.173,86.764 192.13,75.139 201.147,64.136 
		193.231,64.136 187.693,70.383 182.171,64.136 174.164,64.136 183.704,74.872 	"/>
</g>
</svg>
