<?xml version="1.0" encoding="utf-8"?>
<!-- Generator: Adobe Illustrator 16.0.0, SVG Export Plug-In . SVG Version: 6.00 Build 0)  -->
<!DOCTYPE svg PUBLIC "-//W3C//DTD SVG 1.1//EN" "http://www.w3.org/Graphics/SVG/1.1/DTD/svg11.dtd">
<svg version="1.1" id="Layer_1" xmlns="http://www.w3.org/2000/svg" xmlns:xlink="http://www.w3.org/1999/xlink" x="0px" y="0px"
	 width="39.375px" height="39.38px" viewBox="0 -3.69 39.375 39.38" enable-background="new 0 -3.69 39.375 39.38"
	 xml:space="preserve">
<path fill="#CACACA" d="M39.375,3.788c-1.444,0.643-3.004,1.077-4.637,1.271c1.667-0.998,2.945-2.582,3.553-4.469
	c-1.562,0.927-3.295,1.598-5.131,1.959C31.686,0.981,29.586,0,27.265,0c-4.464,0-8.082,3.616-8.082,8.078
	c0,0.633,0.073,1.25,0.21,1.841C12.68,9.582,6.725,6.367,2.742,1.478C2.048,2.671,1.648,4.059,1.648,5.54
	c0,2.802,1.425,5.275,3.593,6.723c-1.323-0.041-2.568-0.405-3.66-1.011c0,0.035,0,0.069,0,0.103c0,3.914,2.788,7.178,6.479,7.92
	c-0.676,0.186-1.389,0.285-2.127,0.285c-0.521,0-1.026-0.052-1.519-0.146c1.026,3.211,4.011,5.547,7.542,5.611
	c-2.762,2.166-6.241,3.457-10.03,3.457c-0.651,0-1.293-0.037-1.927-0.111C3.577,30.662,7.821,32,12.385,32
	C27.245,32,35.37,19.689,35.37,9.016c0-0.351-0.007-0.7-0.023-1.046C36.926,6.831,38.295,5.407,39.375,3.788z"/>
</svg>
