<?xml version="1.0" encoding="utf-8"?>
<!-- Generator: Adobe Illustrator 16.0.0, SVG Export Plug-In . SVG Version: 6.00 Build 0)  -->
<!DOCTYPE svg PUBLIC "-//W3C//DTD SVG 1.1//EN" "http://www.w3.org/Graphics/SVG/1.1/DTD/svg11.dtd">
<svg version="1.1" id="Layer_1" xmlns="http://www.w3.org/2000/svg" xmlns:xlink="http://www.w3.org/1999/xlink" x="0px" y="0px"
	 width="50.604px" height="50.6px" viewBox="0 0 50.604 50.6" enable-background="new 0 0 50.604 50.6" xml:space="preserve">
<g>
	<path fill="#DED94A" d="M20.422,23.603c0,0,4.787-0.356,4.787-5.974c0-5.613-3.917-8.354-8.881-8.354H7.195h-0.27H0v31.381h6.927
		h0.27h9.137c0,0,9.971,0.311,9.971-9.265C26.301,31.396,26.732,23.603,20.422,23.603z M15.154,14.852h1.176c0,0,2.22,0,2.22,3.267
		c0,3.264-1.306,3.736-2.786,3.736H7.195v-7.003H15.154z M15.87,35.081H7.195v-8.388h9.137c0,0,3.31-0.043,3.31,4.31
		C19.639,34.673,17.167,35.054,15.87,35.081z"/>
	<path fill="#DED94A" d="M39.596,17.26c-12.067,0-12.059,12.056-12.059,12.056s-0.829,11.998,12.059,11.998
		c0,0,10.736,0.613,10.736-8.348h-5.521c0,0,0.184,3.377-5.031,3.377c0,0-5.521,0.369-5.521-5.463H50.52
		C50.519,30.88,52.297,17.26,39.596,17.26z M34.193,26.695c0,0,0.68-4.836,5.525-4.836s4.784,4.836,4.784,4.836H34.193z"/>
	<rect x="32.843" y="11.124" fill="#DED94A" width="12.948" height="3.862"/>
</g>
</svg>
