<?xml version="1.0" encoding="utf-8"?>
<!-- Generator: Adobe Illustrator 16.0.0, SVG Export Plug-In . SVG Version: 6.00 Build 0)  -->
<!DOCTYPE svg PUBLIC "-//W3C//DTD SVG 1.1//EN" "http://www.w3.org/Graphics/SVG/1.1/DTD/svg11.dtd">
<svg version="1.1" id="Layer_1" xmlns="http://www.w3.org/2000/svg" xmlns:xlink="http://www.w3.org/1999/xlink" x="0px" y="0px"
	 width="31.59px" height="31.59px" viewBox="0 0 31.59 31.59" enable-background="new 0 0 31.59 31.59" xml:space="preserve">
<g>
	<path fill="#DED94A" d="M23.791,10.044c-3.596,0-5.203,1.972-6.104,3.361v0.067h-0.045c0.018-0.021,0.032-0.044,0.045-0.067v-2.883
		h-6.771c0.087,1.909,0,20.371,0,20.371h6.771V19.516c0-0.61,0.043-1.215,0.225-1.649c0.488-1.214,1.604-2.479,3.475-2.479
		c2.453,0,3.432,1.872,3.432,4.608v10.897h6.773v-11.68C31.588,12.953,28.246,10.044,23.791,10.044z"/>
	<path fill="#DED94A" d="M3.828,0.697c-2.312,0-3.829,1.522-3.829,3.521c0,1.953,1.469,3.521,3.74,3.521h0.044
		c2.362,0,3.832-1.566,3.832-3.521C7.573,2.22,6.145,0.697,3.828,0.697z"/>
	<rect x="0.397" y="10.522" fill="#DED94A" width="6.772" height="20.371"/>
</g>
</svg>
