<?xml version="1.0" encoding="utf-8"?>
<!-- Generator: Adobe Illustrator 16.0.0, SVG Export Plug-In . SVG Version: 6.00 Build 0)  -->
<!DOCTYPE svg PUBLIC "-//W3C//DTD SVG 1.1//EN" "http://www.w3.org/Graphics/SVG/1.1/DTD/svg11.dtd">
<svg version="1.1" id="Layer_1" xmlns="http://www.w3.org/2000/svg" xmlns:xlink="http://www.w3.org/1999/xlink" x="0px" y="0px"
	 width="39.022px" height="39.022px" viewBox="0 0 39.022 39.022" enable-background="new 0 0 39.022 39.022" xml:space="preserve">
<circle fill="#53BFA1" cx="19.511" cy="19.511" r="19.511"/>
<g>
	<polygon fill="#FFFFFF" points="13.554,19.511 22.398,25.538 22.398,13.487 	"/>
	<path fill="#FFFFFF" d="M21.553,26.777l-8.844-6.026c-0.41-0.28-0.655-0.744-0.655-1.24s0.246-0.96,0.655-1.24l8.844-6.024
		c0.459-0.312,1.054-0.345,1.546-0.086c0.491,0.26,0.799,0.771,0.799,1.326v12.051c0,0.556-0.308,1.066-0.799,1.326
		c-0.22,0.116-0.461,0.174-0.701,0.174C22.102,27.038,21.807,26.95,21.553,26.777z M16.218,19.511l4.68,3.189v-6.376L16.218,19.511z
		"/>
</g>
</svg>
