<?xml version="1.0" encoding="utf-8"?>
<!-- Generator: Adobe Illustrator 16.0.0, SVG Export Plug-In . SVG Version: 6.00 Build 0)  -->
<!DOCTYPE svg PUBLIC "-//W3C//DTD SVG 1.1//EN" "http://www.w3.org/Graphics/SVG/1.1/DTD/svg11.dtd">
<svg version="1.1" id="Layer_1" xmlns="http://www.w3.org/2000/svg" xmlns:xlink="http://www.w3.org/1999/xlink" x="0px" y="0px"
	 width="47.193px" height="47.196px" viewBox="0 0 47.193 47.196" enable-background="new 0 0 47.193 47.196" xml:space="preserve">
<g>
	<path d="M44.489,38.681c0.942,0.943,0.942,2.471,0,3.414l-2.395,2.395c-0.942,0.943-2.472,0.943-3.414,0L2.707,8.516
		c-0.942-0.943-0.942-2.471,0-3.414l2.395-2.394c0.942-0.943,2.472-0.943,3.414,0L44.489,38.681z"/>
	<path d="M40.388,47.196c-1.18,0-2.288-0.459-3.122-1.293L1.293,9.93c-1.721-1.721-1.721-4.521-0.001-6.242l2.396-2.395
		C4.521,0.459,5.629,0,6.809,0s2.288,0.459,3.122,1.293l35.973,35.973c1.721,1.721,1.721,4.521,0.001,6.242l-2.396,2.395
		C42.676,46.737,41.567,47.196,40.388,47.196z M6.809,4C6.73,4,6.616,4.021,6.517,4.122L4.121,6.516
		C3.96,6.677,3.96,6.94,4.122,7.102l35.973,35.974c0.201,0.2,0.386,0.2,0.585,0l2.396-2.395c0.161-0.162,0.161-0.424-0.001-0.586
		L7.102,4.122C7.001,4.021,6.887,4,6.809,4z"/>
</g>
<g>
	<path d="M38.681,2.707c0.942-0.942,2.472-0.942,3.414,0l2.395,2.394c0.942,0.943,0.942,2.472,0,3.414L8.516,44.489
		c-0.943,0.943-2.472,0.943-3.414,0l-2.395-2.395c-0.942-0.942-0.942-2.471,0-3.414L38.681,2.707z"/>
	<path d="M6.809,47.196c-1.18,0-2.288-0.459-3.122-1.293l-2.394-2.395C0.459,42.675,0,41.566,0,40.388
		c0-1.179,0.459-2.288,1.293-3.121L37.267,1.292C38.1,0.459,39.208,0,40.388,0c1.179,0,2.287,0.459,3.121,1.293l2.395,2.394
		c1.721,1.722,1.721,4.522,0,6.243L9.93,45.903C9.096,46.737,7.987,47.196,6.809,47.196z M40.388,4
		c-0.079,0-0.193,0.021-0.293,0.121L4.121,40.095C4.021,40.195,4,40.309,4,40.388c0,0.078,0.021,0.192,0.121,0.292l2.395,2.395
		c0.201,0.2,0.385,0.201,0.586,0L43.075,7.101c0.161-0.162,0.161-0.424-0.001-0.586l-2.394-2.394C40.58,4.021,40.466,4,40.388,4z"/>
</g>
</svg>
