<?xml version="1.0" encoding="utf-8"?>
<!-- Generator: Adobe Illustrator 16.0.0, SVG Export Plug-In . SVG Version: 6.00 Build 0)  -->
<!DOCTYPE svg PUBLIC "-//W3C//DTD SVG 1.1//EN" "http://www.w3.org/Graphics/SVG/1.1/DTD/svg11.dtd">
<svg version="1.1" id="Layer_1" xmlns="http://www.w3.org/2000/svg" xmlns:xlink="http://www.w3.org/1999/xlink" x="0px" y="0px"
	 width="31.69px" height="31.686px" viewBox="-0.093 0 31.69 31.686" enable-background="new -0.093 0 31.69 31.686"
	 xml:space="preserve">
<g>
	<polygon fill="#CACACA" points="31.503,4.676 27.253,4.676 27.253,0.425 25.128,0.425 25.128,4.676 20.882,4.676 20.882,6.8 
		25.128,6.8 25.128,11.047 27.253,11.047 27.253,6.8 31.503,6.8 	"/>
</g>
<g>
	<path fill="#CACACA" d="M16.367,18.133c-0.864-0.65-2.75-1.982-2.75-2.875c0-1.046,0.299-1.564,1.876-2.795
		c1.615-1.263,2.758-2.926,2.758-4.991c0-2.249-0.918-4.29-2.649-5.28h2.453L20.142,0c0,0-6.896,0-9.341,0
		C6.063,0,2.114,3.495,2.114,7.34c0,3.927,2.594,7.059,7.052,7.059c0.31,0,0.61-0.018,0.904-0.039
		c-0.29,0.557-0.493,1.175-0.493,1.822c0,1.09,0.6,1.713,1.342,2.436c-0.562,0-1.103,0.015-1.695,0.015
		C3.797,18.631,0,22.366,0,25.95c0,3.527,4.578,5.734,10.005,5.734c6.185,0,9.989-3.51,9.989-7.039
		C19.994,21.816,19.384,20.394,16.367,18.133z M10.97,12.971c-2.519-0.077-4.909-2.387-5.343-5.69
		C5.19,3.974,6.881,1.445,9.396,1.519c2.516,0.077,4.671,2.788,5.104,6.093C14.934,10.917,13.485,13.044,10.97,12.971z
		 M9.984,30.125c-3.75,0-6.46-2.373-6.46-5.228c0-2.794,3.178-5.205,6.928-5.162c0.876,0.009,1.692,0.148,2.432,0.39
		c2.038,1.415,3.677,2.299,4.092,3.913c0.077,0.324,0.12,0.661,0.12,1.007C17.096,27.897,15.257,30.125,9.984,30.125z"/>
</g>
</svg>
