<?xml version="1.0" encoding="utf-8"?>
<!-- Generator: Adobe Illustrator 16.0.0, SVG Export Plug-In . SVG Version: 6.00 Build 0)  -->
<!DOCTYPE svg PUBLIC "-//W3C//DTD SVG 1.1//EN" "http://www.w3.org/Graphics/SVG/1.1/DTD/svg11.dtd">
<svg version="1.1" id="Layer_1" xmlns="http://www.w3.org/2000/svg" xmlns:xlink="http://www.w3.org/1999/xlink" x="0px" y="0px"
	 width="32.869px" height="32.871px" viewBox="0 0 32.869 32.871" enable-background="new 0 0 32.869 32.871" xml:space="preserve">
<g>
	<path fill="#FFFFFF" d="M26.865,15.672H6.003C2.687,15.672,0,18.363,0,21.679v4.826c0,3.314,2.687,6.006,6.003,6.006h20.862
		c3.313,0,6.004-2.689,6.004-6.006v-4.826C32.869,18.363,30.179,15.672,26.865,15.672z M10.386,19.429h-1.94v9.639H6.573v-9.639
		H4.634v-1.637h5.752V19.429z M15.865,29.068h-1.664v-0.912c-0.307,0.336-0.625,0.594-0.958,0.768
		c-0.332,0.184-0.654,0.27-0.966,0.27c-0.388,0-0.674-0.123-0.87-0.373c-0.192-0.25-0.291-0.617-0.291-1.113V20.75h1.663v6.383
		c0,0.195,0.036,0.338,0.102,0.426c0.072,0.092,0.188,0.133,0.341,0.133c0.121,0,0.278-0.057,0.464-0.174
		c0.189-0.117,0.359-0.266,0.516-0.447v-6.318h1.664L15.865,29.068L15.865,29.068z M21.896,27.351c0,0.586-0.127,1.035-0.391,1.354
		c-0.258,0.314-0.637,0.471-1.129,0.471c-0.327,0-0.616-0.059-0.869-0.182c-0.255-0.119-0.494-0.307-0.712-0.562v0.639h-1.681
		V17.792h1.681v3.631c0.226-0.252,0.463-0.445,0.712-0.578c0.256-0.133,0.51-0.197,0.77-0.197c0.527,0,0.931,0.176,1.205,0.529
		c0.278,0.354,0.414,0.875,0.414,1.555V27.351z M27.665,25.107h-3.184v1.566c0,0.438,0.056,0.742,0.164,0.912
		c0.109,0.17,0.299,0.254,0.562,0.254c0.274,0,0.472-0.072,0.579-0.217c0.105-0.146,0.166-0.461,0.166-0.949v-0.379h1.711v0.428
		c0,0.854-0.206,1.496-0.628,1.932c-0.413,0.426-1.038,0.641-1.866,0.641c-0.743,0-1.332-0.227-1.76-0.686
		c-0.426-0.453-0.643-1.084-0.643-1.887v-3.736c0-0.719,0.234-1.312,0.705-1.766c0.473-0.451,1.075-0.68,1.82-0.68
		c0.764,0,1.348,0.211,1.755,0.631c0.409,0.42,0.614,1.023,0.614,1.812v2.123H27.665L27.665,25.107z"/>
	<path fill="#FFFFFF" d="M25.226,21.996c-0.265,0-0.453,0.076-0.57,0.23c-0.114,0.146-0.172,0.396-0.172,0.744v0.842h1.473V22.97
		c0-0.348-0.062-0.598-0.176-0.744C25.667,22.072,25.478,21.996,25.226,21.996z"/>
	<path fill="#FFFFFF" d="M19.492,21.968c-0.118,0-0.237,0.023-0.353,0.08c-0.117,0.055-0.229,0.141-0.346,0.254v5.186
		c0.135,0.135,0.268,0.236,0.396,0.295s0.261,0.092,0.399,0.092c0.205,0,0.354-0.062,0.45-0.18c0.094-0.119,0.145-0.309,0.145-0.572
		v-4.297c0-0.281-0.059-0.494-0.177-0.641C19.89,22.041,19.715,21.968,19.492,21.968z"/>
	<polygon fill="#FFFFFF" points="8.735,12.784 10.841,12.784 10.841,7.63 13.294,0.36 11.154,0.36 9.849,5.327 9.716,5.327 
		8.347,0.36 6.226,0.36 8.735,7.861 	"/>
	<path fill="#FFFFFF" d="M16.149,13.016c0.852,0,1.519-0.224,2.006-0.669c0.482-0.449,0.725-1.062,0.725-1.846V5.767
		c0-0.696-0.247-1.272-0.738-1.715c-0.496-0.442-1.132-0.664-1.905-0.664c-0.851,0-1.531,0.209-2.035,0.632
		c-0.501,0.419-0.754,0.981-0.754,1.694v4.75c0,0.779,0.247,1.396,0.736,1.858C14.675,12.784,15.33,13.016,16.149,13.016z
		 M15.373,5.646c0-0.201,0.072-0.361,0.213-0.488c0.145-0.122,0.331-0.182,0.558-0.182c0.249,0,0.449,0.06,0.602,0.182
		c0.153,0.126,0.229,0.287,0.229,0.488v4.991c0,0.245-0.078,0.438-0.229,0.58c-0.148,0.141-0.351,0.21-0.604,0.21
		c-0.247,0-0.437-0.065-0.569-0.208c-0.133-0.136-0.201-0.328-0.201-0.582V5.646L15.373,5.646z"/>
	<path fill="#FFFFFF" d="M21.707,12.919c0.351,0,0.712-0.103,1.085-0.295c0.375-0.195,0.734-0.481,1.077-0.854v1.016h1.873V3.62
		h-1.873v6.957c-0.175,0.199-0.367,0.361-0.576,0.491c-0.211,0.128-0.388,0.192-0.522,0.192c-0.174,0-0.306-0.048-0.381-0.146
		c-0.076-0.096-0.121-0.253-0.121-0.469V3.62h-1.869v7.659c0,0.546,0.11,0.955,0.328,1.224
		C20.946,12.778,21.271,12.919,21.707,12.919z"/>
</g>
</svg>
