<?xml version="1.0" encoding="utf-8"?>
<!-- Generator: Adobe Illustrator 16.0.0, SVG Export Plug-In . SVG Version: 6.00 Build 0)  -->
<!DOCTYPE svg PUBLIC "-//W3C//DTD SVG 1.1//EN" "http://www.w3.org/Graphics/SVG/1.1/DTD/svg11.dtd">
<svg version="1.1" id="Layer_1" xmlns="http://www.w3.org/2000/svg" xmlns:xlink="http://www.w3.org/1999/xlink" x="0px" y="0px"
	 width="191px" height="191px" viewBox="0 0 191 191" enable-background="new 0 0 191 191" xml:space="preserve">
<g>
	<g>
		<g>
			<path fill="#DED94A" d="M140.578,101H44.422c-3.038,0-5.5-2.463-5.5-5.5c0-3.038,2.462-5.5,5.5-5.5h96.156
				c3.037,0,5.5,2.462,5.5,5.5C146.078,98.538,143.615,101,140.578,101z"/>
		</g>
		<g>
			<path fill="#DED94A" d="M100.963,140.614c-1.408,0-2.814-0.537-3.89-1.611c-2.147-2.146-2.147-5.629,0.001-7.777L132.8,95.5
				L97.074,59.775c-2.148-2.148-2.148-5.63,0-7.778c2.146-2.147,5.631-2.147,7.777,0l39.614,39.615
				c1.032,1.032,1.611,2.431,1.611,3.889c0,1.458-0.579,2.858-1.611,3.889l-39.614,39.614
				C103.777,140.077,102.37,140.614,100.963,140.614z"/>
		</g>
	</g>
	<g>
		<path fill="#FFFFFF" d="M95.5,191C42.841,191,0,148.159,0,95.501C0,42.841,42.841,0,95.5,0S191,42.841,191,95.5
			C191,148.159,148.159,191,95.5,191z M95.5,8C47.252,8,8,47.252,8,95.5C8,143.749,47.252,183,95.5,183S183,143.747,183,95.5
			C183,47.252,143.748,8,95.5,8z"/>
	</g>
</g>
</svg>
