<?xml version="1.0" encoding="utf-8"?>
<!-- Generator: Adobe Illustrator 16.0.0, SVG Export Plug-In . SVG Version: 6.00 Build 0)  -->
<!DOCTYPE svg PUBLIC "-//W3C//DTD SVG 1.1//EN" "http://www.w3.org/Graphics/SVG/1.1/DTD/svg11.dtd">
<svg version="1.1" id="Layer_1" xmlns="http://www.w3.org/2000/svg" xmlns:xlink="http://www.w3.org/1999/xlink" x="0px" y="0px"
	 width="31.59px" height="31.59px" viewBox="0 -0.698 31.59 31.59" enable-background="new 0 -0.698 31.59 31.59"
	 xml:space="preserve">
<g>
	<path fill="#F8991D" d="M23.793,9.347c-3.596,0-5.203,1.972-6.104,3.361v0.067h-0.045c0.017-0.021,0.034-0.044,0.045-0.067V9.825
		h-6.77c0.087,1.909,0,20.37,0,20.37h6.77V18.818c0-0.611,0.044-1.215,0.224-1.65c0.49-1.214,1.605-2.479,3.476-2.479
		c2.452,0,3.432,1.872,3.432,4.608v10.898h6.772v-11.68C31.59,12.256,28.247,9.347,23.793,9.347z"/>
	<path fill="#F8991D" d="M3.829,0C1.517,0,0,1.523,0,3.521c0,1.953,1.469,3.521,3.74,3.521h0.044c2.362,0,3.832-1.566,3.832-3.521
		C7.574,1.523,6.146,0,3.829,0z"/>
	<rect x="0.399" y="9.825" fill="#F8991D" width="6.772" height="20.37"/>
</g>
</svg>
