<?xml version="1.0" encoding="utf-8"?>
<!-- Generator: Adobe Illustrator 16.0.0, SVG Export Plug-In . SVG Version: 6.00 Build 0)  -->
<!DOCTYPE svg PUBLIC "-//W3C//DTD SVG 1.1//EN" "http://www.w3.org/Graphics/SVG/1.1/DTD/svg11.dtd">
<svg version="1.1" id="Layer_1" xmlns="http://www.w3.org/2000/svg" xmlns:xlink="http://www.w3.org/1999/xlink" x="0px" y="0px"
	 width="31.689px" height="31.686px" viewBox="0 0 31.689 31.686" enable-background="new 0 0 31.689 31.686" xml:space="preserve">
<g>
	<g>
		<polygon fill="#FFFFFF" points="31.597,4.677 27.347,4.677 27.347,0.426 25.222,0.426 25.222,4.677 20.976,4.677 20.976,6.801 
			25.222,6.801 25.222,11.048 27.347,11.048 27.347,6.801 31.597,6.801 		"/>
	</g>
	<g>
		<path fill="#FFFFFF" d="M16.46,18.134c-0.864-0.65-2.75-1.982-2.75-2.875c0-1.046,0.299-1.564,1.876-2.795
			c1.614-1.263,2.758-2.926,2.758-4.991c0-2.249-0.918-4.29-2.65-5.28h2.453l2.088-2.191c0,0-6.896,0-9.341,0
			c-4.738,0-8.688,3.495-8.688,7.34c0,3.927,2.595,7.059,7.053,7.059c0.31,0,0.609-0.018,0.903-0.039
			c-0.29,0.558-0.492,1.176-0.492,1.822c0,1.09,0.6,1.713,1.342,2.437c-0.562,0-1.104,0.015-1.695,0.015
			c-5.427-0.002-9.224,3.733-9.224,7.317c0,3.526,4.578,5.733,10.005,5.733c6.185,0,9.989-3.51,9.989-7.039
			C20.087,21.817,19.478,20.395,16.46,18.134z M11.063,12.972c-2.519-0.077-4.909-2.387-5.343-5.689
			C5.283,3.975,6.974,1.446,9.489,1.52c2.517,0.077,4.671,2.788,5.104,6.093C15.027,10.918,13.578,13.045,11.063,12.972z
			 M10.077,30.126c-3.75,0-6.46-2.373-6.46-5.229c0-2.794,3.179-5.205,6.929-5.162c0.876,0.01,1.691,0.148,2.432,0.391
			c2.038,1.415,3.676,2.299,4.092,3.913c0.076,0.323,0.119,0.661,0.119,1.007C17.189,27.898,15.35,30.126,10.077,30.126z"/>
	</g>
</g>
</svg>
