<?xml version="1.0" encoding="utf-8"?>
<!-- Generator: Adobe Illustrator 16.0.0, SVG Export Plug-In . SVG Version: 6.00 Build 0)  -->
<!DOCTYPE svg PUBLIC "-//W3C//DTD SVG 1.1//EN" "http://www.w3.org/Graphics/SVG/1.1/DTD/svg11.dtd">
<svg version="1.1" id="Layer_1" xmlns="http://www.w3.org/2000/svg" xmlns:xlink="http://www.w3.org/1999/xlink" x="0px" y="0px"
	 width="39.375px" height="39.379px" viewBox="0 0 39.375 39.379" enable-background="new 0 0 39.375 39.379" xml:space="preserve">
<path fill="#DED94A" d="M39.375,7.478c-1.443,0.643-3.004,1.077-4.637,1.271c1.666-0.998,2.945-2.582,3.553-4.469
	c-1.562,0.927-3.295,1.598-5.131,1.959c-1.475-1.568-3.574-2.549-5.895-2.549c-4.466,0-8.083,3.616-8.083,8.078
	c0,0.633,0.073,1.25,0.21,1.841C12.68,13.272,6.725,10.057,2.742,5.168C2.048,6.36,1.648,7.749,1.648,9.229
	c0,2.802,1.425,5.275,3.593,6.723c-1.323-0.041-2.568-0.405-3.66-1.011c0,0.035,0,0.069,0,0.103c0,3.914,2.788,7.179,6.479,7.92
	c-0.676,0.187-1.389,0.285-2.127,0.285c-0.521,0-1.026-0.052-1.519-0.146c1.026,3.211,4.011,5.547,7.542,5.609
	c-2.762,2.166-6.241,3.457-10.03,3.457c-0.651,0-1.293-0.037-1.927-0.109c3.578,2.291,7.822,3.629,12.386,3.629
	c14.861,0,22.986-12.312,22.986-22.984c0-0.351-0.008-0.7-0.023-1.046C36.926,10.521,38.295,9.097,39.375,7.478z"/>
</svg>
