<?xml version="1.0" encoding="utf-8"?>
<!-- Generator: Adobe Illustrator 16.0.0, SVG Export Plug-In . SVG Version: 6.00 Build 0)  -->
<!DOCTYPE svg PUBLIC "-//W3C//DTD SVG 1.1//EN" "http://www.w3.org/Graphics/SVG/1.1/DTD/svg11.dtd">
<svg version="1.1" id="Layer_2" xmlns="http://www.w3.org/2000/svg" xmlns:xlink="http://www.w3.org/1999/xlink" x="0px" y="0px"
	 width="67px" height="67px" viewBox="0 0 67 67" enable-background="new 0 0 67 67" xml:space="preserve">
<g>
	<path fill="#DED948" d="M31.43,39.943c0.363,0.204,2.903,1.53,5.013,0.046c2.756-1.939,22.348-16.081,29.151-20.992v-3.935
		c0-3.866-3.134-7-7-7H8.406c-3.866,0-7,3.134-7,7v3.553L31.43,39.943z"/>
	<path fill="#DED948" d="M38.745,43.261c-1.519,1.069-3.092,1.423-4.507,1.423c-2.684,0-4.805-1.271-4.938-1.354l-0.113-0.074
		L1.406,23.522v28.416c0,3.866,3.134,7,7,7h50.188c3.866,0,7-3.134,7-7V23.932C57.435,29.821,41.283,41.475,38.745,43.261z"/>
</g>
</svg>
