<?xml version="1.0" encoding="utf-8"?>
<!-- Generator: Adobe Illustrator 16.0.0, SVG Export Plug-In . SVG Version: 6.00 Build 0)  -->
<!DOCTYPE svg PUBLIC "-//W3C//DTD SVG 1.1//EN" "http://www.w3.org/Graphics/SVG/1.1/DTD/svg11.dtd">
<svg version="1.1" id="Layer_1" xmlns="http://www.w3.org/2000/svg" xmlns:xlink="http://www.w3.org/1999/xlink" x="0px" y="0px"
	 width="14px" height="14px" viewBox="0 0 14 14" enable-background="new 0 0 14 14" xml:space="preserve">
<circle fill="#333333" cx="7" cy="7" r="7"/>
<g>
	<g>
		<path fill="#FFFFFF" d="M6.125,2.641v8.016c0,0.483,0.392,0.875,0.875,0.875s0.875-0.392,0.875-0.875V2.641
			c0-0.483-0.392-0.875-0.875-0.875S6.125,2.157,6.125,2.641z"/>
	</g>
	<g>
		<path fill="#FFFFFF" d="M6.125,10.656c0,0.225,0.085,0.448,0.256,0.619c0.342,0.342,0.896,0.342,1.237,0l3.262-3.262
			c0.342-0.342,0.342-0.896,0-1.237s-0.896-0.342-1.237,0l-3.262,3.262C6.21,10.209,6.125,10.433,6.125,10.656z"/>
	</g>
	<g>
		<path fill="#FFFFFF" d="M2.862,7.395c0,0.225,0.086,0.448,0.257,0.619l3.262,3.262c0.342,0.342,0.896,0.342,1.237,0
			s0.342-0.896,0-1.237L4.356,6.776c-0.342-0.342-0.896-0.342-1.237,0C2.948,6.947,2.862,7.171,2.862,7.395z"/>
	</g>
</g>
</svg>
