<?xml version="1.0" encoding="utf-8"?>
<!-- Generator: Adobe Illustrator 16.0.0, SVG Export Plug-In . SVG Version: 6.00 Build 0)  -->
<!DOCTYPE svg PUBLIC "-//W3C//DTD SVG 1.1//EN" "http://www.w3.org/Graphics/SVG/1.1/DTD/svg11.dtd">
<svg version="1.1" id="Layer_1" xmlns="http://www.w3.org/2000/svg" xmlns:xlink="http://www.w3.org/1999/xlink" x="0px" y="0px"
	 width="14px" height="14px" viewBox="0 0 14 14" enable-background="new 0 0 14 14" xml:space="preserve">
<circle fill="#333333" cx="7" cy="7" r="7"/>
<g>
	<g>
		<path fill="#FFFFFF" d="M11.359,7.875H3.344C2.86,7.875,2.469,7.483,2.469,7S2.86,6.125,3.344,6.125h8.016
			c0.483,0,0.875,0.392,0.875,0.875S11.843,7.875,11.359,7.875z"/>
	</g>
	<g>
		<path fill="#FFFFFF" d="M3.344,7.875c-0.225,0-0.448-0.085-0.619-0.256c-0.342-0.342-0.342-0.896,0-1.237l3.262-3.262
			c0.342-0.342,0.896-0.342,1.237,0s0.342,0.896,0,1.237L3.962,7.619C3.791,7.79,3.567,7.875,3.344,7.875z"/>
	</g>
	<g>
		<path fill="#FFFFFF" d="M6.605,11.138c-0.225,0-0.448-0.086-0.619-0.257L2.725,7.619c-0.342-0.342-0.342-0.896,0-1.237
			s0.896-0.342,1.237,0l3.262,3.262c0.342,0.342,0.342,0.896,0,1.237C7.053,11.052,6.829,11.138,6.605,11.138z"/>
	</g>
</g>
</svg>
