<?xml version="1.0" encoding="utf-8"?>
<!-- Generator: Adobe Illustrator 16.0.0, SVG Export Plug-In . SVG Version: 6.00 Build 0)  -->
<!DOCTYPE svg PUBLIC "-//W3C//DTD SVG 1.1//EN" "http://www.w3.org/Graphics/SVG/1.1/DTD/svg11.dtd">
<svg version="1.1" xmlns="http://www.w3.org/2000/svg" xmlns:xlink="http://www.w3.org/1999/xlink" x="0px" y="0px"
	 width="23.253px" height="23.253px" viewBox="0 0 23.253 23.253" enable-background="new 0 0 23.253 23.253" xml:space="preserve">
<g id="Layer_2">
</g>
<g id="Layer_1">
	<g>
		<g>
			<path fill="#FFFFFF" d="M16.892,12.928H5.569c-0.719,0-1.302-0.583-1.302-1.302c0-0.718,0.583-1.301,1.302-1.301h11.322
				c0.718,0,1.301,0.583,1.301,1.301C18.193,12.345,17.61,12.928,16.892,12.928z"/>
		</g>
		<g>
			<path fill="#FFFFFF" d="M12.11,17.98c-0.333,0-0.666-0.127-0.92-0.381c-0.509-0.508-0.509-1.332,0-1.841l4.132-4.133L11.19,7.494
				c-0.509-0.508-0.509-1.333,0-1.841c0.508-0.509,1.332-0.509,1.84,0l5.052,5.052c0.508,0.508,0.508,1.332,0,1.841L13.03,17.6
				C12.776,17.854,12.443,17.98,12.11,17.98z"/>
		</g>
	</g>
</g>
</svg>
