<?xml version="1.0" encoding="utf-8"?>
<!-- Generator: Adobe Illustrator 16.0.0, SVG Export Plug-In . SVG Version: 6.00 Build 0)  -->
<!DOCTYPE svg PUBLIC "-//W3C//DTD SVG 1.1//EN" "http://www.w3.org/Graphics/SVG/1.1/DTD/svg11.dtd">
<svg version="1.1" id="Layer_1" xmlns="http://www.w3.org/2000/svg" xmlns:xlink="http://www.w3.org/1999/xlink" x="0px" y="0px"
	 width="14.953px" height="14.953px" viewBox="0 0 14.953 14.953" enable-background="new 0 0 14.953 14.953" xml:space="preserve">
<g>
	<g>
		<path fill="#FFFFFF" d="M1.5,14.953c-0.384,0-0.768-0.146-1.061-0.439c-0.586-0.586-0.586-1.535,0-2.121L12.393,0.439
			c0.586-0.586,1.535-0.586,2.121,0c0.586,0.585,0.586,1.536,0,2.121L2.561,14.514C2.268,14.807,1.884,14.953,1.5,14.953z"/>
	</g>
	<g>
		<path fill="#FFFFFF" d="M13.453,14.953c-0.384,0-0.768-0.146-1.061-0.439L0.439,2.561c-0.586-0.585-0.586-1.536,0-2.121
			c0.586-0.586,1.535-0.586,2.121,0l11.953,11.953c0.586,0.586,0.586,1.535,0,2.121C14.221,14.807,13.837,14.953,13.453,14.953z"/>
	</g>
</g>
</svg>
