<?xml version="1.0" encoding="utf-8"?>
<!-- Generator: Adobe Illustrator 16.0.0, SVG Export Plug-In . SVG Version: 6.00 Build 0)  -->
<!DOCTYPE svg PUBLIC "-//W3C//DTD SVG 1.1//EN" "http://www.w3.org/Graphics/SVG/1.1/DTD/svg11.dtd">
<svg version="1.1" id="Layer_1" xmlns="http://www.w3.org/2000/svg" xmlns:xlink="http://www.w3.org/1999/xlink" x="0px" y="0px"
	 width="50.604px" height="50.6px" viewBox="0 -9.277 50.604 50.6" enable-background="new 0 -9.277 50.604 50.6"
	 xml:space="preserve">
<path fill="#F8991D" d="M20.422,14.326c0,0,4.787-0.357,4.787-5.973C25.209,2.739,21.292,0,16.328,0H7.196h-0.27H0v31.38h6.927h0.27
	h9.135c0,0,9.971,0.312,9.971-9.264C26.301,22.119,26.732,14.326,20.422,14.326z M15.155,5.575h1.174c0,0,2.22,0,2.22,3.266
	c0,3.264-1.306,3.737-2.786,3.737H7.196V5.575H15.155z M15.87,25.805H7.196v-8.388h9.135c0,0,3.31-0.043,3.31,4.31
	C19.64,25.397,17.167,25.778,15.87,25.805z"/>
<path fill="#F8991D" d="M39.596,7.983c-12.067,0-12.059,12.056-12.059,12.056s-0.829,11.998,12.059,11.998
	c0,0,10.736,0.613,10.736-8.348h-5.521c0,0,0.182,3.377-5.031,3.377c0,0-5.523,0.369-5.523-5.463H50.52
	C50.519,21.604,52.297,7.983,39.596,7.983z M34.193,17.417c0,0,0.678-4.836,5.525-4.836c4.847,0,4.784,4.836,4.784,4.836H34.193z"/>
<rect x="32.843" y="1.847" fill="#F8991D" width="12.948" height="3.863"/>
</svg>
