<?xml version="1.0" encoding="utf-8"?>
<!-- Generator: Adobe Illustrator 16.0.0, SVG Export Plug-In . SVG Version: 6.00 Build 0)  -->
<!DOCTYPE svg PUBLIC "-//W3C//DTD SVG 1.1//EN" "http://www.w3.org/Graphics/SVG/1.1/DTD/svg11.dtd">
<svg version="1.1" id="Layer_1" xmlns="http://www.w3.org/2000/svg" xmlns:xlink="http://www.w3.org/1999/xlink" x="0px" y="0px"
	 width="67px" height="67px" viewBox="142.153 77.959 67 67" enable-background="new 142.153 77.959 67 67" xml:space="preserve">
<g id="AG2ePk_1_">
	<path fill="#DED94A" d="M163.418,132.702c-11.732,0-21.243-9.511-21.243-21.243s9.511-21.243,21.243-21.243
		c5.524,0,10.553,2.11,14.331,5.567l-6.261,6.13c-2.178-1.844-4.993-2.958-8.07-2.958c-6.905,0-12.503,5.599-12.503,12.504
		s5.598,12.503,12.503,12.503c5.342,0,9.9-3.351,11.691-8.066H163.15v-8.874h11.959h9.015h0.071
		c0.305,1.431,0.466,2.915,0.466,4.437C184.661,123.191,175.151,132.702,163.418,132.702z"/>
	<path fill="#DED94A" d="M209.131,113.072h-7.395v7.395h-5.378v-7.395h-7.395v-5.378h7.395V100.3h5.378v7.395h7.395V113.072z"/>
</g>
</svg>
