<?xml version="1.0" encoding="utf-8"?>
<!-- Generator: Adobe Illustrator 16.0.0, SVG Export Plug-In . SVG Version: 6.00 Build 0)  -->
<!DOCTYPE svg PUBLIC "-//W3C//DTD SVG 1.1//EN" "http://www.w3.org/Graphics/SVG/1.1/DTD/svg11.dtd">
<svg version="1.1" id="Layer_1" xmlns="http://www.w3.org/2000/svg" xmlns:xlink="http://www.w3.org/1999/xlink" x="0px" y="0px"
	 width="39.022px" height="39.022px" viewBox="0 0 39.022 39.022" enable-background="new 0 0 39.022 39.022" xml:space="preserve">
<circle fill="#53BFA1" cx="19.511" cy="19.511" r="19.511"/>
<g>
	<polygon fill="#FFFFFF" points="25.468,19.511 16.625,25.538 16.625,13.487 	"/>
	<path fill="#FFFFFF" d="M16.625,27.038c-0.24,0-0.481-0.058-0.701-0.174c-0.491-0.26-0.799-0.77-0.799-1.326V13.487
		c0-0.556,0.308-1.066,0.799-1.326c0.492-0.259,1.086-0.226,1.546,0.086l8.844,6.024c0.41,0.279,0.655,0.744,0.655,1.24
		s-0.245,0.96-0.655,1.24l-8.844,6.026C17.215,26.95,16.92,27.038,16.625,27.038z M18.125,16.324V22.7l4.68-3.189L18.125,16.324z"/>
</g>
</svg>
