<?xml version="1.0" encoding="utf-8"?>
<!-- Generator: Adobe Illustrator 16.0.0, SVG Export Plug-In . SVG Version: 6.00 Build 0)  -->
<!DOCTYPE svg PUBLIC "-//W3C//DTD SVG 1.1//EN" "http://www.w3.org/Graphics/SVG/1.1/DTD/svg11.dtd">
<svg version="1.1" id="Layer_1" xmlns="http://www.w3.org/2000/svg" xmlns:xlink="http://www.w3.org/1999/xlink" x="0px" y="0px"
	 width="31.098px" height="31.094px" viewBox="0 0 31.098 31.094" enable-background="new 0 0 31.098 31.094" xml:space="preserve">
<path fill="#FFFFFF" d="M3.993,0h23.112c2.195,0,3.991,1.796,3.991,3.992v23.113c0,2.194-1.796,3.988-3.991,3.988H3.993
	C1.797,31.094,0,29.3,0,27.104V3.992C0,1.796,1.797,0,3.993,0z M22.653,3.454c-0.771,0-1.4,0.631-1.4,1.402v3.35
	c0,0.771,0.63,1.401,1.4,1.401h3.514c0.771,0,1.4-0.63,1.4-1.401v-3.35c0-0.771-0.63-1.402-1.4-1.402H22.653z M27.581,13.149h-2.735
	c0.259,0.847,0.399,1.741,0.399,2.67c0,5.17-4.329,9.363-9.667,9.363s-9.666-4.192-9.666-9.363c0-0.929,0.143-1.823,0.399-2.67
	H3.457v13.136c0,0.681,0.557,1.232,1.235,1.232h21.654c0.68,0,1.233-0.553,1.233-1.232L27.581,13.149L27.581,13.149z M15.578,9.429
	c-3.447,0-6.244,2.708-6.244,6.053c0,3.34,2.797,6.051,6.244,6.051c3.449,0,6.245-2.711,6.245-6.051
	C21.823,12.137,19.027,9.429,15.578,9.429z"/>
</svg>
