<?xml version="1.0" encoding="utf-8"?>
<!-- Generator: Adobe Illustrator 16.0.0, SVG Export Plug-In . SVG Version: 6.00 Build 0)  -->
<!DOCTYPE svg PUBLIC "-//W3C//DTD SVG 1.1//EN" "http://www.w3.org/Graphics/SVG/1.1/DTD/svg11.dtd">
<svg version="1.1" id="Layer_1" xmlns="http://www.w3.org/2000/svg" xmlns:xlink="http://www.w3.org/1999/xlink" x="0px" y="0px"
	 width="32.2px" height="32.197px" viewBox="-3.637 0 32.2 32.197" enable-background="new -3.637 0 32.2 32.197"
	 xml:space="preserve">
<path fill="#CACACA" d="M13.218,0C4.43,0,0,6.299,0,11.552c0,3.182,1.203,6.012,3.787,7.065c0.422,0.173,0.804,0.006,0.925-0.462
	C4.799,17.831,5,17.011,5.09,16.67c0.124-0.463,0.077-0.626-0.266-1.03c-0.744-0.879-1.22-2.016-1.22-3.627
	c0-4.673,3.496-8.856,9.104-8.856c4.965,0,7.694,3.034,7.694,7.087c0,5.333-2.359,9.833-5.863,9.833c-1.936,0-3.382-1.6-2.918-3.562
	c0.557-2.342,1.631-4.871,1.631-6.562c0-1.514-0.81-2.776-2.492-2.776c-1.978,0-3.567,2.045-3.567,4.787
	c0,1.745,0.59,2.926,0.59,2.926S5.76,23.464,5.404,24.965c-0.708,2.991-0.106,6.658-0.055,7.028c0.029,0.219,0.312,0.271,0.44,0.105
	c0.181-0.238,2.537-3.146,3.338-6.053c0.226-0.822,1.301-5.084,1.301-5.084c0.643,1.227,2.521,2.307,4.519,2.307
	c5.943,0,9.979-5.422,9.979-12.676C24.926,5.108,20.279,0,13.218,0z"/>
</svg>
