<?xml version="1.0" encoding="utf-8"?>
<!-- Generator: Adobe Illustrator 16.0.0, SVG Export Plug-In . SVG Version: 6.00 Build 0)  -->
<!DOCTYPE svg PUBLIC "-//W3C//DTD SVG 1.1//EN" "http://www.w3.org/Graphics/SVG/1.1/DTD/svg11.dtd">
<svg version="1.1" id="Layer_2" xmlns="http://www.w3.org/2000/svg" xmlns:xlink="http://www.w3.org/1999/xlink" x="0px" y="0px"
	 width="67px" height="67px" viewBox="-1.406 -8.062 67 67" enable-background="new -1.406 -8.062 67 67" xml:space="preserve">
<g>
	<path fill="#4DBEA1" d="M30.024,31.881c0.363,0.204,2.903,1.53,5.014,0.046c2.756-1.938,22.348-16.081,29.15-20.992V7
		c0-3.866-3.134-7-7-7H7C3.134,0,0,3.134,0,7v3.553L30.024,31.881z"/>
	<path fill="#4DBEA1" d="M37.338,35.198c-1.52,1.069-3.092,1.423-4.507,1.423c-2.685,0-4.806-1.271-4.938-1.354l-0.113-0.074
		L0,15.459v28.416c0,3.866,3.134,7,7,7h50.188c3.866,0,7-3.134,7-7V15.869C56.028,21.759,39.877,33.412,37.338,35.198z"/>
</g>
</svg>
