<?xml version="1.0" encoding="utf-8"?>
<!-- Generator: Adobe Illustrator 16.0.0, SVG Export Plug-In . SVG Version: 6.00 Build 0)  -->
<!DOCTYPE svg PUBLIC "-//W3C//DTD SVG 1.1//EN" "http://www.w3.org/Graphics/SVG/1.1/DTD/svg11.dtd">
<svg version="1.1" id="Layer_1" xmlns="http://www.w3.org/2000/svg" xmlns:xlink="http://www.w3.org/1999/xlink" x="0px" y="0px"
	 width="50.604px" height="50.6px" viewBox="0 0 50.604 50.6" enable-background="new 0 0 50.604 50.6" xml:space="preserve">
<g>
	<path fill="#FFFFFF" d="M20.422,23.603c0,0,4.787-0.357,4.787-5.974c0-5.613-3.917-8.353-8.881-8.353H7.195h-0.27H0v31.38h6.927
		h0.27h9.136c0,0,9.971,0.311,9.971-9.264C26.301,31.396,26.732,23.603,20.422,23.603z M15.154,14.852h1.175c0,0,2.22,0,2.22,3.266
		c0,3.264-1.306,3.737-2.786,3.737H7.195v-7.003H15.154z M15.87,35.081H7.195v-8.387h9.136c0,0,3.31-0.043,3.31,4.309
		C19.639,34.673,17.167,35.054,15.87,35.081z"/>
	<path fill="#FFFFFF" d="M39.596,17.26c-12.067,0-12.059,12.056-12.059,12.056s-0.829,11.998,12.059,11.998
		c0,0,10.736,0.613,10.736-8.348h-5.521c0,0,0.183,3.377-5.031,3.377c0,0-5.522,0.369-5.522-5.463H50.52
		C50.519,30.88,52.297,17.26,39.596,17.26z M34.193,26.695c0,0,0.679-4.836,5.525-4.836s4.784,4.836,4.784,4.836H34.193z"/>
	<rect x="32.843" y="11.124" fill="#FFFFFF" width="12.948" height="3.863"/>
</g>
</svg>
