<?xml version="1.0" encoding="utf-8"?>
<!-- Generator: Adobe Illustrator 16.0.0, SVG Export Plug-In . SVG Version: 6.00 Build 0)  -->
<!DOCTYPE svg PUBLIC "-//W3C//DTD SVG 1.1//EN" "http://www.w3.org/Graphics/SVG/1.1/DTD/svg11.dtd">
<svg version="1.1" id="Layer_1" xmlns="http://www.w3.org/2000/svg" xmlns:xlink="http://www.w3.org/1999/xlink" x="0px" y="0px"
	 width="14px" height="14px" viewBox="0 0 14 14" enable-background="new 0 0 14 14" xml:space="preserve">
<circle fill="#333333" cx="7" cy="7" r="7"/>
<g>
	<g>
		<path fill="#FFFFFF" d="M2.641,7.875h8.016c0.483,0,0.875-0.392,0.875-0.875s-0.392-0.875-0.875-0.875H2.641
			C2.157,6.125,1.766,6.517,1.766,7S2.157,7.875,2.641,7.875z"/>
	</g>
	<g>
		<path fill="#FFFFFF" d="M10.656,7.875c0.225,0,0.448-0.085,0.619-0.256c0.342-0.342,0.342-0.896,0-1.237L8.014,3.119
			c-0.342-0.342-0.896-0.342-1.237,0s-0.342,0.896,0,1.237l3.262,3.262C10.209,7.79,10.433,7.875,10.656,7.875z"/>
	</g>
	<g>
		<path fill="#FFFFFF" d="M7.395,11.138c0.225,0,0.448-0.086,0.619-0.257l3.262-3.262c0.342-0.342,0.342-0.896,0-1.237
			s-0.896-0.342-1.237,0L6.776,9.644c-0.342,0.342-0.342,0.896,0,1.237C6.947,11.052,7.171,11.138,7.395,11.138z"/>
	</g>
</g>
</svg>
