<?xml version="1.0" encoding="utf-8"?>
<!-- Generator: Adobe Illustrator 16.0.0, SVG Export Plug-In . SVG Version: 6.00 Build 0)  -->
<!DOCTYPE svg PUBLIC "-//W3C//DTD SVG 1.1//EN" "http://www.w3.org/Graphics/SVG/1.1/DTD/svg11.dtd">
<svg version="1.1" id="Layer_1" xmlns="http://www.w3.org/2000/svg" xmlns:xlink="http://www.w3.org/1999/xlink" x="0px" y="0px"
	 width="53.513px" height="63.072px" viewBox="0 0 53.513 63.072" enable-background="new 0 0 53.513 63.072" xml:space="preserve">
<g>
	<path fill="#FFFFFF" d="M7.036,9.126l0.858-5.835l-3.139,5.5L4.004,8.68L2.582,2.51L1.723,8.345L0,8.091L1.191,0l2.414,0.355
		l1.221,5.348l2.709-4.769l2.426,0.357L8.771,9.382L7.036,9.126z"/>
	<path fill="#FFFFFF" d="M16.805,12.279l0.021-1.478l-3.269-1.27l-0.981,1.105l-1.84-0.715l5.898-6.482l2.035,0.79l-0.025,8.764
		L16.805,12.279z M17.021,5.458l-2.463,2.818L16.936,9.2L17.021,5.458z"/>
	<path fill="#FFFFFF" d="M24.373,16.53l0.209-3.312l-1.074-0.686l-1.562,2.448l-1.467-0.936l4.396-6.89L28.1,9.212
		c1.436,0.916,1.725,2.423,0.906,3.704c-0.771,1.208-1.969,1.375-2.824,1.076l-0.113,3.619L24.373,16.53z M27.504,11.943
		c0.363-0.568,0.143-1.203-0.436-1.572L25.52,9.382l-1.188,1.859l1.549,0.989C26.461,12.6,27.129,12.532,27.504,11.943z"/>
	<path fill="#FFFFFF" d="M31.613,22.586l0.463-4.088l-0.994,0.122l-1.729,1.824l-1.264-1.198l5.629-5.934l1.262,1.198l-2.506,2.642
		l4.605-0.651l1.557,1.477l-4.998,0.548l-0.469,5.537L31.613,22.586z"/>
	<path fill="#FFFFFF" d="M34.516,25.75l6.605-4.814l3.406,4.674l-1.238,0.902l-2.381-3.268l-1.387,1.01l2.332,3.199l-1.238,0.902
		l-2.332-3.199l-1.504,1.097l2.381,3.268l-1.238,0.902L34.516,25.75z"/>
	<path fill="#FFFFFF" d="M40.135,34.484l5.979-2.903l-1.043-2.151l1.379-0.669l2.85,5.869l-1.379,0.67l-1.039-2.141l-5.98,2.903
		L40.135,34.484z"/>
	<path fill="#FFFFFF" d="M42.742,40.643l7.785-2.504l0.533,1.657L43.273,42.3L42.742,40.643z"/>
	<path fill="#FFFFFF" d="M45.051,50.769l4.674-4.668l-5.27,0.816l-0.268-1.721l8.082-1.252l0.273,1.769l-4.496,4.53l5.076-0.786
		l0.266,1.72l-8.08,1.252L45.051,50.769z"/>
	<path fill="#FFFFFF" d="M49.531,55.212c2.584,0.147,4.111,2.199,3.973,4.598c-0.096,1.689-1.014,2.705-2.016,3.262l-0.701-1.477
		c0.596-0.348,1.127-1.017,1.176-1.873c0.086-1.493-0.992-2.635-2.533-2.724s-2.742,0.923-2.828,2.416
		c-0.041,0.722,0.238,1.413,0.525,1.761l0.979,0.057l0.125-2.154l1.518,0.088l-0.225,3.891l-3.133-0.18
		c-0.881-0.885-1.414-2.082-1.33-3.551C45.197,56.927,46.963,55.064,49.531,55.212z"/>
</g>
</svg>
