<?xml version="1.0" encoding="utf-8"?>
<!-- Generator: Adobe Illustrator 16.0.0, SVG Export Plug-In . SVG Version: 6.00 Build 0)  -->
<!DOCTYPE svg PUBLIC "-//W3C//DTD SVG 1.1//EN" "http://www.w3.org/Graphics/SVG/1.1/DTD/svg11.dtd">
<svg version="1.1" id="Layer_1" xmlns="http://www.w3.org/2000/svg" xmlns:xlink="http://www.w3.org/1999/xlink" x="0px" y="0px"
	 width="45.156px" height="55.866px" viewBox="0 0 45.156 55.866" enable-background="new 0 0 45.156 55.866" xml:space="preserve">
<g>
	<path fill="#FFFFFF" d="M8.214,55.672l-8.173,0.193L0,54.125l8.172-0.193L8.214,55.672z"/>
	<path fill="#FFFFFF" d="M8.861,45.31l-5.798,3.159l5.284,0.703l-0.23,1.725l-8.102-1.078l0.236-1.773l5.59-3.076l-5.09-0.678
		l0.23-1.725l8.101,1.079L8.861,45.31z"/>
	<path fill="#FFFFFF" d="M10.443,39.008L4.15,36.867l-0.771,2.265l-1.451-0.494l2.103-6.178l1.452,0.494l-0.768,2.253l6.294,2.142
		L10.443,39.008z"/>
	<path fill="#FFFFFF" d="M12.828,32.827l-7.154-3.969l2.809-5.063l1.342,0.744l-1.965,3.54l1.502,0.833l1.922-3.465l1.342,0.744
		l-1.922,3.465l1.63,0.904l1.964-3.54l1.341,0.744L12.828,32.827z"/>
	<path fill="#FFFFFF" d="M20.105,21.954l-3.262-0.614l-0.812,0.982l2.238,1.852l-1.109,1.341l-6.299-5.211l2.438-2.947
		c1.086-1.313,2.617-1.414,3.788-0.445c1.104,0.914,1.124,2.123,0.722,2.935l3.578,0.558L20.105,21.954z M15.937,18.283
		c-0.52-0.43-1.177-0.289-1.614,0.24l-1.172,1.417l1.701,1.406l1.172-1.417C16.461,19.4,16.475,18.728,15.937,18.283z"/>
	<path fill="#FFFFFF" d="M27.592,15.044l-6.378-1.703l3.345,4.148l-1.354,1.092l-5.129-6.361l1.392-1.123l6.169,1.62l-3.222-3.996
		l1.354-1.092l5.129,6.361L27.592,15.044z"/>
	<path fill="#FFFFFF" d="M36.43,9.837l-1.089-1l-3.124,1.593l0.17,1.468l-1.76,0.897l-0.906-8.719l1.945-0.991l6.521,5.855
		L36.43,9.837z M31.484,5.132l0.462,3.715l2.272-1.158L31.484,5.132z"/>
	<path fill="#FFFFFF" d="M40.163,8.334l-2.321-7.836L39.522,0l1.886,6.368l3.313-0.981l0.435,1.468L40.163,8.334z"/>
</g>
</svg>
