<?xml version="1.0" encoding="utf-8"?>
<!-- Generator: Adobe Illustrator 16.0.0, SVG Export Plug-In . SVG Version: 6.00 Build 0)  -->
<!DOCTYPE svg PUBLIC "-//W3C//DTD SVG 1.1//EN" "http://www.w3.org/Graphics/SVG/1.1/DTD/svg11.dtd">
<svg version="1.1" id="Layer_1" xmlns="http://www.w3.org/2000/svg" xmlns:xlink="http://www.w3.org/1999/xlink" x="0px" y="0px"
	 width="70.576px" height="19.107px" viewBox="0 0 70.576 19.107" enable-background="new 0 0 70.576 19.107" xml:space="preserve">
<g>
	<g>
		<path fill="#FFFFFF" d="M0,7.272L4.957,0.77l1.384,1.055L1.385,8.328L0,7.272z"/>
		<path fill="#FFFFFF" d="M9.711,13.437l-0.9-6.541l-2.529,4.692l-1.532-0.825l3.878-7.195l1.574,0.849l0.898,6.316l2.436-4.521
			l1.532,0.826l-3.878,7.195L9.711,13.437z"/>
		<path fill="#FFFFFF" d="M17.467,16.532l-0.713-8.736l1.895,0.558l0.402,6.664l3.95-5.383l1.894,0.558l-5.334,6.957L17.467,16.532z
			"/>
		<path fill="#FFFFFF" d="M26.006,18.553l0.783-8.142l5.762,0.555l-0.146,1.525l-4.028-0.388l-0.165,1.709l3.943,0.38l-0.146,1.525
			l-3.943-0.379l-0.178,1.855l4.027,0.388l-0.146,1.525L26.006,18.553z"/>
		<path fill="#FFFFFF" d="M35.096,18.017l0.842-1.434c0.623,0.552,1.559,0.993,2.682,0.901c0.967-0.078,1.383-0.542,1.346-1.02
			c-0.115-1.417-4.729-0.047-4.979-3.114c-0.109-1.356,0.973-2.576,2.893-2.732c1.295-0.104,2.402,0.199,3.27,0.879l-0.861,1.374
			c-0.709-0.558-1.611-0.768-2.443-0.7c-0.732,0.06-1.123,0.411-1.084,0.9c0.105,1.283,4.715,0.036,4.963,3.079
			c0.121,1.491-0.863,2.703-3.051,2.88C37.094,19.158,35.928,18.725,35.096,18.017z"/>
		<path fill="#FFFFFF" d="M47.303,17.483l-1.688-6.426l-2.311,0.606l-0.391-1.481l6.309-1.656l0.389,1.481l-2.301,0.604l1.688,6.426
			L47.303,17.483z"/>
		<path fill="#FFFFFF" d="M52.498,11.758C51.42,9.54,52.271,7.164,54.5,6.082c2.217-1.076,4.609-0.275,5.688,1.942
			c1.076,2.218,0.225,4.594-1.992,5.67C55.967,14.776,53.574,13.975,52.498,11.758z M58.576,8.807
			c-0.67-1.379-2.045-1.993-3.402-1.334c-1.367,0.664-1.734,2.124-1.066,3.503c0.664,1.368,2.045,1.993,3.412,1.329
			C58.877,11.646,59.24,10.175,58.576,8.807z"/>
		<path fill="#FFFFFF" d="M68.986,6.636l-3.049-1.312L64.93,6.104L66.709,8.4l-1.375,1.066l-5.008-6.463l3.023-2.343
			c1.346-1.043,2.863-0.808,3.793,0.395c0.879,1.134,0.633,2.316,0.062,3.021l3.371,1.328L68.986,6.636z M65.721,2.142
			c-0.412-0.533-1.084-0.539-1.627-0.119l-1.453,1.126l1.352,1.744l1.453-1.126C65.988,3.347,66.148,2.694,65.721,2.142z"/>
	</g>
</g>
</svg>
