<?xml version="1.0" encoding="utf-8"?>
<!-- Generator: Adobe Illustrator 16.0.0, SVG Export Plug-In . SVG Version: 6.00 Build 0)  -->
<!DOCTYPE svg PUBLIC "-//W3C//DTD SVG 1.1//EN" "http://www.w3.org/Graphics/SVG/1.1/DTD/svg11.dtd">
<svg version="1.1" id="Layer_1" xmlns="http://www.w3.org/2000/svg" xmlns:xlink="http://www.w3.org/1999/xlink" x="0px" y="0px"
	 width="52.331px" height="89.443px" viewBox="0 0 52.331 89.443" enable-background="new 0 0 52.331 89.443" xml:space="preserve">
<g>
	<g>
		<path fill="#FFFFFF" d="M10.102,0l6.785,4.553l-0.97,1.444L9.133,1.444L10.102,0z"/>
		<path fill="#FFFFFF" d="M4.529,10.017l6.484-1.263L6.187,6.488l0.739-1.577l7.402,3.475l-0.76,1.62l-6.26,1.247l4.649,2.183
			l-0.739,1.575l-7.402-3.474L4.529,10.017z"/>
		<path fill="#FFFFFF" d="M3.691,15.366l1.084,1.262c-0.725,0.41-1.442,1.151-1.719,2.244c-0.238,0.939,0.066,1.483,0.529,1.601
			c1.379,0.35,1.572-4.456,4.553-3.701c1.319,0.334,2.123,1.752,1.65,3.617c-0.318,1.258-0.963,2.208-1.887,2.809l-1.021-1.258
			c0.756-0.491,1.246-1.277,1.451-2.084c0.18-0.714-0.025-1.196-0.502-1.316c-1.246-0.316-1.557,4.448-4.514,3.697
			c-1.449-0.367-2.277-1.688-1.739-3.815C1.965,16.889,2.754,15.925,3.691,15.366z"/>
		<path fill="#FFFFFF" d="M0.23,27.033l6.625,0.54l0.194-2.384l1.528,0.125l-0.529,6.503L6.52,31.692l0.193-2.371l-6.625-0.54
			L0.23,27.033z"/>
		<path fill="#FFFFFF" d="M0,34.671l8.164-0.421l0.092,1.739l-8.166,0.42L0,34.671z"/>
		<path fill="#FFFFFF" d="M0.799,42.286l6.531-1.238l-0.443-2.349l1.506-0.286l1.214,6.411L8.1,45.11l-0.441-2.338l-6.533,1.236
			L0.799,42.286z"/>
		<path fill="#FFFFFF" d="M5.631,48.81l4.559-1.798l0.648,1.641l-4.515,1.78c-1.06,0.42-1.546,1.322-1.083,2.497
			c0.463,1.174,1.43,1.49,2.49,1.071l4.516-1.781l0.65,1.653l-4.559,1.799c-1.881,0.742-3.621,0.139-4.535-2.176
			C2.891,51.183,3.748,49.552,5.631,48.81z"/>
		<path fill="#FFFFFF" d="M8.332,62.254l5.617-3.554L12.67,56.68l1.295-0.82l3.488,5.514l-1.295,0.82l-1.271-2.012L9.27,63.736
			L8.332,62.254z"/>
		<path fill="#FFFFFF" d="M12.741,68.491l6.271-5.253l1.117,1.335l-6.27,5.253L12.741,68.491z"/>
		<path fill="#FFFFFF" d="M18.971,69.609c1.623-1.853,4.143-1.994,6.005-0.362c1.853,1.623,2.046,4.139,0.423,5.991
			c-1.623,1.854-4.143,1.994-5.996,0.371C17.541,73.977,17.348,71.463,18.971,69.609z M24.051,74.06
			c1.01-1.153,1.041-2.657-0.093-3.65c-1.144-1.002-2.632-0.773-3.64,0.379c-1.002,1.145-1.041,2.658,0.103,3.659
			C21.555,75.44,23.051,75.202,24.051,74.06z"/>
		<path fill="#FFFFFF" d="M30.979,83.341l-0.801-6.558l-2.602,4.656l-1.521-0.85l3.99-7.138l1.562,0.873l0.801,6.331l2.506-4.483
			l1.521,0.85l-3.989,7.139L30.979,83.341z"/>
		<path fill="#FFFFFF" d="M41.836,87.581l-0.068-1.477l-3.34-1.065l-0.913,1.162l-1.88-0.6l5.488-6.832l2.078,0.662l0.516,8.749
			L41.836,87.581z M41.633,80.76l-2.285,2.964l2.43,0.774L41.633,80.76z"/>
		<path fill="#FFFFFF" d="M46.963,88.743l1.1-8.101l1.736,0.236l-0.893,6.581l3.425,0.466l-0.206,1.518L46.963,88.743z"/>
	</g>
</g>
</svg>
