<?xml version="1.0" encoding="utf-8"?>
<!-- Generator: Adobe Illustrator 16.0.0, SVG Export Plug-In . SVG Version: 6.00 Build 0)  -->
<!DOCTYPE svg PUBLIC "-//W3C//DTD SVG 1.1//EN" "http://www.w3.org/Graphics/SVG/1.1/DTD/svg11.dtd">
<svg version="1.1" id="Layer_1" xmlns="http://www.w3.org/2000/svg" xmlns:xlink="http://www.w3.org/1999/xlink" x="0px" y="0px"
	 width="40.888px" height="42.386px" viewBox="0 0 40.888 42.386" enable-background="new 0 0 40.888 42.386" xml:space="preserve">
<g>
	<g>
		<path fill="#FFFFFF" d="M2.88,42.386L0,34.732l3.018-1.136c2.398-0.902,4.637-0.003,5.5,2.292
			c0.873,2.318-0.222,4.459-2.608,5.357L2.88,42.386z M6.854,36.516c-0.506-1.343-1.725-2.076-3.285-1.489l-1.4,0.527l1.801,4.785
			l1.389-0.523C6.873,39.246,7.347,37.823,6.854,36.516z"/>
		<path fill="#FFFFFF" d="M13.257,37.908l-4.041-7.114l1.515-0.86l4.041,7.114L13.257,37.908z"/>
		<path fill="#FFFFFF" d="M15.465,31.961c-1.613-2.021-1.104-4.529,0.773-6.027c1.323-1.055,2.691-1.049,3.774-0.675l-0.632,1.508
			c-0.656-0.213-1.508-0.16-2.179,0.375c-1.169,0.933-1.302,2.496-0.339,3.703c0.964,1.208,2.518,1.426,3.687,0.493
			c0.565-0.45,0.895-1.12,0.962-1.566L20.9,29.005l-1.687,1.346l-0.948-1.188l3.047-2.431l1.957,2.453
			c-0.07,1.248-0.606,2.443-1.756,3.361C19.636,34.044,17.07,33.974,15.465,31.961z"/>
		<path fill="#FFFFFF" d="M26.821,27.432l-6.035-5.516l1.174-1.285l6.035,5.517L26.821,27.432z"/>
		<path fill="#FFFFFF" d="M31.705,21.481l-5.491-3.738l-1.346,1.976l-1.267-0.862l3.67-5.391l1.267,0.862l-1.339,1.966l5.492,3.738
			L31.705,21.481z"/>
		<path fill="#FFFFFF" d="M37.835,10.428l-1.474-0.11l-1.462,3.187l1.044,1.045l-0.823,1.794l-6.116-6.272l0.91-1.982l8.743,0.546
			L37.835,10.428z M31.041,9.805l2.665,2.626l1.063-2.317L31.041,9.805z"/>
		<path fill="#FFFFFF" d="M39.61,5.428l-7.929-2.005l0.43-1.7l6.442,1.629L39.401,0l1.486,0.376L39.61,5.428z"/>
	</g>
</g>
</svg>
