<?xml version="1.0" encoding="utf-8"?>
<!-- Generator: Adobe Illustrator 19.1.0, SVG Export Plug-In . SVG Version: 6.00 Build 0)  -->
<svg version="1.1" xmlns="http://www.w3.org/2000/svg" xmlns:xlink="http://www.w3.org/1999/xlink" x="0px" y="0px"
	 viewBox="0 0 344.7 377.5" style="enable-background:new 0 0 344.7 377.5;" xml:space="preserve">
<style type="text/css">
	.st0{fill:#F89820;}
	.st1{fill:#DFDB44;}
	.st2{fill:#4BBEA1;}
	.st3{fill:#FFFFFF;}
</style>
<g id="main">
</g>
<g id="type">
	<g>
		<g>
			<path class="st0" d="M278.3,194.3c-36.6,0-66.3-29.7-66.3-66.3c0-36.6,29.7-66.3,66.3-66.3s66.3,29.7,66.3,66.3
				C344.7,164.6,314.9,194.3,278.3,194.3z M278.3,89.7c-21.1,0-38.3,17.2-38.3,38.3c0,21.1,17.2,38.3,38.3,38.3s38.3-17.2,38.3-38.3
				C316.7,106.9,299.5,89.7,278.3,89.7z"/>
		</g>
		<g>
			<path class="st1" d="M278.3,317.2c-36.6,0-66.3-29.7-66.3-66.3c0-36.6,29.7-66.3,66.3-66.3s66.3,29.7,66.3,66.3
				C344.7,287.5,314.9,317.2,278.3,317.2z M278.3,212.6c-21.1,0-38.3,17.2-38.3,38.3c0,21.1,17.2,38.3,38.3,38.3
				s38.3-17.2,38.3-38.3C316.7,229.8,299.5,212.6,278.3,212.6z"/>
		</g>
		<g>
			<path class="st1" d="M66.3,194.3C29.7,194.3,0,164.6,0,128c0-36.6,29.7-66.3,66.3-66.3s66.3,29.7,66.3,66.3
				C132.6,164.6,102.9,194.3,66.3,194.3z M66.3,89.7C45.2,89.7,28,106.9,28,128c0,21.1,17.2,38.3,38.3,38.3
				c21.1,0,38.3-17.2,38.3-38.3C104.6,106.9,87.4,89.7,66.3,89.7z"/>
		</g>
		<g>
			<path class="st2" d="M172.3,132.6c-36.6,0-66.3-29.7-66.3-66.3C106,29.7,135.8,0,172.3,0c36.6,0,66.3,29.7,66.3,66.3
				C238.6,102.9,208.9,132.6,172.3,132.6z M172.3,28C151.2,28,134,45.2,134,66.3c0,21.1,17.2,38.3,38.3,38.3
				c21.1,0,38.3-17.2,38.3-38.3C210.6,45.2,193.5,28,172.3,28z"/>
		</g>
		<g>
			<path class="st2" d="M172.3,377.5c-36.6,0-66.3-29.7-66.3-66.3s29.7-66.3,66.3-66.3c36.6,0,66.3,29.7,66.3,66.3
				S208.9,377.5,172.3,377.5z M172.3,272.9c-21.1,0-38.3,17.2-38.3,38.3s17.2,38.3,38.3,38.3c21.1,0,38.3-17.2,38.3-38.3
				S193.5,272.9,172.3,272.9z"/>
		</g>
		<g>
			<path class="st0" d="M66.3,317.2C29.7,317.2,0,287.5,0,250.9c0-36.6,29.7-66.3,66.3-66.3s66.3,29.7,66.3,66.3
				C132.6,287.5,102.9,317.2,66.3,317.2z M66.3,212.6c-21.1,0-38.3,17.2-38.3,38.3c0,21.1,17.2,38.3,38.3,38.3
				c21.1,0,38.3-17.2,38.3-38.3C104.6,229.8,87.4,212.6,66.3,212.6z"/>
		</g>
		<g>
			<path d="M148.4,160.8l-0.3-1.1h-3.3l-0.3,1.1h-3.1l3.4-9.2h3.5l3.4,9.2H148.4z M146.4,154.3l-0.9,3h1.8L146.4,154.3z"/>
			<path d="M153.1,160.8v-9.2h2.8v6.8h3.5v2.4H153.1z"/>
			<path d="M161.6,160.8v-9.2h2.8v6.8h3.5v2.4H161.6z"/>
			<path d="M176.7,160.8V154h-2.5v-2.4h7.7v2.4h-2.4v6.8H176.7z"/>
			<path d="M190,160.8v-3.5h-3.3v3.5H184v-9.2h2.8v3.2h3.3v-3.2h2.8v9.2H190z"/>
			<path d="M195.4,160.8v-9.2h7v2.4h-4.2v0.9h4.1v2.4h-4.1v1h4.2v2.4H195.4z"/>
			<path d="M133.1,172.5c0-2.8,2.2-4.7,5-4.7c2.4,0,3.6,1.4,4.2,2.7l-2.4,1.1c-0.2-0.7-0.9-1.3-1.8-1.3c-1.3,0-2.2,1-2.2,2.3
				c0,1.3,0.9,2.3,2.2,2.3c0.8,0,1.5-0.6,1.8-1.3l2.4,1.1c-0.5,1.2-1.8,2.7-4.2,2.7C135.2,177.2,133.1,175.3,133.1,172.5z"/>
			<path d="M149.3,177l-1.3-2.9h-1v2.9h-2.8v-9.2h4.9c2.1,0,3.3,1.4,3.3,3.1c0,1.6-0.9,2.4-1.6,2.8l1.7,3.2H149.3z M149.6,171
				c0-0.5-0.4-0.7-0.9-0.7H147v1.4h1.7C149.2,171.7,149.6,171.5,149.6,171z"/>
			<path d="M154.7,177v-9.2h7v2.4h-4.2v0.9h4.1v2.4h-4.1v1h4.2v2.4H154.7z"/>
			<path d="M170.1,177l-0.3-1.1h-3.3l-0.3,1.1H163l3.4-9.2h3.5l3.4,9.2H170.1z M168.1,170.6l-0.9,3h1.8L168.1,170.6z"/>
			<path d="M176,177v-6.8h-2.5v-2.4h7.7v2.4h-2.4v6.8H176z"/>
			<path d="M183.3,177v-9.2h2.8v9.2H183.3z"/>
			<path d="M191,177l-3.4-9.2h3.1l2,6.2l2-6.2h3.1l-3.4,9.2H191z"/>
			<path d="M199.5,177v-9.2h7v2.4h-4.2v0.9h4.1v2.4h-4.1v1h4.2v2.4H199.5z"/>
			<path d="M159,193.3l-1.2-5.2l-1.2,5.2h-2.9l-2.6-9.2h3.1l1.2,5.6l1.4-5.6h2.1l1.4,5.6l1.2-5.6h3.1l-2.6,9.2H159z"/>
			<path d="M171.8,193.3l-0.3-1.1h-3.3l-0.3,1.1h-3.1l3.4-9.2h3.5l3.4,9.2H171.8z M169.8,186.9l-0.9,3h1.8L169.8,186.9z"/>
			<path d="M178,193.3v-3.6l-3.4-5.5h3.1l1.7,3.1l1.7-3.1h3.1l-3.4,5.5v3.6H178z"/>
			<path d="M184.8,192l1.4-2.1c0.7,0.7,1.7,1.2,3,1.2c0.5,0,1-0.1,1-0.5c0-0.9-5.1,0-5.1-3.6c0-1.6,1.3-3,3.8-3
				c1.5,0,2.8,0.4,3.9,1.3l-1.5,2c-0.8-0.6-1.8-0.9-2.7-0.9c-0.5,0-0.7,0.2-0.7,0.4c0,0.9,5.1,0.1,5.1,3.5c0,2-1.5,3.2-4,3.2
				C187.1,193.5,185.8,192.9,184.8,192z"/>
			<path d="M142.7,209.6l-1.2-5.2l-1.2,5.2h-2.9l-2.6-9.2h3.1l1.2,5.6l1.4-5.6h2.1l1.4,5.6l1.2-5.6h3.1l-2.6,9.2H142.7z"/>
			<path d="M150,209.6v-9.2h7v2.4h-4.2v0.9h4.1v2.4h-4.1v1h4.2v2.4H150z"/>
			<path d="M163.9,209.6v-9.2h5.6c1.9,0,2.7,1.3,2.7,2.3c0,1.1-0.7,1.9-1.6,2.1c1,0.2,1.7,1.1,1.7,2.2c0,1.3-0.9,2.5-2.7,2.5H163.9z
				 M169.3,203.2c0-0.3-0.3-0.5-0.6-0.5h-2.1v1.1h2.1C169.1,203.8,169.3,203.6,169.3,203.2z M169.5,206.7c0-0.3-0.2-0.6-0.6-0.6
				h-2.2v1.2h2.2C169.3,207.3,169.5,207,169.5,206.7z"/>
			<path d="M174.5,205.8v-5.4h2.8v5.3c0,0.9,0.6,1.6,1.7,1.6c1.1,0,1.7-0.7,1.7-1.6v-5.3h2.8v5.4c0,2.3-1.4,3.9-4.5,3.9
				C176,209.7,174.5,208.1,174.5,205.8z"/>
			<path d="M186.2,209.6v-9.2h2.8v9.2H186.2z"/>
			<path d="M191.6,209.6v-9.2h2.8v6.8h3.5v2.4H191.6z"/>
			<path d="M200,209.6v-9.2h4.1c2.9,0,5,1.7,5,4.6c0,2.9-2.1,4.6-5,4.6H200z M206.3,205c0-1.2-0.7-2.2-2.2-2.2h-1.3v4.3h1.3
				C205.5,207.2,206.3,206.1,206.3,205z"/>
			<path d="M141.4,225.8v-9.2h5.6c1.9,0,2.7,1.3,2.7,2.3c0,1.1-0.7,1.9-1.6,2.1c1,0.2,1.7,1.1,1.7,2.2c0,1.3-0.9,2.5-2.7,2.5H141.4z
				 M146.9,219.5c0-0.3-0.3-0.5-0.6-0.5h-2.1v1.1h2.1C146.6,220.1,146.9,219.8,146.9,219.5z M147.1,223c0-0.3-0.2-0.6-0.6-0.6h-2.2
				v1.2h2.2C146.8,223.5,147.1,223.3,147.1,223z"/>
			<path d="M157.2,225.8l-1.3-2.9h-1v2.9h-2.8v-9.2h4.9c2.1,0,3.3,1.4,3.3,3.1c0,1.6-0.9,2.4-1.7,2.8l1.7,3.2H157.2z M157.5,219.8
				c0-0.5-0.4-0.7-0.9-0.7h-1.7v1.4h1.7C157,220.5,157.5,220.3,157.5,219.8z"/>
			<path d="M168.7,225.8l-0.3-1.1H165l-0.3,1.1h-3.1l3.4-9.2h3.5l3.4,9.2H168.7z M166.7,219.4l-0.9,3h1.8L166.7,219.4z"/>
			<path d="M179.6,225.8l-3.4-4.6v4.6h-2.8v-9.2h2.9l3.2,4.3v-4.3h2.8v9.2H179.6z"/>
			<path d="M184.8,225.8v-9.2h4.1c2.9,0,5,1.6,5,4.6s-2.1,4.6-5,4.6H184.8z M191.1,221.2c0-1.2-0.7-2.2-2.2-2.2h-1.3v4.3h1.3
				C190.3,223.4,191.1,222.4,191.1,221.2z"/>
			<path d="M195.3,224.5l1.4-2.1c0.7,0.7,1.7,1.2,3,1.2c0.5,0,1-0.1,1-0.5c0-0.9-5.1,0-5.1-3.6c0-1.6,1.3-3,3.8-3
				c1.5,0,2.8,0.4,3.9,1.3l-1.5,2c-0.8-0.6-1.8-0.9-2.7-0.9c-0.6,0-0.7,0.2-0.7,0.4c0,0.9,5.1,0.1,5.1,3.5c0,2-1.5,3.2-4,3.2
				C197.6,226,196.3,225.4,195.3,224.5z"/>
		</g>
		<g>
			<path d="M163.3,52.6l-2.1,0l-0.6,1.6l0.7,0l0,0.4l-1.9,0l0-0.4l0.6,0l2-5.1l0.6,0l1.9,5.1l0.7,0v0.4l-2.4,0l0-0.4l0.9,0
				L163.3,52.6z M161.4,52.2l1.8,0l-0.8-2.4h0L161.4,52.2z"/>
			<path d="M166.1,53.4l0-2.2l-0.6,0l0-0.4l1.3,0l0,2.4c0,0.4,0,0.6,0.2,0.8c0.1,0.1,0.3,0.2,0.5,0.2c0.6,0,1.1-0.6,1.1-1.2l0-1.7
				l-0.7,0l0-0.4l1.3,0l0,3.4l0.6,0l0,0.4l-1.3,0l0-1c-0.5,0.8-0.9,1-1.4,1C166.5,54.6,166.1,54.2,166.1,53.4z"/>
			<path d="M171,54.3c-0.4-0.4-0.5-0.9-0.5-1.6c0-0.6,0.2-1.3,0.6-1.6c0.3-0.3,0.6-0.4,1-0.4c0.5,0,1,0.3,1.2,0.7l0-2.2l-0.6,0
				l0-0.5l1.3,0l0,5.4l0.6,0l0,0.4l-1.2,0l0-0.8c-0.3,0.6-0.8,0.9-1.3,0.9C171.5,54.6,171.2,54.5,171,54.3z M173.2,52.6
				c0-0.9-0.4-1.5-1.1-1.5c-0.6,0-1,0.6-1,1.5c0,1,0.4,1.5,1,1.5C172.7,54.2,173.2,53.6,173.2,52.6z"/>
			<path d="M175,54.1l0.7,0l0-2.9l-0.7,0l0-0.4l1.4,0l0,3.4l0.7,0l0,0.4l-2.1,0L175,54.1z M175.5,49.4c0-0.3,0.2-0.5,0.5-0.5
				c0.3,0,0.5,0.2,0.5,0.5c0,0.3-0.2,0.5-0.5,0.5C175.7,49.9,175.5,49.7,175.5,49.4z"/>
			<path d="M178.8,49.7l0,1.1l1.2,0l0,0.4l-1.2,0l0,2.4c0,0.4,0.1,0.6,0.5,0.6c0.3,0,0.5-0.2,0.6-0.7l0.3,0.1c-0.2,0.7-0.6,1-1.1,1
				c-0.6,0-1-0.4-1-1l0-2.4l-0.8,0l0-0.4l0.8,0l0-1L178.8,49.7z"/>
			<path d="M180.8,53.2l0.4,0c0.2,0.7,0.7,1.1,1.3,1.1c0.5,0,0.7-0.2,0.7-0.6c0-0.4-0.3-0.6-1-0.8c-0.9-0.3-1.3-0.6-1.3-1.2
				s0.5-1.1,1.3-1.1c0.4,0,0.8,0.2,1,0.5l0.1-0.5l0.4,0l0,1.3l-0.4,0c-0.3-0.6-0.5-1-1.1-1c-0.4,0-0.7,0.2-0.7,0.6
				c0,0.4,0.3,0.6,1,0.8c0.9,0.3,1.3,0.5,1.3,1.2c0,0.6-0.5,1.2-1.3,1.2c-0.5,0-0.9-0.2-1.2-0.5l-0.1,0.5l-0.4,0L180.8,53.2z"/>
			<path d="M156.8,64.9l0.4,0c0.5,1.1,1.1,1.5,1.9,1.6c0.7,0,1.1-0.4,1.1-1c0-0.7-0.6-0.9-1.5-1.2c-0.9-0.2-1.8-0.5-1.8-1.6
				c0-0.9,0.7-1.6,1.7-1.6c0.6,0,1.1,0.2,1.4,0.6l0.2-0.6l0.4,0l0,1.8l-0.4,0c-0.4-1.1-1-1.5-1.7-1.5c-0.6,0-1,0.3-1,1
				c0,0.8,0.7,1,1.5,1.2c1,0.2,1.8,0.5,1.8,1.6c0,1-0.8,1.7-1.8,1.7c-0.7,0-1.2-0.3-1.6-0.7l-0.2,0.7l-0.4,0L156.8,64.9z"/>
			<path d="M162.8,61.8l0,1.1l1.2,0l0,0.4l-1.2,0l0,2.4c0,0.4,0.1,0.6,0.5,0.6c0.3,0,0.5-0.2,0.6-0.7l0.3,0.1c-0.2,0.7-0.6,1-1.1,1
				c-0.6,0-1-0.4-1-1l0-2.4l-0.8,0l0-0.4l0.8,0l0-1L162.8,61.8z"/>
			<path d="M164.6,66.3l0.6,0l0-2.9l-0.6,0l0-0.4l1.3,0l0,0.9c0.2-0.6,0.7-1,1.2-0.9c0.4,0,0.6,0.3,0.6,0.6c0,0.3-0.2,0.5-0.5,0.5
				c-0.3,0-0.5-0.2-0.5-0.4c0-0.1,0-0.1,0-0.2c-0.4,0-0.8,0.5-0.9,0.9l0,2.1l0.7,0l0,0.4l-2,0L164.6,66.3z"/>
			<path d="M168.2,65.8c0-0.2,0.1-0.5,0.3-0.7c0.3-0.3,0.7-0.4,1.5-0.5c0.5-0.1,0.6-0.1,0.6-0.2l0-0.4c0-0.6-0.3-0.8-0.8-0.8
				c-0.3,0-0.6,0.1-0.7,0.2c0.1,0.1,0.2,0.2,0.2,0.4c0,0.2-0.2,0.4-0.4,0.4c-0.3,0-0.4-0.2-0.4-0.5c0-0.6,0.7-0.9,1.5-0.9
				c0.9,0,1.3,0.4,1.3,1.1l0,2c0,0.3,0.1,0.3,0.3,0.3c0.1,0,0.2-0.1,0.3-0.3l0.3,0.1c-0.2,0.4-0.4,0.6-0.8,0.6
				c-0.3,0-0.6-0.2-0.6-0.7l0,0c-0.3,0.4-0.8,0.7-1.3,0.7C168.6,66.8,168.2,66.4,168.2,65.8z M170.5,65.6l0-0.8
				c-0.1,0-0.2,0.1-0.4,0.1c-0.9,0.1-1.2,0.3-1.2,0.8c0,0.4,0.2,0.7,0.7,0.7C170,66.4,170.5,66,170.5,65.6z"/>
			<path d="M173.4,61.9l0,1.1l1.2,0l0,0.4l-1.2,0l0,2.4c0,0.4,0.1,0.6,0.5,0.6c0.3,0,0.5-0.2,0.6-0.7l0.3,0.1c-0.2,0.7-0.6,1-1.1,1
				c-0.6,0-1-0.4-1-1l0-2.4l-0.8,0l0-0.4l0.8,0l0-1L173.4,61.9z"/>
			<path d="M176,64.9c0,1,0.5,1.5,1.2,1.5c0.5,0,0.9-0.2,1.1-0.7l0.4,0c-0.2,0.8-0.8,1.2-1.6,1.2c-1.1,0-1.8-0.8-1.8-1.9
				c0-1.2,0.8-2,1.8-2c1.1,0,1.6,1,1.6,2L176,64.9z M176,64.5l2,0c-0.1-0.8-0.4-1.3-0.9-1.3C176.5,63.2,176.1,63.7,176,64.5z"/>
			<path d="M181,65.4c-0.2,0-0.4,0-0.5,0c-0.3,0-0.5,0.2-0.5,0.3c0,0.2,0.2,0.3,0.7,0.3l1,0c0.8,0,1.1,0.3,1.1,0.9
				c0,0.7-0.7,1.2-1.9,1.2c-1,0-1.6-0.4-1.6-0.9c0-0.4,0.3-0.7,0.8-0.8v0c-0.5-0.1-0.6-0.3-0.6-0.6c0-0.3,0.3-0.6,0.7-0.7
				c-0.4-0.2-0.7-0.5-0.7-1c0-0.8,0.7-1.3,1.5-1.3c0.2,0,0.4,0,0.6,0.1c0.3-0.5,0.6-0.8,1-0.8c0.3,0,0.5,0.2,0.5,0.4
				c0,0.2-0.2,0.4-0.4,0.4c-0.2,0-0.3-0.1-0.3-0.3c0,0,0-0.1,0-0.1c-0.2,0-0.4,0.2-0.5,0.5c0.3,0.2,0.6,0.6,0.6,1
				C182.5,64.9,181.9,65.4,181,65.4z M182.3,67.1c0-0.3-0.2-0.5-0.6-0.5l-1,0c-0.5,0-0.8,0.2-0.8,0.6c0,0.3,0.3,0.6,1.1,0.6
				C181.8,67.8,182.3,67.5,182.3,67.1z M181.8,64.1c0-0.5-0.3-0.9-0.8-0.9c-0.5,0-0.8,0.3-0.8,0.9c0,0.6,0.3,0.9,0.8,0.9
				C181.6,65.1,181.8,64.7,181.8,64.1z"/>
			<path d="M184.1,67.5c0,0.1,0,0.2-0.1,0.3c0.3,0,0.6-0.2,0.9-1l-1.3-3.4l-0.5,0l0-0.4l1.9,0l0,0.4l-0.7,0l1,2.6l1-2.6l-0.6,0
				l0-0.4l1.5,0l0,0.4l-0.5,0l-1.3,3.2c-0.5,1.2-1,1.5-1.6,1.5c-0.5,0-0.7-0.3-0.7-0.6c0-0.3,0.2-0.5,0.5-0.5
				C184,67.1,184.1,67.3,184.1,67.5z"/>
			<path d="M157.2,78.5l0.9,0l0-4.7l-0.9,0l0-0.4l2.6,0l0,0.4l-0.9,0l0,4.7l0.9,0l0,0.4l-2.6,0L157.2,78.5z"/>
			<path d="M161.1,78.6c-0.4-0.4-0.6-0.9-0.5-1.6c0-0.6,0.2-1.3,0.6-1.6c0.3-0.3,0.6-0.4,1-0.4c0.5,0,1,0.3,1.2,0.7l0-2.2l-0.6,0
				v-0.5l1.3,0l0,5.4l0.6,0l0,0.4l-1.2,0l0-0.8c-0.3,0.6-0.8,0.9-1.3,0.9C161.6,79,161.3,78.9,161.1,78.6z M163.3,77
				c0-0.9-0.4-1.5-1.1-1.5c-0.6,0-1,0.6-1,1.5c0,1,0.4,1.5,1,1.5C162.8,78.6,163.3,77.9,163.3,77z"/>
			<path d="M165.9,77.1c0,1,0.5,1.5,1.2,1.5c0.5,0,0.9-0.2,1.1-0.7l0.4,0c-0.2,0.8-0.8,1.2-1.6,1.2c-1.1,0-1.8-0.8-1.8-1.9
				c0-1.2,0.8-2,1.8-2c1.1,0,1.6,1,1.6,2L165.9,77.1z M165.9,76.7l2,0c-0.1-0.8-0.4-1.3-0.9-1.3C166.4,75.4,166,75.8,165.9,76.7z"/>
			<path d="M169.2,78.5l0.6,0l0-2.9l-0.6,0l0-0.4l1.3,0l0,1c0.5-0.8,1-1,1.4-1c0.6,0,1,0.4,1,1.2l0,2.2l0.6,0l0,0.4l-1.9,0l0-0.4
				l0.6,0l0-1.9c0-0.4-0.1-0.6-0.2-0.8c-0.1-0.1-0.3-0.2-0.5-0.2c-0.6,0-1.1,0.6-1.1,1.2l0,1.7l0.6,0l0,0.4l-1.9,0L169.2,78.5z"/>
			<path d="M175.3,74.1l0,1.1l1.2,0l0,0.4l-1.2,0l0,2.4c0,0.4,0.1,0.6,0.5,0.6c0.3,0,0.5-0.2,0.6-0.7l0.3,0.1c-0.2,0.7-0.6,1-1.1,1
				c-0.6,0-1-0.4-1-1l0-2.4l-0.8,0l0-0.4l0.8,0l0-1L175.3,74.1z"/>
			<path d="M177.2,78.5l0.7,0l0-2.9l-0.7,0l0-0.4l1.4,0l0,3.4l0.7,0l0,0.4l-2.1,0L177.2,78.5z M177.7,73.8c0-0.3,0.2-0.5,0.5-0.5
				c0.3,0,0.5,0.2,0.5,0.5c0,0.3-0.2,0.5-0.5,0.5C177.9,74.3,177.7,74.1,177.7,73.8z"/>
			<path d="M181,74.1l0,1.1l1.2,0l0,0.4l-1.2,0l0,2.4c0,0.4,0.1,0.6,0.5,0.6c0.3,0,0.5-0.2,0.6-0.7l0.3,0.1c-0.2,0.7-0.6,1-1.1,1
				c-0.6,0-1-0.4-1-1l0-2.4l-0.8,0l0-0.4l0.8,0l0-1L181,74.1z"/>
			<path d="M183.6,79.7c0,0.1,0,0.2-0.1,0.3c0.3,0,0.6-0.2,0.9-1l-1.3-3.4l-0.5,0l0-0.4l1.9,0l0,0.4l-0.7,0l1,2.6l1-2.6l-0.6,0
				l0-0.4l1.5,0l0,0.4l-0.5,0l-1.3,3.2c-0.5,1.2-1,1.5-1.5,1.5c-0.5,0-0.7-0.3-0.7-0.6c0-0.3,0.2-0.5,0.5-0.5
				C183.4,79.3,183.6,79.5,183.6,79.7z"/>
		</g>
		<g>
			<path d="M260.5,118.4h-2.1l-0.6,1.6h0.7v0.4h-1.9V120h0.6l2-5.1h0.6l1.9,5.1h0.7v0.4h-2.4V120h0.9L260.5,118.4z M258.6,118h1.8
				l-0.8-2.4h0L258.6,118z"/>
			<path d="M263.4,120.1c-0.4-0.4-0.6-0.9-0.6-1.6c0-0.6,0.2-1.3,0.6-1.6c0.3-0.3,0.6-0.4,1-0.4c0.5,0,1,0.3,1.2,0.7v-2.2H265v-0.5
				h1.3v5.4h0.6v0.4h-1.2v-0.8c-0.3,0.6-0.8,0.9-1.3,0.9C264,120.5,263.6,120.4,263.4,120.1z M265.6,118.5c0-0.9-0.4-1.5-1.1-1.5
				c-0.6,0-1,0.6-1,1.5c0,1,0.4,1.5,1,1.5C265.1,120.1,265.6,119.4,265.6,118.5z"/>
			<path d="M267.7,117.1h-0.5v-0.4h1.9v0.4h-0.7l1,2.7h0l1-2.7h-0.6v-0.4h1.5v0.4h-0.5l-1.4,3.4H269L267.7,117.1z"/>
			<path d="M272.4,118.6c0,1,0.5,1.5,1.2,1.5c0.5,0,0.9-0.2,1.1-0.7h0.4c-0.2,0.8-0.8,1.2-1.6,1.2c-1.1,0-1.8-0.8-1.8-1.9
				c0-1.2,0.8-2,1.8-2c1.1,0,1.6,1,1.6,2H272.4z M272.4,118.2h2c-0.1-0.8-0.4-1.3-0.9-1.3C272.9,116.9,272.5,117.3,272.4,118.2z"/>
			<path d="M275.7,120h0.6v-2.9h-0.6v-0.4h1.3v0.9c0.2-0.6,0.7-1,1.2-1c0.4,0,0.6,0.3,0.6,0.6c0,0.3-0.2,0.5-0.5,0.5
				c-0.3,0-0.5-0.2-0.5-0.4c0-0.1,0-0.1,0-0.2c-0.4,0-0.8,0.5-0.9,0.9v2.1h0.7v0.4h-2V120z"/>
			<path d="M280.5,115.5v1.1h1.2v0.4h-1.2v2.4c0,0.4,0.1,0.6,0.5,0.6c0.3,0,0.5-0.2,0.6-0.7l0.3,0.1c-0.2,0.7-0.6,1-1.1,1
				c-0.6,0-1-0.4-1-1v-2.4H279v-0.4h0.8v-1L280.5,115.5z"/>
			<path d="M282.3,120h0.7v-2.9h-0.7v-0.4h1.4v3.4h0.7v0.4h-2.1V120z M282.9,115.3c0-0.3,0.2-0.5,0.5-0.5c0.3,0,0.5,0.2,0.5,0.5
				c0,0.3-0.2,0.5-0.5,0.5C283.1,115.7,282.9,115.6,282.9,115.3z"/>
			<path d="M285.1,119.1h0.4c0.2,0.7,0.7,1.1,1.3,1.1c0.5,0,0.7-0.2,0.7-0.6c0-0.4-0.3-0.6-1-0.8c-0.9-0.3-1.3-0.6-1.3-1.2
				s0.5-1.1,1.3-1.1c0.4,0,0.8,0.2,1,0.5l0.1-0.5h0.4v1.3h-0.4c-0.3-0.6-0.5-1-1.1-1c-0.4,0-0.7,0.2-0.7,0.6c0,0.4,0.3,0.6,1,0.7
				c0.9,0.3,1.3,0.5,1.3,1.2c0,0.6-0.5,1.2-1.3,1.2c-0.5,0-0.9-0.2-1.2-0.5l-0.1,0.5h-0.4V119.1z"/>
			<path d="M288.7,120h0.7v-2.9h-0.7v-0.4h1.4v3.4h0.7v0.4h-2.1V120z M289.3,115.3c0-0.3,0.2-0.5,0.5-0.5c0.3,0,0.5,0.2,0.5,0.5
				c0,0.3-0.2,0.5-0.5,0.5C289.5,115.7,289.3,115.6,289.3,115.3z"/>
			<path d="M291.4,120h0.6v-2.9h-0.6v-0.4h1.3v1c0.5-0.8,1-1,1.4-1c0.6,0,1,0.4,1,1.2v2.2h0.6v0.4h-1.9V120h0.6v-1.9
				c0-0.4-0.1-0.6-0.2-0.8c-0.1-0.1-0.3-0.2-0.5-0.2c-0.6,0-1.1,0.6-1.1,1.2v1.7h0.6v0.4h-1.9V120z"/>
			<path d="M297.9,119c-0.2,0-0.4,0-0.5,0c-0.3,0-0.5,0.2-0.5,0.3c0,0.2,0.2,0.3,0.7,0.3h1c0.8,0,1.1,0.3,1.1,0.9
				c0,0.7-0.7,1.2-1.9,1.2c-1,0-1.6-0.4-1.6-0.9c0-0.4,0.3-0.7,0.8-0.8v0c-0.5-0.1-0.6-0.3-0.6-0.6c0-0.3,0.3-0.6,0.7-0.7
				c-0.4-0.2-0.7-0.5-0.7-1c0-0.8,0.7-1.3,1.5-1.3c0.2,0,0.4,0,0.6,0.1c0.3-0.5,0.6-0.8,1-0.8c0.3,0,0.5,0.2,0.5,0.4
				c0,0.2-0.2,0.4-0.4,0.4c-0.2,0-0.3-0.1-0.3-0.3c0,0,0-0.1,0-0.1c-0.2,0-0.4,0.2-0.5,0.5c0.3,0.2,0.6,0.6,0.6,1
				C299.4,118.6,298.8,119,297.9,119z M299.2,120.7c0-0.3-0.2-0.5-0.6-0.5h-1c-0.5,0-0.8,0.2-0.8,0.6c0,0.3,0.3,0.6,1.1,0.6
				C298.7,121.4,299.2,121.1,299.2,120.7z M298.7,117.8c0-0.5-0.3-0.9-0.8-0.9c-0.5,0-0.8,0.3-0.8,0.9c0,0.6,0.3,0.9,0.8,0.9
				C298.4,118.7,298.7,118.4,298.7,117.8z"/>
			<path d="M258.1,130.8h0.4c0.5,1.1,1.1,1.5,1.9,1.5c0.7,0,1.1-0.4,1.1-1c0-0.7-0.6-0.9-1.5-1.2c-0.9-0.2-1.8-0.5-1.8-1.6
				c0-0.9,0.7-1.6,1.7-1.6c0.6,0,1.1,0.2,1.4,0.6l0.2-0.6h0.4v1.8h-0.4c-0.4-1.1-1-1.5-1.7-1.5c-0.6,0-1,0.3-1,1
				c0,0.8,0.7,1,1.5,1.2c1,0.2,1.8,0.5,1.8,1.6c0,1-0.7,1.7-1.8,1.7c-0.7,0-1.2-0.3-1.6-0.7l-0.2,0.7h-0.4V130.8z"/>
			<path d="M263,131.7c0-0.2,0.1-0.5,0.3-0.7c0.3-0.3,0.7-0.4,1.5-0.5c0.5-0.1,0.6-0.1,0.6-0.2v-0.4c0-0.6-0.3-0.8-0.8-0.8
				c-0.3,0-0.6,0.1-0.7,0.2c0.1,0.1,0.2,0.2,0.2,0.4c0,0.2-0.2,0.4-0.4,0.4c-0.3,0-0.5-0.2-0.5-0.5c0-0.6,0.7-0.9,1.5-0.9
				c0.9,0,1.3,0.4,1.3,1.1v2c0,0.3,0.1,0.3,0.3,0.3c0.1,0,0.2-0.1,0.3-0.3l0.3,0.1c-0.2,0.4-0.4,0.6-0.8,0.6c-0.3,0-0.6-0.2-0.6-0.7
				h0c-0.3,0.4-0.8,0.7-1.3,0.7C263.4,132.7,263,132.3,263,131.7z M265.3,131.4v-0.8c-0.1,0-0.2,0.1-0.4,0.1
				c-0.9,0.1-1.2,0.3-1.2,0.8c0,0.4,0.2,0.7,0.7,0.7C264.8,132.2,265.3,131.9,265.3,131.4z"/>
			<path d="M266.9,132.2h0.7v-4.9h-0.7v-0.5h1.4v5.4h0.7v0.4h-2.1V132.2z"/>
			<path d="M270.3,130.7c0,1,0.5,1.5,1.2,1.5c0.5,0,0.9-0.2,1.1-0.7h0.4c-0.2,0.8-0.8,1.2-1.6,1.2c-1.1,0-1.8-0.8-1.8-1.9
				c0-1.2,0.8-2,1.8-2c1.1,0,1.6,1,1.6,2H270.3z M270.3,130.4h2c-0.1-0.8-0.4-1.3-0.9-1.3C270.8,129.1,270.4,129.5,270.3,130.4z"/>
			<path d="M273.8,131.3h0.4c0.2,0.7,0.7,1.1,1.3,1.1c0.5,0,0.7-0.2,0.7-0.6c0-0.4-0.3-0.6-1-0.8c-0.9-0.3-1.3-0.6-1.3-1.2
				s0.5-1.1,1.3-1.1c0.4,0,0.8,0.2,1,0.5l0.1-0.5h0.4v1.3h-0.4c-0.3-0.6-0.5-1-1.1-1c-0.4,0-0.7,0.2-0.7,0.6c0,0.4,0.3,0.6,1,0.7
				c0.9,0.3,1.3,0.5,1.3,1.2c0,0.6-0.5,1.2-1.3,1.2c-0.5,0-0.9-0.2-1.2-0.5l-0.1,0.5h-0.4V131.3z"/>
			<path d="M280.3,132.2h1v-4.7h-0.8c-0.6,0-0.7,0.2-1,1.5h-0.3v-1.9h4.9v1.9h-0.3c-0.3-1.3-0.4-1.5-1-1.5H282v4.7h1v0.4h-2.7V132.2
				z"/>
			<path d="M284.4,130.7c0-1.2,0.8-2,1.8-2c1.1,0,1.8,0.8,1.8,2c0,1.2-0.8,2-1.8,2C285.2,132.7,284.4,131.9,284.4,130.7z
				 M287.4,130.7c0-1.1-0.5-1.6-1.2-1.6c-0.6,0-1.1,0.5-1.1,1.6s0.5,1.6,1.2,1.6C286.9,132.3,287.4,131.8,287.4,130.7z"/>
			<path d="M288.8,130.7c0-1.2,0.8-2,1.8-2c1.1,0,1.8,0.8,1.8,2c0,1.2-0.8,2-1.8,2C289.6,132.7,288.8,131.9,288.8,130.7z
				 M291.8,130.7c0-1.1-0.5-1.6-1.2-1.6c-0.6,0-1.1,0.5-1.1,1.6s0.5,1.6,1.2,1.6C291.4,132.3,291.8,131.8,291.8,130.7z"/>
			<path d="M293.1,132.2h0.7v-4.9h-0.7v-0.5h1.4v5.4h0.7v0.4h-2.1V132.2z"/>
			<path d="M295.8,131.3h0.4c0.2,0.7,0.7,1.1,1.3,1.1c0.5,0,0.7-0.2,0.7-0.6c0-0.4-0.3-0.6-1-0.8c-0.9-0.3-1.3-0.6-1.3-1.2
				s0.5-1.1,1.3-1.1c0.4,0,0.8,0.2,1,0.5l0.1-0.5h0.4v1.3h-0.4c-0.3-0.6-0.5-1-1.1-1c-0.4,0-0.7,0.2-0.7,0.6c0,0.4,0.3,0.6,1,0.7
				c0.9,0.3,1.3,0.5,1.3,1.2c0,0.6-0.5,1.2-1.3,1.2c-0.5,0-0.9-0.2-1.2-0.5l-0.1,0.5h-0.4V131.3z"/>
			<path d="M265.9,144.4h0.9v-4.7h-0.9v-0.4h4.7v1.7h-0.3c-0.2-1.1-0.3-1.3-0.8-1.3h-1.9v2.1h0.8c0.5,0,0.6-0.1,0.7-0.9h0.3v2.1
				h-0.3c-0.1-0.8-0.2-0.9-0.7-0.9h-0.8v2.2h1.9c0.6,0,0.7-0.2,0.9-1.5h0.3v1.9h-4.8V144.4z"/>
			<path d="M271.7,141.4h-0.5V141h1.9v0.4h-0.7l1,2.7h0l1-2.7h-0.6V141h1.5v0.4h-0.5l-1.4,3.4H273L271.7,141.4z"/>
			<path d="M276.4,142.9c0,1,0.5,1.5,1.2,1.5c0.5,0,0.9-0.2,1.1-0.7h0.4c-0.2,0.8-0.8,1.2-1.6,1.2c-1.1,0-1.8-0.8-1.8-1.9
				c0-1.2,0.8-2,1.8-2c1.1,0,1.6,1,1.6,2H276.4z M276.4,142.6h2c-0.1-0.8-0.4-1.3-0.9-1.3C276.9,141.3,276.5,141.7,276.4,142.6z"/>
			<path d="M279.8,144.4h0.6v-2.9h-0.6V141h1.3v1c0.5-0.8,1-1,1.4-1c0.6,0,1,0.4,1,1.2v2.2h0.6v0.4h-1.9v-0.4h0.6v-1.9
				c0-0.4-0.1-0.6-0.2-0.8c-0.1-0.1-0.3-0.2-0.5-0.2c-0.6,0-1.1,0.6-1.1,1.2v1.7h0.6v0.4h-1.9V144.4z"/>
			<path d="M285.9,139.9v1.1h1.2v0.4h-1.2v2.4c0,0.4,0.1,0.6,0.5,0.6c0.3,0,0.5-0.2,0.6-0.7l0.3,0.1c-0.2,0.7-0.6,1-1.1,1
				c-0.6,0-1-0.4-1-1v-2.4h-0.8V141h0.8v-1L285.9,139.9z"/>
			<path d="M287.8,143.4h0.4c0.2,0.7,0.7,1.1,1.3,1.1c0.5,0,0.7-0.2,0.7-0.6c0-0.4-0.3-0.6-1-0.8c-0.9-0.3-1.3-0.6-1.3-1.2
				s0.5-1.1,1.3-1.1c0.4,0,0.8,0.2,1,0.5l0.1-0.5h0.4v1.3h-0.4c-0.3-0.6-0.5-1-1.1-1c-0.4,0-0.7,0.2-0.7,0.6c0,0.4,0.3,0.6,1,0.7
				c0.9,0.3,1.3,0.5,1.3,1.2c0,0.6-0.5,1.2-1.3,1.2c-0.5,0-0.9-0.2-1.2-0.5l-0.1,0.5h-0.4V143.4z"/>
		</g>
		<g>
			<path d="M266,235.2l1.2,4.2h0l1.4-4.2h-0.7v-0.4h1.9v0.4h-0.6l-1.7,5.1h-0.6l-1.2-3.9l-1.4,3.9h-0.6l-1.6-5.1h-0.7v-0.4h2.4v0.4
				h-0.9l1.3,4.2h0l1.2-3.7l-0.1-0.5h-0.7v-0.4h2.4v0.4H266z"/>
			<path d="M270.5,238.4c0,1,0.5,1.5,1.2,1.5c0.5,0,0.9-0.2,1.1-0.7h0.4c-0.2,0.8-0.8,1.2-1.6,1.2c-1.1,0-1.8-0.8-1.8-1.9
				c0-1.2,0.8-2,1.8-2c1.1,0,1.6,1,1.6,2H270.5z M270.5,238h2c-0.1-0.8-0.4-1.3-0.9-1.3C271,236.8,270.6,237.2,270.5,238z"/>
			<path d="M274.2,234.9h-0.6v-0.5h1.3v2.8c0.3-0.6,0.8-0.9,1.3-0.9c0.4,0,0.7,0.1,0.9,0.4c0.4,0.4,0.5,0.9,0.5,1.6
				c0,0.6-0.2,1.2-0.6,1.6c-0.3,0.3-0.6,0.4-1,0.4c-0.6,0-1-0.3-1.3-0.9l-0.2,0.8h-0.3V234.9z M276.9,238.4c0-1-0.4-1.5-1-1.5
				c-0.6,0-1.1,0.7-1.1,1.6c0,0.9,0.5,1.4,1.1,1.4C276.5,239.9,276.9,239.3,276.9,238.4z"/>
			<path d="M278.5,238.9h0.4c0.2,0.7,0.7,1.1,1.3,1.1c0.5,0,0.7-0.2,0.7-0.6c0-0.4-0.3-0.6-1-0.8c-0.9-0.3-1.3-0.6-1.3-1.2
				c0-0.6,0.5-1.1,1.3-1.1c0.4,0,0.8,0.2,1,0.5l0.1-0.5h0.4v1.3h-0.4c-0.3-0.6-0.5-1-1.1-1c-0.4,0-0.7,0.2-0.7,0.6
				c0,0.4,0.3,0.6,1,0.7c0.9,0.3,1.3,0.5,1.3,1.2c0,0.6-0.5,1.2-1.3,1.2c-0.5,0-0.9-0.2-1.2-0.5l-0.1,0.5h-0.4V238.9z"/>
			<path d="M282.2,239.8h0.7v-2.9h-0.7v-0.4h1.4v3.4h0.7v0.4h-2.1V239.8z M282.7,235.1c0-0.3,0.2-0.5,0.5-0.5c0.3,0,0.5,0.2,0.5,0.5
				s-0.2,0.5-0.5,0.5C282.9,235.6,282.7,235.4,282.7,235.1z"/>
			<path d="M286,235.4v1.1h1.2v0.4H286v2.4c0,0.4,0.1,0.6,0.5,0.6c0.3,0,0.5-0.2,0.6-0.7l0.3,0.1c-0.2,0.7-0.6,1-1.1,1
				c-0.6,0-1-0.4-1-1v-2.4h-0.8v-0.4h0.8v-1L286,235.4z"/>
			<path d="M288.6,238.4c0,1,0.5,1.5,1.2,1.5c0.5,0,0.9-0.2,1.1-0.7h0.4c-0.2,0.8-0.8,1.2-1.6,1.2c-1.1,0-1.8-0.8-1.8-1.9
				c0-1.2,0.8-2,1.8-2c1.1,0,1.6,1,1.6,2H288.6z M288.6,238h2c-0.1-0.8-0.4-1.3-0.9-1.3C289.1,236.8,288.7,237.2,288.6,238z"/>
			<path d="M292,238.9h0.4c0.2,0.7,0.7,1.1,1.3,1.1c0.5,0,0.7-0.2,0.7-0.6c0-0.4-0.3-0.6-1-0.8c-0.9-0.3-1.3-0.6-1.3-1.2
				c0-0.6,0.5-1.1,1.3-1.1c0.4,0,0.8,0.2,1,0.5l0.1-0.5h0.4v1.3h-0.4c-0.3-0.6-0.5-1-1.1-1c-0.4,0-0.7,0.2-0.7,0.6
				c0,0.4,0.3,0.6,1,0.7c0.9,0.3,1.3,0.5,1.3,1.2c0,0.6-0.5,1.2-1.3,1.2c-0.5,0-0.9-0.2-1.2-0.5l-0.1,0.5H292V238.9z"/>
			<path d="M270.5,250.6h0.4c0.5,1.1,1.1,1.5,1.9,1.5c0.7,0,1.1-0.4,1.1-1c0-0.7-0.6-0.9-1.5-1.2c-0.9-0.2-1.8-0.5-1.8-1.6
				c0-0.9,0.7-1.6,1.7-1.6c0.6,0,1.1,0.2,1.4,0.6l0.2-0.6h0.4v1.8h-0.4c-0.4-1.1-1-1.5-1.7-1.5c-0.6,0-1,0.3-1,1
				c0,0.8,0.7,1,1.5,1.2c1,0.2,1.8,0.5,1.8,1.6c0,1-0.7,1.7-1.8,1.7c-0.7,0-1.2-0.3-1.6-0.7l-0.2,0.7h-0.4V250.6z"/>
			<path d="M275.3,252h0.9v-4.7h-0.9v-0.4h4.7v1.7h-0.3c-0.2-1.1-0.3-1.3-0.8-1.3h-1.9v2.1h0.8c0.5,0,0.6-0.1,0.7-0.8h0.3v2.1h-0.3
				c-0.1-0.8-0.2-0.9-0.7-0.9h-0.8v2.2h1.9c0.6,0,0.7-0.2,0.9-1.5h0.3v1.9h-4.8V252z"/>
			<path d="M281.1,249.7c0-1.7,1.2-2.9,2.6-2.9c1.5,0,2.6,1.2,2.6,2.9c0,1.7-1.2,2.9-2.6,2.9C282.2,252.6,281.1,251.4,281.1,249.7z
				 M285.5,249.7c0-1.5-0.7-2.4-1.8-2.4c-1.1,0-1.8,1-1.8,2.4s0.7,2.5,1.8,2.5C284.8,252.2,285.5,251.2,285.5,249.7z"/>
			<path d="M267.5,262.8h0.4c0.5,1.1,1.1,1.5,1.9,1.5c0.7,0,1.1-0.4,1.1-1c0-0.7-0.6-0.9-1.5-1.2c-0.9-0.2-1.8-0.5-1.8-1.6
				c0-0.9,0.7-1.6,1.7-1.6c0.6,0,1.1,0.2,1.4,0.6l0.2-0.6h0.4v1.8h-0.4c-0.4-1.1-1-1.5-1.7-1.5c-0.6,0-1,0.3-1,1
				c0,0.8,0.7,1,1.5,1.2c1,0.2,1.8,0.5,1.8,1.6c0,1-0.7,1.7-1.8,1.7c-0.7,0-1.2-0.3-1.6-0.7l-0.2,0.7h-0.4V262.8z"/>
			<path d="M272.3,262.8c0-1.2,0.8-2,1.8-2c1.1,0,1.8,0.8,1.8,2c0,1.2-0.8,2-1.8,2C273,264.7,272.3,263.9,272.3,262.8z M275.3,262.7
				c0-1.1-0.5-1.6-1.2-1.6c-0.6,0-1.1,0.5-1.1,1.6c0,1.1,0.5,1.6,1.2,1.6C274.8,264.4,275.3,263.8,275.3,262.7z"/>
			<path d="M276.7,262.8c0-1.2,0.8-2.1,1.9-2.1c0.8,0,1.4,0.6,1.4,1.1c0,0.3-0.2,0.6-0.5,0.6c-0.3,0-0.5-0.2-0.5-0.5
				c0-0.2,0.1-0.4,0.3-0.5c-0.1-0.2-0.4-0.4-0.8-0.4c-0.7,0-1.2,0.6-1.2,1.6c0,1,0.5,1.6,1.2,1.6c0.5,0,0.9-0.3,1.1-0.9h0.4
				c-0.2,0.9-0.8,1.3-1.6,1.3C277.4,264.7,276.7,263.9,276.7,262.8z"/>
			<path d="M280.8,264.2h0.7v-2.9h-0.7v-0.4h1.4v3.4h0.7v0.4h-2.1V264.2z M281.3,259.5c0-0.3,0.2-0.5,0.5-0.5c0.3,0,0.5,0.2,0.5,0.5
				s-0.2,0.5-0.5,0.5C281.5,260,281.3,259.8,281.3,259.5z"/>
			<path d="M283.5,263.7c0-0.2,0.1-0.5,0.3-0.7c0.3-0.3,0.7-0.4,1.5-0.5c0.5-0.1,0.6-0.1,0.6-0.2v-0.4c0-0.6-0.3-0.8-0.8-0.8
				c-0.3,0-0.6,0.1-0.7,0.2c0.1,0.1,0.2,0.2,0.2,0.4c0,0.2-0.2,0.4-0.4,0.4c-0.3,0-0.5-0.2-0.5-0.5c0-0.6,0.7-0.9,1.5-0.9
				c0.9,0,1.3,0.4,1.3,1.1v2c0,0.3,0.1,0.3,0.3,0.3c0.1,0,0.2-0.1,0.3-0.3l0.3,0.1c-0.2,0.4-0.4,0.6-0.8,0.6c-0.3,0-0.6-0.2-0.6-0.7
				h0c-0.3,0.4-0.8,0.7-1.3,0.7C283.9,264.7,283.5,264.3,283.5,263.7z M285.8,263.4v-0.8c-0.1,0-0.2,0.1-0.4,0.1
				c-0.9,0.1-1.2,0.3-1.2,0.8c0,0.4,0.2,0.7,0.7,0.7C285.4,264.3,285.8,263.9,285.8,263.4z"/>
			<path d="M287.5,264.2h0.7v-4.9h-0.7v-0.5h1.4v5.4h0.7v0.4h-2.1V264.2z"/>
		</g>
		<g>
			<path d="M152,296l1.2,4.2h0l1.4-4.2h-0.7v-0.4h1.9v0.4h-0.6l-1.7,5.1h-0.6l-1.2-3.9l-1.4,3.9h-0.6l-1.6-5.1h-0.7v-0.4h2.4v0.4
				h-0.9l1.3,4.2h0l1.2-3.7l-0.1-0.5h-0.7v-0.4h2.4v0.4H152z"/>
			<path d="M156,300.6h0.6v-4.9H156v-0.5h1.3v3c0.4-0.8,0.9-1,1.4-1c0.6,0,1,0.4,1,1.2v2.2h0.6v0.4h-1.9v-0.4h0.6v-1.9
				c0-0.4-0.1-0.6-0.2-0.8c-0.1-0.1-0.3-0.2-0.5-0.2c-0.6,0-1.1,0.6-1.1,1.2v1.7h0.6v0.4H156V300.6z"/>
			<path d="M161,300.6h0.7v-2.9H161v-0.4h1.4v3.4h0.7v0.4H161V300.6z M161.5,295.9c0-0.3,0.2-0.5,0.5-0.5c0.3,0,0.5,0.2,0.5,0.5
				s-0.2,0.5-0.5,0.5C161.7,296.4,161.5,296.2,161.5,295.9z"/>
			<path d="M164.8,296.2v1.1h1.2v0.4h-1.2v2.4c0,0.4,0.1,0.6,0.5,0.6c0.3,0,0.5-0.2,0.6-0.7l0.3,0.1c-0.2,0.7-0.6,1-1.1,1
				c-0.6,0-1-0.4-1-1v-2.4h-0.8v-0.4h0.8v-1L164.8,296.2z"/>
			<path d="M167.4,299.2c0,1,0.5,1.5,1.2,1.5c0.5,0,0.9-0.2,1.1-0.7h0.4c-0.2,0.8-0.8,1.2-1.6,1.2c-1.1,0-1.8-0.8-1.8-1.9
				c0-1.2,0.8-2,1.8-2c1.1,0,1.6,1,1.6,2H167.4z M167.4,298.8h2c-0.1-0.8-0.4-1.3-0.9-1.3C167.9,297.5,167.5,298,167.4,298.8z"/>
			<path d="M172.3,300.6h0.9V296h-0.9v-0.4h2.4c1.7,0,2.2,0.7,2.2,1.6c0,0.9-0.6,1.7-2.2,1.7H174v1.9h1v0.4h-2.7V300.6z
				 M174.8,298.3c1,0,1.4-0.5,1.4-1.2c0-0.7-0.3-1.1-1.4-1.1H174v2.4H174.8z"/>
			<path d="M177.4,300.1c0-0.2,0.1-0.5,0.3-0.7c0.3-0.3,0.7-0.4,1.5-0.5c0.5-0.1,0.6-0.1,0.6-0.2v-0.4c0-0.6-0.3-0.8-0.8-0.8
				c-0.3,0-0.6,0.1-0.7,0.2c0.1,0.1,0.2,0.2,0.2,0.4c0,0.2-0.2,0.4-0.4,0.4c-0.3,0-0.5-0.2-0.5-0.5c0-0.6,0.7-0.9,1.5-0.9
				c0.9,0,1.3,0.4,1.3,1.1v2c0,0.3,0.1,0.3,0.3,0.3c0.1,0,0.2-0.1,0.3-0.3l0.3,0.1c-0.2,0.4-0.4,0.6-0.8,0.6c-0.3,0-0.6-0.2-0.6-0.7
				h0c-0.3,0.4-0.8,0.7-1.3,0.7C177.8,301.1,177.4,300.7,177.4,300.1z M179.7,299.9v-0.8c-0.1,0-0.2,0.1-0.4,0.1
				c-0.9,0.1-1.2,0.3-1.2,0.8c0,0.4,0.2,0.7,0.7,0.7C179.3,300.7,179.7,300.3,179.7,299.9z"/>
			<path d="M181.4,301.9h0.6v-4.2h-0.6v-0.4h1.3v0.9c0.3-0.7,0.8-1,1.3-1c0.4,0,0.7,0.1,0.9,0.4c0.3,0.3,0.5,0.9,0.5,1.5
				c0,0.6-0.2,1.2-0.6,1.6c-0.3,0.3-0.6,0.4-1,0.4c-0.6,0-1-0.3-1.2-0.8v1.6h0.8v0.4h-2.1V301.9z M184.7,299.1c0-1-0.4-1.5-1-1.5
				c-0.6,0-1.1,0.7-1.1,1.6c0,0.8,0.4,1.4,1.1,1.4C184.3,300.6,184.7,300.1,184.7,299.1z"/>
			<path d="M186.9,299.2c0,1,0.5,1.5,1.2,1.5c0.5,0,0.9-0.2,1.1-0.7h0.4c-0.2,0.8-0.8,1.2-1.6,1.2c-1.1,0-1.8-0.8-1.8-1.9
				c0-1.2,0.8-2,1.8-2c1.1,0,1.6,1,1.6,2H186.9z M186.9,298.8h2c-0.1-0.8-0.4-1.3-0.9-1.3C187.4,297.5,187,298,186.9,298.8z"/>
			<path d="M190.3,300.6h0.6v-2.9h-0.6v-0.4h1.3v0.9c0.2-0.6,0.7-1,1.2-1c0.4,0,0.6,0.3,0.6,0.6c0,0.3-0.2,0.5-0.5,0.5
				c-0.3,0-0.5-0.2-0.5-0.4c0-0.1,0-0.1,0-0.2c-0.4,0-0.8,0.5-0.9,0.9v2.1h0.7v0.4h-2V300.6z"/>
			<path d="M193.9,299.7h0.4c0.2,0.7,0.7,1.1,1.3,1.1c0.5,0,0.7-0.2,0.7-0.6c0-0.4-0.3-0.6-1-0.8c-0.9-0.3-1.3-0.6-1.3-1.2
				c0-0.6,0.5-1.1,1.3-1.1c0.4,0,0.8,0.2,1,0.5l0.1-0.5h0.4v1.3h-0.4c-0.3-0.6-0.5-1-1.1-1c-0.4,0-0.7,0.2-0.7,0.6
				c0,0.4,0.3,0.6,1,0.7c0.9,0.3,1.3,0.5,1.3,1.2c0,0.6-0.5,1.2-1.3,1.2c-0.5,0-0.9-0.2-1.2-0.5l-0.1,0.5h-0.4V299.7z"/>
			<path d="M164.4,310.5c0-1.6,1.1-2.9,2.6-2.9c0.7,0,1.2,0.3,1.6,0.7l0.2-0.6h0.4v2.1h-0.4c-0.3-1-0.9-1.7-1.8-1.7
				c-1,0-1.8,0.8-1.8,2.4c0,1.6,0.7,2.5,1.9,2.5c1,0,1.6-0.8,1.8-1.8h0.5c-0.2,1.5-1.1,2.3-2.4,2.3
				C165.4,313.4,164.4,312.2,164.4,310.5z"/>
			<path d="M170.3,311.4h0.4c0.5,1.1,1.1,1.5,1.9,1.5c0.7,0,1.1-0.4,1.1-1c0-0.7-0.6-0.9-1.5-1.2c-0.9-0.2-1.8-0.5-1.8-1.6
				c0-0.9,0.7-1.6,1.7-1.6c0.6,0,1.1,0.2,1.4,0.6l0.2-0.6h0.4v1.8h-0.4c-0.4-1.1-1-1.5-1.7-1.5c-0.6,0-1,0.3-1,1
				c0,0.8,0.7,1,1.5,1.2c1,0.2,1.8,0.5,1.8,1.6c0,1-0.7,1.7-1.8,1.7c-0.7,0-1.2-0.3-1.6-0.7l-0.2,0.7h-0.4V311.4z"/>
			<path d="M176.7,312.8h0.9v0.4h-2.6v-0.4h0.9v-4.7h-0.9v-0.4h2.7c1.5,0,2,0.6,2,1.4c0,0.6-0.3,1.2-1.3,1.4v0.1
				c0.8,0.2,1.1,0.6,1.1,1.2l0.1,0.7c0,0.3,0.1,0.4,0.3,0.4c0.2,0,0.3-0.1,0.4-0.4l0.3,0.1c-0.2,0.5-0.4,0.8-0.9,0.8
				c-0.5,0-0.9-0.2-0.9-1l0-0.7c0-0.6-0.2-0.9-1-0.9h-1.1V312.8z M177.7,310.3c0.9,0,1.3-0.5,1.3-1.2c0-0.7-0.3-1-1.1-1h-1.1v2.2
				H177.7z"/>
			<path d="M147,323.4h-2.1l-0.6,1.6h0.7v0.4h-1.9V325h0.6l2-5.1h0.6l1.9,5.1h0.7v0.4h-2.4V325h0.9L147,323.4z M145.1,323h1.8
				l-0.8-2.4h0L145.1,323z"/>
			<path d="M149.4,325h0.6V322h-0.6v-0.4h1.3v1c0.5-0.8,1-1,1.4-1c0.6,0,1,0.4,1,1.2v2.2h0.6v0.4h-1.9V325h0.6v-1.9
				c0-0.4-0.1-0.6-0.2-0.8c-0.1-0.1-0.3-0.2-0.5-0.2c-0.6,0-1.1,0.6-1.1,1.2v1.7h0.6v0.4h-1.9V325z"/>
			<path d="M154.3,325h0.6V322h-0.6v-0.4h1.3v1c0.5-0.8,1-1,1.4-1c0.6,0,1,0.4,1,1.2v2.2h0.6v0.4h-1.9V325h0.6v-1.9
				c0-0.4-0.1-0.6-0.2-0.8c-0.1-0.1-0.3-0.2-0.5-0.2c-0.6,0-1.1,0.6-1.1,1.2v1.7h0.6v0.4h-1.9V325z"/>
			<path d="M159.7,324.3V322h-0.6v-0.4h1.3v2.4c0,0.4,0.1,0.6,0.2,0.8c0.1,0.1,0.3,0.2,0.5,0.2c0.6,0,1.1-0.6,1.1-1.2V322h-0.7v-0.4
				h1.3v3.4h0.6v0.4h-1.3v-1c-0.5,0.8-0.9,1-1.4,1C160.1,325.5,159.7,325.1,159.7,324.3z"/>
			<path d="M164.1,324.5c0-0.2,0.1-0.5,0.3-0.7c0.3-0.3,0.7-0.4,1.5-0.5c0.5-0.1,0.6-0.1,0.6-0.2v-0.4c0-0.6-0.3-0.8-0.8-0.8
				c-0.3,0-0.6,0.1-0.7,0.2c0.1,0.1,0.2,0.2,0.2,0.4c0,0.2-0.2,0.4-0.4,0.4s-0.5-0.2-0.5-0.5c0-0.6,0.7-0.9,1.5-0.9
				c0.9,0,1.3,0.4,1.3,1.1v2c0,0.3,0.1,0.3,0.3,0.3c0.1,0,0.2-0.1,0.3-0.3l0.3,0.1c-0.2,0.4-0.4,0.6-0.8,0.6c-0.3,0-0.6-0.2-0.6-0.7
				h0c-0.3,0.4-0.8,0.7-1.3,0.7C164.5,325.5,164.1,325.1,164.1,324.5z M166.4,324.2v-0.8c-0.1,0-0.2,0.1-0.4,0.1
				c-0.9,0.1-1.2,0.3-1.2,0.8c0,0.4,0.2,0.7,0.7,0.7C165.9,325,166.4,324.7,166.4,324.2z"/>
			<path d="M168,325h0.7v-4.9H168v-0.5h1.4v5.4h0.7v0.4H168V325z"/>
			<path d="M173.9,325h0.9v0.4h-2.6V325h0.9v-4.7h-0.9v-0.4h2.7c1.5,0,2,0.6,2,1.4c0,0.6-0.3,1.2-1.3,1.4v0.1
				c0.8,0.2,1.1,0.6,1.1,1.2l0.1,0.7c0,0.3,0.1,0.4,0.3,0.4c0.2,0,0.3-0.1,0.4-0.4l0.3,0.1c-0.2,0.5-0.4,0.8-0.9,0.8
				c-0.5,0-0.9-0.2-0.9-1l0-0.7c0-0.6-0.2-0.9-1-0.9h-1.1V325z M174.9,322.5c0.9,0,1.3-0.5,1.3-1.2c0-0.7-0.3-1-1.1-1h-1.1v2.2
				H174.9z"/>
			<path d="M178.8,323.6c0,1,0.5,1.5,1.2,1.5c0.5,0,0.9-0.2,1.1-0.7h0.4c-0.2,0.8-0.8,1.2-1.6,1.2c-1.1,0-1.8-0.8-1.8-1.9
				c0-1.2,0.8-2,1.8-2c1.1,0,1.6,1,1.6,2H178.8z M178.8,323.2h2c-0.1-0.8-0.4-1.3-0.9-1.3C179.3,321.9,178.9,322.3,178.8,323.2z"/>
			<path d="M182.1,326.3h0.6V322h-0.6v-0.4h1.3v0.9c0.3-0.7,0.8-1,1.3-1c0.4,0,0.7,0.1,0.9,0.4c0.3,0.3,0.5,0.9,0.5,1.5
				c0,0.6-0.2,1.2-0.6,1.6c-0.3,0.3-0.6,0.4-1,0.4c-0.6,0-1-0.3-1.2-0.8v1.6h0.8v0.4h-2.1V326.3z M185.4,323.4c0-1-0.4-1.5-1-1.5
				c-0.6,0-1.1,0.7-1.1,1.6c0,0.8,0.4,1.4,1.1,1.4C185,325,185.4,324.5,185.4,323.4z"/>
			<path d="M186.9,323.6c0-1.2,0.8-2,1.8-2c1.1,0,1.8,0.8,1.8,2c0,1.2-0.8,2-1.8,2C187.7,325.5,186.9,324.7,186.9,323.6z
				 M189.9,323.5c0-1.1-0.5-1.6-1.2-1.6c-0.6,0-1.1,0.5-1.1,1.6c0,1.1,0.5,1.6,1.2,1.6C189.4,325.1,189.9,324.6,189.9,323.5z"/>
			<path d="M191.3,325h0.6V322h-0.6v-0.4h1.3v0.9c0.2-0.6,0.7-1,1.2-1c0.4,0,0.6,0.3,0.6,0.6c0,0.3-0.2,0.5-0.5,0.5
				c-0.3,0-0.5-0.2-0.5-0.4c0-0.1,0-0.1,0-0.2c-0.4,0-0.8,0.5-0.9,0.9v2.1h0.7v0.4h-2V325z"/>
			<path d="M196,320.5v1.1h1.2v0.4H196v2.4c0,0.4,0.1,0.6,0.5,0.6c0.3,0,0.5-0.2,0.6-0.7l0.3,0.1c-0.2,0.7-0.6,1-1.1,1
				c-0.6,0-1-0.4-1-1V322h-0.8v-0.4h0.8v-1L196,320.5z"/>
			<path d="M198,324.1h0.4c0.2,0.7,0.7,1.1,1.3,1.1c0.5,0,0.7-0.2,0.7-0.6c0-0.4-0.3-0.6-1-0.8c-0.9-0.3-1.3-0.6-1.3-1.2
				c0-0.6,0.5-1.1,1.3-1.1c0.4,0,0.8,0.2,1,0.5l0.1-0.5h0.4v1.3h-0.4c-0.3-0.6-0.5-1-1.1-1c-0.4,0-0.7,0.2-0.7,0.6
				c0,0.4,0.3,0.6,1,0.7c0.9,0.3,1.3,0.5,1.3,1.2c0,0.6-0.5,1.2-1.3,1.2c-0.5,0-0.9-0.2-1.2-0.5l-0.1,0.5H198V324.1z"/>
		</g>
		<g>
			<path d="M42.4,239.8h0.9v-4.7h-0.9v-0.4h4.8v1.8h-0.3c-0.3-1.1-0.4-1.3-0.9-1.3h-1.8v2.2h0.8c0.5,0,0.6-0.1,0.7-0.9h0.3v2.2h-0.3
				c-0.1-0.8-0.2-0.9-0.7-0.9h-0.8v2.1h1v0.4h-2.7V239.8z"/>
			<path d="M48,239.1v-2.2h-0.6v-0.4h1.3v2.4c0,0.4,0.1,0.6,0.2,0.8c0.1,0.1,0.3,0.2,0.5,0.2c0.6,0,1.1-0.6,1.1-1.2v-1.7h-0.7v-0.4
				h1.3v3.4h0.6v0.4h-1.3v-1c-0.5,0.8-0.9,1-1.4,1C48.4,240.3,48,239.9,48,239.1z"/>
			<path d="M52.3,239.8h0.6v-2.9h-0.6v-0.4h1.3v1c0.5-0.8,1-1,1.4-1c0.6,0,1,0.4,1,1.2v2.2h0.6v0.4h-1.9v-0.4h0.6v-1.9
				c0-0.4-0.1-0.6-0.2-0.8c-0.1-0.1-0.3-0.2-0.5-0.2c-0.6,0-1.1,0.6-1.1,1.2v1.7h0.6v0.4h-1.9V239.8z"/>
			<path d="M57.8,240c-0.4-0.4-0.6-0.9-0.6-1.6c0-0.6,0.2-1.3,0.6-1.6c0.3-0.3,0.6-0.4,1-0.4c0.5,0,1,0.3,1.2,0.7v-2.2h-0.6v-0.5
				h1.3v5.4h0.6v0.4H60v-0.8c-0.3,0.6-0.8,0.9-1.3,0.9C58.4,240.3,58,240.2,57.8,240z M60.1,238.3c0-0.9-0.4-1.5-1.1-1.5
				c-0.6,0-1,0.6-1,1.5c0,1,0.4,1.5,1,1.5C59.6,239.9,60.1,239.3,60.1,238.3z"/>
			<path d="M61.8,239.8h0.6v-2.9h-0.6v-0.4h1.3v0.9c0.2-0.6,0.7-1,1.2-1c0.4,0,0.6,0.3,0.6,0.6c0,0.3-0.2,0.5-0.5,0.5
				c-0.3,0-0.5-0.2-0.5-0.4c0-0.1,0-0.1,0-0.2c-0.4,0-0.8,0.5-0.9,0.9v2.1h0.7v0.4h-2V239.8z"/>
			<path d="M65.3,239.3c0-0.2,0.1-0.5,0.3-0.7c0.3-0.3,0.7-0.4,1.5-0.5c0.5-0.1,0.6-0.1,0.6-0.2v-0.4c0-0.6-0.3-0.8-0.8-0.8
				c-0.3,0-0.6,0.1-0.7,0.2c0.1,0.1,0.2,0.2,0.2,0.4c0,0.2-0.2,0.4-0.4,0.4c-0.3,0-0.5-0.2-0.5-0.5c0-0.6,0.7-0.9,1.5-0.9
				c0.9,0,1.3,0.4,1.3,1.1v2c0,0.3,0.1,0.3,0.3,0.3c0.1,0,0.2-0.1,0.3-0.3l0.3,0.1c-0.2,0.4-0.4,0.6-0.8,0.6c-0.3,0-0.6-0.2-0.6-0.7
				h0c-0.3,0.4-0.8,0.7-1.3,0.7C65.7,240.3,65.3,239.9,65.3,239.3z M67.7,239.1v-0.8c-0.1,0-0.2,0.1-0.4,0.1
				c-0.9,0.1-1.2,0.3-1.2,0.8c0,0.4,0.2,0.7,0.7,0.7C67.2,239.9,67.7,239.5,67.7,239.1z"/>
			<path d="M69.4,239.8h0.7v-2.9h-0.7v-0.4h1.4v3.4h0.7v0.4h-2.1V239.8z M70,235.1c0-0.3,0.2-0.5,0.5-0.5c0.3,0,0.5,0.2,0.5,0.5
				s-0.2,0.5-0.5,0.5C70.2,235.6,70,235.4,70,235.1z"/>
			<path d="M72.2,238.9h0.4c0.2,0.7,0.7,1.1,1.3,1.1c0.5,0,0.7-0.2,0.7-0.6c0-0.4-0.3-0.6-1-0.8c-0.9-0.3-1.3-0.6-1.3-1.2
				c0-0.6,0.5-1.1,1.3-1.1c0.4,0,0.8,0.2,1,0.5l0.1-0.5H75v1.3h-0.4c-0.3-0.6-0.5-1-1.1-1c-0.4,0-0.7,0.2-0.7,0.6
				c0,0.4,0.3,0.6,1,0.7c0.9,0.3,1.3,0.5,1.3,1.2c0,0.6-0.5,1.2-1.3,1.2c-0.5,0-0.9-0.2-1.2-0.5l-0.1,0.5h-0.4V238.9z"/>
			<path d="M75.8,239.8h0.7v-2.9h-0.7v-0.4h1.4v3.4h0.7v0.4h-2.1V239.8z M76.4,235.1c0-0.3,0.2-0.5,0.5-0.5c0.3,0,0.5,0.2,0.5,0.5
				s-0.2,0.5-0.5,0.5C76.6,235.6,76.4,235.4,76.4,235.1z"/>
			<path d="M78.5,239.8h0.6v-2.9h-0.6v-0.4h1.3v1c0.5-0.8,1-1,1.4-1c0.6,0,1,0.4,1,1.2v2.2h0.6v0.4H81v-0.4h0.6v-1.9
				c0-0.4-0.1-0.6-0.2-0.8c-0.1-0.1-0.3-0.2-0.5-0.2c-0.6,0-1.1,0.6-1.1,1.2v1.7h0.6v0.4h-1.9V239.8z"/>
			<path d="M85,238.9c-0.2,0-0.4,0-0.5,0c-0.3,0-0.5,0.2-0.5,0.3c0,0.2,0.2,0.3,0.7,0.3h1c0.8,0,1.1,0.3,1.1,0.9
				c0,0.7-0.7,1.2-1.9,1.2c-1,0-1.6-0.4-1.6-0.9c0-0.4,0.3-0.7,0.8-0.8v0c-0.5-0.1-0.6-0.3-0.6-0.6c0-0.3,0.3-0.6,0.7-0.7
				c-0.4-0.2-0.7-0.5-0.7-1c0-0.8,0.7-1.3,1.5-1.3c0.2,0,0.4,0,0.6,0.1c0.3-0.5,0.6-0.8,1-0.8c0.3,0,0.5,0.2,0.5,0.4
				c0,0.2-0.2,0.4-0.4,0.4c-0.2,0-0.3-0.1-0.3-0.3c0,0,0-0.1,0-0.1c-0.2,0-0.4,0.2-0.5,0.5c0.3,0.2,0.6,0.6,0.6,1
				C86.5,238.4,85.9,238.9,85,238.9z M86.3,240.6c0-0.3-0.2-0.5-0.6-0.5h-1c-0.5,0-0.8,0.2-0.8,0.6c0,0.3,0.3,0.6,1.1,0.6
				C85.8,241.3,86.3,241,86.3,240.6z M85.8,237.6c0-0.5-0.3-0.9-0.8-0.9c-0.5,0-0.8,0.3-0.8,0.9c0,0.6,0.3,0.9,0.8,0.9
				C85.5,238.6,85.8,238.2,85.8,237.6z"/>
			<path d="M54.5,250.5h-2.1l-0.6,1.6h0.7v0.4h-1.9V252h0.6l2-5.1h0.6l1.9,5.1h0.7v0.4h-2.4V252H55L54.5,250.5z M52.5,250.1h1.8
				l-0.8-2.4h0L52.5,250.1z"/>
			<path d="M56.7,252h0.7v-4.9h-0.7v-0.5h1.4v5.4h0.7v0.4h-2.1V252z"/>
			<path d="M59.8,251.3v-2.2h-0.6v-0.4h1.3v2.4c0,0.4,0.1,0.6,0.2,0.8c0.1,0.1,0.3,0.2,0.5,0.2c0.6,0,1.1-0.6,1.1-1.2v-1.7h-0.7
				v-0.4h1.3v3.4h0.6v0.4h-1.3v-1c-0.5,0.8-0.9,1-1.4,1C60.2,252.5,59.8,252.1,59.8,251.3z"/>
			<path d="M69.2,248.6c0.6,0,1,0.4,1,1.2v2.2h0.6v0.4H69V252h0.5v-1.9c0-0.4-0.1-0.6-0.2-0.8c-0.1-0.1-0.3-0.2-0.5-0.2
				c-0.5,0-1.1,0.6-1.1,1.2v1.7h0.5v0.4h-1.7V252h0.5v-1.9c0-0.4,0-0.6-0.2-0.8c-0.1-0.1-0.3-0.2-0.5-0.2c-0.5,0-1.1,0.6-1.1,1.2
				v1.7h0.5v0.4h-1.8V252h0.6v-2.9h-0.6v-0.4h1.3v1c0.5-0.8,0.9-1,1.4-1c0.6,0,0.9,0.3,1,1C68.2,248.8,68.7,248.6,69.2,248.6z"/>
			<path d="M71.3,252h0.6v-2.9h-0.6v-0.4h1.3v1c0.5-0.8,1-1,1.4-1c0.6,0,1,0.4,1,1.2v2.2h0.6v0.4h-1.9V252h0.6v-1.9
				c0-0.4-0.1-0.6-0.2-0.8c-0.1-0.1-0.3-0.2-0.5-0.2c-0.6,0-1.1,0.6-1.1,1.2v1.7h0.6v0.4h-1.9V252z"/>
			<path d="M76.2,252H77v-2.9h-0.7v-0.4h1.4v3.4h0.7v0.4h-2.1V252z M76.7,247.3c0-0.3,0.2-0.5,0.5-0.5c0.3,0,0.5,0.2,0.5,0.5
				s-0.2,0.5-0.5,0.5C77,247.8,76.7,247.6,76.7,247.3z"/>
			<path d="M46.6,262.7h-2.1l-0.6,1.6h0.7v0.4h-1.9v-0.4h0.6l2-5.1h0.6l1.9,5.1h0.7v0.4h-2.4v-0.4h0.9L46.6,262.7z M44.7,262.3h1.8
				l-0.8-2.4h0L44.7,262.3z"/>
			<path d="M49.5,264.3c-0.4-0.4-0.6-0.9-0.6-1.6c0-0.6,0.2-1.3,0.6-1.6c0.3-0.3,0.6-0.4,1-0.4c0.5,0,1,0.3,1.2,0.7v-2.2h-0.6v-0.5
				h1.3v5.4H53v0.4h-1.2v-0.8c-0.3,0.6-0.8,0.9-1.3,0.9C50.1,264.7,49.8,264.6,49.5,264.3z M51.8,262.7c0-0.9-0.4-1.5-1.1-1.5
				c-0.6,0-1,0.6-1,1.5c0,1,0.4,1.5,1,1.5C51.3,264.3,51.8,263.6,51.8,262.7z"/>
			<path d="M58.6,260.8c0.6,0,1,0.4,1,1.2v2.2h0.6v0.4h-1.8v-0.4H59v-1.9c0-0.4-0.1-0.6-0.2-0.8c-0.1-0.1-0.3-0.2-0.5-0.2
				c-0.5,0-1.1,0.6-1.1,1.2v1.7h0.5v0.4H56v-0.4h0.5v-1.9c0-0.4,0-0.6-0.2-0.8c-0.1-0.1-0.3-0.2-0.5-0.2c-0.5,0-1.1,0.6-1.1,1.2v1.7
				h0.5v0.4h-1.8v-0.4h0.6v-2.9h-0.6v-0.4h1.3v1c0.5-0.8,0.9-1,1.4-1c0.6,0,0.9,0.3,1,1C57.7,261,58.2,260.8,58.6,260.8z"/>
			<path d="M60.8,264.2h0.7v-2.9h-0.7v-0.4h1.4v3.4h0.7v0.4h-2.1V264.2z M61.3,259.5c0-0.3,0.2-0.5,0.5-0.5c0.3,0,0.5,0.2,0.5,0.5
				s-0.2,0.5-0.5,0.5C61.5,260,61.3,259.8,61.3,259.5z"/>
			<path d="M63.5,263.3h0.4c0.2,0.7,0.7,1.1,1.3,1.1c0.5,0,0.7-0.2,0.7-0.6c0-0.4-0.3-0.6-1-0.8c-0.9-0.3-1.3-0.6-1.3-1.2
				c0-0.6,0.5-1.1,1.3-1.1c0.4,0,0.8,0.2,1,0.5l0.1-0.5h0.4v1.3h-0.4c-0.3-0.6-0.5-1-1.1-1c-0.4,0-0.7,0.2-0.7,0.6
				c0,0.4,0.3,0.6,1,0.7c0.9,0.3,1.3,0.5,1.3,1.2c0,0.6-0.5,1.2-1.3,1.2c-0.5,0-0.9-0.2-1.2-0.5l-0.1,0.5h-0.4V263.3z"/>
			<path d="M67.2,263.3h0.4c0.2,0.7,0.7,1.1,1.3,1.1c0.5,0,0.7-0.2,0.7-0.6c0-0.4-0.3-0.6-1-0.8c-0.9-0.3-1.3-0.6-1.3-1.2
				c0-0.6,0.5-1.1,1.3-1.1c0.4,0,0.8,0.2,1,0.5l0.1-0.5h0.4v1.3h-0.4c-0.3-0.6-0.5-1-1.1-1c-0.4,0-0.7,0.2-0.7,0.6
				c0,0.4,0.3,0.6,1,0.7c0.9,0.3,1.3,0.5,1.3,1.2c0,0.6-0.5,1.2-1.3,1.2c-0.5,0-0.9-0.2-1.2-0.5l-0.1,0.5h-0.4V263.3z"/>
			<path d="M70.9,264.2h0.7v-2.9h-0.7v-0.4h1.4v3.4H73v0.4h-2.1V264.2z M71.5,259.5c0-0.3,0.2-0.5,0.5-0.5c0.3,0,0.5,0.2,0.5,0.5
				s-0.2,0.5-0.5,0.5C71.7,260,71.5,259.8,71.5,259.5z"/>
			<path d="M73.6,262.8c0-1.2,0.8-2,1.8-2c1.1,0,1.8,0.8,1.8,2c0,1.2-0.8,2-1.8,2C74.3,264.7,73.6,263.9,73.6,262.8z M76.6,262.7
				c0-1.1-0.5-1.6-1.2-1.6c-0.6,0-1.1,0.5-1.1,1.6c0,1.1,0.5,1.6,1.2,1.6C76.1,264.4,76.6,263.8,76.6,262.7z"/>
			<path d="M78,264.2h0.6v-2.9H78v-0.4h1.3v1c0.5-0.8,1-1,1.4-1c0.6,0,1,0.4,1,1.2v2.2h0.6v0.4h-1.9v-0.4h0.6v-1.9
				c0-0.4-0.1-0.6-0.2-0.8c-0.1-0.1-0.3-0.2-0.5-0.2c-0.6,0-1.1,0.6-1.1,1.2v1.7h0.6v0.4H78V264.2z"/>
			<path d="M83,263.3h0.4c0.2,0.7,0.7,1.1,1.3,1.1c0.5,0,0.7-0.2,0.7-0.6c0-0.4-0.3-0.6-1-0.8c-0.9-0.3-1.3-0.6-1.3-1.2
				c0-0.6,0.5-1.1,1.3-1.1c0.4,0,0.8,0.2,1,0.5l0.1-0.5h0.4v1.3h-0.4c-0.3-0.6-0.5-1-1.1-1c-0.4,0-0.7,0.2-0.7,0.6
				c0,0.4,0.3,0.6,1,0.7c0.9,0.3,1.3,0.5,1.3,1.2c0,0.6-0.5,1.2-1.3,1.2c-0.5,0-0.9-0.2-1.2-0.5l-0.1,0.5H83V263.3z"/>
		</g>
		<g>
			<path d="M34.1,117.7c0-1.6,1.1-2.9,2.6-2.9c0.7,0,1.2,0.3,1.6,0.7l0.2-0.6h0.4v2.1h-0.4c-0.3-1-0.9-1.7-1.8-1.7
				c-1,0-1.8,0.8-1.8,2.4c0,1.6,0.7,2.5,1.9,2.5c1,0,1.6-0.8,1.8-1.8H39c-0.2,1.5-1.1,2.3-2.4,2.3C35.1,120.6,34.1,119.4,34.1,117.7
				z"/>
			<path d="M39.8,118.6c0-1.2,0.8-2,1.8-2c1.1,0,1.8,0.8,1.8,2c0,1.2-0.8,2-1.8,2C40.6,120.5,39.8,119.7,39.8,118.6z M42.8,118.5
				c0-1.1-0.5-1.6-1.2-1.6c-0.6,0-1.1,0.5-1.1,1.6s0.5,1.6,1.2,1.6C42.3,120.1,42.8,119.6,42.8,118.5z"/>
			<path d="M44.8,120.1c-0.4-0.4-0.6-0.9-0.6-1.6c0-0.6,0.2-1.3,0.6-1.6c0.3-0.3,0.6-0.4,1-0.4c0.5,0,1,0.3,1.2,0.7v-2.2h-0.6v-0.5
				h1.3v5.4h0.6v0.4H47v-0.8c-0.3,0.6-0.8,0.9-1.3,0.9C45.4,120.5,45,120.4,44.8,120.1z M47,118.5c0-0.9-0.4-1.5-1.1-1.5
				s-1,0.6-1,1.5c0,1,0.4,1.5,1,1.5C46.6,120.1,47,119.4,47,118.5z"/>
			<path d="M49.6,118.6c0,1,0.5,1.5,1.2,1.5c0.5,0,0.9-0.2,1.1-0.7h0.4c-0.2,0.8-0.8,1.2-1.6,1.2c-1.1,0-1.8-0.8-1.8-1.9
				c0-1.2,0.8-2,1.8-2c1.1,0,1.6,1,1.6,2H49.6z M49.6,118.2h2c-0.1-0.8-0.4-1.3-0.9-1.3C50.1,116.9,49.7,117.3,49.6,118.2z"/>
			<path d="M53,119.1h0.4c0.2,0.7,0.7,1.1,1.3,1.1c0.5,0,0.7-0.2,0.7-0.6c0-0.4-0.3-0.6-1-0.8c-0.9-0.3-1.3-0.6-1.3-1.2
				s0.5-1.1,1.3-1.1c0.4,0,0.8,0.2,1,0.5l0.1-0.5h0.4v1.3h-0.4c-0.3-0.6-0.5-1-1.1-1c-0.4,0-0.7,0.2-0.7,0.6c0,0.4,0.3,0.6,1,0.7
				c0.9,0.3,1.3,0.5,1.3,1.2c0,0.6-0.5,1.2-1.3,1.2c-0.5,0-0.9-0.2-1.2-0.5l-0.1,0.5H53V119.1z"/>
			<path d="M58.3,118.6c0-1.2,0.8-2,1.8-2c1.1,0,1.8,0.8,1.8,2c0,1.2-0.8,2-1.8,2C59.1,120.5,58.3,119.7,58.3,118.6z M61.3,118.5
				c0-1.1-0.5-1.6-1.2-1.6c-0.6,0-1.1,0.5-1.1,1.6s0.5,1.6,1.2,1.6C60.8,120.1,61.3,119.6,61.3,118.5z"/>
			<path d="M62.7,120h0.6v-2.9h-0.8v-0.4h0.8v-0.2c0-1.4,0.8-1.8,1.6-1.8c0.6,0,1.1,0.3,1.1,0.7c0,0.3-0.2,0.5-0.4,0.5
				c-0.3,0-0.5-0.2-0.5-0.4c0-0.1,0.1-0.3,0.1-0.3c-0.1-0.1-0.2-0.1-0.4-0.1c-0.5,0-0.8,0.3-0.8,1.5v0.3h1.1v0.4H64v2.9h0.9v0.4
				h-2.2V120z"/>
			<path d="M67.3,117.7c0-1.6,1.1-2.9,2.6-2.9c0.7,0,1.2,0.3,1.6,0.7l0.2-0.6h0.4v2.1h-0.4c-0.3-1-0.9-1.7-1.8-1.7
				c-1,0-1.8,0.8-1.8,2.4c0,1.6,0.7,2.5,1.9,2.5c1,0,1.6-0.8,1.8-1.8h0.5c-0.2,1.5-1.1,2.3-2.4,2.3
				C68.4,120.6,67.3,119.4,67.3,117.7z"/>
			<path d="M73,118.6c0-1.2,0.8-2,1.8-2c1.1,0,1.8,0.8,1.8,2c0,1.2-0.8,2-1.8,2C73.8,120.5,73,119.7,73,118.6z M76,118.5
				c0-1.1-0.5-1.6-1.2-1.6c-0.6,0-1.1,0.5-1.1,1.6s0.5,1.6,1.2,1.6C75.5,120.1,76,119.6,76,118.5z"/>
			<path d="M77.4,120H78v-2.9h-0.6v-0.4h1.3v1c0.5-0.8,1-1,1.4-1c0.6,0,1,0.4,1,1.2v2.2h0.6v0.4h-1.9V120h0.6v-1.9
				c0-0.4-0.1-0.6-0.2-0.8c-0.1-0.1-0.3-0.2-0.5-0.2c-0.6,0-1.1,0.6-1.1,1.2v1.7h0.6v0.4h-1.9V120z"/>
			<path d="M82.9,120.1c-0.4-0.4-0.6-0.9-0.6-1.6c0-0.6,0.2-1.3,0.6-1.6c0.3-0.3,0.6-0.4,1-0.4c0.5,0,1,0.3,1.2,0.7v-2.2h-0.6v-0.5
				h1.3v5.4h0.6v0.4h-1.2v-0.8c-0.3,0.6-0.8,0.9-1.3,0.9C83.5,120.5,83.2,120.4,82.9,120.1z M85.2,118.5c0-0.9-0.4-1.5-1.1-1.5
				s-1,0.6-1,1.5c0,1,0.4,1.5,1,1.5C84.7,120.1,85.2,119.4,85.2,118.5z"/>
			<path d="M87.4,119.3v-2.2h-0.6v-0.4h1.3v2.4c0,0.4,0.1,0.6,0.2,0.8c0.1,0.1,0.3,0.2,0.5,0.2c0.6,0,1.1-0.6,1.1-1.2v-1.7h-0.7
				v-0.4h1.3v3.4h0.6v0.4h-1.3v-1c-0.5,0.8-0.9,1-1.4,1C87.8,120.5,87.4,120.1,87.4,119.3z"/>
			<path d="M91.7,118.6c0-1.2,0.8-2.1,1.9-2.1c0.8,0,1.4,0.6,1.4,1.1c0,0.3-0.2,0.6-0.5,0.6c-0.3,0-0.5-0.2-0.5-0.5
				c0-0.2,0.1-0.4,0.3-0.5c-0.1-0.2-0.4-0.4-0.8-0.4c-0.7,0-1.2,0.6-1.2,1.6c0,1,0.5,1.6,1.2,1.6c0.5,0,0.9-0.3,1.1-0.9h0.4
				c-0.2,0.9-0.8,1.3-1.6,1.3C92.5,120.5,91.7,119.7,91.7,118.6z"/>
			<path d="M97,115.5v1.1h1.2v0.4H97v2.4c0,0.4,0.1,0.6,0.5,0.6c0.3,0,0.5-0.2,0.6-0.7l0.3,0.1c-0.2,0.7-0.6,1-1.1,1
				c-0.6,0-1-0.4-1-1v-2.4h-0.8v-0.4h0.8v-1L97,115.5z"/>
			<path d="M32.9,132.2h1v-4.7h-0.8c-0.6,0-0.7,0.2-1,1.5h-0.3v-1.9h4.9v1.9h-0.3c-0.3-1.3-0.4-1.5-1-1.5h-0.7v4.7h1v0.4h-2.7V132.2
				z"/>
			<path d="M37.2,132.2h0.6v-2.9h-0.6v-0.4h1.3v0.9c0.2-0.6,0.7-1,1.2-1c0.4,0,0.6,0.3,0.6,0.6c0,0.3-0.2,0.5-0.5,0.5
				c-0.3,0-0.5-0.2-0.5-0.4c0-0.1,0-0.1,0-0.2c-0.4,0-0.8,0.5-0.9,0.9v2.1h0.7v0.4h-2V132.2z"/>
			<path d="M40.7,131.7c0-0.2,0.1-0.5,0.3-0.7c0.3-0.3,0.7-0.4,1.5-0.5c0.5-0.1,0.6-0.1,0.6-0.2v-0.4c0-0.6-0.3-0.8-0.8-0.8
				c-0.3,0-0.6,0.1-0.7,0.2c0.1,0.1,0.2,0.2,0.2,0.4c0,0.2-0.2,0.4-0.4,0.4c-0.3,0-0.5-0.2-0.5-0.5c0-0.6,0.7-0.9,1.5-0.9
				c0.9,0,1.3,0.4,1.3,1.1v2c0,0.3,0.1,0.3,0.3,0.3c0.1,0,0.2-0.1,0.3-0.3l0.3,0.1c-0.2,0.4-0.4,0.6-0.8,0.6c-0.3,0-0.6-0.2-0.6-0.7
				h0c-0.3,0.4-0.8,0.7-1.3,0.7C41.1,132.7,40.7,132.3,40.7,131.7z M43,131.4v-0.8c-0.1,0-0.2,0.1-0.4,0.1c-0.9,0.1-1.2,0.3-1.2,0.8
				c0,0.4,0.2,0.7,0.7,0.7C42.5,132.2,43,131.9,43,131.4z"/>
			<path d="M44.8,132.2h0.7v-2.9h-0.7v-0.4h1.4v3.4h0.7v0.4h-2.1V132.2z M45.3,127.5c0-0.3,0.2-0.5,0.5-0.5c0.3,0,0.5,0.2,0.5,0.5
				c0,0.3-0.2,0.5-0.5,0.5C45.5,127.9,45.3,127.8,45.3,127.5z"/>
			<path d="M47.4,132.2H48v-2.9h-0.6v-0.4h1.3v1c0.5-0.8,1-1,1.4-1c0.6,0,1,0.4,1,1.2v2.2h0.6v0.4h-1.9v-0.4h0.6v-1.9
				c0-0.4-0.1-0.6-0.2-0.8c-0.1-0.1-0.3-0.2-0.5-0.2c-0.6,0-1.1,0.6-1.1,1.2v1.7h0.6v0.4h-1.9V132.2z"/>
			<path d="M52.3,132.2H53v-2.9h-0.7v-0.4h1.4v3.4h0.7v0.4h-2.1V132.2z M52.8,127.5c0-0.3,0.2-0.5,0.5-0.5c0.3,0,0.5,0.2,0.5,0.5
				c0,0.3-0.2,0.5-0.5,0.5C53,127.9,52.8,127.8,52.8,127.5z"/>
			<path d="M54.9,132.2h0.6v-2.9h-0.6v-0.4h1.3v1c0.5-0.8,1-1,1.4-1c0.6,0,1,0.4,1,1.2v2.2h0.6v0.4h-1.9v-0.4H58v-1.9
				c0-0.4-0.1-0.6-0.2-0.8c-0.1-0.1-0.3-0.2-0.5-0.2c-0.6,0-1.1,0.6-1.1,1.2v1.7h0.6v0.4h-1.9V132.2z"/>
			<path d="M61.5,131.2c-0.2,0-0.4,0-0.5,0c-0.3,0-0.5,0.2-0.5,0.3c0,0.2,0.2,0.3,0.7,0.3h1c0.8,0,1.1,0.3,1.1,0.9
				c0,0.7-0.7,1.2-1.9,1.2c-1,0-1.6-0.4-1.6-0.9c0-0.4,0.3-0.7,0.8-0.8v0c-0.5-0.1-0.6-0.3-0.6-0.6c0-0.3,0.3-0.6,0.7-0.7
				c-0.4-0.2-0.7-0.5-0.7-1c0-0.8,0.7-1.3,1.5-1.3c0.2,0,0.4,0,0.6,0.1c0.3-0.5,0.6-0.8,1-0.8c0.3,0,0.5,0.2,0.5,0.4
				c0,0.2-0.2,0.4-0.4,0.4c-0.2,0-0.3-0.1-0.3-0.3c0,0,0-0.1,0-0.1c-0.2,0-0.4,0.2-0.5,0.5c0.3,0.2,0.6,0.6,0.6,1
				C62.9,130.8,62.3,131.2,61.5,131.2z M62.7,132.9c0-0.3-0.2-0.5-0.6-0.5h-1c-0.5,0-0.8,0.2-0.8,0.6c0,0.3,0.3,0.6,1.1,0.6
				C62.2,133.6,62.7,133.3,62.7,132.9z M62.3,130c0-0.5-0.3-0.9-0.8-0.9c-0.5,0-0.8,0.3-0.8,0.9c0,0.6,0.3,0.9,0.8,0.9
				C62,130.9,62.3,130.6,62.3,130z"/>
			<path d="M65.4,132.2h0.9v-4.7h-0.9v-0.4h2.4c1.7,0,2.2,0.7,2.2,1.6c0,0.9-0.6,1.7-2.2,1.7h-0.8v1.9h1v0.4h-2.7V132.2z
				 M67.9,129.9c1,0,1.4-0.5,1.4-1.2c0-0.7-0.3-1.1-1.4-1.1h-0.8v2.4H67.9z"/>
			<path d="M70.7,132.2h0.6v-2.9h-0.6v-0.4H72v0.9c0.2-0.6,0.7-1,1.2-1c0.4,0,0.6,0.3,0.6,0.6c0,0.3-0.2,0.5-0.5,0.5
				c-0.3,0-0.5-0.2-0.5-0.4c0-0.1,0-0.1,0-0.2c-0.4,0-0.8,0.5-0.9,0.9v2.1h0.7v0.4h-2V132.2z"/>
			<path d="M74.2,130.7c0-1.2,0.8-2,1.8-2c1.1,0,1.8,0.8,1.8,2c0,1.2-0.8,2-1.8,2C75,132.7,74.2,131.9,74.2,130.7z M77.2,130.7
				c0-1.1-0.5-1.6-1.2-1.6c-0.6,0-1.1,0.5-1.1,1.6s0.5,1.6,1.2,1.6C76.7,132.3,77.2,131.8,77.2,130.7z"/>
			<path d="M80.2,131.2c-0.2,0-0.4,0-0.5,0c-0.3,0-0.5,0.2-0.5,0.3c0,0.2,0.2,0.3,0.7,0.3h1c0.8,0,1.1,0.3,1.1,0.9
				c0,0.7-0.7,1.2-1.9,1.2c-1,0-1.6-0.4-1.6-0.9c0-0.4,0.3-0.7,0.8-0.8v0c-0.5-0.1-0.6-0.3-0.6-0.6c0-0.3,0.3-0.6,0.7-0.7
				c-0.4-0.2-0.7-0.5-0.7-1c0-0.8,0.7-1.3,1.5-1.3c0.2,0,0.4,0,0.6,0.1c0.3-0.5,0.6-0.8,1-0.8c0.3,0,0.5,0.2,0.5,0.4
				c0,0.2-0.2,0.4-0.4,0.4c-0.2,0-0.3-0.1-0.3-0.3c0,0,0-0.1,0-0.1c-0.2,0-0.4,0.2-0.5,0.5c0.3,0.2,0.6,0.6,0.6,1
				C81.7,130.8,81.1,131.2,80.2,131.2z M81.5,132.9c0-0.3-0.2-0.5-0.6-0.5h-1c-0.5,0-0.8,0.2-0.8,0.6c0,0.3,0.3,0.6,1.1,0.6
				C81,133.6,81.5,133.3,81.5,132.9z M81,130c0-0.5-0.3-0.9-0.8-0.9c-0.5,0-0.8,0.3-0.8,0.9c0,0.6,0.3,0.9,0.8,0.9
				C80.8,130.9,81,130.6,81,130z"/>
			<path d="M82.7,132.2h0.6v-2.9h-0.6v-0.4h1.3v0.9c0.2-0.6,0.7-1,1.2-1c0.4,0,0.6,0.3,0.6,0.6c0,0.3-0.2,0.5-0.5,0.5
				c-0.3,0-0.5-0.2-0.5-0.4c0-0.1,0-0.1,0-0.2c-0.4,0-0.8,0.5-0.9,0.9v2.1h0.7v0.4h-2V132.2z"/>
			<path d="M86.2,131.7c0-0.2,0.1-0.5,0.3-0.7c0.3-0.3,0.7-0.4,1.5-0.5c0.5-0.1,0.6-0.1,0.6-0.2v-0.4c0-0.6-0.3-0.8-0.8-0.8
				c-0.3,0-0.6,0.1-0.7,0.2c0.1,0.1,0.2,0.2,0.2,0.4c0,0.2-0.2,0.4-0.4,0.4c-0.3,0-0.5-0.2-0.5-0.5c0-0.6,0.7-0.9,1.5-0.9
				c0.9,0,1.3,0.4,1.3,1.1v2c0,0.3,0.1,0.3,0.3,0.3c0.1,0,0.2-0.1,0.3-0.3L90,132c-0.2,0.4-0.4,0.6-0.8,0.6c-0.3,0-0.6-0.2-0.6-0.7
				h0c-0.3,0.4-0.8,0.7-1.3,0.7C86.6,132.7,86.2,132.3,86.2,131.7z M88.5,131.4v-0.8c-0.1,0-0.2,0.1-0.4,0.1
				c-0.9,0.1-1.2,0.3-1.2,0.8c0,0.4,0.2,0.7,0.7,0.7C88,132.2,88.5,131.9,88.5,131.4z"/>
			<path d="M95.3,128.7c0.6,0,1,0.4,1,1.2v2.2H97v0.4h-1.8v-0.4h0.5v-1.9c0-0.4-0.1-0.6-0.2-0.8c-0.1-0.1-0.3-0.2-0.5-0.2
				c-0.5,0-1.1,0.6-1.1,1.2v1.7h0.5v0.4h-1.7v-0.4h0.5v-1.9c0-0.4,0-0.6-0.2-0.8c-0.1-0.1-0.3-0.2-0.5-0.2c-0.5,0-1.1,0.6-1.1,1.2
				v1.7h0.5v0.4h-1.8v-0.4h0.6v-2.9h-0.6v-0.4h1.3v1c0.5-0.8,0.9-1,1.4-1c0.6,0,0.9,0.3,1,1C94.4,129,94.8,128.7,95.3,128.7z"/>
			<path d="M97.5,131.3h0.4c0.2,0.7,0.7,1.1,1.3,1.1c0.5,0,0.7-0.2,0.7-0.6c0-0.4-0.3-0.6-1-0.8c-0.9-0.3-1.3-0.6-1.3-1.2
				s0.5-1.1,1.3-1.1c0.4,0,0.8,0.2,1,0.5l0.1-0.5h0.4v1.3H100c-0.3-0.6-0.5-1-1.1-1c-0.4,0-0.7,0.2-0.7,0.6c0,0.4,0.3,0.6,1,0.7
				c0.9,0.3,1.3,0.5,1.3,1.2c0,0.6-0.5,1.2-1.3,1.2c-0.5,0-0.9-0.2-1.2-0.5l-0.1,0.5h-0.4V131.3z"/>
			<path d="M49.1,144.4h0.9v-4.7h-0.9v-0.4h2.6v0.4h-0.9v4.7h0.9v0.4h-2.6V144.4z"/>
			<path d="M52.4,144.4h0.6v-2.9h-0.6V141h1.3v1c0.5-0.8,1-1,1.4-1c0.6,0,1,0.4,1,1.2v2.2h0.6v0.4h-1.9v-0.4h0.6v-1.9
				c0-0.4-0.1-0.6-0.2-0.8c-0.1-0.1-0.3-0.2-0.5-0.2c-0.6,0-1.1,0.6-1.1,1.2v1.7h0.6v0.4h-1.9V144.4z"/>
			<path d="M58.5,139.9v1.1h1.2v0.4h-1.2v2.4c0,0.4,0.1,0.6,0.5,0.6c0.3,0,0.5-0.2,0.6-0.7l0.3,0.1c-0.2,0.7-0.6,1-1.1,1
				c-0.6,0-1-0.4-1-1v-2.4h-0.8V141h0.8v-1L58.5,139.9z"/>
			<path d="M60.3,144.4H61v-2.9h-0.6V141h1.3v0.9c0.2-0.6,0.7-1,1.2-1c0.4,0,0.6,0.3,0.6,0.6c0,0.3-0.2,0.5-0.5,0.5
				c-0.3,0-0.5-0.2-0.5-0.4c0-0.1,0-0.1,0-0.2c-0.4,0-0.8,0.5-0.9,0.9v2.1h0.7v0.4h-2V144.4z"/>
			<path d="M63.8,143.9c0-0.2,0.1-0.5,0.3-0.7c0.3-0.3,0.7-0.4,1.5-0.5c0.5-0.1,0.6-0.1,0.6-0.2V142c0-0.6-0.3-0.8-0.8-0.8
				c-0.3,0-0.6,0.1-0.7,0.2c0.1,0.1,0.2,0.2,0.2,0.4c0,0.2-0.2,0.4-0.4,0.4c-0.3,0-0.5-0.2-0.5-0.5c0-0.6,0.7-0.9,1.5-0.9
				c0.9,0,1.3,0.4,1.3,1.1v2c0,0.3,0.1,0.3,0.3,0.3c0.1,0,0.2-0.1,0.3-0.3l0.3,0.1c-0.2,0.4-0.4,0.6-0.8,0.6c-0.3,0-0.6-0.2-0.6-0.7
				h0c-0.3,0.4-0.8,0.7-1.3,0.7C64.2,144.9,63.8,144.5,63.8,143.9z M66.2,143.6v-0.8c-0.1,0-0.2,0.1-0.4,0.1
				c-0.9,0.1-1.2,0.3-1.2,0.8c0,0.4,0.2,0.7,0.7,0.7C65.7,144.4,66.2,144,66.2,143.6z"/>
			<path d="M67.9,144.4h0.6v-2.9h-0.6V141h1.3v1c0.5-0.8,1-1,1.4-1c0.6,0,1,0.4,1,1.2v2.2h0.6v0.4h-1.9v-0.4H71v-1.9
				c0-0.4-0.1-0.6-0.2-0.8c-0.1-0.1-0.3-0.2-0.5-0.2c-0.6,0-1.1,0.6-1.1,1.2v1.7h0.6v0.4h-1.9V144.4z"/>
			<path d="M73.6,142.9c0,1,0.5,1.5,1.2,1.5c0.5,0,0.9-0.2,1.1-0.7h0.4c-0.2,0.8-0.8,1.2-1.6,1.2c-1.1,0-1.8-0.8-1.8-1.9
				c0-1.2,0.8-2,1.8-2c1.1,0,1.6,1,1.6,2H73.6z M73.6,142.6h2c-0.1-0.8-0.4-1.3-0.9-1.3C74.1,141.3,73.7,141.7,73.6,142.6z"/>
			<path d="M78.2,139.9v1.1h1.2v0.4h-1.2v2.4c0,0.4,0.1,0.6,0.5,0.6c0.3,0,0.5-0.2,0.6-0.7l0.3,0.1c-0.2,0.7-0.6,1-1.1,1
				c-0.6,0-1-0.4-1-1v-2.4h-0.8V141h0.8v-1L78.2,139.9z"/>
			<path d="M80.1,143.4h0.4c0.2,0.7,0.7,1.1,1.3,1.1c0.5,0,0.7-0.2,0.7-0.6c0-0.4-0.3-0.6-1-0.8c-0.9-0.3-1.3-0.6-1.3-1.2
				s0.5-1.1,1.3-1.1c0.4,0,0.8,0.2,1,0.5l0.1-0.5h0.4v1.3h-0.4c-0.3-0.6-0.5-1-1.1-1c-0.4,0-0.7,0.2-0.7,0.6c0,0.4,0.3,0.6,1,0.7
				c0.9,0.3,1.3,0.5,1.3,1.2c0,0.6-0.5,1.2-1.3,1.2c-0.5,0-0.9-0.2-1.2-0.5l-0.1,0.5h-0.4V143.4z"/>
		</g>
		<g>
			<g>
				<path class="st3" d="M18.4,217.5l6.8,4.6l-1,1.4l-6.8-4.6L18.4,217.5z"/>
				<path class="st3" d="M12.8,227.5l6.5-1.3l-4.8-2.3l0.7-1.6l7.4,3.5l-0.8,1.6l-6.3,1.2l4.6,2.2l-0.7,1.6l-7.4-3.5L12.8,227.5z"/>
				<path class="st3" d="M12,232.9l1.1,1.3c-0.7,0.4-1.4,1.2-1.7,2.2c-0.2,0.9,0.1,1.5,0.5,1.6c1.4,0.3,1.6-4.5,4.6-3.7
					c1.3,0.3,2.1,1.8,1.7,3.6c-0.3,1.3-1,2.2-1.9,2.8l-1-1.3c0.8-0.5,1.2-1.3,1.5-2.1c0.2-0.7,0-1.2-0.5-1.3
					c-1.2-0.3-1.6,4.4-4.5,3.7c-1.4-0.4-2.3-1.7-1.7-3.8C10.2,234.4,11,233.4,12,232.9z"/>
				<path class="st3" d="M8.5,244.5l6.6,0.5l0.2-2.4l1.5,0.1l-0.5,6.5l-1.5-0.1l0.2-2.4l-6.6-0.5L8.5,244.5z"/>
				<path class="st3" d="M8.3,252.2l8.2-0.4l0.1,1.7l-8.2,0.4L8.3,252.2z"/>
				<path class="st3" d="M9.1,259.8l6.5-1.2l-0.4-2.3l1.5-0.3l1.2,6.4l-1.5,0.3l-0.4-2.3l-6.5,1.2L9.1,259.8z"/>
				<path class="st3" d="M13.9,266.3l4.6-1.8l0.6,1.6l-4.5,1.8c-1.1,0.4-1.5,1.3-1.1,2.5c0.5,1.2,1.4,1.5,2.5,1.1l4.5-1.8l0.7,1.7
					l-4.6,1.8c-1.9,0.7-3.6,0.1-4.5-2.2C11.2,268.7,12,267,13.9,266.3z"/>
				<path class="st3" d="M16.6,279.7l5.6-3.6l-1.3-2l1.3-0.8l3.5,5.5l-1.3,0.8l-1.3-2l-5.6,3.6L16.6,279.7z"/>
				<path class="st3" d="M21,286l6.3-5.3l1.1,1.3l-6.3,5.3L21,286z"/>
				<path class="st3" d="M27.3,287.1c1.6-1.9,4.1-2,6-0.4c1.9,1.6,2,4.1,0.4,6c-1.6,1.9-4.1,2-6,0.4C25.8,291.5,25.6,289,27.3,287.1
					z M32.3,291.5c1-1.2,1-2.7-0.1-3.7c-1.1-1-2.6-0.8-3.6,0.4c-1,1.1-1,2.7,0.1,3.7C29.8,292.9,31.3,292.7,32.3,291.5z"/>
				<path class="st3" d="M39.3,300.8l-0.8-6.6l-2.6,4.7l-1.5-0.8l4-7.1l1.6,0.9l0.8,6.3l2.5-4.5l1.5,0.8l-4,7.1L39.3,300.8z"/>
				<path class="st3" d="M50.1,305.1l-0.1-1.5l-3.3-1.1l-0.9,1.2l-1.9-0.6l5.5-6.8l2.1,0.7l0.5,8.7L50.1,305.1z M49.9,298.2l-2.3,3
					l2.4,0.8L49.9,298.2z"/>
				<path class="st3" d="M55.2,306.2l1.1-8.1l1.7,0.2l-0.9,6.6l3.4,0.5l-0.2,1.5L55.2,306.2z"/>
			</g>
		</g>
		<g>
			<g>
				<path class="st3" d="M294.4,303.9l-2.9-7.7l3-1.1c2.4-0.9,4.6,0,5.5,2.3c0.9,2.3-0.2,4.5-2.6,5.4L294.4,303.9z M298.4,298
					c-0.5-1.3-1.7-2.1-3.3-1.5l-1.4,0.5l1.8,4.8l1.4-0.5C298.4,300.8,298.9,299.3,298.4,298z"/>
				<path class="st3" d="M304.8,299.4l-4-7.1l1.5-0.9l4,7.1L304.8,299.4z"/>
				<path class="st3" d="M307,293.5c-1.6-2-1.1-4.5,0.8-6c1.3-1.1,2.7-1,3.8-0.7l-0.6,1.5c-0.7-0.2-1.5-0.2-2.2,0.4
					c-1.2,0.9-1.3,2.5-0.3,3.7c1,1.2,2.5,1.4,3.7,0.5c0.6-0.5,0.9-1.1,1-1.6l-0.6-0.8l-1.7,1.3l-0.9-1.2l3-2.4l2,2.5
					c-0.1,1.2-0.6,2.4-1.8,3.4C311.2,295.6,308.6,295.5,307,293.5z"/>
				<path class="st3" d="M318.4,289l-6-5.5l1.2-1.3l6,5.5L318.4,289z"/>
				<path class="st3" d="M323.3,283l-5.5-3.7l-1.3,2l-1.3-0.9l3.7-5.4l1.3,0.9l-1.3,2l5.5,3.7L323.3,283z"/>
				<path class="st3" d="M329.4,272l-1.5-0.1l-1.5,3.2l1,1l-0.8,1.8l-6.1-6.3l0.9-2l8.7,0.5L329.4,272z M322.6,271.3l2.7,2.6
					l1.1-2.3L322.6,271.3z"/>
				<path class="st3" d="M331.2,267l-7.9-2l0.4-1.7l6.4,1.6l0.8-3.4l1.5,0.4L331.2,267z"/>
			</g>
		</g>
		<g>
			<path class="st3" d="M18.1,131.1l-8.2,0.2l0-1.7l8.2-0.2L18.1,131.1z"/>
			<path class="st3" d="M18.8,120.8l-5.8,3.2l5.3,0.7l-0.2,1.7l-8.1-1.1l0.2-1.8l5.6-3.1l-5.1-0.7l0.2-1.7l8.1,1.1L18.8,120.8z"/>
			<path class="st3" d="M20.3,114.5l-6.3-2.1l-0.8,2.3l-1.5-0.5l2.1-6.2l1.5,0.5l-0.8,2.3l6.3,2.1L20.3,114.5z"/>
			<path class="st3" d="M22.7,108.3l-7.2-4l2.8-5.1l1.3,0.7l-2,3.5l1.5,0.8l1.9-3.5l1.3,0.7l-1.9,3.5l1.6,0.9l2-3.5l1.3,0.7
				L22.7,108.3z"/>
			<path class="st3" d="M30,97.4l-3.3-0.6l-0.8,1l2.2,1.9l-1.1,1.3l-6.3-5.2l2.4-2.9c1.1-1.3,2.6-1.4,3.8-0.4
				c1.1,0.9,1.1,2.1,0.7,2.9l3.6,0.6L30,97.4z M25.8,93.7c-0.5-0.4-1.2-0.3-1.6,0.2l-1.2,1.4l1.7,1.4l1.2-1.4
				C26.4,94.9,26.4,94.2,25.8,93.7z"/>
			<path class="st3" d="M37.5,90.5l-6.4-1.7l3.3,4.1L33.1,94L28,87.7l1.4-1.1l6.2,1.6l-3.2-4l1.4-1.1l5.1,6.4L37.5,90.5z"/>
			<path class="st3" d="M46.3,85.3l-1.1-1l-3.1,1.6l0.2,1.5l-1.8,0.9l-0.9-8.7l1.9-1l6.5,5.9L46.3,85.3z M41.4,80.6l0.5,3.7l2.3-1.2
				L41.4,80.6z"/>
			<path class="st3" d="M50.1,83.8L47.7,76l1.7-0.5l1.9,6.4l3.3-1l0.4,1.5L50.1,83.8z"/>
		</g>
		<g>
			<path class="st3" d="M139.3,31.9l-5.2-6.4l3.3-2.7c1.2-1,2.5-0.7,3.1,0.1c0.6,0.8,0.6,1.7,0.1,2.3c0.8-0.5,1.8-0.2,2.5,0.6
				c0.8,1,0.8,2.2-0.4,3.2L139.3,31.9z M139.5,24.4c-0.3-0.4-0.8-0.4-1.3-0.1l-1.7,1.4l1.1,1.3l1.7-1.4
				C139.7,25.2,139.8,24.8,139.5,24.4z M141.7,26.8c-0.3-0.4-0.9-0.5-1.4-0.1l-1.8,1.4l1.2,1.4l1.8-1.4
				C142,27.8,142.1,27.3,141.7,26.8z"/>
			<path class="st3" d="M150.9,24l-2.8-1.8l-1.1,0.6l1.4,2.6l-1.5,0.8L143,19l3.4-1.8c1.5-0.8,3-0.3,3.7,1c0.7,1.3,0.2,2.4-0.5,3
				l3.1,1.9L150.9,24z M148.5,19c-0.3-0.6-1-0.7-1.6-0.4l-1.6,0.9l1,2l1.6-0.9C148.5,20.3,148.8,19.7,148.5,19z"/>
			<path class="st3" d="M160.5,20.5l-0.9-1.2l-3.4,1l-0.1,1.5l-1.9,0.6l0.7-8.7l2.1-0.6l5.3,6.9L160.5,20.5z M156.5,15l-0.2,3.7
				l2.4-0.7L156.5,15z"/>
			<path class="st3" d="M170.1,19.2l-4.3-5l0.4,5.3l-1.7,0.1l-0.7-8.2l1.8-0.1l4.2,4.8l-0.4-5.1l1.7-0.1l0.7,8.2L170.1,19.2z"/>
			<path class="st3" d="M174.7,19.1l1-8.1l3.2,0.4c2.5,0.3,4.1,2.2,3.8,4.6c-0.3,2.5-2.3,3.8-4.8,3.5L174.7,19.1z M181,15.8
				c0.2-1.4-0.5-2.6-2.2-2.9l-1.5-0.2l-0.7,5.1l1.5,0.2C179.7,18.2,180.8,17.2,181,15.8z"/>
			<path class="st3" d="M184.8,20.8l2.3-7.8l1.7,0.5l-2.3,7.8L184.8,20.8z"/>
			<path class="st3" d="M194.4,24.6l-1.2-6.5l-2.3,4.8l-1.6-0.7l3.5-7.4l1.6,0.8l1.2,6.3l2.2-4.6l1.6,0.7l-3.5,7.4L194.4,24.6z"/>
			<path class="st3" d="M200.6,23.4c1.6-2.1,4.1-2.2,6-0.7c1.3,1,1.7,2.4,1.6,3.5l-1.6-0.3c0.1-0.7-0.2-1.5-0.9-2
				c-1.2-0.9-2.7-0.7-3.7,0.6c-0.9,1.2-0.8,2.8,0.4,3.7c0.6,0.4,1.3,0.6,1.8,0.6l0.6-0.8l-1.7-1.3l0.9-1.2l3.1,2.4l-1.9,2.5
				c-1.2,0.2-2.5,0-3.7-0.9C199.6,28,199.1,25.5,200.6,23.4z"/>
		</g>
		<g>
			<path class="st3" d="M288.1,82l0.9-5.8l-3.1,5.5l-0.8-0.1l-1.4-6.2l-0.9,5.8L281,81l1.2-8.1l2.4,0.4l1.2,5.3l2.7-4.8l2.4,0.4
				l-1.2,8.1L288.1,82z"/>
			<path class="st3" d="M297.8,85.2l0-1.5l-3.3-1.3l-1,1.1l-1.8-0.7l5.9-6.5l2,0.8l0,8.8L297.8,85.2z M298.1,78.4l-2.5,2.8l2.4,0.9
				L298.1,78.4z"/>
			<path class="st3" d="M305.4,89.4l0.2-3.3l-1.1-0.7l-1.6,2.4l-1.5-0.9l4.4-6.9l3.2,2.1c1.4,0.9,1.7,2.4,0.9,3.7
				c-0.8,1.2-2,1.4-2.8,1.1l-0.1,3.6L305.4,89.4z M308.5,84.9c0.4-0.6,0.1-1.2-0.4-1.6l-1.5-1l-1.2,1.9l1.5,1
				C307.5,85.5,308.2,85.4,308.5,84.9z"/>
			<path class="st3" d="M312.6,95.5l0.5-4.1l-1,0.1l-1.7,1.8l-1.3-1.2l5.6-5.9l1.3,1.2l-2.5,2.6l4.6-0.7l1.6,1.5l-5,0.5l-0.5,5.5
				L312.6,95.5z"/>
			<path class="st3" d="M315.5,98.7l6.6-4.8l3.4,4.7l-1.2,0.9l-2.4-3.3l-1.4,1l2.3,3.2l-1.2,0.9l-2.3-3.2l-1.5,1.1l2.4,3.3l-1.2,0.9
				L315.5,98.7z"/>
			<path class="st3" d="M321.2,107.4l6-2.9l-1-2.2l1.4-0.7l2.8,5.9l-1.4,0.7l-1-2.1l-6,2.9L321.2,107.4z"/>
			<path class="st3" d="M323.8,113.6l7.8-2.5l0.5,1.7l-7.8,2.5L323.8,113.6z"/>
			<path class="st3" d="M326.1,123.7l4.7-4.7l-5.3,0.8l-0.3-1.7l8.1-1.3l0.3,1.8l-4.5,4.5l5.1-0.8l0.3,1.7l-8.1,1.3L326.1,123.7z"/>
			<path class="st3" d="M330.6,128.1c2.6,0.1,4.1,2.2,4,4.6c-0.1,1.7-1,2.7-2,3.3l-0.7-1.5c0.6-0.3,1.1-1,1.2-1.9
				c0.1-1.5-1-2.6-2.5-2.7s-2.7,0.9-2.8,2.4c0,0.7,0.2,1.4,0.5,1.8l1,0.1l0.1-2.2l1.5,0.1l-0.2,3.9l-3.1-0.2
				c-0.9-0.9-1.4-2.1-1.3-3.6C326.2,129.8,328,128,330.6,128.1z"/>
		</g>
		<g>
			<g>
				<path class="st3" d="M137.7,355.1l5-6.5l1.4,1.1l-5,6.5L137.7,355.1z"/>
				<path class="st3" d="M147.5,361.3l-0.9-6.5l-2.5,4.7l-1.5-0.8l3.9-7.2l1.6,0.8l0.9,6.3l2.4-4.5l1.5,0.8l-3.9,7.2L147.5,361.3z"
					/>
				<path class="st3" d="M155.2,364.4l-0.7-8.7l1.9,0.6l0.4,6.7l4-5.4l1.9,0.6l-5.3,7L155.2,364.4z"/>
				<path class="st3" d="M163.7,366.4l0.8-8.1l5.8,0.6l-0.1,1.5l-4-0.4l-0.2,1.7l3.9,0.4l-0.1,1.5l-3.9-0.4l-0.2,1.9l4,0.4l-0.1,1.5
					L163.7,366.4z"/>
				<path class="st3" d="M172.8,365.9l0.8-1.4c0.6,0.6,1.6,1,2.7,0.9c1-0.1,1.4-0.5,1.3-1c-0.1-1.4-4.7,0-5-3.1
					c-0.1-1.4,1-2.6,2.9-2.7c1.3-0.1,2.4,0.2,3.3,0.9l-0.9,1.4c-0.7-0.6-1.6-0.8-2.4-0.7c-0.7,0.1-1.1,0.4-1.1,0.9
					c0.1,1.3,4.7,0,5,3.1c0.1,1.5-0.9,2.7-3.1,2.9C174.8,367,173.7,366.6,172.8,365.9z"/>
				<path class="st3" d="M185,365.3l-1.7-6.4l-2.3,0.6l-0.4-1.5l6.3-1.7l0.4,1.5l-2.3,0.6l1.7,6.4L185,365.3z"/>
				<path class="st3" d="M190.2,359.6c-1.1-2.2-0.2-4.6,2-5.7c2.2-1.1,4.6-0.3,5.7,1.9c1.1,2.2,0.2,4.6-2,5.7
					C193.7,362.6,191.3,361.8,190.2,359.6z M196.3,356.7c-0.7-1.4-2-2-3.4-1.3c-1.4,0.7-1.7,2.1-1.1,3.5c0.7,1.4,2,2,3.4,1.3
					C196.6,359.5,197,358,196.3,356.7z"/>
				<path class="st3" d="M206.7,354.5l-3-1.3l-1,0.8l1.8,2.3l-1.4,1.1l-5-6.5l3-2.3c1.3-1,2.9-0.8,3.8,0.4c0.9,1.1,0.6,2.3,0.1,3
					l3.4,1.3L206.7,354.5z M203.5,350c-0.4-0.5-1.1-0.5-1.6-0.1l-1.5,1.1l1.4,1.7l1.5-1.1C203.7,351.2,203.9,350.5,203.5,350z"/>
			</g>
		</g>
	</g>
</g>
</svg>
