<?xml version="1.0" encoding="utf-8"?>
<!-- Generator: Adobe Illustrator 16.0.0, SVG Export Plug-In . SVG Version: 6.00 Build 0)  -->
<!DOCTYPE svg PUBLIC "-//W3C//DTD SVG 1.1//EN" "http://www.w3.org/Graphics/SVG/1.1/DTD/svg11.dtd">
<svg version="1.1" id="Layer_1" xmlns="http://www.w3.org/2000/svg" xmlns:xlink="http://www.w3.org/1999/xlink" x="0px" y="0px"
	 width="74.056px" height="21.047px" viewBox="0 0 74.056 21.047" enable-background="new 0 0 74.056 21.047" xml:space="preserve">
<g>
	<path fill="#FFFFFF" d="M5.15,21.047L0,14.697l3.343-2.71c1.209-0.98,2.453-0.711,3.141,0.137c0.641,0.789,0.585,1.734,0.087,2.344
		c0.77-0.451,1.836-0.227,2.477,0.564c0.779,0.961,0.77,2.232-0.449,3.221L5.15,21.047z M5.295,13.481
		c-0.316-0.391-0.825-0.436-1.282-0.064l-1.694,1.374l1.08,1.333l1.695-1.375C5.551,14.378,5.627,13.89,5.295,13.481z M7.512,15.96
		c-0.324-0.399-0.873-0.492-1.396-0.067l-1.752,1.421l1.174,1.447l1.752-1.421C7.794,16.931,7.883,16.417,7.512,15.96z"/>
	<path fill="#FFFFFF" d="M16.752,13.159l-2.783-1.814l-1.127,0.598l1.363,2.568l-1.538,0.816L8.83,8.101l3.381-1.794
		c1.506-0.8,2.961-0.309,3.674,1.035c0.673,1.268,0.229,2.393-0.453,2.991l3.097,1.884L16.752,13.159z M14.297,8.17
		c-0.316-0.596-0.978-0.717-1.584-0.395l-1.625,0.863l1.035,1.95l1.625-0.863C14.355,9.403,14.625,8.788,14.297,8.17z"/>
	<path fill="#FFFFFF" d="M26.357,9.631L25.469,8.45l-3.36,1l-0.099,1.474l-1.892,0.563l0.688-8.735l2.092-0.622l5.35,6.939
		L26.357,9.631z M22.349,4.109L22.13,7.845l2.444-0.727L22.349,4.109z"/>
	<path fill="#FFFFFF" d="M35.94,8.289l-4.317-5.001l0.432,5.317l-1.736,0.141l-0.662-8.152l1.785-0.145l4.192,4.814l-0.416-5.121
		L36.953,0l0.662,8.152L35.94,8.289z"/>
	<path fill="#FFFFFF" d="M40.545,8.23l1.048-8.111l3.198,0.414c2.541,0.328,4.096,2.173,3.781,4.606
		c-0.316,2.457-2.287,3.834-4.817,3.507L40.545,8.23z M46.81,4.911c0.184-1.423-0.549-2.643-2.202-2.856l-1.484-0.192l-0.655,5.071
		l1.472,0.19C45.545,7.332,46.631,6.297,46.81,4.911z"/>
	<path fill="#FFFFFF" d="M50.572,9.98l2.3-7.847l1.671,0.489l-2.301,7.847L50.572,9.98z"/>
	<path fill="#FFFFFF" d="M60.242,13.764L59.01,7.271l-2.29,4.819l-1.573-0.747l3.512-7.389l1.617,0.769l1.217,6.269l2.207-4.642
		l1.572,0.748l-3.512,7.389L60.242,13.764z"/>
	<path fill="#FFFFFF" d="M66.439,12.551c1.576-2.051,4.135-2.157,6.039-0.691c1.342,1.031,1.664,2.362,1.559,3.504l-1.615-0.252
		c0.051-0.689-0.205-1.504-0.885-2.027c-1.186-0.912-2.736-0.666-3.68,0.559c-0.941,1.225-0.781,2.786,0.404,3.699
		c0.574,0.44,1.303,0.6,1.752,0.558l0.598-0.777L68.9,15.807l0.928-1.205l3.092,2.377l-1.914,2.488c-1.23,0.23-2.52-0.004-3.686-0.9
		C65.414,17.101,64.869,14.592,66.439,12.551z"/>
</g>
</svg>
