<?xml version="1.0" encoding="utf-8"?>
<!-- Generator: Adobe Illustrator 16.0.0, SVG Export Plug-In . SVG Version: 6.00 Build 0)  -->
<!DOCTYPE svg PUBLIC "-//W3C//DTD SVG 1.1//EN" "http://www.w3.org/Graphics/SVG/1.1/DTD/svg11.dtd">
<svg version="1.1" id="Layer_1" xmlns="http://www.w3.org/2000/svg" xmlns:xlink="http://www.w3.org/1999/xlink" x="0px" y="0px"
	 width="54.654px" height="24.725px" viewBox="0 0 54.654 24.725" enable-background="new 0 0 54.654 24.725" xml:space="preserve">
<g>
	<defs>
		<rect id="SVGID_1_" x="0" y="0" width="54.654" height="24.725"/>
	</defs>
	<clipPath id="SVGID_2_">
		<use xlink:href="#SVGID_1_"  overflow="visible"/>
	</clipPath>
	<path clip-path="url(#SVGID_2_)" fill="#FF9900" d="M54.654,24.634V14.024h-2.071v6.498l-4.203-6.498h-1.848v10.609h2.072v-6.512
		l4.202,6.512H54.654L54.654,24.634z M43.689,20.283v-1.549H39.68v1.728h1.95v0.403c0,0.551-0.134,1.028-0.477,1.415
		c-0.343,0.373-0.849,0.596-1.475,0.596c-0.566,0-1.028-0.208-1.326-0.551c-0.403-0.447-0.507-0.954-0.507-2.995
		c0-2.042,0.104-2.534,0.507-2.979c0.298-0.345,0.76-0.566,1.326-0.566c1.058,0,1.669,0.551,1.905,1.55h2.087
		c-0.281-1.789-1.533-3.396-3.992-3.396c-1.192,0-2.116,0.417-2.861,1.162c-1.073,1.071-1.044,2.398-1.044,4.231
		s-0.029,3.159,1.044,4.232c0.745,0.745,1.698,1.162,2.861,1.162c1.132,0,2.146-0.327,2.994-1.207
		C43.42,22.742,43.689,21.818,43.689,20.283 M32.707,14.024h-2.069v10.609h2.069V14.024z M27.836,21.504
		c0-0.938-0.253-1.713-0.817-2.25c-0.447-0.417-1.059-0.685-2.027-0.817l-1.252-0.181c-0.432-0.06-0.775-0.224-0.984-0.418
		c-0.223-0.208-0.312-0.489-0.312-0.76c0-0.729,0.536-1.341,1.639-1.341c0.7,0,1.505,0.09,2.176,0.729l1.312-1.296
		c-0.909-0.879-1.967-1.235-3.428-1.235c-2.295,0-3.695,1.324-3.695,3.219c0,0.894,0.253,1.58,0.76,2.086
		c0.478,0.462,1.147,0.745,2.057,0.88l1.281,0.178c0.492,0.075,0.73,0.181,0.939,0.373c0.223,0.209,0.327,0.522,0.327,0.896
		c0,0.85-0.655,1.311-1.877,1.311c-0.984,0-1.894-0.223-2.563-0.894l-1.342,1.342c1.043,1.058,2.265,1.4,3.875,1.4
		C26.122,24.724,27.836,23.562,27.836,21.504 M17.565,24.634v-1.848h-4.166v-2.578h4.188V18.36h-4.188v-2.489h4.166v-1.848h-6.238
		v10.609L17.565,24.634L17.565,24.634z M6.293,19.285c0,1.609-0.06,2.369-0.447,2.846c-0.357,0.435-0.834,0.656-1.55,0.656H2.731
		v-6.915h1.564c0.716,0,1.192,0.226,1.55,0.656C6.233,17.004,6.293,17.675,6.293,19.285 M8.364,19.285
		c0-1.595,0.119-3.055-1.073-4.247c-0.7-0.701-1.699-1.014-2.802-1.014h-3.83v10.609h3.83c1.103,0,2.102-0.312,2.802-1.013
		C8.483,22.429,8.364,20.879,8.364,19.285"/>
</g>
<g>
	<defs>
		<rect id="SVGID_3_" x="0" y="0" width="54.654" height="24.725"/>
	</defs>
	<clipPath id="SVGID_4_">
		<use xlink:href="#SVGID_3_"  overflow="visible"/>
	</clipPath>
	<path clip-path="url(#SVGID_4_)" fill="#FF9900" d="M52.059,3.338c0,0.819-0.598,1.401-1.506,1.401h-1.952V1.938h1.952
		C51.462,1.938,52.059,2.519,52.059,3.338 M54.562,10.7l-2.369-4.575c1.027-0.373,1.937-1.297,1.937-2.787
		c0-1.773-1.279-3.249-3.44-3.249h-4.158V10.7h2.071V6.467h1.489l2.071,4.233H54.562z M41.565,5.395c0,2.042-0.119,2.534-0.522,2.98
		c-0.298,0.343-0.76,0.566-1.326,0.566c-0.564,0-1.043-0.224-1.341-0.566c-0.401-0.446-0.507-0.938-0.507-2.98
		c0-2.041,0.104-2.533,0.507-2.98c0.298-0.343,0.775-0.565,1.341-0.565c0.566,0,1.028,0.223,1.326,0.565
		C41.446,2.861,41.565,3.354,41.565,5.395 M43.636,5.395c0-1.833,0.016-3.159-1.059-4.232C41.833,0.417,40.924,0,39.717,0
		s-2.131,0.417-2.876,1.162c-1.071,1.073-1.044,2.399-1.044,4.232s-0.027,3.16,1.044,4.232c0.745,0.745,1.669,1.162,2.876,1.162
		s2.116-0.417,2.861-1.162C43.651,8.554,43.636,7.228,43.636,5.395 M34.431,10.7V8.853h-3.977V0.089h-2.071V10.7H34.431z
		 M26.179,0.089h-2.25l-1.952,4.277l-1.982-4.277h-2.251l3.189,6.26V10.7h2.057V6.348L26.179,0.089z M14.265,7.078h-2.639
		l1.343-3.859L14.265,7.078z M17.603,10.7L13.729,0.089h-1.625L8.245,10.7h2.16l0.641-1.878h3.771l0.625,1.878H17.603z M7.615,1.938
		v-1.85H0v1.849h2.772V10.7h2.07V1.938H7.615z"/>
</g>
</svg>
